<?xml version="1.0" encoding="utf-8"?>
<!-- Generator: Adobe Illustrator 22.1.0, SVG Export Plug-In . SVG Version: 6.00 Build 0)  -->
<svg version="1.1" id="Layer_1" xmlns="http://www.w3.org/2000/svg" xmlns:xlink="http://www.w3.org/1999/xlink" x="0px" y="0px"
	 viewBox="0 0 433.7 250" style="enable-background:new 0 0 433.7 250;" xml:space="preserve">
<style type="text/css">
	.st0{fill:#B50029;}
	.st1{fill:#FF0029;}
	.st2{fill:#FFFFFF;}
	.st3{enable-background:new    ;}
</style>
<title>Asset 16</title>
<g id="Layer_2_1_">
	<g id="Layer_4">
		<path class="st0" d="M125,0h183.7c69,0,125,56,125,125l0,0c0,69-56,125-125,125H125C56,250,0,194,0,125l0,0C0,56,56,0,125,0z"/>
		<path class="st1" d="M124.1,0h185.5C372.2,0,423,50.8,423,113.4l0,0c0,62.6-50.8,113.4-113.4,113.4H124.1
			c-62.6,0-113.4-50.8-113.4-113.4l0,0C10.6,50.8,61.4,0,124.1,0z"/>
		<path class="st2" d="M62.2,65.1c10.2,0,15.1,10.4,10.9,18.5c-5,9.8-7.4,20.8-6.8,31.9c0.5,11,3.3,21.7,7,32
			c1.7,4.7,2.1,7.9-1.4,12c-2.4,2.8-6,4.4-9.7,4.4c-16.4,0-18.5-24.4-19.1-35.7c-0.8-13.8,0.1-27.7,2.5-41.3
			C47.3,77.6,50.2,65.1,62.2,65.1z"/>
		<path class="st2" d="M79.5,49.4L79.5,49.4c-7.1,0-12.8-5.7-12.8-12.8l0,0c0-7.1,5.7-12.8,12.8-12.8l0,0c7.1,0,12.8,5.7,12.8,12.8
			l0,0C92.3,43.7,86.5,49.4,79.5,49.4z"/>
		<g class="st3">
			<path class="st2" d="M166.3,165c0,2.6-0.8,4.5-2.5,5.7s-3.5,1.9-5.6,1.9c-2,0-3.9-0.6-5.6-1.9s-2.5-3.2-2.5-5.7V95.5
				c0-2.6,0.8-4.5,2.5-5.8c1.7-1.3,3.5-1.9,5.6-1.9c2,0,3.9,0.6,5.6,1.9c1.7,1.3,2.5,3.2,2.5,5.8V165z"/>
			<path class="st2" d="M240.3,145.2c0,8.5-3.1,15.2-9.2,20.1c-6.1,4.9-14.1,7.3-23.7,7.3c-4.5,0-8.5-0.6-12.2-1.8
				c-3.7-1.2-6.9-2.8-9.6-4.9c-2.7-2.1-4.8-4.5-6.4-7.2c-1.5-2.7-2.5-5.5-2.8-8.3c-0.3-2.8,0.5-5,2.3-6.6c1.8-1.5,3.8-2.3,6-2.3
				c2.7,0,4.6,0.6,5.8,1.8c1.1,1.2,1.9,3,2.1,5.5c0.3,2.3,1.7,4.4,4.3,6.2c2.6,1.8,6.1,2.7,10.5,2.7c4.1,0,7.9-1,11.2-3.1
				c3.3-2,5-4.9,5-8.7c0-2-0.6-3.7-1.7-5.1c-1.2-1.3-2.6-2.5-4.3-3.4c-1.7-0.9-3.6-1.7-5.7-2.2c-2-0.6-3.9-0.9-5.6-1
				c-3.2-0.4-6.4-1-9.9-1.9c-3.4-0.9-6.5-2.1-9.4-3.8c-2.8-1.7-5.1-4-6.9-6.8c-1.7-2.8-2.5-6.4-2.4-10.8c0.1-3.2,1-6.2,2.7-9.1
				c1.7-2.8,3.8-5.3,6.5-7.3c2.6-2,5.7-3.7,9.2-4.9c3.5-1.2,7.1-1.8,10.9-1.8c6.4,0,12.3,1.1,17.7,3.4c5.3,2.2,9.3,5.9,11.8,11
				c1.3,2.6,1.5,4.8,0.4,6.9c-1,2-2.4,3.4-4.1,4.2c-2.3,1.1-4.4,1.3-6.4,0.6c-1.9-0.7-3.5-2.1-4.8-4.2c-1.2-2.2-3.1-3.8-5.8-5
				c-2.7-1.2-5.6-1.7-8.7-1.7c-2.8,0-5.6,0.7-8.2,2c-2.6,1.3-4.1,3.3-4.3,5.9c-0.1,1.7,0.3,3.1,1.3,4.3s2.3,2.1,3.9,2.8
				c1.6,0.7,3.4,1.2,5.4,1.4c1.9,0.3,3.7,0.5,5.4,0.8c3.5,0.4,7,1.1,10.5,2.1c3.5,1,6.6,2.5,9.5,4.3c2.8,1.9,5.2,4.3,7,7.3
				C239.3,137,240.3,140.7,240.3,145.2z"/>
			<path class="st2" d="M238.2,73.1c0,2.2-0.7,4-2,5.5c-1.3,1.5-3.4,2.2-6.1,2.2H184c-2.7,0-4.7-0.7-6.1-2.2c-1.3-1.5-2-3.3-2-5.5
				c0-1.9,0.7-3.7,2-5.4c1.3-1.7,3.4-2.5,6.1-2.5h46.1c2.7,0,4.7,0.8,6.1,2.5C237.5,69.4,238.2,71.2,238.2,73.1z"/>
			<path class="st2" d="M237.2,41.2c0,2.7-0.9,4.7-2.7,6c-1.8,1.3-3.6,1.9-5.6,1.9c-2,0-3.9-0.6-5.5-1.9c-1.6-1.3-2.4-3.3-2.4-6
				V30.7c0-2.7,0.8-4.7,2.5-6c1.7-1.3,3.5-1.9,5.6-1.9c2,0,3.8,0.6,5.5,1.9c1.7,1.3,2.6,3.3,2.6,6V41.2z"/>
			<path class="st2" d="M317,140.2c0,5.8-0.8,10.7-2.4,14.7c-1.6,4-3.7,7.3-6.3,9.9c-2.6,2.6-5.6,4.4-9.1,5.6s-7.1,1.8-10.8,1.8
				c-7.2,0-13.5-2.3-19-7c-1.1,1.8-2.7,3.4-4.8,4.7c-2.2,1.3-4.6,1.9-7.3,1.9c-3.6,0-6.7-1.1-9.4-3.4c-2.6-2.3-3.9-4.9-3.9-8
				c0-2.3,0.8-4.4,2.3-6.4c1.5-2,3.5-3.4,6-4.3V95.9c0-2.6,0.8-4.5,2.5-5.8c1.7-1.3,3.5-1.9,5.6-1.9c2,0,3.9,0.6,5.6,1.9
				c1.7,1.3,2.5,3.2,2.5,5.8V141c0,2.8,0.5,5.3,1.6,7.3c1.1,2.1,2.5,3.8,4.2,5.2c1.7,1.4,3.6,2.5,5.6,3.3c2,0.8,4,1.1,6.1,1.1
				c5.5,0,9.4-1.6,11.5-4.8c2.2-3.2,3.3-7.9,3.3-13.9V95.9c0-2.6,0.8-4.5,2.5-5.8c1.7-1.3,3.5-1.9,5.6-1.9c2,0,3.8,0.6,5.5,1.9
				c1.7,1.3,2.6,3.2,2.6,5.8V140.2z"/>
		</g>
	</g>
</g>
</svg>
