<?xml version="1.0" encoding="utf-8"?>
<!-- Generator: Adobe Illustrator 22.1.0, SVG Export Plug-In . SVG Version: 6.00 Build 0)  -->
<svg version="1.1" id="Layer_1" xmlns="http://www.w3.org/2000/svg" xmlns:xlink="http://www.w3.org/1999/xlink" x="0px" y="0px"
	 viewBox="0 0 342 342" style="enable-background:new 0 0 342 342;" xml:space="preserve">
<style type="text/css">
	.st0{fill:#D3EDFF;stroke:#FFFFFF;stroke-width:31;stroke-miterlimit:10;}
	.st1{fill:none;stroke:#FFFFFF;stroke-width:15;stroke-linecap:round;stroke-miterlimit:10;}
	.st2{fill:none;}
	.st3{enable-background:new    ;}
</style>
<title>Asset 58</title>
<g id="Layer_2_1_">
	<g id="_2">
		<circle class="st0" cx="171" cy="171" r="155.5"/>
		<path class="st1" d="M205.5,49.3c0,0-127.9-23.1-159.9,112"/>
	</g>
</g>
<rect x="107" y="144.3" class="st2" width="150" height="74"/>
<g class="st3">
	<path d="M139.2,187.8c0,1.1-0.4,2-1.1,2.6s-1.6,0.9-2.5,0.9c-0.9,0-1.8-0.3-2.5-0.9s-1.1-1.4-1.1-2.6v-19.6c0-2.8-0.5-4.9-1.5-6.3
		c-1-1.5-2.7-2.2-5.3-2.2c-0.9,0-1.8,0.2-2.7,0.6c-0.9,0.4-1.8,1-2.6,1.8c-0.8,0.8-1.4,1.7-1.9,2.7s-0.7,2.2-0.7,3.5v19.5
		c0,1.1-0.4,2-1.1,2.6s-1.6,0.9-2.5,0.9c-0.9,0-1.7-0.3-2.5-0.9c-0.8-0.6-1.2-1.4-1.2-2.6v-31.7c0-1.1,0.4-2,1.2-2.5
		s1.7-0.9,2.8-0.9c1,0,1.9,0.3,2.7,0.9c0.8,0.6,1.2,1.4,1.2,2.5v1.1c1-1.3,2.3-2.3,3.9-2.9c1.6-0.7,3.2-1,4.8-1
		c1.6,0,3.3,0.3,4.8,0.8c1.6,0.5,3,1.3,4.2,2.5c1.2,1.1,2.1,2.6,2.9,4.5c0.7,1.8,1.1,4.1,1.1,6.7V187.8z"/>
	<path d="M139.2,204.5c0,1.2-0.4,2.1-1.2,2.7c-0.8,0.6-1.6,0.9-2.5,0.9c-0.9,0-1.8-0.3-2.5-0.9s-1.1-1.5-1.1-2.7v-4h-0.9
		c-1.2,0-2.1-0.3-2.8-1c-0.6-0.7-0.9-1.5-0.9-2.5c0-0.9,0.3-1.7,0.9-2.5c0.6-0.7,1.5-1.1,2.8-1.1h4.6c1.2,0,2.1,0.4,2.8,1.1
		c0.6,0.7,0.9,1.6,0.9,2.5V204.5z"/>
	<path d="M174.2,187.7c0,1.2-0.4,2.1-1.1,2.7s-1.6,0.9-2.5,0.9c-0.9,0-1.8-0.3-2.5-0.9s-1.1-1.5-1.1-2.7v-20.3
		c0-2.5-0.7-4.5-2.2-5.9c-1.5-1.4-3.3-2.2-5.4-2.2c-1.8,0-3.2,0.4-4.4,1.1c-1.2,0.7-2,1.6-2.5,2.7c-0.1,0.2,0.1,0.5,0.3,0.9
		c0.3,0.4,0.6,0.7,1,1.1c0.4,0.4,0.7,0.7,1.1,1.1c0.3,0.4,0.5,0.7,0.5,1c0,0.2-0.2,0.5-0.5,0.9c-0.3,0.4-0.7,0.8-1.1,1.1
		c-0.4,0.4-0.7,0.8-1.1,1.4c-0.3,0.5-0.5,1.1-0.5,1.7v15.4c0,1.2-0.4,2.1-1.1,2.7s-1.6,0.9-2.5,0.9c-0.9,0-1.7-0.3-2.5-0.9
		c-0.8-0.6-1.2-1.5-1.2-2.7v-15.8c0-0.5,0.2-1,0.5-1.5c0.3-0.4,0.6-0.8,1-1.2c0.3-0.4,0.7-0.7,1-0.9c0.3-0.3,0.5-0.4,0.5-0.6
		c0-0.1-0.2-0.3-0.5-0.5c-0.3-0.2-0.7-0.5-1.1-0.9c-0.4-0.3-0.7-0.7-1.1-1.1s-0.4-0.8-0.4-1.2c0.6-3.4,2.3-6.1,5.1-8.1
		c2.8-2,5.9-2.9,9.6-2.9c2.2,0,4.2,0.3,6,0.9c1.8,0.6,3.4,1.5,4.7,2.8c1.3,1.2,2.4,2.8,3.1,4.6c0.8,1.9,1.1,4.1,1.1,6.7V187.7z"/>
	<path d="M208.3,172.2c0,2.7-0.4,5.3-1.1,7.6c-0.7,2.4-1.7,4.4-3.1,6.2s-3,3.1-5,4.1c-2,1-4.3,1.5-6.9,1.5c-1.9,0-3.6-0.3-5.3-0.9
		c-1.6-0.6-3.1-1.4-4.3-2.4c-1.2-1-2.2-2.1-3-3.4s-1.2-2.5-1.4-3.8c-0.2-1.1,0-2,0.4-2.7c0.5-0.7,1.1-1.2,1.9-1.5
		c1-0.3,2-0.2,2.9,0.2c0.9,0.4,1.6,1.3,1.9,2.7c0.3,1.2,1,2.4,2.3,3.4c1.3,1,2.8,1.5,4.5,1.5c1.5,0,2.8-0.4,3.9-1.1
		c1-0.7,1.9-1.6,2.6-2.8s1.2-2.5,1.5-4c0.3-1.5,0.4-3,0.4-4.6c0-1.6-0.2-3.1-0.4-4.6c-0.3-1.5-0.8-2.8-1.5-4s-1.5-2.1-2.6-2.8
		c-1-0.7-2.3-1.1-3.9-1.1c-1.8,0-3.3,0.5-4.5,1.5c-1.3,1-2,2.1-2.3,3.3c-0.3,1.5-1,2.4-2.1,2.8c-1.1,0.4-2.1,0.3-3.1-0.1
		c-0.7-0.3-1.2-0.8-1.6-1.5s-0.5-1.5-0.4-2.5c0.2-1.3,0.7-2.6,1.4-3.8s1.8-2.4,3-3.4c1.2-1,2.7-1.8,4.3-2.4c1.6-0.6,3.4-0.9,5.3-0.9
		c2.6,0,4.9,0.5,6.9,1.5c2,1,3.7,2.4,5,4.1s2.4,3.8,3.1,6.2C207.9,167,208.3,169.5,208.3,172.2z"/>
	<path d="M216.7,146.2c0,1-0.3,1.8-0.9,2.5c-0.6,0.7-1.5,1-2.8,1h-17.7c-1.7,0-3.1-0.5-4.2-1.5c-1-1-1.5-2.2-1.5-3.6
		c0-1.4,0.5-2.6,1.5-3.6c1-1,2.4-1.5,4.2-1.5c1.3,0,2.4,0.3,3.3,0.9c0.9,0.6,1.6,1.4,2,2.3h12.4c1.2,0,2.1,0.4,2.8,1.1
		C216.4,144.5,216.7,145.3,216.7,146.2z"/>
	<path d="M245.6,186c0,1.4-0.6,2.6-1.8,3.7c-1.2,1-2.6,1.5-4.3,1.5c-1.2,0-2.3-0.3-3.3-0.9s-1.7-1.3-2.2-2.1
		c-2.5,2.1-5.4,3.2-8.8,3.2c-1.7,0-3.3-0.3-4.9-0.8s-2.9-1.4-4.1-2.6c-1.2-1.2-2.1-2.7-2.8-4.5s-1.1-4.1-1.1-6.7v-20.2
		c0-1.2,0.4-2,1.2-2.6c0.8-0.6,1.6-0.9,2.5-0.9c0.9,0,1.8,0.3,2.5,0.9s1.1,1.5,1.1,2.6v19.7c0,2.8,0.5,4.9,1.5,6.3
		c1,1.5,2.7,2.2,5.3,2.2c0.9,0,1.8-0.2,2.8-0.5c0.9-0.3,1.8-0.8,2.6-1.5c0.8-0.6,1.4-1.4,1.9-2.4s0.7-2.1,0.7-3.3v-20.5
		c0-1.2,0.4-2,1.1-2.6s1.6-0.9,2.5-0.9c0.9,0,1.8,0.3,2.5,0.9s1.1,1.5,1.1,2.6v24.5c1.1,0.4,2,1.1,2.7,2
		C245.3,183.9,245.6,184.9,245.6,186z"/>
</g>
</svg>
