<?xml version="1.0" encoding="utf-8"?>
<!-- Generator: Adobe Illustrator 22.1.0, SVG Export Plug-In . SVG Version: 6.00 Build 0)  -->
<svg version="1.1" id="Layer_1" xmlns="http://www.w3.org/2000/svg" xmlns:xlink="http://www.w3.org/1999/xlink" x="0px" y="0px"
	 viewBox="0 0 342 342" style="enable-background:new 0 0 342 342;" xml:space="preserve">
<style type="text/css">
	.st0{fill:#D3EDFF;stroke:#FFFFFF;stroke-width:31;stroke-miterlimit:10;}
	.st1{fill:none;stroke:#FFFFFF;stroke-width:15;stroke-linecap:round;stroke-miterlimit:10;}
	.st2{fill:none;}
	.st3{enable-background:new    ;}
</style>
<title>Asset 58</title>
<g id="Layer_2_1_">
	<g id="_2">
		<circle class="st0" cx="171" cy="171" r="155.5"/>
		<path class="st1" d="M205.5,49.3c0,0-127.9-23.1-159.9,112"/>
	</g>
</g>
<rect x="107" y="144.3" class="st2" width="150" height="74"/>
<g class="st3">
	<path d="M138.7,178.2c0,1.9-0.4,3.7-1.1,5.4c-0.7,1.7-1.8,3.2-3.1,4.4c-1.3,1.2-2.9,2.2-4.7,2.9s-3.9,1.1-6,1.1
		c-3.4,0-6.6-1.1-9.4-3.2c-1.7-1.3-3-2.8-3.9-4.2c-0.9-1.5-1.3-2.8-1.3-4.1c0-1.2,0.3-2.2,1-2.9c0.7-0.7,1.6-1.1,2.7-1.1
		c0.9,0,1.6,0.2,2.1,0.6c0.5,0.4,1.1,1,1.8,1.8c1,1.4,2,2.6,2.9,3.6c1,1,2.4,1.5,4.2,1.5c1.6,0,3.1-0.6,4.2-1.8s1.8-2.7,1.8-4.6
		c0-1.9-0.6-3.3-1.7-4.2c-1.1-0.8-2.9-1.4-5.3-1.8c-1.3-0.2-2.2-0.6-2.7-1.1c-0.5-0.5-0.8-1.4-0.8-2.6c0-1.2,0.3-2,0.9-2.5
		c0.6-0.5,1.5-0.9,2.7-1.2c1.9-0.4,3.2-1.1,4-1.9c0.8-0.9,1.2-2,1.2-3.4c0-1.4-0.4-2.5-1.1-3.3c-0.8-0.8-1.8-1.2-3.3-1.2
		c-1,0-2,0.3-2.8,0.8c-0.8,0.5-1.6,1.1-2.3,1.9c-0.9,0.8-1.6,1.5-2.3,2.1c-0.6,0.6-1.5,0.9-2.6,0.9c-0.9,0-1.7-0.3-2.4-1
		c-0.7-0.7-1.1-1.5-1.1-2.6c0-1.2,0.4-2.3,1.1-3.5c0.7-1.2,1.7-2.2,2.9-3.2c1.2-0.9,2.7-1.7,4.3-2.3s3.4-0.9,5.2-0.9
		c1.8,0,3.5,0.3,5.1,0.9c1.5,0.6,2.9,1.4,4,2.4c1.1,1,1.9,2.2,2.6,3.6c0.6,1.4,0.9,2.9,0.9,4.5c0,1.8-0.4,3.4-1.3,4.8
		c-0.9,1.4-2.3,2.9-4.3,4.4c2.8,1.5,4.8,3.2,6,5C138.1,173.7,138.7,175.8,138.7,178.2z"/>
	<path d="M173.3,187.8c0,1.1-0.4,2-1.1,2.6s-1.6,0.9-2.5,0.9c-0.9,0-1.8-0.3-2.5-0.9s-1.1-1.4-1.1-2.6v-21.5c0-2.1-0.6-3.8-1.9-5.1
		c-1.3-1.3-3.1-1.9-5.4-1.9s-4.1,0.6-5.4,1.9c-1.3,1.3-1.9,3-1.9,5.1v2h7c1.2,0,2.1,0.4,2.8,1.1c0.6,0.7,0.9,1.5,0.9,2.4
		c0,0.9-0.3,1.7-0.9,2.4c-0.6,0.7-1.5,1.1-2.8,1.1h-7v12.4c0,1.1-0.4,2-1.1,2.6s-1.6,0.9-2.5,0.9c-0.9,0-1.7-0.3-2.5-0.9
		c-0.8-0.6-1.2-1.4-1.2-2.6V167c0-2.2,0.4-4.2,1.1-5.9c0.7-1.7,1.8-3.2,3.1-4.4c1.3-1.2,2.9-2.2,4.7-2.8c1.8-0.6,3.7-1,5.8-1
		c2.2,0,4.1,0.3,5.9,1c1.8,0.6,3.3,1.6,4.6,2.8c1.3,1.2,2.3,2.7,3.1,4.4c0.7,1.7,1.1,3.7,1.1,5.9V187.8z"/>
	<path d="M206,179.1c0,3.9-1.4,6.9-4.2,9.1c-2.8,2.2-6.4,3.3-10.8,3.3c-2,0-3.9-0.3-5.6-0.8c-1.7-0.5-3.1-1.3-4.4-2.2
		c-1.2-1-2.2-2.1-2.9-3.3c-0.7-1.2-1.1-2.5-1.3-3.8c-0.1-1.3,0.2-2.3,1-3c0.8-0.7,1.7-1.1,2.7-1.1c1.2,0,2.1,0.3,2.6,0.8
		c0.5,0.6,0.8,1.4,1,2.5c0.1,1,0.8,2,2,2.8c1.2,0.8,2.8,1.2,4.8,1.2c1.9,0,3.6-0.5,5.1-1.4c1.5-0.9,2.3-2.2,2.3-4
		c0-0.9-0.3-1.7-0.8-2.3c-0.5-0.6-1.2-1.1-2-1.5c-0.8-0.4-1.7-0.8-2.6-1c-0.9-0.3-1.8-0.4-2.6-0.5c-1.4-0.2-2.9-0.5-4.5-0.9
		c-1.6-0.4-3-1-4.3-1.8c-1.3-0.8-2.3-1.8-3.1-3.1c-0.8-1.3-1.2-2.9-1.1-4.9c0.1-1.5,0.5-2.8,1.2-4.1c0.8-1.3,1.7-2.4,2.9-3.3
		c1.2-0.9,2.6-1.7,4.2-2.2c1.6-0.6,3.2-0.8,5-0.8c2.9,0,5.6,0.5,8,1.5c2.4,1,4.2,2.7,5.4,5c0.6,1.2,0.7,2.2,0.2,3.1
		c-0.5,0.9-1.1,1.5-1.9,1.9c-1,0.5-2,0.6-2.9,0.3c-0.9-0.3-1.6-1-2.2-1.9c-0.5-1-1.4-1.7-2.7-2.3c-1.2-0.5-2.5-0.8-4-0.8
		c-1.3,0-2.5,0.3-3.7,0.9c-1.2,0.6-1.9,1.5-2,2.7c-0.1,0.8,0.1,1.4,0.6,2c0.4,0.5,1,0.9,1.8,1.3c0.7,0.3,1.6,0.5,2.4,0.7
		c0.9,0.1,1.7,0.2,2.4,0.4c1.6,0.2,3.2,0.5,4.8,1c1.6,0.5,3,1.1,4.3,2c1.3,0.9,2.4,2,3.2,3.3C205.6,175.3,206,177,206,179.1z"/>
	<path d="M214.5,146.2c0,1-0.3,1.8-0.9,2.5c-0.6,0.7-1.5,1-2.8,1H193c-1.7,0-3.1-0.5-4.2-1.5c-1-1-1.5-2.2-1.5-3.6
		c0-1.4,0.5-2.6,1.5-3.6c1-1,2.4-1.5,4.2-1.5c1.3,0,2.4,0.3,3.3,0.9c0.9,0.6,1.6,1.4,2,2.3h12.4c1.2,0,2.1,0.4,2.8,1.1
		C214.1,144.5,214.5,145.3,214.5,146.2z"/>
	<path d="M211,132.1c0,0.9-0.3,1.6-0.9,2.2c-0.6,0.6-1.4,0.9-2.4,0.9h-11c-1,0-1.8-0.3-2.4-0.9c-0.6-0.6-0.9-1.4-0.9-2.2v-1.8h-1.3
		c-1.1,0-1.9-0.3-2.5-0.9c-0.6-0.6-0.8-1.4-0.8-2.2c0-0.8,0.3-1.5,0.8-2.2c0.5-0.7,1.4-1,2.5-1h4.7c2.6,0,3.9,1.1,3.9,3.4v1.6h7
		c1.1,0,1.9,0.3,2.5,1C210.8,130.6,211,131.3,211,132.1z"/>
	<path d="M238.2,172.1c0,6-1.4,10.6-4.1,14c-2.7,3.4-6.5,5.1-11.3,5.1h-3.1c-1.6,0-3.1-0.3-4.3-0.8c-1.2-0.6-2-1.7-2.4-3.5l-5-19.1
		c-0.3-1-0.2-1.8,0.4-2.5c0.6-0.7,1.3-1.2,2.1-1.5c1-0.3,2-0.3,3,0.1c1,0.4,1.6,1.2,1.9,2.4l4.7,18.8h2.8c1.2,0,2.2-0.3,3.2-1
		c1-0.6,1.8-1.5,2.5-2.6c0.7-1.1,1.2-2.4,1.6-3.9c0.4-1.5,0.5-3.1,0.5-4.8c0-1.6-0.2-3.1-0.5-4.6s-0.9-2.7-1.5-3.8s-1.5-1.9-2.4-2.6
		c-0.9-0.6-1.9-1-3.1-1c-0.9,0-1.8,0.2-2.8,0.5c-1,0.3-1.7,0.5-2.3,0.5c-1.4,0-2.4-0.4-3-1.3c-0.6-0.9-0.9-1.8-0.7-2.9
		c0.1-1.1,1-2.1,2.6-3s3.5-1.3,5.8-1.3c2.1,0,4.1,0.4,6,1.1c1.9,0.7,3.5,1.9,4.9,3.5c1.4,1.6,2.5,3.5,3.3,5.9
		C237.8,166,238.2,168.8,238.2,172.1z"/>
</g>
</svg>
