<?xml version="1.0" encoding="utf-8"?>
<!-- Generator: Adobe Illustrator 22.1.0, SVG Export Plug-In . SVG Version: 6.00 Build 0)  -->
<svg version="1.1" id="Layer_1" xmlns="http://www.w3.org/2000/svg" xmlns:xlink="http://www.w3.org/1999/xlink" x="0px" y="0px"
	 viewBox="0 0 723.9 822.8" style="enable-background:new 0 0 723.9 822.8;" xml:space="preserve">
<style type="text/css">
	.st0{fill:#DEDFE0;}
	.st1{fill:#656669;}
	.st2{fill:#8C8F91;}
	.st3{fill:#4A4D4E;}
	.st4{fill:none;stroke:#2D2D2D;stroke-width:5;stroke-linecap:round;stroke-miterlimit:10;}
	.st5{fill:#A6A6A6;}
	.st6{fill:none;stroke:#FFDF00;stroke-width:3;stroke-linejoin:round;}
	.st7{fill:#FFFFFF;}
	.st8{fill:#CACCCD;}
	.st9{fill:#EBEBEC;}
</style>
<title>Asset 85</title>
<g id="Layer_2_1_">
	<g id="Layer_5">
		<rect x="-0.4" y="-1" class="st0" width="725" height="825"/>
		<rect x="34.6" y="33" class="st1" width="650" height="756"/>
		<rect x="34.6" y="600" class="st2" width="650" height="189"/>
		<polygon class="st3" points="34.6,600 121.3,540 609.6,540 684.6,600 		"/>
		<line class="st4" x1="382.6" y1="635" x2="492.6" y2="635"/>
		<line class="st4" x1="383.1" y1="662.5" x2="493.1" y2="662.5"/>
		<line class="st4" x1="382.6" y1="690" x2="492.6" y2="690"/>
		<line class="st4" x1="383.1" y1="717.5" x2="493.1" y2="717.5"/>
		<line class="st4" x1="554.6" y1="635" x2="664.6" y2="635"/>
		<line class="st4" x1="555.1" y1="662.5" x2="665.1" y2="662.5"/>
		<line class="st4" x1="554.6" y1="690" x2="664.6" y2="690"/>
		<line class="st4" x1="555.1" y1="717.5" x2="665.1" y2="717.5"/>
		<line class="st4" x1="525.5" y1="603" x2="525.5" y2="786"/>
		<line class="st4" x1="362.1" y1="603.5" x2="362.1" y2="786.5"/>
		<line class="st4" x1="53.6" y1="635" x2="163.6" y2="635"/>
		<line class="st4" x1="54.1" y1="662.5" x2="164.1" y2="662.5"/>
		<line class="st4" x1="53.6" y1="690" x2="163.6" y2="690"/>
		<line class="st4" x1="54.1" y1="717.5" x2="164.1" y2="717.5"/>
		<line class="st4" x1="225.6" y1="635" x2="335.6" y2="635"/>
		<line class="st4" x1="226.1" y1="662.5" x2="336.1" y2="662.5"/>
		<line class="st4" x1="225.6" y1="690" x2="335.6" y2="690"/>
		<line class="st4" x1="226.1" y1="717.5" x2="336.1" y2="717.5"/>
		<line class="st4" x1="196.5" y1="603" x2="196.5" y2="786"/>
	</g>
</g>
<rect x="82.3" y="124" class="st5" width="564.1" height="20.5"/>
<g id="Layer_2_2_">
	<g id="Layer_5_1_">
		<path class="st6" d="M82.4,235.5l31-39.7v-33.5c0,0-29.3,2.2-29.3-20.1s29.3-17.8,29.3-17.8"/>
		<path class="st6" d="M119.4,235.5l31-39.7v-33.5c0,0-29.3,2.2-29.3-20.1s29.3-17.8,29.3-17.8"/>
		<path class="st6" d="M159.4,235.5l31-39.7v-33.5c0,0-29.3,2.2-29.3-20.1s29.3-17.8,29.3-17.8"/>
		<path class="st6" d="M191.4,235.5l31-39.7v-33.5c0,0-29.3,2.2-29.3-20.1s29.3-17.8,29.3-17.8"/>
		<path class="st6" d="M224.4,235.5l31-39.7v-33.5c0,0-29.3,2.2-29.3-20.1s29.3-17.8,29.3-17.8"/>
		<path class="st6" d="M257.4,235.5l31-39.7v-33.5c0,0-29.3,2.2-29.3-20.1s29.3-17.8,29.3-17.8"/>
		<path class="st6" d="M290.4,235.5l31-39.7v-33.5c0,0-29.3,2.2-29.3-20.1s29.3-17.8,29.3-17.8"/>
		<path class="st6" d="M326.4,235.5l31-39.7v-33.5c0,0-29.3,2.2-29.3-20.1s29.3-17.8,29.3-17.8"/>
		<path class="st6" d="M359.4,235.5l31-39.7v-33.5c0,0-29.3,2.2-29.3-20.1s29.3-17.8,29.3-17.8"/>
		<path class="st6" d="M392.4,235.5l31-39.7v-33.5c0,0-29.3,2.2-29.3-20.1s29.3-17.8,29.3-17.8"/>
		<path class="st6" d="M435.4,235.5l31-39.7v-33.5c0,0-29.3,2.2-29.3-20.1s29.3-17.8,29.3-17.8"/>
		<path class="st6" d="M470.4,235.5l31-39.7v-33.5c0,0-29.3,2.2-29.3-20.1s29.3-17.8,29.3-17.8"/>
		<path class="st6" d="M503.4,235.5l31-39.7v-33.5c0,0-29.3,2.2-29.3-20.1s29.3-17.8,29.3-17.8"/>
		<path class="st6" d="M536.4,235.5l31-39.7v-33.5c0,0-29.3,2.2-29.3-20.1s29.3-17.8,29.3-17.8"/>
		<path class="st6" d="M579.4,235.5l31-39.7v-33.5c0,0-29.3,2.2-29.3-20.1s29.3-17.8,29.3-17.8"/>
		<path class="st6" d="M605.4,235.5l31-39.7v-33.5c0,0-29.3,2.2-29.3-20.1s29.3-17.8,29.3-17.8"/>
		<path class="st0" d="M64.6,307.7c0.3,55.1,4.4,110.1,12.4,164.6l53.3-0.1c-0.7-82.4-7.8-164.6-21.2-245.9
			c-0.9-5.3-2.6-11.5-7.7-13"/>
		<path class="st7" d="M58.3,260.8c-4.2,20.4-4.3,41.4-4.5,62.2c0,2.2,0.1,4.7,1.8,6.2c1.2,0.8,2.5,1.3,3.9,1.3
			c15.7,2,31.5,2.7,47.3,1.9c5.2-32.5,7.1-65.5,5.8-98.4c-0.3-7.8-1-16.1-5.3-22.6C85.1,178.5,61.1,246.9,58.3,260.8z"/>
		<path class="st8" d="M102.4,307.7c0.3,55.1,4.4,110.1,12.4,164.6l53.3-0.1c-0.7-82.4-7.8-164.6-21.2-245.9
			c-0.9-5.3-2.6-11.5-7.7-13"/>
		<path class="st9" d="M96.1,260.8c-4.2,20.4-4.3,41.4-4.5,62.2c0,2.2,0.1,4.7,1.8,6.2c1.2,0.8,2.5,1.3,3.9,1.3
			c15.7,2,31.5,2.7,47.2,1.9c5.2-32.5,7.1-65.5,5.8-98.4c-0.3-7.8-1-16.1-5.3-22.6C122.9,178.5,98.9,246.9,96.1,260.8z"/>
		<path class="st0" d="M137.3,307.7c0.3,55.1,4.4,110.1,12.3,164.6l53.3-0.1c-0.7-82.4-7.8-164.6-21.1-245.9
			c-0.9-5.3-2.6-11.5-7.7-13"/>
		<path class="st7" d="M131,260.8c-4.2,20.4-4.3,41.4-4.5,62.2c0,2.2,0.1,4.7,1.8,6.2c1.2,0.8,2.5,1.3,3.9,1.3
			c15.7,2,31.5,2.7,47.2,1.9c5.1-32.5,7.1-65.5,5.8-98.4c-0.3-7.8-0.9-16.1-5.3-22.6C157.8,178.5,133.8,246.9,131,260.8z"/>
		<path class="st8" d="M175.1,307.7c0.3,55.1,4.4,110.1,12.4,164.6l53.3-0.1c-0.7-82.4-7.8-164.6-21.2-245.9
			c-0.9-5.3-2.6-11.5-7.7-13"/>
		<path class="st9" d="M168.8,260.8c-4.2,20.4-4.3,41.4-4.5,62.2c0,2.2,0.1,4.7,1.8,6.2c1.2,0.8,2.5,1.2,3.9,1.3
			c15.7,2,31.5,2.7,47.2,1.9c5.1-32.5,7.1-65.5,5.8-98.4c-0.3-7.8-1-16.1-5.3-22.6C195.6,178.5,171.6,246.9,168.8,260.8z"/>
		<path class="st0" d="M206.6,307.7c0.3,55.1,4.4,110.1,12.4,164.6l53.3-0.1c-0.7-82.4-7.8-164.6-21.2-245.9
			c-0.9-5.3-2.6-11.5-7.7-13"/>
		<path class="st7" d="M200.3,260.8c-4.2,20.4-4.3,41.4-4.5,62.2c0,2.2,0.1,4.7,1.8,6.2c1.2,0.8,2.5,1.2,3.9,1.3
			c15.7,2,31.5,2.7,47.2,1.9c5.2-32.5,7.1-65.5,5.8-98.4c-0.3-7.8-1-16.1-5.3-22.6C227.1,178.5,203.1,246.9,200.3,260.8z"/>
		<path class="st8" d="M244.4,307.7c0.3,55.1,4.4,110.1,12.4,164.6l53.3-0.1c-0.7-82.4-7.8-164.6-21.2-245.9
			c-0.9-5.3-2.6-11.5-7.7-13"/>
		<path class="st9" d="M238.1,260.8c-4.2,20.4-4.3,41.4-4.5,62.2c0,2.2,0.1,4.7,1.8,6.2c1.2,0.8,2.5,1.2,3.9,1.3
			c15.7,2,31.5,2.7,47.2,1.9c5.2-32.5,7.1-65.5,5.8-98.4c-0.3-7.8-0.9-16.1-5.3-22.6C264.9,178.5,240.9,246.9,238.1,260.8z"/>
		<path class="st0" d="M279.3,307.7c0.3,55.1,4.4,110.1,12.4,164.6l53.3-0.1c-0.7-82.4-7.8-164.6-21.1-245.9
			c-0.9-5.3-2.6-11.5-7.7-13"/>
		<path class="st7" d="M273,260.8c-4.2,20.4-4.3,41.4-4.5,62.2c0,2.2,0.1,4.7,1.8,6.2c1.2,0.8,2.5,1.2,3.9,1.3
			c15.7,2,31.5,2.7,47.2,1.9c5.1-32.5,7.1-65.5,5.8-98.4c-0.3-7.8-1-16.1-5.3-22.6C299.8,178.5,275.8,246.9,273,260.8z"/>
		<path class="st8" d="M317.1,307.7c0.3,55.1,4.4,110.1,12.4,164.6l53.3-0.1c-0.7-82.4-7.8-164.6-21.2-245.9
			c-0.9-5.3-2.6-11.5-7.7-13"/>
		<path class="st9" d="M310.8,260.8c-4.2,20.4-4.3,41.4-4.5,62.2c0,2.2,0.1,4.7,1.8,6.2c1.2,0.8,2.5,1.2,3.9,1.3
			c15.7,2,31.5,2.7,47.2,1.9c5.1-32.5,7.1-65.5,5.8-98.4c-0.3-7.8-1-16.1-5.3-22.6C337.6,178.5,313.6,246.9,310.8,260.8z"/>
		<path class="st0" d="M342.6,307.7c0.3,55.1,4.4,110.1,12.4,164.6l53.3-0.1c-0.7-82.4-7.8-164.6-21.2-245.9
			c-0.9-5.3-2.6-11.5-7.7-13"/>
		<path class="st7" d="M336.3,260.8c-4.2,20.4-4.3,41.4-4.5,62.2c0,2.2,0.1,4.7,1.8,6.2c1.2,0.8,2.5,1.2,3.9,1.3
			c15.7,2,31.5,2.7,47.2,1.9c5.2-32.5,7.1-65.5,5.8-98.4c-0.3-7.8-1-16.1-5.3-22.6C363.1,178.5,339.1,246.9,336.3,260.8z"/>
		<path class="st8" d="M380.4,307.7c0.3,55.1,4.4,110.1,12.4,164.6l53.3-0.1c-0.7-82.4-7.8-164.6-21.2-245.9
			c-0.9-5.3-2.6-11.5-7.7-13"/>
		<path class="st9" d="M374.1,260.8c-4.2,20.4-4.3,41.4-4.5,62.2c0,2.2,0.1,4.7,1.8,6.2c1.2,0.8,2.5,1.2,3.9,1.3
			c15.7,2,31.5,2.7,47.2,1.9c5.2-32.5,7.1-65.5,5.8-98.4c-0.3-7.8-1-16.1-5.3-22.6C400.9,178.5,376.9,246.9,374.1,260.8z"/>
		<path class="st0" d="M424.3,307.7c0.3,55.1,4.4,110.1,12.4,164.6l53.3-0.1c-0.7-82.4-7.8-164.6-21.1-245.9
			c-0.9-5.3-2.6-11.5-7.7-13"/>
		<path class="st7" d="M418,260.8c-4.2,20.4-4.3,41.4-4.5,62.2c0,2.2,0.1,4.7,1.8,6.2c1.2,0.8,2.5,1.2,3.9,1.3
			c15.7,2,31.5,2.7,47.2,1.9c5.1-32.5,7.1-65.5,5.8-98.4c-0.3-7.8-1-16.1-5.3-22.6C444.8,178.5,420.8,246.9,418,260.8z"/>
		<path class="st8" d="M462.1,307.7c0.3,55.1,4.4,110.1,12.4,164.6l53.3-0.1c-0.7-82.4-7.8-164.6-21.2-245.9
			c-0.9-5.3-2.6-11.5-7.7-13"/>
		<path class="st9" d="M455.8,260.8c-4.2,20.4-4.3,41.4-4.5,62.2c0,2.2,0.1,4.7,1.8,6.2c1.2,0.8,2.5,1.2,3.9,1.3
			c15.7,2,31.5,2.7,47.2,1.9c5.1-32.5,7.1-65.5,5.8-98.4c-0.3-7.8-1-16.1-5.3-22.6C482.6,178.5,458.6,246.9,455.8,260.8z"/>
		<path class="st0" d="M483.6,307.7c0.3,55.1,4.4,110.1,12.4,164.6l53.3-0.1c-0.7-82.4-7.8-164.6-21.2-245.9
			c-0.9-5.3-2.6-11.5-7.7-13"/>
		<path class="st7" d="M477.3,260.8c-4.2,20.4-4.3,41.4-4.5,62.2c0,2.2,0.1,4.7,1.8,6.2c1.2,0.8,2.5,1.2,3.9,1.3
			c15.7,2,31.5,2.7,47.2,1.9c5.2-32.5,7.1-65.5,5.8-98.4c-0.3-7.8-1-16.1-5.3-22.6C504.1,178.5,480.1,246.9,477.3,260.8z"/>
		<path class="st8" d="M521.4,307.7c0.3,55.1,4.4,110.1,12.4,164.6l53.3-0.1c-0.7-82.4-7.8-164.6-21.2-245.9
			c-0.9-5.3-2.6-11.5-7.7-13"/>
		<path class="st9" d="M515.1,260.8c-4.2,20.4-4.3,41.4-4.5,62.2c0,2.2,0.1,4.7,1.8,6.2c1.2,0.8,2.5,1.2,3.9,1.3
			c15.7,2,31.5,2.7,47.2,1.9c5.2-32.5,7.1-65.5,5.8-98.4c-0.3-7.8-1-16.1-5.3-22.6C541.9,178.5,517.9,246.9,515.1,260.8z"/>
		<path class="st0" d="M555.3,307.7c0.3,55.1,4.4,110.1,12.3,164.6l53.3-0.1c-0.7-82.4-7.8-164.6-21.1-245.9
			c-0.9-5.3-2.6-11.5-7.7-13"/>
		<path class="st7" d="M549,260.8c-4.2,20.4-4.3,41.4-4.5,62.2c0,2.2,0.1,4.7,1.8,6.2c1.2,0.8,2.5,1.2,3.9,1.3
			c15.7,2,31.5,2.7,47.2,1.9c5.1-32.5,7.1-65.5,5.8-98.4c-0.3-7.8-1-16.1-5.3-22.6C575.8,178.5,551.8,246.9,549,260.8z"/>
		<path class="st8" d="M593.1,307.7c0.3,55.1,4.4,110.1,12.3,164.6l53.3-0.1c-0.7-82.4-7.8-164.6-21.2-245.9
			c-0.9-5.3-2.6-11.5-7.7-13"/>
		<path class="st9" d="M586.8,260.8c-4.2,20.4-4.3,41.4-4.5,62.2c0,2.2,0.1,4.7,1.8,6.2c1.2,0.8,2.5,1.2,3.9,1.3
			c15.7,2,31.5,2.7,47.2,1.9c5.1-32.5,7.1-65.5,5.8-98.4c-0.3-7.8-1-16.1-5.3-22.6C613.6,178.5,589.6,246.9,586.8,260.8z"/>
	</g>
</g>
</svg>
