<?xml version="1.0" encoding="utf-8"?>
<!-- Generator: Adobe Illustrator 22.1.0, SVG Export Plug-In . SVG Version: 6.00 Build 0)  -->
<svg version="1.1" id="Layer_1" xmlns="http://www.w3.org/2000/svg" xmlns:xlink="http://www.w3.org/1999/xlink" x="0px" y="0px"
	 viewBox="0 0 723.9 822.8" style="enable-background:new 0 0 723.9 822.8;" xml:space="preserve">
<style type="text/css">
	.st0{fill:#DEDFE0;}
	.st1{fill:#656669;}
	.st2{fill:#8C8F91;}
	.st3{fill:#4A4D4E;}
	.st4{fill:none;stroke:#2D2D2D;stroke-width:5;stroke-linecap:round;stroke-miterlimit:10;}
	.st5{fill:#A6A6A6;}
	.st6{fill:none;stroke:#FFDF00;stroke-width:3;stroke-linejoin:round;}
	.st7{fill:#FFFFFF;}
	.st8{fill:#CACCCD;}
	.st9{fill:#EBEBEC;}
	.st10{fill:#CE5C1D;}
	.st11{fill:#F36C21;}
	.st12{fill:#68A08A;}
	.st13{fill:#80C3A8;}
	.st14{fill:#6B357F;}
	.st15{fill:#82459B;}
	.st16{fill:#910E57;}
	.st17{fill:#B81E6F;}
</style>
<title>Asset 85</title>
<g id="Layer_2_1_">
	<g id="Layer_5">
		<rect x="-0.4" y="-1" class="st0" width="725" height="825"/>
		<rect x="34.6" y="33" class="st1" width="650" height="756"/>
		<rect x="34.6" y="600" class="st2" width="650" height="189"/>
		<polygon class="st3" points="34.6,600 121.3,540 609.6,540 684.6,600 		"/>
		<line class="st4" x1="382.6" y1="635" x2="492.6" y2="635"/>
		<line class="st4" x1="383.1" y1="662.5" x2="493.1" y2="662.5"/>
		<line class="st4" x1="382.6" y1="690" x2="492.6" y2="690"/>
		<line class="st4" x1="383.1" y1="717.5" x2="493.1" y2="717.5"/>
		<line class="st4" x1="554.6" y1="635" x2="664.6" y2="635"/>
		<line class="st4" x1="555.1" y1="662.5" x2="665.1" y2="662.5"/>
		<line class="st4" x1="554.6" y1="690" x2="664.6" y2="690"/>
		<line class="st4" x1="555.1" y1="717.5" x2="665.1" y2="717.5"/>
		<line class="st4" x1="525.5" y1="603" x2="525.5" y2="786"/>
		<line class="st4" x1="362.1" y1="603.5" x2="362.1" y2="786.5"/>
		<line class="st4" x1="53.6" y1="635" x2="163.6" y2="635"/>
		<line class="st4" x1="54.1" y1="662.5" x2="164.1" y2="662.5"/>
		<line class="st4" x1="53.6" y1="690" x2="163.6" y2="690"/>
		<line class="st4" x1="54.1" y1="717.5" x2="164.1" y2="717.5"/>
		<line class="st4" x1="225.6" y1="635" x2="335.6" y2="635"/>
		<line class="st4" x1="226.1" y1="662.5" x2="336.1" y2="662.5"/>
		<line class="st4" x1="225.6" y1="690" x2="335.6" y2="690"/>
		<line class="st4" x1="226.1" y1="717.5" x2="336.1" y2="717.5"/>
		<line class="st4" x1="196.5" y1="603" x2="196.5" y2="786"/>
	</g>
</g>
<rect x="82.3" y="124" class="st5" width="564.1" height="20.5"/>
<g id="Layer_2_3_">
	<g id="Layer_5_2_">
		<path class="st6" d="M67.2,235.5l31-39.7v-33.5c0,0-29.2,2.2-29.2-20.1s29.2-17.8,29.2-17.8"/>
		<path class="st6" d="M105.2,235.5l31-39.7v-33.5c0,0-29.3,2.2-29.3-20.1s29.3-17.8,29.3-17.8"/>
		<path class="st6" d="M150.2,235.5l31-39.7v-33.5c0,0-29.2,2.2-29.2-20.1s29.2-17.8,29.2-17.8"/>
		<path class="st6" d="M188.2,235.5l31-39.7v-33.5c0,0-29.2,2.2-29.2-20.1s29.2-17.8,29.2-17.8"/>
		<path class="st6" d="M225.2,235.5l31-39.7v-33.5c0,0-29.2,2.2-29.2-20.1s29.2-17.8,29.2-17.8"/>
		<path class="st6" d="M263.2,235.5l31-39.7v-33.5c0,0-29.2,2.2-29.2-20.1s29.2-17.8,29.2-17.8"/>
		<path class="st6" d="M308.2,235.5l31-39.7v-33.5c0,0-29.2,2.2-29.2-20.1s29.2-17.8,29.2-17.8"/>
		<path class="st6" d="M336.2,235.5l31-39.7v-33.5c0,0-29.2,2.2-29.2-20.1s29.2-17.8,29.2-17.8"/>
		<path class="st6" d="M363.2,235.5l31-39.7v-33.5c0,0-29.2,2.2-29.2-20.1s29.2-17.8,29.2-17.8"/>
		<path class="st6" d="M408.2,235.5l31-39.7v-33.5c0,0-29.2,2.2-29.2-20.1s29.2-17.8,29.2-17.8"/>
		<path class="st6" d="M452.2,235.5l31-39.7v-33.5c0,0-29.2,2.2-29.2-20.1s29.2-17.8,29.2-17.8"/>
		<path class="st6" d="M482.2,235.5l31-39.7v-33.5c0,0-29.2,2.2-29.2-20.1s29.2-17.8,29.2-17.8"/>
		<path class="st6" d="M514.2,235.5l31-39.7v-33.5c0,0-29.2,2.2-29.2-20.1s29.2-17.8,29.2-17.8"/>
		<path class="st6" d="M545.2,235.5l31-39.7v-33.5c0,0-29.2,2.2-29.2-20.1s29.2-17.8,29.2-17.8"/>
		<path class="st6" d="M575.2,235.5l31-39.7v-33.5c0,0-29.2,2.2-29.2-20.1s29.2-17.8,29.2-17.8"/>
		<path class="st6" d="M607.2,235.5l31-39.7v-33.5c0,0-29.2,2.2-29.2-20.1s29.2-17.8,29.2-17.8"/>
		<path class="st0" d="M54.8,310.7c0.3,55.1,4.4,110.1,12.4,164.6l53.3-0.1c-0.7-82.4-7.8-164.6-21.2-245.9
			c-0.9-5.3-2.6-11.5-7.7-13"/>
		<path class="st7" d="M48.5,263.8c-4.2,20.4-4.3,41.4-4.5,62.2c0,2.2,0.1,4.7,1.8,6.2c1.2,0.8,2.5,1.3,3.9,1.3
			c15.7,2,31.5,2.7,47.3,1.9c5.2-32.5,7.1-65.5,5.8-98.4c-0.3-7.8-1-16.1-5.3-22.6C75.3,181.5,51.3,249.9,48.5,263.8z"/>
		<path class="st8" d="M92.6,310.7c0.3,55.1,4.4,110.1,12.4,164.6l53.3-0.1c-0.7-82.4-7.8-164.6-21.2-245.9
			c-0.9-5.3-2.6-11.5-7.7-13"/>
		<path class="st9" d="M86.3,263.8c-4.2,20.4-4.3,41.4-4.5,62.2c0,2.2,0.1,4.7,1.8,6.2c1.2,0.8,2.5,1.3,3.9,1.3
			c15.7,2,31.5,2.7,47.2,1.9c5.2-32.5,7.1-65.5,5.8-98.4c-0.3-7.8-1-16.1-5.3-22.6C113.1,181.5,89.1,249.9,86.3,263.8z"/>
		<path class="st0" d="M136.5,310.7c0.3,55.1,4.4,110.1,12.3,164.6l53.3-0.1c-0.7-82.4-7.8-164.6-21.1-245.9
			c-0.9-5.3-2.6-11.5-7.7-13"/>
		<path class="st7" d="M130.2,263.8c-4.2,20.4-4.3,41.4-4.5,62.2c0,2.2,0.1,4.7,1.8,6.2c1.2,0.8,2.5,1.3,3.9,1.3
			c15.7,2,31.5,2.7,47.2,1.9c5.1-32.5,7.1-65.5,5.8-98.4c-0.3-7.8-0.9-16.1-5.3-22.6C157,181.5,133,249.9,130.2,263.8z"/>
		<path class="st8" d="M174.3,310.7c0.3,55.1,4.4,110.1,12.4,164.6l53.3-0.1c-0.7-82.4-7.8-164.6-21.2-245.9
			c-0.9-5.3-2.6-11.5-7.7-13"/>
		<path class="st9" d="M168,263.8c-4.2,20.4-4.3,41.4-4.5,62.2c0,2.2,0.1,4.7,1.8,6.2c1.2,0.8,2.5,1.2,3.9,1.3
			c15.7,2,31.5,2.7,47.2,1.9c5.1-32.5,7.1-65.5,5.8-98.4c-0.3-7.8-1-16.1-5.3-22.6C194.8,181.5,170.8,249.9,168,263.8z"/>
		<path class="st0" d="M206.8,310.7c0.3,55.1,4.4,110.1,12.4,164.6l53.3-0.1c-0.7-82.4-7.8-164.6-21.2-245.9
			c-0.9-5.3-2.6-11.5-7.7-13"/>
		<path class="st7" d="M200.5,263.8c-4.2,20.4-4.3,41.4-4.5,62.2c0,2.2,0.1,4.7,1.8,6.2c1.2,0.8,2.5,1.2,3.9,1.3
			c15.7,2,31.5,2.7,47.2,1.9c5.2-32.5,7.1-65.5,5.8-98.4c-0.3-7.8-1-16.1-5.3-22.6C227.3,181.5,203.3,249.9,200.5,263.8z"/>
		<path class="st8" d="M244.6,310.7c0.3,55.1,4.4,110.1,12.4,164.6l53.3-0.1c-0.7-82.4-7.8-164.6-21.2-245.9
			c-0.9-5.3-2.6-11.5-7.7-13"/>
		<path class="st9" d="M238.3,263.8c-4.2,20.4-4.3,41.4-4.5,62.2c0,2.2,0.1,4.7,1.8,6.2c1.2,0.8,2.5,1.2,3.9,1.3
			c15.7,2,31.5,2.7,47.2,1.9c5.2-32.5,7.1-65.5,5.8-98.4c-0.3-7.8-0.9-16.1-5.3-22.6C265.1,181.5,241.1,249.9,238.3,263.8z"/>
		<path class="st0" d="M288.5,310.7c0.3,55.1,4.4,110.1,12.4,164.6l53.3-0.1c-0.7-82.4-7.8-164.6-21.1-245.9
			c-0.9-5.3-2.6-11.5-7.7-13"/>
		<path class="st7" d="M282.2,263.8c-4.2,20.4-4.3,41.4-4.5,62.2c0,2.2,0.1,4.7,1.8,6.2c1.2,0.8,2.5,1.2,3.9,1.3
			c15.7,2,31.5,2.7,47.2,1.9c5.1-32.5,7.1-65.5,5.8-98.4c-0.3-7.8-1-16.1-5.3-22.6C309,181.5,285,249.9,282.2,263.8z"/>
		<path class="st8" d="M326.3,310.7c0.3,55.1,4.4,110.1,12.4,164.6l53.3-0.1c-0.7-82.4-7.8-164.6-21.2-245.9
			c-0.9-5.3-2.6-11.5-7.7-13"/>
		<path class="st9" d="M320,263.8c-4.2,20.4-4.3,41.4-4.5,62.2c0,2.2,0.1,4.7,1.8,6.2c1.2,0.8,2.5,1.2,3.9,1.3
			c15.7,2,31.5,2.7,47.2,1.9c5.1-32.5,7.1-65.5,5.8-98.4c-0.3-7.8-1-16.1-5.3-22.6C346.8,181.5,322.8,249.9,320,263.8z"/>
		<path class="st0" d="M351.8,310.7c0.3,55.1,4.4,110.1,12.4,164.6l53.3-0.1c-0.7-82.4-7.8-164.6-21.2-245.9
			c-0.9-5.3-2.6-11.5-7.7-13"/>
		<path class="st7" d="M345.5,263.8c-4.2,20.4-4.3,41.4-4.5,62.2c0,2.2,0.1,4.7,1.8,6.2c1.2,0.8,2.5,1.2,3.9,1.3
			c15.7,2,31.5,2.7,47.2,1.9c5.2-32.5,7.1-65.5,5.8-98.4c-0.3-7.8-1-16.1-5.3-22.6C372.3,181.5,348.3,249.9,345.5,263.8z"/>
		<path class="st8" d="M389.6,310.7c0.3,55.1,4.4,110.1,12.4,164.6l53.3-0.1c-0.7-82.4-7.8-164.6-21.2-245.9
			c-0.9-5.3-2.6-11.5-7.7-13"/>
		<path class="st9" d="M383.3,263.8c-4.2,20.4-4.3,41.4-4.5,62.2c0,2.2,0.1,4.7,1.8,6.2c1.2,0.8,2.5,1.2,3.9,1.3
			c15.7,2,31.5,2.7,47.2,1.9c5.2-32.5,7.1-65.5,5.8-98.4c-0.3-7.8-1-16.1-5.3-22.6C410.1,181.5,386.1,249.9,383.3,263.8z"/>
		<path class="st0" d="M433.5,310.7c0.3,55.1,4.4,110.1,12.4,164.6l53.3-0.1c-0.7-82.4-7.8-164.6-21.1-245.9
			c-0.9-5.3-2.6-11.5-7.7-13"/>
		<path class="st7" d="M427.2,263.8c-4.2,20.4-4.3,41.4-4.5,62.2c0,2.2,0.1,4.7,1.8,6.2c1.2,0.8,2.5,1.2,3.9,1.3
			c15.7,2,31.5,2.7,47.2,1.9c5.1-32.5,7.1-65.5,5.8-98.4c-0.3-7.8-1-16.1-5.3-22.6C454,181.5,430,249.9,427.2,263.8z"/>
		<path class="st8" d="M471.3,310.7c0.3,55.1,4.4,110.1,12.4,164.6l53.3-0.1c-0.7-82.4-7.8-164.6-21.2-245.9
			c-0.9-5.3-2.6-11.5-7.7-13"/>
		<path class="st9" d="M465,263.8c-4.2,20.4-4.3,41.4-4.5,62.2c0,2.2,0.1,4.7,1.8,6.2c1.2,0.8,2.5,1.2,3.9,1.3
			c15.7,2,31.5,2.7,47.2,1.9c5.1-32.5,7.1-65.5,5.8-98.4c-0.3-7.8-1-16.1-5.3-22.6C491.8,181.5,467.8,249.9,465,263.8z"/>
		<path class="st10" d="M500.7,312.7c0.2,55.1,4.4,110.1,12.3,164.6l53.3-0.1c-0.7-82.4-7.8-164.6-21.2-245.9
			c-0.9-5.3-2.6-11.5-7.7-13"/>
		<path class="st11" d="M494.4,265.8c-4.1,20.4-4.3,41.4-4.5,62.2c0,2.2,0.1,4.7,1.8,6.2c1.2,0.8,2.5,1.3,3.9,1.3
			c15.7,2,31.5,2.7,47.2,1.9c5.1-32.5,7.1-65.5,5.8-98.4c-0.3-7.8-1-16.1-5.3-22.6C521.2,183.5,497.2,251.9,494.4,265.8z"/>
		<path class="st12" d="M529.3,312.7c0.3,55.1,4.4,110.1,12.4,164.6l53.3-0.1c-0.7-82.4-7.8-164.6-21.2-245.9
			c-0.9-5.3-2.6-11.5-7.7-13"/>
		<path class="st13" d="M523,265.8c-4.2,20.4-4.3,41.4-4.5,62.2c0,2.2,0.1,4.7,1.8,6.2c1.2,0.8,2.5,1.2,3.9,1.3
			c15.7,2,31.5,2.7,47.2,1.9c5.2-32.5,7.1-65.5,5.8-98.4c-0.3-7.8-1-16.1-5.3-22.6C549.8,183.5,525.8,251.9,523,265.8z"/>
		<path class="st14" d="M558.9,312.7c0.3,55.1,4.4,110.1,12.4,164.6l53.3-0.1c-0.7-82.4-7.8-164.6-21.2-245.9
			c-0.9-5.3-2.6-11.5-7.7-13"/>
		<path class="st15" d="M552.6,265.8c-4.2,20.4-4.3,41.4-4.5,62.2c0,2.2,0.1,4.7,1.8,6.2c1.2,0.8,2.5,1.2,3.9,1.3
			c15.7,2,31.5,2.7,47.2,1.9c5.2-32.5,7.1-65.5,5.8-98.4c-0.3-7.8-1-16.1-5.3-22.6C579.4,183.5,555.4,251.9,552.6,265.8z"/>
		<path class="st16" d="M591.6,312.7c0.3,55.1,4.4,110.1,12.3,164.6l53.3-0.1c-0.7-82.4-7.8-164.6-21.2-245.9
			c-0.9-5.3-2.6-11.5-7.7-13"/>
		<path class="st17" d="M585.3,265.8c-4.2,20.4-4.3,41.4-4.5,62.2c0,2.2,0.1,4.7,1.8,6.2c1.2,0.8,2.5,1.3,3.9,1.3
			c15.7,2,31.5,2.7,47.2,1.9c5.1-32.5,7.1-65.5,5.8-98.4c-0.3-7.8-1-16.1-5.3-22.6C612.1,183.5,588.1,251.9,585.3,265.8z"/>
	</g>
</g>
</svg>
