<?xml version="1.0" encoding="utf-8"?>
<!-- Generator: Adobe Illustrator 22.1.0, SVG Export Plug-In . SVG Version: 6.00 Build 0)  -->
<svg version="1.1" id="Layer_1" xmlns="http://www.w3.org/2000/svg" xmlns:xlink="http://www.w3.org/1999/xlink" x="0px" y="0px"
	 viewBox="0 0 1112.4 871" style="enable-background:new 0 0 1112.4 871;" xml:space="preserve">
<style type="text/css">
	.st0{fill:#73A9CA;}
	.st1{fill:#FF9E9B;}
	.st2{fill:#3D8763;}
	.st3{fill:#FFB81B;}
	.st4{fill:#2D6849;}
</style>
<title>Asset 74</title>
<path class="st0" d="M263.6,422.2v268.4c0,0-43.9,103.4,93.3,79.6c24.3-4.2,53.5-1.5,72.6,19.2c3.9,4.2,7.1,9.2,11.3,12.8
	c6,5.1,13.6,7.1,20.9,5.5c4.2-0.9,8.1-3,12.1-4.8c37.9-17.4,72.7,15.1,112.8,13.3c24.7-1.2,48.5-9.4,71.1-21
	c23.5-12.1,35.1-28.3,62.1-20c8.2,2.5,18.4,5.8,23.9-1.7c6.6-9,3.2-21.3,11.6-30c8.8-9.1,14.9-5.8,24.8-4.2
	c23.7,3.9,45.7,18.6,69.4,20.8c6.2,0.6,12.7,0.4,18.6-2c5.2-2.1,9.9-5.9,14.8-8.9c36.8-22.4,73.9-13.6,112.2-5.4
	c15.9,3.4,33.7,3.6,46.8-7.6c9.7-8.3,11.8-20.9,19.2-30.7c4.8-6.2,11.5-9.6,17-14.9V422.2H263.6z"/>
<rect class="st1" width="1112" height="730.8"/>
<rect x="358.9" y="108.6" class="st2" width="389.8" height="621.9"/>
<circle class="st3" cx="680.3" cy="505.5" r="28.8"/>
<polygon class="st4" points="422.2,590 684.5,590 696.8,619.2 407.1,619.2 "/>
<polygon class="st4" points="422.2,629.6 684.5,629.6 696.8,658.8 407.1,658.8 "/>
<polygon class="st4" points="422.2,669.2 684.5,669.2 696.8,698.5 407.1,698.5 "/>
<rect x="457.1" y="207.7" class="st4" width="83.1" height="122.7"/>
<rect x="560.9" y="207.7" class="st4" width="83" height="122.7"/>
<rect x="457.1" y="354" class="st4" width="83.1" height="122.7"/>
<rect x="560.9" y="354" class="st4" width="83" height="122.7"/>
</svg>
