<svg xmlns="http://www.w3.org/2000/svg" viewBox="0 0 1241 479"><defs><style>.cls-1{fill:#b2c5b0;}.cls-2{fill:#86a887;}</style></defs><title>Asset 39</title><g id="Layer_2" data-name="Layer 2"><g id="_1" data-name="1"><rect class="cls-1" width="1241" height="479"/><path class="cls-2" d="M42.91,76.46c1.69,12.78,5.25,25.35,5.11,38.32-.07,5.79,8.93,5.79,9,0,.15-13-3.41-25.51-5.11-38.32-.75-5.66-9.76-5.73-9,0Z"/><path class="cls-2" d="M114.59,141.68c-1.43,6.22-3.54,12.62-2.71,19.07.31,2.43,1.84,4.47,4.5,4.5,2.19,0,4.8-2.09,4.5-4.5-.74-5.71,1.12-11.18,2.39-16.68s-7.38-8-8.68-2.39Z"/><path class="cls-2" d="M63.34,188.85c1.13,10.2,2.49,20.37,2.56,30.65,0,5.79,9,5.8,9,0-.07-10.28-1.43-20.45-2.56-30.65-.62-5.7-9.63-5.76-9,0Z"/><path class="cls-2" d="M38.42,260.09c2.69,5.51,3.85,11.76,8.36,16.23,4.12,4.09,10.49-2.27,6.37-6.36-3.74-3.71-4.71-9.8-7-14.42-2.54-5.2-10.3-.64-7.77,4.55Z"/><path class="cls-2" d="M106.77,288.47v30.65c0,5.79,9,5.8,9,0V288.47c0-5.79-9-5.8-9,0Z"/><path class="cls-2" d="M58.85,357.15c2.8,5.43,6.15,10.69,7.21,16.8,1,5.7,9.66,3.28,8.68-2.39-1.19-6.84-5-12.87-8.12-18.95-2.65-5.16-10.42-.61-7.77,4.54Z"/><path class="cls-2" d="M199.44,321.39c5.32-10.6,12.77-19.95,17.88-30.65,2.49-5.2-5.27-9.77-7.77-4.55-5.11,10.71-12.56,20.06-17.88,30.66-2.59,5.16,5.17,9.72,7.77,4.54Z"/><path class="cls-2" d="M137.42,413.63v25.54c0,5.79,9,5.8,9,0V413.63c0-5.8-9-5.8-9,0Z"/><path class="cls-2" d="M198.72,140.32V158.2c0,5.79,9,5.8,9,0V140.32c0-5.79-9-5.8-9,0Z"/><path class="cls-2" d="M224.26,40.7c-.77,9.6-6,18.25-5.1,28.1.54,5.71,9.55,5.77,9,0-.93-9.6,4.34-18.59,5.1-28.1.47-5.77-8.53-5.74-9,0Z"/><path class="cls-2" d="M76.12,27.93c.45,8,4.83,15.08,5.1,23,.2,5.77,9.21,5.8,9,0-.27-8-4.66-15.07-5.1-23-.33-5.76-9.33-5.8-9,0Z"/><path class="cls-2" d="M285.57,127.55c-1.05,9.35-2.34,18.67-2.56,28.09-.13,5.8,8.87,5.8,9,0,.22-9.42,1.51-18.74,2.56-28.09.64-5.75-8.37-5.7-9,0Z"/><path class="cls-2" d="M237,201.62c0,4.32-.47,8.65.07,12.95.42,3.41,2.87,6.66,2.48,10-.67,5.74,8.33,5.69,9,0,.44-3.78-1.42-6.26-2.34-9.74-1.1-4.17-.23-9-.21-13.25,0-5.79-9-5.8-9,0Z"/><path class="cls-2" d="M313.82,47c1.89,9.55,1.79,20,8.82,27.52,4,4.25,10.32-2.12,6.37-6.36-5.54-5.94-5-16-6.51-23.56-1.12-5.67-9.79-3.27-8.68,2.4Z"/><path class="cls-2" d="M408.17,94.34c.07,8.56,1.12,17.44-.67,25.89-1.61,7.64-4.94,14.66-4.44,22.64.36,5.76,9.37,5.8,9,0-.51-8.18,3.54-15.66,4.71-23.64,1.21-8.25.47-16.59.4-24.89,0-5.79-9-5.8-9,0Z"/><path class="cls-2" d="M334.1,171c-.9,12.47-2.82,24.8-5,37.12-1,5.66,7.69,8.09,8.68,2.39A398.18,398.18,0,0,0,343.1,171c.41-5.78-8.59-5.75-9,0Z"/><path class="cls-2" d="M295.94,287.11c1.78,5.13,2.67,10.48,6.27,14.76,1.57,1.86,4.75,1.61,6.36,0a4.6,4.6,0,0,0,0-6.37c-2.38-2.83-2.77-7.39-3.95-10.78-1.88-5.44-10.58-3.11-8.68,2.39Z"/><path class="cls-2" d="M428.77,233.63c-4.54,12-8.8,24.17-10.38,37-.71,5.73,8.3,5.68,9,0,1.47-11.89,5.84-23.43,10.06-34.57,2.05-5.42-6.65-7.76-8.68-2.39Z"/><path class="cls-2" d="M354.53,314v38.31c0,5.79,9,5.8,9,0V314c0-5.79-9-5.8-9,0Z"/><path class="cls-2" d="M255.53,369.92c3.44,7.12,5,15.67,10.92,21.34,4.18,4,10.55-2.34,6.36-6.36-5.13-4.93-6.49-13.28-9.51-19.52-2.52-5.22-10.28-.66-7.77,4.54Z"/><path class="cls-2" d="M21.24,421.92c6.93,6.37,8.75,16.24,15.33,23,4,4.16,10.41-2.21,6.36-6.36-6.53-6.7-8.28-16.51-15.33-23-4.25-3.91-10.63,2.43-6.36,6.37Z"/><path class="cls-2" d="M170.78,353.52c2.18,6.19,2.56,17.09,10.81,18.47,5.67.95,8.1-7.73,2.39-8.68-.61-.1-.5.07-1.16-1a14.67,14.67,0,0,1-1.35-3.57c-.73-2.52-1.14-5.15-2-7.62-1.9-5.43-10.6-3.1-8.68,2.39Z"/><path class="cls-2" d="M276.69,454.49a43,43,0,0,1,2.18-14.86c1.56-4.4,3.33-8.45,2.93-13.23-.49-5.73-9.49-5.78-9,0,.41,5-2.34,9.32-3.61,14a53,53,0,0,0-1.5,14.08c0,5.79,9,5.81,9,0Z"/><path class="cls-2" d="M413.28,413.63c0,5.69,1.56,11,2.72,16.52s9.86,3.27,8.67-2.39c-1-4.75-2.43-9.24-2.39-14.13.05-5.8-8.95-5.8-9,0Z"/><path class="cls-2" d="M525.67,339.55c1.26,10.2,2.49,20.37,2.55,30.65,0,5.79,9,5.8,9,0-.06-10.28-1.29-20.45-2.55-30.65-.7-5.67-9.71-5.74-9,0Z"/><path class="cls-2" d="M464.53,305.15c-3.55,9.51-5.76,19.22-8.49,29-2.12,7.53-5.4,15.35-4.45,23.32.69,5.68,9.7,5.75,9,0-.91-7.64,2.59-15,4.49-22.26,2.45-9.34,4.74-18.55,8.13-27.63,2-5.43-6.68-7.78-8.68-2.39Z"/><path class="cls-2" d="M489.91,153.09c0,6-.32,12.08-.12,18.11.18,5.63,1.66,10.82,2.83,16.29,1.21,5.66,9.89,3.27,8.68-2.39-1.14-5.33-2.47-10.21-2.55-15.7s.13-10.88.16-16.31c0-5.79-9-5.8-9,0Z"/><path class="cls-2" d="M574.2,234.83v35.76c0,5.79,9,5.8,9,0V234.83c0-5.79-9-5.8-9,0Z"/><path class="cls-2" d="M589.53,383c1.22,10.2,2.48,20.37,2.55,30.66,0,5.78,9,5.8,9,0-.07-10.29-1.33-20.46-2.55-30.66-.69-5.67-9.7-5.74-9,0Z"/><path class="cls-2" d="M497.57,418.73c-.1,4.42-2.82,8.21-2.55,12.78.33,5.75,9.34,5.79,9,0-.26-4.36,2.45-8.35,2.55-12.78.14-5.79-8.86-5.79-9,0Z"/><path class="cls-2" d="M461.81,38.15V58.58c0,5.79,9,5.8,9,0V38.15c0-5.79-9-5.8-9,0Z"/><path class="cls-2" d="M610,79c-.19,8-4.44,15.33-5.1,23.36-.62,7.43-3.46,15.16-2.56,22.61.68,5.68,9.69,5.75,9,0-.51-4.21.49-8.14,1.31-12.25a103.1,103.1,0,0,0,1.25-10.36c.78-8,4.9-15.18,5.1-23.36.14-5.8-8.86-5.8-9,0Z"/><path class="cls-2" d="M686.75,177.44c-1.22,7.59,2.29,14.17,2.39,21.63.09,5.78,9.09,5.8,9,0-.09-6.36-3.72-13-2.71-19.24.9-5.67-7.77-8.11-8.68-2.39Z"/><path class="cls-2" d="M773.43,89.23c.78,10,3.85,19.45,5.27,29.3.83,5.71,9.5,3.28,8.68-2.4-1.31-9-4.24-17.77-5-26.9-.44-5.73-9.45-5.78-9,0Z"/><path class="cls-2" d="M944.73,88c-1.82,9.08-3.7,18.15-5.88,27.16-1.94,8-5.61,15.75-6.89,23.92-.89,5.67,7.78,8.11,8.68,2.39,1.28-8.17,5-15.88,6.89-23.92,2.17-9,4.06-18.08,5.88-27.16,1.13-5.66-7.54-8.08-8.68-2.39Z"/><path class="cls-2" d="M701.91,48.36c.21,8,4.91,15,5.11,23,.15,5.78,9.15,5.81,9,0-.21-8-4.9-15-5.11-23-.15-5.78-9.15-5.8-9,0Z"/><path class="cls-2" d="M865.39,53.47V73.91c0,5.79,9,5.8,9,0V53.47c0-5.79-9-5.8-9,0Z"/><path class="cls-2" d="M832.18,206.73c-.08,7.4,1.54,18.92-3.79,24.91-3.84,4.32,2.51,10.71,6.37,6.37,7.39-8.31,6.3-20.92,6.42-31.28.07-5.79-8.93-5.8-9,0Z"/><path class="cls-2" d="M719.79,252.71v23c0,5.8,9,5.81,9,0v-23c0-5.79-9-5.8-9,0Z"/><path class="cls-2" d="M646.33,303.51c1.53,3.36,2.57,6.92,4.12,10.27s4.35,5.83,5.65,9.09c2.11,5.32,10.82,3,8.68-2.39-1.48-3.71-4.19-6.46-6-10-1.86-3.69-3-7.74-4.7-11.51-2.4-5.27-10.16-.7-7.78,4.54Z"/><path class="cls-2" d="M827.23,317.92c-.79,5.52-3.45,10.85-2.71,16.52.31,2.43,1.84,4.48,4.5,4.5,2.19,0,4.81-2.09,4.5-4.5-.63-4.84,1.71-9.4,2.39-14.13.35-2.42-.6-4.8-3.14-5.53-2.11-.61-5.19.74-5.54,3.14Z"/><path class="cls-2" d="M980.33,229.72v12.77c0,5.79,9,5.8,9,0V229.72c0-5.79-9-5.8-9,0Z"/><path class="cls-2" d="M914.08,238.58c2,6.25,5.48,12.52,4.95,19.23-.46,5.78,8.54,5.75,9,0,.6-7.62-3.06-14.55-5.27-21.63-1.73-5.5-10.42-3.15-8.68,2.4Z"/><path class="cls-2" d="M676.37,395.75c0,9.05-1.43,30.31,11,32.43,5.66,1,8.1-7.7,2.39-8.68-3.31-.56-3.71-8.05-4-10.6a128.27,128.27,0,0,1-.4-13.15c0-5.8-9-5.8-9,0Z"/><path class="cls-2" d="M770.88,372.76c.36,5.19,3.1,10.11,2.55,15.32-.25,2.44,2.26,4.48,4.5,4.5,2.65,0,4.25-2.09,4.5-4.5.58-5.43-2.18-10.06-2.55-15.32-.41-5.75-9.41-5.79-9,0Z"/><path class="cls-2" d="M931.8,372.76c-.73,6.88-3.11,13.42-2.56,20.43.46,5.74,9.46,5.79,9,0-.54-6.92,1.83-13.6,2.56-20.43.61-5.76-8.4-5.71-9,0Z"/><path class="cls-2" d="M827.07,429v17.88c0,5.79,9,5.8,9,0V429c0-5.79-9-5.8-9,0Z"/><path class="cls-2" d="M898.59,321.67v23c0,5.79,9,5.8,9,0v-23c0-5.79-9-5.8-9,0Z"/><path class="cls-2" d="M1072.28,306.35v17.88c0,5.79,9,5.8,9,0V306.35c0-5.79-9-5.8-9,0Z"/><path class="cls-2" d="M1003.32,360c.1,7.75,2.27,15.25,2.55,23,.22,5.78,9.22,5.81,9,0-.28-7.73-2.45-15.24-2.55-23-.08-5.79-9.08-5.81-9,0Z"/><path class="cls-2" d="M962.45,429c.31,5.22,3,10.1,2.55,15.33-.47,5.77,8.53,5.74,9,0,.45-5.42-2.23-10.06-2.55-15.33-.34-5.75-9.35-5.79-9,0Z"/><path class="cls-2" d="M1110.6,400.85v7.67a4.5,4.5,0,0,0,9,0v-7.67a4.5,4.5,0,1,0-9,0Z"/><path class="cls-2" d="M980.33,291c.07,6,.91,12.09.08,18-.73,5.21-3,9.8-2.63,15.19.38,5.75,9.38,5.79,9,0-.35-5.26,2.14-10.18,2.68-15.39.61-5.92-.06-11.89-.13-17.82s-9.07-5.8-9,0Z"/><path class="cls-2" d="M763.22,178.63v35.76c0,5.79,9,5.8,9,0V178.63c0-5.79-9-5.8-9,0Z"/><path class="cls-2" d="M546.1,117.33a269.58,269.58,0,0,0,5.27,39.51c1.24,5.65,9.92,3.26,8.68-2.39a253.44,253.44,0,0,1-4.95-37.12c-.39-5.75-9.39-5.79-9,0Z"/><path class="cls-2" d="M1008.43,35.59c0,13.27-.1,26.48,2.71,39.51,1.22,5.66,9.9,3.27,8.68-2.39-2.64-12.23-2.41-24.68-2.39-37.12,0-5.79-9-5.8-9,0Z"/><path class="cls-2" d="M1023.75,130.1a295.33,295.33,0,0,1,2.56,33.21c0,5.79,9,5.8,9,0a295.33,295.33,0,0,0-2.56-33.21c-.67-5.68-9.68-5.75-9,0Z"/><path class="cls-2" d="M1128.64,77.82c-1.86,6.78-3.9,13.5-5.11,20.43-1,5.67,7.68,8.1,8.68,2.4,1.21-6.94,3.25-13.66,5.11-20.44,1.53-5.59-7.15-8-8.68-2.39Z"/><path class="cls-2" d="M1069.73,79v33.2c0,5.79,9,5.8,9,0V79c0-5.8-9-5.81-9,0Z"/><path class="cls-2" d="M1192.34,142.87c0,10-2.52,19.76-4.37,29.53-1,5-2,9.91-2.58,14.93-.42,3.38.42,8.38-2,11.11-3.79,4.35,2.55,10.74,6.36,6.36,3-3.39,3.88-7,4.14-11.44a127.49,127.49,0,0,1,2.35-16.71c2.12-11.14,5.07-22.37,5-33.78,0-5.79-9-5.8-9,0Z"/><path class="cls-2" d="M1110.6,196.51v30.65c0,5.79,9,5.8,9,0V196.51c0-5.79-9-5.8-9,0Z"/><path class="cls-2" d="M1062.23,215.59c1.68,5.35,5.65,10.89,5,16.68s8.31,5.69,9,0c.82-6.79-3.31-12.85-5.27-19.07-1.74-5.51-10.43-3.16-8.68,2.39Z"/><path class="cls-2" d="M1194.89,270.59c-1.08,8.35-5.85,15.69-7.12,24-.71,4.62-.47,12.95-4.33,16.22-4.43,3.74,2,10.08,6.36,6.36,5.22-4.41,5.58-12.84,6.49-19.08,1.38-9.54,6.36-17.94,7.6-27.52.74-5.73-8.27-5.68-9,0Z"/><path class="cls-2" d="M1133.59,301.24v28.09c0,5.8,9,5.81,9,0V301.24c0-5.79-9-5.8-9,0Z"/><path class="cls-2" d="M1200,411.07c-.5,8.18-2.82,16.25-5.45,24l3.15-3.14-2.06.38c-5.69,1-3.28,9.71,2.39,8.67l2.06-.37a4.49,4.49,0,0,0,3.14-3.15c2.89-8.51,5.22-17.35,5.77-26.36.35-5.78-8.65-5.76-9,0Z"/><path class="cls-2" d="M1057,411.07V426.4c0,5.79,9,5.8,9,0V411.07c0-5.79-9-5.8-9,0Z"/><path class="cls-2" d="M157.55,47.76c.18,8.38,1.23,16.68,1.93,25,.48,5.73,9.48,5.78,9,0-.7-8.34-1.75-16.64-1.93-25-.11-5.78-9.11-5.8-9,0Z"/><path class="cls-2" d="M862,137.47c3,16.86,5.4,33.94,11.54,50,2,5.36,10.75,3,8.68-2.39-6.14-16.09-8.51-33.17-11.54-50-1-5.69-9.7-3.28-8.68,2.39Z"/><path class="cls-2" d="M548.16,18.9c-.29,2.59-.37,5.19-.7,7.77-.24,1.91-.4,4.95-1.83,6.37-4.12,4.08,2.25,10.44,6.37,6.36,5.11-5.06,4.42-13.9,5.16-20.5.65-5.75-8.35-5.7-9,0Z"/><path class="cls-2" d="M1183.15,28.52a19.28,19.28,0,0,0,5.16,12.8,4.5,4.5,0,0,0,6.37-6.36,9.67,9.67,0,0,1-2.53-6.44c-.08-5.79-9.08-5.8-9,0Z"/></g></g></svg>