<?xml version="1.0" encoding="utf-8"?>
<!-- Generator: Adobe Illustrator 22.1.0, SVG Export Plug-In . SVG Version: 6.00 Build 0)  -->
<svg version="1.1" id="Layer_1" xmlns="http://www.w3.org/2000/svg" xmlns:xlink="http://www.w3.org/1999/xlink" x="0px" y="0px"
	 viewBox="0 0 342.4 197.4" style="enable-background:new 0 0 342.4 197.4;" xml:space="preserve">
<style type="text/css">
	.st0{fill:#F5919C;}
	.st1{fill:#F9BEC1;}
	.st2{fill:#A57F83;}
</style>
<title>Asset 89</title>
<g id="Layer_2_1_">
	<g id="Layer_4">
		<path class="st0" d="M98.7,0h145c54.5,0,98.7,44.2,98.7,98.7l0,0c0,54.5-44.2,98.7-98.7,98.7h-145C44.2,197.3,0,153.2,0,98.7l0,0
			C0,44.2,44.2,0,98.7,0z"/>
		<path class="st1" d="M102.6,1h137.2c46.3,0,83.9,37.6,83.9,83.9l0,0c0,46.3-37.6,83.9-83.9,83.9H102.6
			c-46.3,0-83.9-37.6-83.9-83.9l0,0C18.7,38.6,56.2,1,102.6,1z"/>
	</g>
</g>
<g>
	<path class="st2" d="M92,95.4c0,4.9-1.8,8.8-5.3,11.6c-3.5,2.8-8.1,4.2-13.7,4.2c-2.6,0-4.9-0.3-7.1-1c-2.1-0.7-4-1.6-5.5-2.8
		c-1.6-1.2-2.8-2.6-3.7-4.2c-0.9-1.6-1.4-3.1-1.6-4.8c-0.2-1.6,0.3-2.9,1.3-3.8c1-0.9,2.2-1.3,3.5-1.3c1.6,0,2.7,0.4,3.3,1.1
		c0.7,0.7,1.1,1.8,1.2,3.2c0.2,1.3,1,2.5,2.5,3.6c1.5,1,3.5,1.6,6,1.6c2.4,0,4.5-0.6,6.5-1.8c1.9-1.2,2.9-2.8,2.9-5
		c0-1.2-0.3-2.2-1-2.9c-0.7-0.8-1.5-1.4-2.5-2c-1-0.5-2.1-1-3.3-1.3c-1.2-0.3-2.3-0.5-3.2-0.6c-1.8-0.2-3.7-0.6-5.7-1.1
		c-2-0.5-3.8-1.2-5.4-2.2c-1.6-1-3-2.3-4-3.9c-1-1.6-1.5-3.7-1.4-6.3c0.1-1.9,0.6-3.6,1.6-5.2c1-1.6,2.2-3,3.7-4.2
		c1.5-1.2,3.3-2.1,5.3-2.8c2-0.7,4.1-1.1,6.3-1.1c3.7,0,7.1,0.6,10.2,1.9c3.1,1.3,5.4,3.4,6.8,6.4c0.8,1.5,0.8,2.8,0.3,4
		c-0.6,1.2-1.4,2-2.4,2.4c-1.3,0.6-2.6,0.8-3.7,0.4c-1.1-0.4-2-1.2-2.8-2.4c-0.7-1.3-1.8-2.2-3.4-2.9c-1.6-0.7-3.2-1-5-1
		c-1.6,0-3.2,0.4-4.7,1.2c-1.5,0.8-2.4,1.9-2.5,3.4c-0.1,1,0.2,1.8,0.7,2.5c0.6,0.7,1.3,1.2,2.3,1.6c0.9,0.4,2,0.7,3.1,0.8
		c1.1,0.2,2.2,0.3,3.1,0.5c2,0.2,4,0.6,6,1.2c2,0.6,3.8,1.4,5.5,2.5c1.6,1.1,3,2.5,4,4.2C91.5,90.6,92,92.8,92,95.4z"/>
	<path class="st2" d="M90.2,124.1c0,1.4-0.3,2.6-1,3.6c-0.7,1-1.5,1.9-2.6,2.6c-1.1,0.7-2.2,1.2-3.6,1.5c-1.3,0.3-2.6,0.5-4,0.5
		c-1.3,0-2.6-0.2-4-0.5c-1.3-0.3-2.5-0.8-3.6-1.5c-1.1-0.7-1.9-1.6-2.6-2.6c-0.7-1-1-2.2-1-3.6v-1.5h-0.6c-1.6,0-2.7-0.4-3.5-1.3
		c-0.8-0.9-1.2-1.9-1.2-3.2c0-1.1,0.4-2.2,1.2-3.1c0.8-0.9,1.9-1.4,3.5-1.4h5.2c1.6,0,2.7,0.5,3.5,1.4c0.8,0.9,1.2,2,1.2,3.2v4.6
		c0,1.3,0.6,2,1.8,2c1.2,0,1.8-0.7,1.8-2v-5.1c0-1.5,0.5-2.6,1.5-3.3c1-0.7,2-1.1,3.2-1.1c1.1,0,2.2,0.4,3.2,1.1
		c1,0.7,1.5,1.8,1.5,3.3V124.1z"/>
	<path class="st2" d="M100.1,53.8c0,1.3-0.4,2.3-1.2,3.2c-0.8,0.9-1.9,1.3-3.5,1.3H80c-1.6,0-2.7-0.4-3.5-1.3
		c-0.8-0.9-1.2-1.9-1.2-3.2v-2.6h-1.8c-1.6,0-2.7-0.4-3.5-1.3c-0.8-0.9-1.2-1.9-1.2-3.2c0-1.1,0.4-2.1,1.2-3.1
		c0.8-1,1.9-1.5,3.5-1.5h6.6c1.8,0,3.2,0.4,4.1,1.3c0.9,0.9,1.4,2,1.4,3.5v2.2h9.8c1.6,0,2.7,0.5,3.5,1.5
		C99.7,51.6,100.1,52.7,100.1,53.8z"/>
	<path class="st2" d="M133.3,93.4c0,2.8-0.5,5.3-1.4,7.5c-0.9,2.2-2.2,4-3.9,5.6c-1.7,1.5-3.6,2.7-5.9,3.5c-2.3,0.8-4.7,1.2-7.4,1.2
		c-2.7,0-5.2-0.4-7.5-1.3c-2.4-0.9-4.4-2-6.1-3.6c-1.7-1.5-3-3.4-3.9-5.6c-0.9-2.2-1.3-4.6-1.1-7.4c0.2-2.5,0.9-4.4,2.2-5.9
		c1.3-1.5,2.7-2.6,4.1-3.3c-1.7-0.8-3.2-2.2-4.5-4c-1.2-1.8-1.8-4.1-1.8-6.8c0-1.3,0.2-2.6,0.7-3.9c0.5-1.3,1.1-2.4,2-3.4
		c0.9-1,1.9-1.8,3.2-2.4c1.3-0.6,2.8-0.9,4.4-0.9c1.8,0,3.3,0.5,4.4,1.4c1.2,0.9,1.8,2.1,1.8,3.5c0,1.5-0.4,2.7-1.2,3.4
		c-0.8,0.8-1.9,1.1-3.3,0.9c-0.8-0.2-1.4,0.2-1.9,0.9c-0.5,0.8-0.7,1.6-0.5,2.6c0.2,1.1,0.7,2,1.6,2.8c0.9,0.8,2,1.2,3.3,1.2h2.2
		c1.8,0,3,0.5,3.7,1.5c0.7,1,1,2,1,3.1c0,1.3-0.4,2.3-1.3,3.2c-0.9,0.9-2.1,1.3-3.6,1.2c-0.8,0-1.6,0.1-2.4,0.3
		c-0.8,0.2-1.6,0.6-2.3,1.1c-0.7,0.5-1.3,1.2-1.7,1.9c-0.5,0.8-0.7,1.7-0.7,2.7c-0.1,2.3,0.7,4.3,2.4,6c1.7,1.7,4,2.6,6.9,2.6
		c2.9,0,5.2-0.8,6.8-2.4c1.6-1.6,2.4-3.8,2.4-6.5V67c0-1.5,0.5-2.6,1.5-3.3c1-0.7,2-1.1,3.2-1.1c1.2,0,2.2,0.4,3.2,1.1
		c1,0.7,1.5,1.8,1.5,3.3V93.4z"/>
	<path class="st2" d="M145.8,53.8c0,1.3-0.4,2.3-1.2,3.2c-0.8,0.9-1.9,1.3-3.5,1.3h-22.5c-2.2,0-4-0.6-5.3-1.9c-1.3-1.3-2-2.8-2-4.6
		c0-1.8,0.7-3.3,2-4.6c1.3-1.3,3.1-1.9,5.3-1.9c1.6,0,3,0.4,4.2,1.2c1.2,0.8,2,1.8,2.5,2.9h15.8c1.6,0,2.7,0.5,3.5,1.5
		C145.4,51.6,145.8,52.7,145.8,53.8z"/>
	<path class="st2" d="M175.9,86.6c0,7.6-1.7,13.5-5.2,17.7c-3.5,4.3-8.2,6.4-14.3,6.4h-3.9c-2.1,0-3.9-0.4-5.5-1.1
		c-1.6-0.7-2.6-2.2-3-4.4L137.8,81c-0.4-1.3-0.2-2.3,0.5-3.2c0.7-0.9,1.6-1.5,2.6-1.9c1.3-0.4,2.5-0.3,3.8,0.1c1.2,0.5,2,1.5,2.4,3
		l6,23.8h3.6c1.5,0,2.8-0.4,4-1.2c1.2-0.8,2.3-1.9,3.2-3.3c0.9-1.4,1.6-3.1,2-5c0.5-1.9,0.7-3.9,0.7-6.1c0-2-0.2-4-0.7-5.8
		c-0.5-1.8-1.1-3.4-2-4.8c-0.9-1.4-1.9-2.5-3-3.3c-1.2-0.8-2.5-1.2-3.9-1.2c-1.1,0-2.3,0.2-3.5,0.7c-1.2,0.4-2.2,0.7-3,0.7
		c-1.8,0-3.1-0.5-3.8-1.6c-0.8-1.1-1.1-2.3-0.9-3.7c0.2-1.4,1.3-2.7,3.3-3.8c2-1.1,4.5-1.7,7.3-1.7c2.7,0,5.2,0.5,7.5,1.4
		c2.4,0.9,4.4,2.4,6.2,4.4c1.8,2,3.2,4.5,4.2,7.5C175.4,78.9,175.9,82.4,175.9,86.6z"/>
	<path class="st2" d="M217.4,86.7c0,3.5-0.4,6.7-1.3,9.6c-0.9,3-2.2,5.6-3.9,7.8c-1.7,2.2-3.8,3.9-6.3,5.2c-2.5,1.2-5.4,1.8-8.7,1.8
		c-2.4,0-4.6-0.4-6.7-1.1c-2.1-0.8-3.9-1.8-5.4-3c-1.6-1.3-2.8-2.7-3.8-4.3s-1.6-3.2-1.8-4.8c-0.2-1.4,0-2.5,0.6-3.4
		c0.6-0.9,1.4-1.5,2.4-1.8c1.3-0.4,2.5-0.3,3.7,0.2c1.2,0.5,2,1.7,2.4,3.4c0.3,1.6,1.3,3,2.9,4.3c1.6,1.3,3.5,1.9,5.7,1.9
		c1.9,0,3.6-0.4,4.9-1.3c1.3-0.9,2.4-2.1,3.3-3.6c0.9-1.5,1.5-3.2,1.8-5.1c0.4-1.9,0.6-3.8,0.6-5.8c0-2-0.2-3.9-0.6-5.8
		c-0.4-1.9-1-3.5-1.8-5c-0.9-1.5-1.9-2.7-3.3-3.6c-1.3-0.9-3-1.3-4.9-1.3c-2.2,0-4.2,0.6-5.7,1.9c-1.6,1.3-2.6,2.7-2.9,4.2
		c-0.4,1.9-1.3,3.1-2.7,3.6c-1.4,0.5-2.7,0.4-3.9-0.2c-0.9-0.4-1.5-1-2-1.8c-0.5-0.9-0.6-1.9-0.5-3.2c0.2-1.6,0.8-3.2,1.8-4.8
		s2.2-3,3.8-4.3c1.6-1.3,3.4-2.3,5.4-3c2.1-0.8,4.3-1.2,6.7-1.2c3.3,0,6.2,0.6,8.7,1.9c2.5,1.3,4.6,3,6.3,5.2c1.7,2.2,3,4.8,3.9,7.8
		C216.9,80.1,217.4,83.3,217.4,86.7z"/>
	<path class="st2" d="M215.7,54.2c0,1.6-0.5,2.7-1.5,3.4c-1,0.7-2,1.1-3.2,1.1c-1.2,0-2.2-0.4-3.2-1.1c-1-0.7-1.5-1.9-1.5-3.4v-8.4
		c0-1.6,0.5-2.7,1.5-3.4c1-0.7,2-1.1,3.2-1.1c1.1,0,2.2,0.4,3.2,1.1c1,0.7,1.5,1.9,1.5,3.4V54.2z"/>
	<path class="st2" d="M246.8,106.6c0,1.6-0.5,2.7-1.4,3.5c-0.9,0.8-2,1.1-3.1,1.1c-1.2,0-2.3-0.4-3.3-1.1c-1-0.8-1.5-1.9-1.5-3.5
		V79.4c0-2.1-0.6-3.9-1.9-5.4c-1.3-1.5-2.9-2.2-5-2.2c-1,0-1.8,0.1-2.4,0.3c-0.6,0.2-1.1,0.4-1.5,0.6c-1.6,0.8-3,1-4.2,0.4
		c-1.2-0.5-2-1.4-2.5-2.4c-0.5-1-0.5-2.1-0.2-3.3c0.3-1.2,1.2-2.1,2.6-2.9c0.7-0.4,1.7-0.8,3-1.3c1.3-0.5,3.1-0.7,5.3-0.7
		c2.3,0,4.5,0.4,6.5,1.2c2,0.8,3.7,1.9,5.1,3.3c1.4,1.4,2.5,3.2,3.4,5.2c0.8,2,1.2,4.2,1.2,6.7V106.6z"/>
	<path class="st2" d="M268.1,103.6c0,2-0.6,3.6-1.7,5c-1.1,1.3-2.6,2-4.4,2c-1.8,0-3.3-0.7-4.5-2c-1.2-1.3-1.8-3-1.8-5
		c0-1.9,0.6-3.6,1.9-5c1.3-1.4,2.7-2,4.4-2c1.8,0,3.2,0.7,4.4,2C267.5,100,268.1,101.7,268.1,103.6z"/>
	<path class="st2" d="M291.4,103.6c0,2-0.6,3.6-1.7,5c-1.1,1.3-2.6,2-4.4,2c-1.8,0-3.3-0.7-4.5-2c-1.2-1.3-1.8-3-1.8-5
		c0-1.9,0.6-3.6,1.9-5c1.3-1.4,2.7-2,4.4-2c1.8,0,3.2,0.7,4.4,2C290.9,100,291.4,101.7,291.4,103.6z"/>
	<path class="st2" d="M314.8,103.6c0,2-0.6,3.6-1.7,5c-1.1,1.3-2.6,2-4.4,2s-3.3-0.7-4.5-2c-1.2-1.3-1.8-3-1.8-5
		c0-1.9,0.6-3.6,1.9-5c1.3-1.4,2.7-2,4.4-2c1.8,0,3.2,0.7,4.4,2C314.2,100,314.8,101.7,314.8,103.6z"/>
</g>
</svg>
