<svg xmlns="http://www.w3.org/2000/svg" viewBox="0 0 378.56 259.21"><defs><style>.cls-1{fill:#fff;}.cls-2{fill:#dcddde;}</style></defs><title>Asset 2</title><g id="Layer_2" data-name="Layer 2"><g id="Layer_1-2" data-name="Layer 1"><path class="cls-1" d="M.1,70.88C.24,74.26.49,77.63.76,81c2,24.93,15.75,48.29,27.05,70.06,11.52,22.18,22.25,45.25,34.75,67.11,5.29,9.26,11,18.46,18.88,25.66,31,28.36,87.08,14.71,110-17.39,16.3-22.86,5.84-51.72-4.56-74.71-11.59-25.64-29.33-46.36-48.22-66.93L108,51.38C83.52,24.73,33.12-4.2,6.08,39.86.47,49-.34,60,.1,70.88Z"/><path class="cls-2" d="M23.69,27.48A40.52,40.52,0,0,1,64,20.25c10.56,4,18.83,12.31,26.76,20.35,30.12,30.54,60.35,61.22,85.89,95.69,9.15,12.34,18,26.48,16.89,41.8-.68,9-4.87,17.44-10.53,24.45-19.24,23.83-58.35,29.55-82,10.07C79.9,195.2,75.14,165.28,62.17,141.17,46,111.08-15.56,61.89,23.69,27.48Z"/><path class="cls-1" d="M160.71,165.6a65.5,65.5,0,0,1,33.16,2.84,135.42,135.42,0,0,0-9.77-27.85c-2.12-4.42-4.54-8.81-8.13-12.15-5.52-5.13-13.31-7.24-20.84-7.38-23.74-.47-44,16.12-61.82,31.79L74.65,169.24c-2.51,2.2-5.16,4.65-5.77,7.93-.53,2.84.6,5.7,1.75,8.35,4.47,10.33,9.27,21.1,15.86,30.17C113.74,201.45,127,171.48,160.71,165.6Z"/><path class="cls-1" d="M124.58,111.66a65.62,65.62,0,0,1,33.16-2.94A135.83,135.83,0,0,0,143.29,83c-2.85-4-6-7.89-10.11-10.56-6.33-4.1-14.36-4.82-21.8-3.67-23.47,3.66-40.52,23.5-55.38,42L40.45,130.13c-2.09,2.61-4.28,5.48-4.31,8.82,0,2.89,1.58,5.51,3.16,7.92,6.2,9.4,12.79,19.18,20.85,27C84.52,155.1,92.36,123.29,124.58,111.66Z"/><path class="cls-1" d="M178.78,53.76c.14,3.38.39,6.76.66,10.07,2,24.93,15.75,48.29,27.05,70.06C218,156.08,228.74,179.14,241.24,201c5.29,9.25,11,18.45,18.88,25.66,30.95,28.36,87.08,14.71,110-17.4,16.3-22.85,5.84-51.72-4.56-74.71-11.59-25.64-29.33-46.35-48.22-66.92L286.67,34.26C262.2,7.62,211.8-21.32,184.76,22.74,179.15,31.89,178.34,42.85,178.78,53.76Z"/><path class="cls-2" d="M202.37,10.36a40.49,40.49,0,0,1,40.31-7.22c10.56,4,18.83,12.3,26.76,20.35C299.56,54,329.79,84.7,355.33,119.17c9.15,12.35,18.05,26.48,16.89,41.81-.68,9-4.87,17.43-10.53,24.44-19.24,23.83-58.35,29.55-82,10.08-21.12-17.41-25.88-47.33-38.84-71.44C224.68,94,163.12,44.78,202.37,10.36Z"/><path class="cls-1" d="M339.39,148.48a65.72,65.72,0,0,1,33.16,2.84,135.62,135.62,0,0,0-9.77-27.85c-2.12-4.42-4.54-8.81-8.13-12.14-5.52-5.13-13.31-7.24-20.84-7.39-23.74-.46-44,16.13-61.82,31.79l-18.66,16.39c-2.51,2.2-5.16,4.66-5.77,7.94-.53,2.84.6,5.7,1.75,8.35,4.47,10.33,9.27,21.1,15.86,30.16C292.42,184.33,305.64,154.37,339.39,148.48Z"/><path class="cls-1" d="M303.26,94.55a65.51,65.51,0,0,1,33.16-2.94A135.53,135.53,0,0,0,322,65.87c-2.85-4-6-7.9-10.11-10.56-6.33-4.1-14.36-4.83-21.8-3.67-23.47,3.65-40.52,23.49-55.38,42L219.13,113c-2.09,2.6-4.28,5.48-4.31,8.82,0,2.88,1.58,5.51,3.16,7.92,6.2,9.4,12.79,19.17,20.85,27C263.2,138,271,106.18,303.26,94.55Z"/></g></g></svg>