<svg xmlns="http://www.w3.org/2000/svg" viewBox="0 0 518.42 350.48"><defs><style>.cls-1{fill:#a1a1a1;}.cls-2{fill:#cdcdcd;}.cls-3{fill:#616161;}.cls-4{fill:#bef8ff;}</style></defs><title>Asset 11</title><g id="Layer_2" data-name="Layer 2"><g id="_2" data-name="2"><path class="cls-1" d="M148.17,7.59S236.36-31.74,315.91,68.7c71.88,90.75,202.44,241,202.44,241s3.62,17.66-43.5,40.81l-216.38-243S157.39,69.91,148.17,7.59Z"/><path class="cls-2" d="M161.78,3.44S183.2,5.13,222,34c37.53,27.85,42.2,45.54,42.2,45.54L275.51,162,79.82,22.72Z"/><path class="cls-1" d="M79.82,22.72S62.69,78.25,149.35,134.55,275.51,162,275.51,162,215.59,37.2,79.82,22.72Z"/><ellipse class="cls-3" cx="218.56" cy="100.79" rx="2" ry="6.5" transform="translate(-15.31 157.62) rotate(-38.41)"/><ellipse class="cls-3" cx="113.09" cy="77.98" rx="2" ry="6.5" transform="translate(-23.97 87.14) rotate(-38.41)"/><ellipse class="cls-3" cx="104.74" cy="48.88" rx="2" ry="6.5" transform="translate(-7.7 75.66) rotate(-38.41)"/><ellipse class="cls-3" cx="140.31" cy="63.84" rx="2" ry="6.5" transform="translate(-9.29 101) rotate(-38.41)"/><ellipse class="cls-3" cx="137.52" cy="99.63" rx="2" ry="6.5" transform="translate(-32.14 107.01) rotate(-38.41)"/><ellipse class="cls-3" cx="163.24" cy="95.83" rx="2" ry="6.5" transform="translate(-24.21 122.17) rotate(-38.41)"/><ellipse class="cls-3" cx="235.95" cy="156.85" rx="2" ry="6.5" transform="translate(-46.38 180.55) rotate(-38.41)"/><ellipse class="cls-3" cx="186.51" cy="82.28" rx="2" ry="6.5" transform="translate(-10.75 133.69) rotate(-38.41)"/><ellipse class="cls-3" cx="165.94" cy="127.78" rx="2" ry="6.5" transform="translate(-43.47 130.76) rotate(-38.41)"/><ellipse class="cls-3" cx="198.59" cy="122.95" rx="2" ry="6.5" transform="translate(-33.41 150) rotate(-38.41)"/><ellipse class="cls-3" cx="207.93" cy="151.89" rx="2" ry="6.5" transform="translate(-49.37 162.07) rotate(-38.41)"/><ellipse class="cls-3" cx="232.15" cy="131.13" rx="2" ry="6.5" transform="translate(-31.22 172.62) rotate(-38.41)"/><path class="cls-4" d="M72.41,124.46S-7.17,98,.52,142C8.28,186.44,72.41,124.46,72.41,124.46Z"/><path class="cls-4" d="M92.45,192.35s-75.24,37.09-38.8,63C90.4,281.51,92.45,192.35,92.45,192.35Z"/><path class="cls-4" d="M191.2,193.74s-59.12,59.51-16.23,72.2C218.21,278.74,191.2,193.74,191.2,193.74Z"/></g></g></svg>