<?xml version="1.0" encoding="utf-8"?>
<!-- Generator: Adobe Illustrator 22.1.0, SVG Export Plug-In . SVG Version: 6.00 Build 0)  -->
<svg version="1.1" id="Layer_1" xmlns="http://www.w3.org/2000/svg" xmlns:xlink="http://www.w3.org/1999/xlink" x="0px" y="0px"
	 viewBox="0 0 325 187.7" style="enable-background:new 0 0 325 187.7;" xml:space="preserve">
<style type="text/css">
	.st0{fill:#B50029;}
	.st1{fill:#FF0029;}
	.st2{opacity:0.82;fill:#FCE3EE;enable-background:new    ;}
	.st3{enable-background:new    ;}
	.st4{fill:#FFFFFF;}
</style>
<title>Asset 33</title>
<g id="Layer_2_1_">
	<g id="Layer_4">
		<path class="st0" d="M271.2,187.7H53.8C24.1,187.7,0,163.6,0,133.9V70.8C0,41.1,24.1,17,53.8,17h217.5c29.7,0,53.8,24.1,53.8,53.8
			V134C325,163.6,300.9,187.7,271.2,187.7z"/>
		<path class="st1" d="M271.2,170.7H53.8C24.1,170.7,0,146.6,0,116.9V53.8C0,24.1,24.1,0,53.8,0h217.5C300.9,0,325,24.1,325,53.8
			V117C325,146.6,300.9,170.7,271.2,170.7z"/>
		<path class="st2" d="M27.9,45.2c7.6,0,11.3,7.8,8.1,13.8c-3.8,7.3-5.5,15.5-5.1,23.8c0.5,8.2,2.3,16.2,5.2,23.9
			c1.2,3.5,1.6,5.9-1.1,9c-1.8,2.1-4.4,3.3-7.2,3.3c-12.2,0-13.8-18.2-14.2-26.7c-0.6-10.3,0-20.7,1.9-30.8
			C16.8,54.6,19,45.2,27.9,45.2z"/>
		<path class="st2" d="M40.8,33.6L40.8,33.6c-5.3,0-9.5-4.3-9.5-9.5l0,0c0-5.3,4.3-9.5,9.5-9.5l0,0c5.3,0,9.5,4.3,9.5,9.5l0,0
			C50.3,29.3,46,33.6,40.8,33.6z"/>
		<g class="st3">
			<path class="st4" d="M103.9,102c0,2.7-0.5,5.2-1.5,7.5c-1,2.3-2.4,4.2-4.2,5.8c-1.8,1.6-4,2.9-6.7,3.8c-2.6,0.9-5.5,1.4-8.8,1.4
				c-2.5,0-4.8-0.2-6.9-0.7c-2.1-0.4-4-1-5.5-1.8c-1.5-0.8-2.8-1.6-3.7-2.7c-0.9-1-1.4-2.1-1.4-3.2c0-1.5,0.5-2.7,1.5-3.6
				c1-0.9,2.3-1.4,4-1.4c0.9,0,1.8,0.2,2.9,0.5c1,0.3,2.1,0.7,3.3,1c1.1,0.3,2.4,0.7,3.7,1c1.3,0.3,2.7,0.5,4.1,0.5
				c2.1,0,3.8-0.7,5.2-2c1.4-1.3,2.1-3,2.1-4.9c0-2.6-0.9-4.4-2.8-5.6c-1.9-1.2-4.5-2.3-7.9-3.3c-2.6-0.8-4.9-1.6-6.8-2.6
				c-1.9-0.9-3.5-2-4.8-3.2c-1.3-1.2-2.2-2.5-2.8-4.1c-0.6-1.5-1-3.4-1-5.5c0-2.6,0.5-4.9,1.4-7c0.9-2.1,2.2-3.9,4-5.5
				c1.7-1.5,3.8-2.8,6.2-3.6c2.4-0.9,5.1-1.3,8.2-1.3c4.4,0,7.9,0.7,10.5,2.2c2.7,1.5,4,3.3,4,5.4c0,1.4-0.4,2.5-1.2,3.3
				s-2,1.2-3.6,1.2c-1.6,0-3.3-0.3-5-1c-1.7-0.6-3.4-1-5.1-1c-2.4,0-4.2,0.6-5.5,1.7c-1.3,1.1-1.9,2.5-1.9,4.2c0,1.1,0.2,2,0.7,2.8
				c0.5,0.7,1.2,1.4,2.1,1.9c0.9,0.6,2.1,1.1,3.4,1.5c1.3,0.4,2.9,1,4.6,1.6c5.1,1.7,8.9,3.8,11.4,6.5
				C102.7,94.4,103.9,97.8,103.9,102z"/>
			<path class="st4" d="M146,102.1c0,6-1.5,10.5-4.6,13.5c-3.1,3.1-7.6,4.6-13.5,4.6c-5.8,0-10.3-1.5-13.4-4.6
				c-3.1-3.1-4.6-7.6-4.6-13.5V85c0-2.8,0.4-4.8,1.2-6.3c0.8-1.4,2.2-2.2,4.2-2.2c1.8,0,3.1,0.7,3.9,2.2c0.8,1.4,1.2,3.5,1.2,6.3
				v14.5c0,3.5,0.5,6.1,1.6,7.8c1.1,1.7,3.1,2.6,6,2.6c2.9,0,4.8-0.9,5.8-2.6c1-1.7,1.5-4.4,1.5-7.8V85c0-2.8,0.4-4.8,1.2-6.3
				c0.8-1.4,2.2-2.2,4.1-2.2c1.9,0,3.3,0.7,4.1,2.2c0.8,1.4,1.2,3.5,1.2,6.3V102.1z"/>
			<path class="st4" d="M194.3,98.2c0,3-0.5,5.8-1.5,8.4c-1,2.6-2.3,4.9-4,6.9c-1.7,1.9-3.6,3.5-5.8,4.6c-2.2,1.1-4.6,1.7-7,1.7
				c-2,0-3.9-0.4-5.5-1.2c-1.7-0.8-3.3-2.1-4.9-3.9c-1,1.8-2,3.1-2.9,3.8c-0.9,0.7-1.9,1.1-2.9,1.1c-2,0-3.4-0.7-4.2-2.1
				c-0.8-1.4-1.2-3.5-1.2-6.2V67.3c0-2.7,0.4-4.7,1.2-6.2c0.8-1.4,2.2-2.2,4.2-2.2c3.6,0,5.3,2.8,5.3,8.3v13.8
				c1.9-1.7,3.7-2.9,5.3-3.6c1.7-0.7,3.5-1.1,5.5-1.1c2.5,0,4.9,0.5,7.1,1.6s4.2,2.6,5.8,4.5c1.7,2,3,4.3,3.9,6.9
				C193.8,92.1,194.3,95.1,194.3,98.2z M183.5,98c0-3.7-0.9-6.6-2.7-8.7c-1.8-2.1-4-3.1-6.6-3.1c-2.6,0-4.9,1-6.7,3.1
				c-1.8,2.1-2.7,5-2.7,8.7c0,3.8,0.9,6.7,2.7,8.7c1.8,2,4,3,6.7,3c2.6,0,4.8-1.1,6.6-3.2C182.6,104.4,183.5,101.6,183.5,98z"/>
			<path class="st4" d="M260.7,111.1c0,2.8-0.4,4.9-1.2,6.3c-0.8,1.4-2.2,2.1-4.1,2.1c-1.9,0-3.2-0.7-4-2.1
				c-0.8-1.4-1.2-3.5-1.2-6.3V96.3c0-7.2-2.3-10.8-6.8-10.8c-4.8,0-7.3,3.6-7.3,10.7v14.9c0,2.8-0.4,4.9-1.2,6.3
				c-0.8,1.4-2.2,2.1-4.1,2.1c-2,0-3.4-0.7-4.2-2.1c-0.8-1.4-1.2-3.5-1.2-6.3V96.3c0-7.2-2.2-10.8-6.7-10.8c-2.6,0-4.5,0.9-5.6,2.7
				c-1.1,1.8-1.7,4.5-1.7,8v14.9c0,5.6-1.8,8.4-5.3,8.4c-2,0-3.4-0.7-4.2-2.1c-0.8-1.4-1.2-3.5-1.2-6.3V85c0-2.8,0.4-4.8,1.2-6.3
				c0.8-1.4,2.2-2.2,4.2-2.2c1,0,2,0.4,2.9,1.1c0.9,0.7,1.9,2,2.9,3.8c1.6-1.9,3.2-3.2,4.8-3.9c1.6-0.7,3.4-1.1,5.3-1.1
				c2.6,0,4.9,0.5,6.9,1.5c2.1,1,4,2.7,5.8,5c2.2-2.5,4.3-4.2,6.2-5.1c1.9-0.9,4.1-1.4,6.6-1.4c4.1,0,7.4,1.4,9.7,4.1
				c2.4,2.7,3.6,6.7,3.6,11.9V111.1z"/>
			<path class="st4" d="M281,65.3c0,1.9-0.6,3.4-1.8,4.6c-1.2,1.2-2.7,1.8-4.4,1.8c-1.8,0-3.3-0.6-4.5-1.8c-1.2-1.2-1.8-2.8-1.8-4.6
				c0-1.8,0.6-3.3,1.8-4.6c1.2-1.2,2.7-1.8,4.5-1.8c1.7,0,3.2,0.6,4.4,1.8C280.4,62,281,63.5,281,65.3z M280.1,111.2
				c0,2.8-0.4,4.9-1.2,6.2c-0.8,1.4-2.2,2.1-4.1,2.1c-2,0-3.4-0.7-4.2-2.1c-0.8-1.4-1.2-3.5-1.2-6.2V85.5c0-2.8,0.4-4.9,1.2-6.3
				c0.8-1.4,2.2-2.1,4.2-2.1c3.6,0,5.3,2.8,5.3,8.4V111.2z"/>
			<path class="st4" d="M311.2,83c0,3-2.3,4.5-7,4.5h-2v23.7c0,2.8-0.4,4.9-1.1,6.2c-0.8,1.4-2.1,2.1-4.1,2.1s-3.4-0.7-4.2-2.1
				s-1.2-3.5-1.2-6.2V87.5h-1.5c-1.9,0-3.4-0.4-4.5-1.2c-1.1-0.8-1.7-1.9-1.7-3.2c0-1.6,0.6-2.8,1.8-3.5c1.2-0.8,3.1-1.2,5.8-1.2
				v-6.7c0-2.8,0.4-4.9,1.2-6.2c0.8-1.4,2.2-2.1,4.2-2.1c1.9,0,3.2,0.7,4,2.1c0.8,1.4,1.2,3.5,1.2,6.2v6.7h2.2
				c2.1,0,3.8,0.4,5.1,1.2C310.6,80.2,311.2,81.4,311.2,83z"/>
		</g>
	</g>
</g>
</svg>
