<?xml version="1.0" encoding="utf-8"?>
<!-- Generator: Adobe Illustrator 22.1.0, SVG Export Plug-In . SVG Version: 6.00 Build 0)  -->
<svg version="1.1" id="Layer_1" xmlns="http://www.w3.org/2000/svg" xmlns:xlink="http://www.w3.org/1999/xlink" x="0px" y="0px"
	 viewBox="0 0 342.4 197.4" style="enable-background:new 0 0 342.4 197.4;" xml:space="preserve">
<style type="text/css">
	.st0{fill:#F7CB20;}
	.st1{fill:#FFF349;}
	.st2{fill:#9B7C00;}
</style>
<title>Asset 89</title>
<g id="Layer_2_1_">
	<g id="Layer_4">
		<path class="st0" d="M98.7,0h145c54.5,0,98.7,44.2,98.7,98.7l0,0c0,54.5-44.2,98.7-98.7,98.7h-145C44.2,197.3,0,153.2,0,98.7l0,0
			C0,44.2,44.2,0,98.7,0z"/>
		<path class="st1" d="M102.6,1h137.2c46.3,0,83.9,37.6,83.9,83.9l0,0c0,46.3-37.6,83.9-83.9,83.9H102.6
			c-46.3,0-83.9-37.6-83.9-83.9l0,0C18.7,38.6,56.2,1,102.6,1z"/>
	</g>
</g>
<g>
	<path class="st2" d="M41,106.8c0,1.1-0.4,1.9-1.1,2.5c-0.7,0.5-1.5,0.8-2.4,0.8c-0.9,0-1.7-0.3-2.4-0.8c-0.7-0.5-1.1-1.4-1.1-2.5
		V76.8c0-1.1,0.4-1.9,1.1-2.5c0.7-0.6,1.5-0.8,2.4-0.8c0.9,0,1.7,0.3,2.4,0.8c0.7,0.6,1.1,1.4,1.1,2.5V106.8z"/>
	<path class="st2" d="M78.5,91.8c0,2.6-0.4,5-1.2,7.2c-0.8,2.2-1.9,4.2-3.4,5.8c-1.4,1.7-3.2,2.9-5.2,3.9s-4.3,1.4-6.9,1.4
		c-2.3,0-4.3-0.4-6.2-1.2c-1.9-0.8-3.5-1.8-4.9-3.2c-1.4-1.3-2.5-2.9-3.4-4.6c-0.9-1.7-1.5-3.6-1.8-5.6c-0.4-2.2,0-4,1-5.2
		c1-1.2,2.4-1.8,4-1.8h7.4c1.1,0,1.9,0.4,2.5,1.1c0.6,0.7,0.8,1.5,0.8,2.4c0,0.9-0.3,1.7-0.8,2.4c-0.6,0.7-1.4,1.1-2.5,1.1H53
		c0.5,2.2,1.4,4.1,3,5.7c1.5,1.6,3.5,2.4,5.9,2.4c1.5,0,2.8-0.3,4-1c1.2-0.7,2.1-1.5,2.9-2.6c0.8-1.1,1.4-2.3,1.8-3.7
		c0.4-1.4,0.6-2.9,0.6-4.4c0-1.5-0.2-2.9-0.7-4.3c-0.4-1.4-1-2.6-1.8-3.7c-0.8-1.1-1.7-2-2.9-2.7c-1.2-0.7-2.5-1-3.9-1
		c-2,0-3.7,0.5-5.1,1.5s-2.3,2.2-2.9,3.4c-0.5,1.2-1.3,1.8-2.3,2c-1,0.2-2,0.1-2.9-0.4c-0.7-0.3-1.2-0.9-1.6-1.7
		c-0.4-0.8-0.3-1.7,0.1-2.7c1.1-2.5,2.9-4.7,5.5-6.3c2.6-1.7,5.7-2.5,9.4-2.5c2.4,0,4.7,0.5,6.6,1.4c2,0.9,3.7,2.2,5.2,3.9
		c1.4,1.7,2.6,3.6,3.4,5.8C78,86.8,78.5,89.2,78.5,91.8z"/>
	<path class="st2" d="M100.3,106.6c0,1.2-0.3,2-1,2.6c-0.7,0.6-1.5,0.8-2.3,0.8c-0.9,0-1.7-0.3-2.4-0.8c-0.8-0.6-1.1-1.4-1.1-2.6
		V86.3c0-1.6-0.5-2.9-1.4-4c-1-1.1-2.2-1.7-3.7-1.7c-0.8,0-1.4,0.1-1.8,0.2c-0.4,0.1-0.8,0.3-1.1,0.4c-1.2,0.6-2.3,0.7-3.2,0.3
		c-0.9-0.4-1.5-1-1.9-1.8c-0.3-0.8-0.4-1.6-0.2-2.4c0.2-0.9,0.9-1.6,1.9-2.2c0.5-0.3,1.3-0.6,2.3-1c1-0.4,2.3-0.5,3.9-0.5
		c1.7,0,3.3,0.3,4.8,0.9c1.5,0.6,2.8,1.4,3.8,2.5c1.1,1.1,1.9,2.4,2.5,3.8c0.6,1.5,0.9,3.2,0.9,5V106.6z"/>
	<path class="st2" d="M118,105.8c0,0.8-0.3,1.6-0.9,2.3c-0.6,0.7-1.5,1.1-2.6,1.1h-4.6c-1.5,0-2.6-0.4-3.4-1.2
		c-0.8-0.8-1.1-1.8-1.1-3.1V70.2c0-1.3,0.3-2.4,0.8-3.2c0.6-0.8,1.1-1.6,1.8-2.3c0.6-0.7,1.2-1.4,1.8-2.1c0.6-0.7,0.8-1.5,0.8-2.5
		c0-1-0.4-1.9-1.3-2.6c-0.8-0.7-1.9-1-3.2-1c-1.2,0-2.3,0.3-3.1,1c-0.9,0.6-1.3,1.4-1.2,2.2c0.7-0.8,1.4-1.2,2.1-1.2
		c0.8,0,1.5,0.2,2.1,0.6c0.6,0.4,1.1,1,1.3,1.8s0.1,1.6-0.4,2.5c-0.5,0.7-1.1,1.3-1.9,1.7c-0.8,0.5-1.8,0.7-3,0.7
		c-1.9,0-3.4-0.6-4.6-1.8c-1.2-1.2-1.8-2.7-1.8-4.3c0-1.2,0.3-2.4,0.8-3.4c0.6-1,1.3-2,2.3-2.7c1-0.8,2.1-1.4,3.4-1.8
		c1.3-0.4,2.7-0.7,4.2-0.7c3.1,0,5.6,0.8,7.7,2.3c2.1,1.6,3.1,3.7,3.1,6.5c0,1.2-0.2,2.2-0.7,3c-0.5,0.8-1,1.6-1.6,2.3
		s-1.1,1.6-1.6,2.5c-0.5,0.9-0.7,2-0.7,3.4v31.6h2.2c1.2,0,2,0.3,2.6,1C117.7,104.1,118,104.8,118,105.8z"/>
	<path class="st2" d="M148.9,106.5c0,1.1-0.4,1.9-1.1,2.4c-0.7,0.6-1.5,0.8-2.4,0.8c-0.9,0-1.7-0.3-2.4-0.8
		c-0.7-0.6-1.1-1.4-1.1-2.4V95.2c0-2.6-0.5-4.6-1.4-6c-0.9-1.4-2.6-2.1-5-2.1c-0.8,0-1.7,0.2-2.6,0.5c-0.9,0.3-1.7,0.8-2.4,1.4
		c-0.8,0.6-1.4,1.4-1.8,2.3c-0.5,0.9-0.7,2-0.7,3.2v12.1c0,1.1-0.4,1.9-1.1,2.4c-0.7,0.6-1.5,0.8-2.4,0.8c-0.8,0-1.6-0.3-2.4-0.8
		c-0.7-0.6-1.1-1.4-1.1-2.4V76.7c0-1,0.4-1.8,1.1-2.4c0.7-0.6,1.5-0.8,2.4-0.8c1,0,1.9,0.3,2.7,0.8c0.8,0.6,1.2,1.4,1.2,2.6v7.1
		c1.1-1,2.4-1.7,3.9-2.2c1.5-0.5,2.9-0.7,4.3-0.7c-0.9-0.7-1.4-1.7-1.4-3s0.5-2.4,1.6-3.2c1.1-0.9,2.7-1.3,4.9-1.3s3.9,0.4,4.9,1.3
		c1.1,0.9,1.6,2,1.6,3.2c0,1.2-0.5,2.2-1.4,3c-0.9,0.8-2.3,1.3-4.2,1.5c1.8,0.9,3.2,2.4,4.3,4.3c1.1,1.9,1.7,4.6,1.7,7.9V106.5z"/>
	<path class="st2" d="M183.3,96.1c0,2.5-0.3,4.6-1,6.4c-0.7,1.7-1.6,3.2-2.7,4.3c-1.1,1.1-2.4,1.9-3.9,2.4c-1.5,0.5-3,0.8-4.7,0.8
		c-3.1,0-5.8-1-8.2-3c-0.5,0.8-1.1,1.5-2.1,2c-0.9,0.6-2,0.8-3.1,0.8c-1.6,0-2.9-0.5-4-1.5c-1.1-1-1.7-2.1-1.7-3.5
		c0-1,0.3-1.9,1-2.8s1.5-1.5,2.6-1.9V77c0-1.1,0.4-1.9,1.1-2.5c0.7-0.6,1.5-0.8,2.4-0.8c0.9,0,1.7,0.3,2.4,0.8
		c0.7,0.6,1.1,1.4,1.1,2.5v19.4c0,1.2,0.2,2.3,0.7,3.2c0.5,0.9,1.1,1.6,1.8,2.3s1.6,1.1,2.4,1.4c0.9,0.3,1.7,0.5,2.6,0.5
		c2.4,0,4-0.7,5-2.1c0.9-1.4,1.4-3.4,1.4-6V77c0-1.1,0.4-1.9,1.1-2.5c0.7-0.6,1.5-0.8,2.4-0.8c0.8,0,1.6,0.3,2.4,0.8
		c0.7,0.6,1.1,1.4,1.1,2.5V96.1z"/>
	<path class="st2" d="M183.3,67.5c0,1.2-0.4,2-1.1,2.6c-0.7,0.6-1.5,0.8-2.4,0.8c-0.9,0-1.7-0.3-2.4-0.8c-0.7-0.6-1.1-1.4-1.1-2.6
		v-6.2c0-1.2,0.4-2,1.1-2.6c0.7-0.6,1.5-0.8,2.4-0.8c0.8,0,1.6,0.3,2.4,0.8c0.7,0.6,1.1,1.4,1.1,2.6V67.5z"/>
	<path class="st2" d="M183.3,67.5c0,1.2-0.4,2-1.1,2.6c-0.7,0.6-1.5,0.8-2.4,0.8c-0.9,0-1.7-0.3-2.4-0.8c-0.7-0.6-1.1-1.4-1.1-2.6
		v-6.2c0-1.2,0.4-2,1.1-2.6c0.7-0.6,1.5-0.8,2.4-0.8c0.8,0,1.6,0.3,2.4,0.8c0.7,0.6,1.1,1.4,1.1,2.6V67.5z"/>
	<path class="st2" d="M216.3,106.3c0,1.1-0.4,1.9-1.1,2.5c-0.7,0.6-1.5,0.8-2.4,0.8c-0.9,0-1.7-0.3-2.4-0.8
		c-0.7-0.6-1.1-1.4-1.1-2.5V86.2c0-2-0.6-3.6-1.8-4.8c-1.2-1.2-2.9-1.8-5.1-1.8s-3.9,0.6-5.1,1.8c-1.2,1.2-1.8,2.8-1.8,4.8v16.3h2.2
		c1.2,0,2,0.3,2.6,1c0.6,0.6,0.9,1.4,0.9,2.4c0,0.8-0.3,1.6-0.9,2.3c-0.6,0.7-1.5,1.1-2.6,1.1H193c-1.5,0-2.6-0.4-3.4-1.2
		c-0.8-0.8-1.1-1.8-1.1-3.1V86.8c0-2.1,0.4-4,1.1-5.6s1.7-3,2.9-4.2c1.2-1.2,2.7-2,4.4-2.7c1.7-0.6,3.5-0.9,5.5-0.9
		c2,0,3.9,0.3,5.6,0.9c1.7,0.6,3.2,1.5,4.4,2.7c1.2,1.2,2.2,2.6,2.9,4.2c0.7,1.6,1,3.5,1,5.6V106.3z"/>
	<path class="st2" d="M216.3,67.2c0,0.9-0.3,1.7-0.9,2.4c-0.6,0.6-1.5,1-2.6,1h-19.4c-1.2,0-2-0.3-2.6-1c-0.6-0.6-0.9-1.4-0.9-2.4
		c0-0.8,0.3-1.6,0.9-2.3c0.6-0.7,1.5-1.1,2.6-1.1h15.9v-1.9c0-1.1,0.4-1.9,1.1-2.5c0.7-0.6,1.5-0.8,2.4-0.8c0.8,0,1.6,0.3,2.4,0.8
		c0.7,0.6,1.1,1.4,1.1,2.5V67.2z"/>
	<path class="st2" d="M249.4,106.4c0,1.2-0.4,2-1.1,2.6c-0.7,0.6-1.5,0.8-2.4,0.8c-0.9,0-1.7-0.3-2.4-0.8c-0.7-0.6-1.1-1.4-1.1-2.6
		V87.2c0-2.4-0.7-4.2-2.1-5.6c-1.4-1.4-3.1-2-5.1-2c-1.7,0-3.1,0.3-4.2,1c-1.1,0.7-1.9,1.5-2.3,2.5c-0.1,0.2,0,0.5,0.3,0.8
		c0.3,0.3,0.6,0.7,0.9,1s0.7,0.7,1,1.1c0.3,0.4,0.5,0.7,0.5,1c0,0.2-0.1,0.5-0.4,0.9c-0.3,0.4-0.6,0.7-1,1.1c-0.4,0.4-0.7,0.8-1,1.3
		c-0.3,0.5-0.4,1-0.4,1.6v14.5c0,1.2-0.4,2-1.1,2.6c-0.7,0.6-1.5,0.8-2.4,0.8c-0.8,0-1.6-0.3-2.4-0.8c-0.7-0.6-1.1-1.4-1.1-2.6v-15
		c0-0.5,0.1-1,0.4-1.4c0.3-0.4,0.6-0.8,0.9-1.1c0.3-0.3,0.6-0.6,0.9-0.9c0.3-0.2,0.4-0.4,0.4-0.5c0-0.1-0.2-0.3-0.5-0.5
		c-0.3-0.2-0.7-0.5-1-0.8c-0.4-0.3-0.7-0.7-1-1.1c-0.3-0.4-0.4-0.8-0.4-1.2c0.6-3.3,2.2-5.8,4.8-7.7c2.6-1.9,5.6-2.8,9-2.8
		c2,0,3.9,0.3,5.7,0.9c1.7,0.6,3.2,1.5,4.5,2.6c1.2,1.2,2.2,2.6,3,4.4c0.7,1.8,1.1,3.9,1.1,6.3V106.4z"/>
	<path class="st2" d="M281.6,91.8c0,2.6-0.3,5-1,7.2c-0.7,2.2-1.6,4.2-2.9,5.8c-1.3,1.7-2.9,2.9-4.7,3.9c-1.9,0.9-4,1.4-6.5,1.4
		c-1.8,0-3.4-0.3-5-0.8c-1.5-0.6-2.9-1.3-4.1-2.3c-1.2-0.9-2.1-2-2.8-3.2c-0.7-1.2-1.2-2.4-1.3-3.6c-0.2-1,0-1.9,0.4-2.5
		c0.5-0.6,1.1-1.1,1.8-1.4c0.9-0.3,1.8-0.2,2.7,0.2c0.9,0.4,1.5,1.2,1.8,2.5c0.3,1.2,1,2.2,2.2,3.2c1.2,1,2.6,1.4,4.3,1.4
		c1.4,0,2.7-0.3,3.7-1c1-0.7,1.8-1.6,2.4-2.7c0.6-1.1,1.1-2.4,1.4-3.8c0.3-1.4,0.4-2.9,0.4-4.3c0-1.5-0.1-2.9-0.4-4.3
		c-0.3-1.4-0.7-2.6-1.4-3.7c-0.6-1.1-1.5-2-2.4-2.7c-1-0.7-2.2-1-3.7-1c-1.7,0-3.1,0.5-4.3,1.4c-1.2,1-1.9,2-2.2,3.1
		c-0.3,1.4-0.9,2.3-2,2.7c-1,0.4-2,0.3-2.9-0.1c-0.7-0.3-1.1-0.7-1.5-1.4c-0.3-0.6-0.5-1.4-0.3-2.4c0.2-1.2,0.6-2.4,1.3-3.6
		c0.7-1.2,1.7-2.3,2.8-3.2c1.2-0.9,2.5-1.7,4.1-2.3c1.5-0.6,3.2-0.9,5-0.9c2.4,0,4.6,0.5,6.5,1.4c1.9,0.9,3.5,2.2,4.7,3.9
		c1.3,1.7,2.2,3.6,2.9,5.8C281.3,86.8,281.6,89.2,281.6,91.8z"/>
	<path class="st2" d="M280.4,67.5c0,1.2-0.4,2-1.1,2.6c-0.7,0.6-1.5,0.8-2.4,0.8c-0.9,0-1.7-0.3-2.4-0.8c-0.7-0.6-1.1-1.4-1.1-2.6
		v-6.2c0-1.2,0.4-2,1.1-2.6c0.7-0.6,1.5-0.8,2.4-0.8c0.8,0,1.6,0.3,2.4,0.8c0.7,0.6,1.1,1.4,1.1,2.6V67.5z"/>
	<path class="st2" d="M303.6,106.6c0,1.2-0.3,2-1,2.6c-0.7,0.6-1.5,0.8-2.3,0.8c-0.9,0-1.7-0.3-2.4-0.8c-0.8-0.6-1.1-1.4-1.1-2.6
		V86.3c0-1.6-0.5-2.9-1.4-4c-1-1.1-2.2-1.7-3.7-1.7c-0.8,0-1.4,0.1-1.8,0.2c-0.4,0.1-0.8,0.3-1.1,0.4c-1.2,0.6-2.3,0.7-3.2,0.3
		s-1.5-1-1.9-1.8c-0.3-0.8-0.4-1.6-0.2-2.4s0.9-1.6,1.9-2.2c0.5-0.3,1.3-0.6,2.3-1c1-0.4,2.3-0.5,3.9-0.5c1.7,0,3.3,0.3,4.8,0.9
		s2.8,1.4,3.8,2.5c1.1,1.1,1.9,2.4,2.5,3.8c0.6,1.5,0.9,3.2,0.9,5V106.6z"/>
</g>
</svg>
