<?xml version="1.0" encoding="utf-8"?>
<!-- Generator: Adobe Illustrator 22.1.0, SVG Export Plug-In . SVG Version: 6.00 Build 0)  -->
<svg version="1.1" id="Layer_1" xmlns="http://www.w3.org/2000/svg" xmlns:xlink="http://www.w3.org/1999/xlink" x="0px" y="0px"
	 viewBox="0 0 296 170.7" style="enable-background:new 0 0 296 170.7;" xml:space="preserve">
<style type="text/css">
	.st0{fill:#B50029;}
	.st1{fill:#FF0029;}
	.st2{opacity:0.82;fill:#FCE3EE;enable-background:new    ;}
	.st3{enable-background:new    ;}
	.st4{fill:#FFFFFF;}
</style>
<title>Asset 33</title>
<g id="Layer_2_1_">
	<g id="Layer_4">
		<path class="st0" d="M85.3,0h125.4C257.8,0,296,38.2,296,85.3l0,0c0,47.1-38.2,85.3-85.3,85.3H85.3C38.2,170.7,0,132.5,0,85.3l0,0
			C0,38.2,38.2,0,85.3,0z"/>
		<path class="st1" d="M84.7,0h126.6c42.8,0,77.4,34.7,77.4,77.4l0,0c0,42.8-34.7,77.4-77.4,77.4H84.7c-42.8,0-77.4-34.7-77.4-77.4
			l0,0C7.3,34.7,41.9,0,84.7,0z"/>
		<path class="st2" d="M44.9,45.2c7.6,0,11.3,7.8,8.1,13.8c-3.8,7.3-5.5,15.5-5.1,23.8c0.5,8.2,2.3,16.2,5.2,23.9
			c1.2,3.5,1.6,5.9-1.1,9c-1.8,2.1-4.4,3.3-7.2,3.3c-12.2,0-13.8-18.2-14.2-26.7c-0.6-10.3,0-20.7,1.9-30.8
			C33.8,54.6,36,45.2,44.9,45.2z"/>
		<path class="st2" d="M57.8,33.6L57.8,33.6c-5.3,0-9.5-4.3-9.5-9.5l0,0c0-5.3,4.3-9.5,9.5-9.5l0,0c5.3,0,9.5,4.3,9.5,9.5l0,0
			C67.3,29.3,63,33.6,57.8,33.6z"/>
		<g class="st3">
			<path class="st4" d="M160.9,79.2c0,6.2-0.9,11.9-2.8,17.1c-1.9,5.2-4.5,9.7-7.8,13.4c-3.3,3.7-7.4,6.5-12.2,8.6
				c-4.8,2-10,3.1-15.8,3.1c-5.8,0-11.1-1-15.9-3.1c-4.8-2-8.8-4.9-12.2-8.6c-3.4-3.7-6-8.1-7.9-13.4c-1.9-5.2-2.8-10.9-2.8-17.1
				c0-6.4,0.9-12.1,2.8-17.3c1.9-5.1,4.5-9.6,7.9-13.2c3.4-3.7,7.4-6.5,12.2-8.6c4.8-2,10-3.1,15.9-3.1c5.6,0,10.8,1,15.5,3.1
				c4.7,2,8.8,4.9,12.2,8.6c3.4,3.7,6.1,8.1,8,13.2C159.9,67,160.9,72.8,160.9,79.2z M143.4,79.3c0-8.7-2-15.5-5.9-20.3
				c-3.9-4.8-9-7.1-15.2-7.1c-6.4,0-11.5,2.4-15.4,7.1c-3.9,4.8-5.9,11.5-5.9,20.3c0,8.2,2,14.8,5.9,19.6s9,7.2,15.4,7.2
				c6.1,0,11.1-2.4,15.1-7.2S143.4,87.6,143.4,79.3z"/>
			<path class="st4" d="M233.5,112.6c0,2-0.7,3.8-2.2,5.2c-1.5,1.4-3.2,2.1-5.1,2.1c-1.8,0-3.4-0.6-4.6-1.8
				c-1.2-1.2-2.7-2.6-4.3-4.3L187.1,80V108c0,7.9-2.6,11.9-7.9,11.9c-2.8,0-4.8-1-6-2.9c-1.2-2-1.8-4.9-1.8-8.9V50.1
				c0-4,0.6-7,1.8-9c1.2-2,3.2-3,6-3c5.3,0,7.9,4,7.9,12v24.1l26-29.9c1.6-1.7,3.1-3.1,4.4-4.3c1.3-1.1,2.7-1.7,4.3-1.7
				c1.9,0,3.6,0.7,4.9,2.1c1.3,1.4,2,3.1,2,5c0,1.4-0.4,2.7-1.1,4c-0.7,1.3-1.8,2.8-3.2,4.4l-20.8,21.9l25.6,28.6
				C232.1,107.5,233.5,110.2,233.5,112.6z"/>
		</g>
	</g>
</g>
</svg>
