<?xml version="1.0" encoding="utf-8"?>
<!-- Generator: Adobe Illustrator 22.1.0, SVG Export Plug-In . SVG Version: 6.00 Build 0)  -->
<svg version="1.1" id="Layer_1" xmlns="http://www.w3.org/2000/svg" xmlns:xlink="http://www.w3.org/1999/xlink" x="0px" y="0px"
	 viewBox="0 0 152.7 152.7" style="enable-background:new 0 0 152.7 152.7;" xml:space="preserve">
<style type="text/css">
	.st0{fill:#FFFFFF;}
	.st1{fill:#00A651;}
	.st2{stroke:#FFFFFF;stroke-width:10;stroke-miterlimit:10;}
</style>
<title>check</title>
<circle class="st0" cx="69" cy="75.7" r="69"/>
<circle class="st1" cx="69" cy="75.7" r="57.4"/>
<path class="st0" d="M53.5,100.7h-0.3c-2.6-0.1-5.2-1.4-6.9-3.5L31.7,79c-3-4.1-2-9.8,2.1-12.8c3.8-2.7,9.1-2.1,12.2,1.4l7.9,9.8
	l33.6-37.3c3.3-3.8,9.1-4.2,13-0.9c3.9,3.3,4.2,9.1,0.9,13c-0.1,0.1-0.2,0.2-0.3,0.3L60.3,97.7C58.5,99.7,56.1,100.7,53.5,100.7z"/>
<g>
	<path class="st2" d="M15,130.6c0.1,0.5,0,0.9-0.3,1.2c-0.3,0.3-0.7,0.5-1.1,0.5c-0.4,0.1-0.8,0-1.2-0.2c-0.4-0.2-0.6-0.6-0.7-1.1
		l-2-14c-0.1-0.5,0-0.9,0.3-1.2s0.7-0.5,1.1-0.6c0.4-0.1,0.8,0,1.2,0.2c0.4,0.2,0.6,0.6,0.7,1.1L15,130.6z"/>
	<path class="st2" d="M27.9,115.5c0.3,0.4,0.5,0.8,0.7,1.2c0.2,0.5,0.3,1,0.4,1.5l1.4,10c0.1,0.5,0,1-0.3,1.3s-0.7,0.5-1.1,0.6
		c-0.4,0.1-0.8,0-1.2-0.2c-0.4-0.2-0.6-0.6-0.7-1.2l-0.9-6.3c-0.5,0.4-1.1,0.6-1.9,0.8c-0.8,0.2-1.5,0.4-2.2,0.6
		c-0.7,0.2-1.2,0.5-1.6,1c-0.4,0.4-0.6,1-0.5,1.6c0.1,0.6,0.3,1,0.7,1.3c0.4,0.2,0.8,0.2,1.2,0c0.5-0.2,0.9-0.2,1.2-0.1
		c0.3,0.1,0.6,0.4,0.8,0.7c0.2,0.4,0.3,0.8,0.2,1.3c-0.1,0.5-0.4,0.8-1,1.1c-0.6,0.2-1.2,0.4-1.9,0.4s-1.4-0.1-2-0.4
		c-0.7-0.3-1.2-0.8-1.7-1.4c-0.5-0.6-0.8-1.4-1-2.4c-0.1-0.9-0.1-1.6,0.1-2.3s0.5-1.2,0.9-1.7c0.4-0.5,0.9-0.9,1.5-1.2
		c0.6-0.3,1.2-0.6,1.7-0.7c0.4-0.1,0.9-0.3,1.5-0.4s1.1-0.3,1.6-0.5c0.5-0.2,0.9-0.5,1.2-0.8c0.3-0.3,0.4-0.7,0.4-1.1
		c-0.1-0.5-0.4-0.9-1-1.2s-1.3-0.4-2.1-0.2c-0.7,0.1-1.3,0.3-1.9,0.7s-0.8,0.8-0.9,1.3c0,0.6-0.3,1-0.7,1.3
		c-0.4,0.2-0.9,0.3-1.4,0.2c-0.4-0.1-0.7-0.3-0.9-0.6c-0.2-0.3-0.3-0.7-0.2-1.2c0.1-1.1,0.7-2.1,1.6-3s2.3-1.4,4-1.7
		c1-0.1,1.9-0.1,2.8,0.1l0.8-1.2c0.3-0.5,0.8-0.8,1.2-0.9c0.5,0,0.9,0,1.3,0.3c0.4,0.2,0.7,0.6,0.8,1.1c0.2,0.5,0.1,0.9-0.3,1.4
		L27.9,115.5z"/>
	<path class="st2" d="M44.5,122.3c0.2,1.7-0.2,3.2-1.3,4.3c-1.1,1.2-2.6,1.9-4.6,2.2c-0.9,0.1-1.7,0.1-2.5,0
		c-0.8-0.1-1.5-0.4-2.1-0.7s-1.1-0.8-1.5-1.3s-0.7-1-0.8-1.6c-0.1-0.6,0-1,0.3-1.4c0.3-0.4,0.7-0.6,1.1-0.6c0.5-0.1,1,0,1.2,0.2
		c0.3,0.2,0.5,0.6,0.6,1c0.1,0.5,0.5,0.8,1.1,1.1s1.3,0.4,2.2,0.2c0.8-0.1,1.6-0.4,2.2-0.9c0.6-0.5,0.9-1.1,0.8-1.9
		c-0.1-0.4-0.2-0.7-0.5-1c-0.3-0.2-0.6-0.4-1-0.6s-0.8-0.2-1.2-0.3c-0.4-0.1-0.8-0.1-1.2,0c-0.6,0-1.3,0-2-0.1
		c-0.7-0.1-1.4-0.2-2-0.5c-0.6-0.3-1.1-0.7-1.6-1.2s-0.7-1.2-0.8-2.1c-0.1-0.7,0-1.3,0.3-1.9c0.3-0.6,0.6-1.2,1.1-1.7
		c0.5-0.5,1-0.9,1.7-1.3c0.7-0.3,1.4-0.6,2.2-0.7c1.3-0.2,2.5-0.1,3.7,0.2c1.1,0.3,2,0.9,2.7,1.9c0.3,0.5,0.4,0.9,0.3,1.4
		s-0.4,0.8-0.7,1c-0.4,0.3-0.9,0.4-1.3,0.3c-0.4-0.1-0.8-0.3-1.1-0.7c-0.3-0.4-0.7-0.7-1.3-0.8s-1.2-0.2-1.8-0.1
		c-0.6,0.1-1.1,0.3-1.6,0.6c-0.5,0.3-0.7,0.8-0.7,1.3c0,0.3,0.2,0.6,0.4,0.8s0.5,0.4,0.9,0.4c0.4,0.1,0.7,0.1,1.1,0.1
		c0.4,0,0.8,0,1.1,0c0.7,0,1.4,0,2.2,0.1c0.7,0.1,1.4,0.3,2,0.6c0.6,0.3,1.2,0.7,1.6,1.3C44.1,120.7,44.4,121.4,44.5,122.3z"/>
	<path class="st2" d="M41.1,101.8c0.5,0.3,0.7,0.6,0.7,1s-0.1,0.8-0.4,1.1c-0.3,0.4-0.6,0.7-1,0.9c-0.4,0.3-0.9,0.4-1.3,0.5l-5,0.7
		c-0.4,0.1-0.8,0.2-1,0.5s-0.3,0.5-0.3,0.8c0.1,0.3,0.3,0.4,0.7,0.4c0.4,0,0.8-0.2,1-0.7c0.3-0.4,0.6-0.7,0.9-0.8
		c0.3-0.1,0.7-0.1,1.2,0.2c0.3,0.2,0.6,0.3,0.8,0.4c0.3,0.1,0.5,0.1,0.6,0c0.1,0,0.2-0.1,0.2-0.1s0.1-0.1,0.2-0.2
		c0.3-0.4,0.7-0.5,1.1-0.5c0.4,0,0.7,0.2,1,0.4c0.3,0.2,0.5,0.5,0.6,0.9c0.1,0.4,0.1,0.8-0.2,1.1c-0.2,0.3-0.5,0.5-0.9,0.8
		c-0.4,0.3-0.8,0.4-1.3,0.5c-0.6,0.1-1.1,0-1.6-0.1s-0.9-0.4-1.2-0.6l-0.5,0.4c-0.3,0.2-0.6,0.4-0.9,0.7c-0.3,0.2-0.8,0.4-1.3,0.5
		c-0.3,0-0.6,0-1,0c-0.4-0.1-0.7-0.2-1.1-0.4c-0.4-0.2-0.7-0.5-1-0.9c-0.3-0.4-0.4-0.9-0.5-1.5c-0.1-1,0.1-1.9,0.8-2.8
		s1.8-1.4,3.3-1.6l4.2-0.6c0.4-0.1,0.6-0.2,0.9-0.4c0.2-0.2,0.4-0.4,0.6-0.6c0.2-0.2,0.4-0.3,0.7-0.4
		C40.4,101.5,40.7,101.6,41.1,101.8z"/>
	<path class="st2" d="M58.5,116.9c0.2,1.3,0.2,2.5-0.1,3.7c-0.2,1.1-0.6,2.1-1.2,2.9c-0.5,0.8-1.2,1.5-1.9,2s-1.5,0.8-2.4,0.9
		l-1.5,0.2c-0.9,0.1-1.5-0.2-1.8-1l-1.7-5.3l-0.3,0c-0.5,0.1-1,0-1.3-0.3c-0.3-0.3-0.5-0.6-0.6-1c-0.1-0.4,0-0.7,0.3-1.1
		s0.6-0.6,1.2-0.7l1.6-0.2c0.9-0.1,1.5,0.2,1.8,1l1.7,5.4l0.2,0c0.5-0.1,0.9-0.3,1.3-0.6c0.4-0.3,0.7-0.8,0.9-1.3
		c0.2-0.5,0.4-1.1,0.5-1.8c0.1-0.7,0.1-1.4,0-2.1c-0.1-0.7-0.3-1.4-0.5-2c-0.2-0.6-0.6-1.1-0.9-1.6c-0.4-0.4-0.8-0.8-1.3-1
		c-0.5-0.2-1.1-0.3-1.7-0.3c-0.9,0.1-1.6,0.3-2.1,0.8c-0.5,0.5-0.9,1-1,1.5c-0.1,0.5-0.4,0.9-0.7,1.1c-0.4,0.3-0.8,0.4-1.2,0.3
		c-0.4-0.1-0.7-0.2-1-0.5c-0.3-0.3-0.4-0.7-0.3-1.2c0.1-0.5,0.3-1,0.6-1.6c0.3-0.5,0.7-1,1.2-1.5s1.1-0.8,1.8-1.1
		c0.7-0.3,1.5-0.5,2.3-0.7c1-0.1,1.9-0.1,2.8,0.1c0.9,0.2,1.7,0.6,2.5,1.2s1.4,1.3,1.9,2.3C57.9,114.3,58.2,115.5,58.5,116.9z"/>
	<path class="st2" d="M65,123.4c0.1,0.5,0,0.9-0.3,1.2c-0.3,0.3-0.7,0.5-1.1,0.5c-0.4,0.1-0.8,0-1.2-0.2c-0.4-0.2-0.6-0.6-0.7-1.1
		l-2-14c-0.1-0.5,0-0.9,0.3-1.2c0.3-0.3,0.7-0.5,1.1-0.6c0.4-0.1,0.8,0,1.2,0.2c0.4,0.2,0.6,0.6,0.7,1.1L65,123.4z M71.1,122.5
		c0.1,0.5,0,0.9-0.3,1.2c-0.3,0.3-0.7,0.5-1.1,0.5s-0.8,0-1.2-0.2c-0.4-0.2-0.6-0.6-0.7-1.1l-2-14c-0.1-0.5,0-0.9,0.3-1.2
		c0.3-0.3,0.7-0.5,1.1-0.6s0.8,0,1.2,0.2s0.6,0.6,0.7,1.1L71.1,122.5z"/>
	<path class="st2" d="M86.6,120.1c0.1,0.5,0,1-0.3,1.3c-0.3,0.3-0.7,0.5-1.1,0.6c-0.4,0.1-0.8,0-1.2-0.2c-0.4-0.2-0.6-0.6-0.7-1.2
		l-0.9-6.3c-0.5,0.4-1.1,0.6-1.9,0.8c-0.8,0.2-1.5,0.4-2.2,0.6c-0.7,0.2-1.2,0.5-1.6,1s-0.6,1-0.5,1.6c0.1,0.6,0.3,1,0.7,1.3
		s0.8,0.2,1.2,0c0.5-0.2,0.9-0.2,1.2-0.1c0.3,0.1,0.6,0.4,0.8,0.7c0.2,0.4,0.3,0.8,0.2,1.3c-0.1,0.5-0.4,0.8-1,1.1
		c-0.6,0.2-1.2,0.4-1.9,0.4c-0.7,0-1.4-0.1-2-0.4s-1.2-0.8-1.7-1.4c-0.5-0.6-0.8-1.4-1-2.4c-0.1-0.9-0.1-1.6,0.1-2.3
		c0.2-0.7,0.5-1.2,0.9-1.7c0.4-0.5,0.9-0.9,1.5-1.2c0.6-0.3,1.2-0.6,1.7-0.7c0.4-0.1,0.9-0.3,1.5-0.4c0.6-0.1,1.1-0.3,1.6-0.5
		c0.5-0.2,0.9-0.5,1.2-0.8c0.3-0.3,0.4-0.7,0.4-1.1c-0.1-0.5-0.4-0.9-1-1.2c-0.6-0.3-1.3-0.4-2.1-0.2c-0.7,0.1-1.3,0.3-1.9,0.7
		s-0.8,0.8-0.9,1.3c0,0.6-0.3,1-0.7,1.3c-0.4,0.2-0.9,0.3-1.4,0.2c-0.4-0.1-0.7-0.3-0.9-0.6c-0.2-0.3-0.3-0.7-0.2-1.2
		c0.1-1.1,0.7-2.1,1.6-3c1-0.9,2.3-1.4,4-1.7c1.8-0.3,3.3,0,4.7,0.8c1.3,0.8,2.1,2,2.4,3.7L86.6,120.1z"/>
	<path class="st2" d="M87.4,101.2c0.1,0.4,0,0.8-0.2,1.2S86.6,103,86,103l-5.4,0.8c-0.5,0.1-1,0-1.3-0.3c-0.3-0.3-0.5-0.6-0.6-1
		l-0.1-0.9l-0.6,0.1c-0.5,0.1-1,0-1.3-0.3s-0.5-0.6-0.6-1c-0.1-0.4,0-0.8,0.3-1.1c0.2-0.4,0.6-0.6,1.2-0.7l2.3-0.3
		c0.6-0.1,1.1,0,1.5,0.2c0.4,0.3,0.6,0.6,0.7,1.2l0.1,0.8l3.4-0.5c0.5-0.1,1,0,1.3,0.3C87.2,100.5,87.4,100.9,87.4,101.2z"/>
	<path class="st2" d="M100.8,111.1c0.2,1.2,0.2,2.4,0,3.4c-0.2,1.1-0.5,2.1-1,2.9c-0.5,0.9-1.1,1.6-2,2.1c-0.8,0.6-1.8,0.9-2.9,1.1
		c-0.8,0.1-1.6,0.1-2.4-0.1s-1.4-0.4-2.1-0.8c-0.6-0.4-1.1-0.8-1.5-1.3c-0.4-0.5-0.7-1-0.9-1.6c-0.2-0.5-0.1-0.9,0-1.2
		c0.2-0.3,0.4-0.6,0.8-0.8c0.4-0.2,0.9-0.2,1.3-0.1c0.4,0.1,0.8,0.5,1,1.1c0.2,0.5,0.6,1,1.2,1.3c0.6,0.4,1.3,0.5,2.1,0.4
		c0.7-0.1,1.2-0.3,1.6-0.7c0.4-0.4,0.7-0.8,1-1.4s0.4-1.2,0.4-1.9c0-0.7,0-1.4-0.1-2.1c-0.1-0.7-0.3-1.4-0.5-2
		c-0.2-0.6-0.5-1.2-0.9-1.7c-0.4-0.5-0.8-0.8-1.3-1.1c-0.5-0.2-1.1-0.3-1.8-0.2c-0.8,0.1-1.4,0.4-1.9,1c-0.5,0.5-0.8,1.1-0.8,1.6
		c0,0.7-0.3,1.1-0.8,1.4c-0.5,0.2-0.9,0.3-1.4,0.1c-0.3-0.1-0.6-0.3-0.8-0.5s-0.3-0.6-0.3-1.1c0-0.6,0.1-1.2,0.4-1.8
		c0.3-0.6,0.6-1.2,1.1-1.7c0.5-0.5,1.1-1,1.7-1.3c0.7-0.4,1.4-0.6,2.3-0.7c1.1-0.2,2.2-0.1,3.1,0.2c0.9,0.3,1.8,0.8,2.5,1.5
		c0.7,0.7,1.3,1.5,1.8,2.5C100.3,108.8,100.6,109.9,100.8,111.1z"/>
	<path class="st2" d="M116.7,115.9c0.1,0.5,0,0.9-0.3,1.2c-0.3,0.3-0.7,0.5-1.1,0.6c-0.4,0.1-0.8,0-1.2-0.2s-0.6-0.6-0.7-1.1
		l-1.4-9.5c-0.1-0.9-0.5-1.7-1.2-2.1c-0.7-0.5-1.5-0.7-2.5-0.5c-1,0.1-1.8,0.6-2.3,1.2s-0.7,1.5-0.5,2.4l0.1,0.9l3.1-0.4
		c0.5-0.1,1,0,1.3,0.3c0.3,0.3,0.5,0.6,0.6,1c0.1,0.4,0,0.8-0.3,1.1c-0.2,0.4-0.6,0.6-1.2,0.7l-3.1,0.4l0.8,5.5
		c0.1,0.5,0,0.9-0.3,1.2c-0.3,0.3-0.7,0.5-1.1,0.6c-0.4,0.1-0.8,0-1.2-0.2c-0.4-0.2-0.6-0.6-0.7-1.1l-1.3-9.2
		c-0.1-1-0.1-1.9,0.1-2.7c0.2-0.8,0.6-1.5,1.1-2.2c0.5-0.6,1.1-1.1,1.9-1.5c0.8-0.4,1.6-0.7,2.5-0.8c1-0.1,1.9-0.1,2.7,0.1
		c0.8,0.2,1.6,0.5,2.2,0.9c0.7,0.5,1.2,1,1.6,1.8c0.4,0.7,0.7,1.6,0.9,2.5L116.7,115.9z"/>
	<path class="st2" d="M131.7,113.6c0.1,0.5,0,1-0.3,1.3s-0.7,0.5-1.1,0.6c-0.4,0.1-0.8,0-1.2-0.2c-0.4-0.2-0.6-0.6-0.7-1.2l-0.9-6.3
		c-0.5,0.4-1.1,0.6-1.9,0.8c-0.8,0.2-1.5,0.4-2.2,0.6c-0.7,0.2-1.2,0.5-1.6,1c-0.4,0.4-0.6,1-0.5,1.6c0.1,0.6,0.3,1,0.7,1.3
		c0.4,0.2,0.8,0.2,1.2,0c0.5-0.2,0.9-0.2,1.2-0.1c0.3,0.1,0.6,0.4,0.8,0.7c0.2,0.4,0.3,0.8,0.2,1.3c-0.1,0.5-0.4,0.8-1,1.1
		c-0.6,0.2-1.2,0.4-1.9,0.4c-0.7,0-1.4-0.1-2-0.4c-0.7-0.3-1.2-0.8-1.7-1.4c-0.5-0.6-0.8-1.4-1-2.4c-0.1-0.9-0.1-1.6,0.1-2.3
		c0.2-0.7,0.5-1.2,0.9-1.7c0.4-0.5,0.9-0.9,1.5-1.2c0.6-0.3,1.2-0.6,1.7-0.7c0.4-0.1,0.9-0.3,1.5-0.4c0.6-0.1,1.1-0.3,1.6-0.5
		c0.5-0.2,0.9-0.5,1.2-0.8c0.3-0.3,0.4-0.7,0.4-1.1c-0.1-0.5-0.4-0.9-1-1.2c-0.6-0.3-1.3-0.4-2.1-0.2c-0.7,0.1-1.3,0.3-1.9,0.7
		s-0.8,0.8-0.9,1.3c0,0.6-0.3,1-0.7,1.3s-0.9,0.3-1.4,0.2c-0.4-0.1-0.7-0.3-0.9-0.6c-0.2-0.3-0.3-0.7-0.2-1.2c0.1-1.1,0.7-2.1,1.6-3
		s2.3-1.4,4-1.7c1.8-0.3,3.3,0,4.7,0.8c1.3,0.8,2.1,2,2.4,3.7L131.7,113.6z"/>
	<path class="st2" d="M129.3,95.2c0.1,0.4,0,0.8-0.2,1.2s-0.6,0.5-1.2,0.6l-9.3,1.3c-0.5,0.1-1,0-1.3-0.3c-0.3-0.3-0.5-0.6-0.6-1
		c-0.1-0.4,0-0.8,0.3-1.1c0.2-0.4,0.6-0.6,1.2-0.7l9.3-1.3c0.5-0.1,1,0,1.3,0.3C129.1,94.5,129.3,94.8,129.3,95.2z"/>
	<path class="st2" d="M130.1,90.1c-1.2,0.2-1.8-0.2-2-1l-0.1-1c-0.1-0.4-0.2-0.5-0.4-0.5c-0.1,0-0.1,0.1-0.2,0.2
		c-0.1,0.1-0.2,0.3-0.2,0.5c-0.1,0.4-0.4,0.7-0.8,0.7c-0.2,0-0.4,0-0.5-0.1c-0.1-0.1-0.3-0.2-0.5-0.4c-0.4-0.5-1-0.7-1.6-0.6
		c-0.2,0-0.4,0.1-0.6,0.3s-0.3,0.3-0.3,0.5c0,0.2,0.1,0.2,0.4,0.1c0.4-0.2,0.8-0.2,1.1-0.2c0.3,0.1,0.6,0.2,0.7,0.4
		c0.2,0.3,0.3,0.6,0.2,1s-0.3,0.7-0.7,0.9c-0.4,0.2-0.9,0.4-1.3,0.4c-0.5,0-0.9-0.1-1.3-0.2s-0.8-0.4-1.1-0.8
		c-0.3-0.4-0.5-0.8-0.5-1.3c-0.1-0.9,0.1-1.6,0.8-2.3c0.6-0.7,1.4-1.1,2.4-1.2c0.5-0.1,0.9,0,1.4,0c0.5,0.1,0.8,0.3,1.2,0.5
		c0.2-0.3,0.4-0.5,0.7-0.8s0.6-0.4,1-0.4c0.7-0.1,1.2,0,1.8,0.4c0.5,0.3,0.9,0.9,1,1.8l0.1,0.4l1.3-0.2c0.4-0.1,0.8,0,1,0.2
		c0.3,0.2,0.4,0.5,0.5,0.8s0,0.6-0.2,0.9c-0.2,0.3-0.5,0.5-0.9,0.5L130.1,90.1z"/>
	<path class="st2" d="M147.3,111.4c0.1,0.5,0,1-0.3,1.3s-0.7,0.5-1.1,0.6s-0.8,0-1.2-0.2c-0.4-0.2-0.6-0.6-0.7-1.1l-1.3-9
		c-0.2-1.1-0.6-1.9-1.4-2.5c-0.8-0.5-1.6-0.7-2.5-0.6c-0.8,0.1-1.4,0.4-1.9,0.8s-0.8,0.8-0.9,1.3c0,0.1,0.1,0.2,0.2,0.4
		c0.1,0.1,0.3,0.3,0.5,0.4c0.2,0.1,0.4,0.3,0.5,0.4c0.2,0.1,0.3,0.3,0.3,0.4c0,0.1,0,0.3-0.2,0.4c-0.1,0.2-0.2,0.4-0.4,0.6
		c-0.1,0.2-0.3,0.4-0.4,0.7c-0.1,0.3-0.1,0.5-0.1,0.8l1,6.8c0.1,0.5,0,1-0.3,1.3c-0.3,0.3-0.7,0.5-1.1,0.6c-0.4,0.1-0.8,0-1.2-0.2
		c-0.4-0.2-0.6-0.6-0.7-1.1l-1-7c0-0.2,0-0.5,0.1-0.7c0.1-0.2,0.2-0.4,0.4-0.6c0.1-0.2,0.2-0.3,0.4-0.5c0.1-0.1,0.2-0.2,0.2-0.3
		c0-0.1-0.1-0.1-0.3-0.2c-0.2-0.1-0.3-0.2-0.5-0.3c-0.2-0.1-0.4-0.3-0.5-0.4c-0.2-0.2-0.2-0.3-0.2-0.5c0.1-1.6,0.6-2.9,1.7-3.9
		s2.4-1.7,4.1-1.9c1-0.1,1.9-0.1,2.7,0c0.9,0.2,1.6,0.5,2.3,0.9c0.7,0.5,1.2,1.1,1.7,1.9s0.8,1.7,0.9,2.9L147.3,111.4z"/>
</g>
<g>
	<path d="M15,130.6c0.1,0.5,0,0.9-0.3,1.2c-0.3,0.3-0.7,0.5-1.1,0.5c-0.4,0.1-0.8,0-1.2-0.2c-0.4-0.2-0.6-0.6-0.7-1.1l-2-14
		c-0.1-0.5,0-0.9,0.3-1.2s0.7-0.5,1.1-0.6c0.4-0.1,0.8,0,1.2,0.2c0.4,0.2,0.6,0.6,0.7,1.1L15,130.6z"/>
	<path d="M27.9,115.5c0.3,0.4,0.5,0.8,0.7,1.2c0.2,0.5,0.3,1,0.4,1.5l1.4,10c0.1,0.5,0,1-0.3,1.3s-0.7,0.5-1.1,0.6
		c-0.4,0.1-0.8,0-1.2-0.2c-0.4-0.2-0.6-0.6-0.7-1.2l-0.9-6.3c-0.5,0.4-1.1,0.6-1.9,0.8c-0.8,0.2-1.5,0.4-2.2,0.6
		c-0.7,0.2-1.2,0.5-1.6,1c-0.4,0.4-0.6,1-0.5,1.6c0.1,0.6,0.3,1,0.7,1.3c0.4,0.2,0.8,0.2,1.2,0c0.5-0.2,0.9-0.2,1.2-0.1
		c0.3,0.1,0.6,0.4,0.8,0.7c0.2,0.4,0.3,0.8,0.2,1.3c-0.1,0.5-0.4,0.8-1,1.1c-0.6,0.2-1.2,0.4-1.9,0.4s-1.4-0.1-2-0.4
		c-0.7-0.3-1.2-0.8-1.7-1.4c-0.5-0.6-0.8-1.4-1-2.4c-0.1-0.9-0.1-1.6,0.1-2.3s0.5-1.2,0.9-1.7c0.4-0.5,0.9-0.9,1.5-1.2
		c0.6-0.3,1.2-0.6,1.7-0.7c0.4-0.1,0.9-0.3,1.5-0.4s1.1-0.3,1.6-0.5c0.5-0.2,0.9-0.5,1.2-0.8c0.3-0.3,0.4-0.7,0.4-1.1
		c-0.1-0.5-0.4-0.9-1-1.2s-1.3-0.4-2.1-0.2c-0.7,0.1-1.3,0.3-1.9,0.7s-0.8,0.8-0.9,1.3c0,0.6-0.3,1-0.7,1.3
		c-0.4,0.2-0.9,0.3-1.4,0.2c-0.4-0.1-0.7-0.3-0.9-0.6c-0.2-0.3-0.3-0.7-0.2-1.2c0.1-1.1,0.7-2.1,1.6-3s2.3-1.4,4-1.7
		c1-0.1,1.9-0.1,2.8,0.1l0.8-1.2c0.3-0.5,0.8-0.8,1.2-0.9c0.5,0,0.9,0,1.3,0.3c0.4,0.2,0.7,0.6,0.8,1.1c0.2,0.5,0.1,0.9-0.3,1.4
		L27.9,115.5z"/>
	<path d="M44.5,122.3c0.2,1.7-0.2,3.2-1.3,4.3c-1.1,1.2-2.6,1.9-4.6,2.2c-0.9,0.1-1.7,0.1-2.5,0c-0.8-0.1-1.5-0.4-2.1-0.7
		s-1.1-0.8-1.5-1.3s-0.7-1-0.8-1.6c-0.1-0.6,0-1,0.3-1.4c0.3-0.4,0.7-0.6,1.1-0.6c0.5-0.1,1,0,1.2,0.2c0.3,0.2,0.5,0.6,0.6,1
		c0.1,0.5,0.5,0.8,1.1,1.1s1.3,0.4,2.2,0.2c0.8-0.1,1.6-0.4,2.2-0.9c0.6-0.5,0.9-1.1,0.8-1.9c-0.1-0.4-0.2-0.7-0.5-1
		c-0.3-0.2-0.6-0.4-1-0.6s-0.8-0.2-1.2-0.3c-0.4-0.1-0.8-0.1-1.2,0c-0.6,0-1.3,0-2-0.1c-0.7-0.1-1.4-0.2-2-0.5
		c-0.6-0.3-1.1-0.7-1.6-1.2s-0.7-1.2-0.8-2.1c-0.1-0.7,0-1.3,0.3-1.9c0.3-0.6,0.6-1.2,1.1-1.7c0.5-0.5,1-0.9,1.7-1.3
		c0.7-0.3,1.4-0.6,2.2-0.7c1.3-0.2,2.5-0.1,3.7,0.2c1.1,0.3,2,0.9,2.7,1.9c0.3,0.5,0.4,0.9,0.3,1.4s-0.4,0.8-0.7,1
		c-0.4,0.3-0.9,0.4-1.3,0.3c-0.4-0.1-0.8-0.3-1.1-0.7c-0.3-0.4-0.7-0.7-1.3-0.8s-1.2-0.2-1.8-0.1c-0.6,0.1-1.1,0.3-1.6,0.6
		c-0.5,0.3-0.7,0.8-0.7,1.3c0,0.3,0.2,0.6,0.4,0.8s0.5,0.4,0.9,0.4c0.4,0.1,0.7,0.1,1.1,0.1c0.4,0,0.8,0,1.1,0c0.7,0,1.4,0,2.2,0.1
		c0.7,0.1,1.4,0.3,2,0.6c0.6,0.3,1.2,0.7,1.6,1.3C44.1,120.7,44.4,121.4,44.5,122.3z"/>
	<path d="M41.1,101.8c0.5,0.3,0.7,0.6,0.7,1s-0.1,0.8-0.4,1.1c-0.3,0.4-0.6,0.7-1,0.9c-0.4,0.3-0.9,0.4-1.3,0.5l-5,0.7
		c-0.4,0.1-0.8,0.2-1,0.5s-0.3,0.5-0.3,0.8c0.1,0.3,0.3,0.4,0.7,0.4c0.4,0,0.8-0.2,1-0.7c0.3-0.4,0.6-0.7,0.9-0.8
		c0.3-0.1,0.7-0.1,1.2,0.2c0.3,0.2,0.6,0.3,0.8,0.4c0.3,0.1,0.5,0.1,0.6,0c0.1,0,0.2-0.1,0.2-0.1s0.1-0.1,0.2-0.2
		c0.3-0.4,0.7-0.5,1.1-0.5c0.4,0,0.7,0.2,1,0.4c0.3,0.2,0.5,0.5,0.6,0.9c0.1,0.4,0.1,0.8-0.2,1.1c-0.2,0.3-0.5,0.5-0.9,0.8
		c-0.4,0.3-0.8,0.4-1.3,0.5c-0.6,0.1-1.1,0-1.6-0.1s-0.9-0.4-1.2-0.6l-0.5,0.4c-0.3,0.2-0.6,0.4-0.9,0.7c-0.3,0.2-0.8,0.4-1.3,0.5
		c-0.3,0-0.6,0-1,0c-0.4-0.1-0.7-0.2-1.1-0.4c-0.4-0.2-0.7-0.5-1-0.9c-0.3-0.4-0.4-0.9-0.5-1.5c-0.1-1,0.1-1.9,0.8-2.8
		s1.8-1.4,3.3-1.6l4.2-0.6c0.4-0.1,0.6-0.2,0.9-0.4c0.2-0.2,0.4-0.4,0.6-0.6c0.2-0.2,0.4-0.3,0.7-0.4
		C40.4,101.5,40.7,101.6,41.1,101.8z"/>
	<path d="M58.5,116.9c0.2,1.3,0.2,2.5-0.1,3.7c-0.2,1.1-0.6,2.1-1.2,2.9c-0.5,0.8-1.2,1.5-1.9,2s-1.5,0.8-2.4,0.9l-1.5,0.2
		c-0.9,0.1-1.5-0.2-1.8-1l-1.7-5.3l-0.3,0c-0.5,0.1-1,0-1.3-0.3c-0.3-0.3-0.5-0.6-0.6-1c-0.1-0.4,0-0.7,0.3-1.1s0.6-0.6,1.2-0.7
		l1.6-0.2c0.9-0.1,1.5,0.2,1.8,1l1.7,5.4l0.2,0c0.5-0.1,0.9-0.3,1.3-0.6c0.4-0.3,0.7-0.8,0.9-1.3c0.2-0.5,0.4-1.1,0.5-1.8
		c0.1-0.7,0.1-1.4,0-2.1c-0.1-0.7-0.3-1.4-0.5-2c-0.2-0.6-0.6-1.1-0.9-1.6c-0.4-0.4-0.8-0.8-1.3-1c-0.5-0.2-1.1-0.3-1.7-0.3
		c-0.9,0.1-1.6,0.3-2.1,0.8c-0.5,0.5-0.9,1-1,1.5c-0.1,0.5-0.4,0.9-0.7,1.1c-0.4,0.3-0.8,0.4-1.2,0.3c-0.4-0.1-0.7-0.2-1-0.5
		c-0.3-0.3-0.4-0.7-0.3-1.2c0.1-0.5,0.3-1,0.6-1.6c0.3-0.5,0.7-1,1.2-1.5s1.1-0.8,1.8-1.1c0.7-0.3,1.5-0.5,2.3-0.7
		c1-0.1,1.9-0.1,2.8,0.1c0.9,0.2,1.7,0.6,2.5,1.2s1.4,1.3,1.9,2.3C57.9,114.3,58.2,115.5,58.5,116.9z"/>
	<path d="M65,123.4c0.1,0.5,0,0.9-0.3,1.2c-0.3,0.3-0.7,0.5-1.1,0.5c-0.4,0.1-0.8,0-1.2-0.2c-0.4-0.2-0.6-0.6-0.7-1.1l-2-14
		c-0.1-0.5,0-0.9,0.3-1.2c0.3-0.3,0.7-0.5,1.1-0.6c0.4-0.1,0.8,0,1.2,0.2c0.4,0.2,0.6,0.6,0.7,1.1L65,123.4z M71.1,122.5
		c0.1,0.5,0,0.9-0.3,1.2c-0.3,0.3-0.7,0.5-1.1,0.5s-0.8,0-1.2-0.2c-0.4-0.2-0.6-0.6-0.7-1.1l-2-14c-0.1-0.5,0-0.9,0.3-1.2
		c0.3-0.3,0.7-0.5,1.1-0.6s0.8,0,1.2,0.2s0.6,0.6,0.7,1.1L71.1,122.5z"/>
	<path d="M86.6,120.1c0.1,0.5,0,1-0.3,1.3c-0.3,0.3-0.7,0.5-1.1,0.6c-0.4,0.1-0.8,0-1.2-0.2c-0.4-0.2-0.6-0.6-0.7-1.2l-0.9-6.3
		c-0.5,0.4-1.1,0.6-1.9,0.8c-0.8,0.2-1.5,0.4-2.2,0.6c-0.7,0.2-1.2,0.5-1.6,1s-0.6,1-0.5,1.6c0.1,0.6,0.3,1,0.7,1.3s0.8,0.2,1.2,0
		c0.5-0.2,0.9-0.2,1.2-0.1c0.3,0.1,0.6,0.4,0.8,0.7c0.2,0.4,0.3,0.8,0.2,1.3c-0.1,0.5-0.4,0.8-1,1.1c-0.6,0.2-1.2,0.4-1.9,0.4
		c-0.7,0-1.4-0.1-2-0.4s-1.2-0.8-1.7-1.4c-0.5-0.6-0.8-1.4-1-2.4c-0.1-0.9-0.1-1.6,0.1-2.3c0.2-0.7,0.5-1.2,0.9-1.7
		c0.4-0.5,0.9-0.9,1.5-1.2c0.6-0.3,1.2-0.6,1.7-0.7c0.4-0.1,0.9-0.3,1.5-0.4c0.6-0.1,1.1-0.3,1.6-0.5c0.5-0.2,0.9-0.5,1.2-0.8
		c0.3-0.3,0.4-0.7,0.4-1.1c-0.1-0.5-0.4-0.9-1-1.2c-0.6-0.3-1.3-0.4-2.1-0.2c-0.7,0.1-1.3,0.3-1.9,0.7s-0.8,0.8-0.9,1.3
		c0,0.6-0.3,1-0.7,1.3c-0.4,0.2-0.9,0.3-1.4,0.2c-0.4-0.1-0.7-0.3-0.9-0.6c-0.2-0.3-0.3-0.7-0.2-1.2c0.1-1.1,0.7-2.1,1.6-3
		c1-0.9,2.3-1.4,4-1.7c1.8-0.3,3.3,0,4.7,0.8c1.3,0.8,2.1,2,2.4,3.7L86.6,120.1z"/>
	<path d="M87.4,101.2c0.1,0.4,0,0.8-0.2,1.2S86.6,103,86,103l-5.4,0.8c-0.5,0.1-1,0-1.3-0.3c-0.3-0.3-0.5-0.6-0.6-1l-0.1-0.9
		l-0.6,0.1c-0.5,0.1-1,0-1.3-0.3s-0.5-0.6-0.6-1c-0.1-0.4,0-0.8,0.3-1.1c0.2-0.4,0.6-0.6,1.2-0.7l2.3-0.3c0.6-0.1,1.1,0,1.5,0.2
		c0.4,0.3,0.6,0.6,0.7,1.2l0.1,0.8l3.4-0.5c0.5-0.1,1,0,1.3,0.3C87.2,100.5,87.4,100.9,87.4,101.2z"/>
	<path d="M100.8,111.1c0.2,1.2,0.2,2.4,0,3.4c-0.2,1.1-0.5,2.1-1,2.9c-0.5,0.9-1.1,1.6-2,2.1c-0.8,0.6-1.8,0.9-2.9,1.1
		c-0.8,0.1-1.6,0.1-2.4-0.1s-1.4-0.4-2.1-0.8c-0.6-0.4-1.1-0.8-1.5-1.3c-0.4-0.5-0.7-1-0.9-1.6c-0.2-0.5-0.1-0.9,0-1.2
		c0.2-0.3,0.4-0.6,0.8-0.8c0.4-0.2,0.9-0.2,1.3-0.1c0.4,0.1,0.8,0.5,1,1.1c0.2,0.5,0.6,1,1.2,1.3c0.6,0.4,1.3,0.5,2.1,0.4
		c0.7-0.1,1.2-0.3,1.6-0.7c0.4-0.4,0.7-0.8,1-1.4s0.4-1.2,0.4-1.9c0-0.7,0-1.4-0.1-2.1c-0.1-0.7-0.3-1.4-0.5-2
		c-0.2-0.6-0.5-1.2-0.9-1.7c-0.4-0.5-0.8-0.8-1.3-1.1c-0.5-0.2-1.1-0.3-1.8-0.2c-0.8,0.1-1.4,0.4-1.9,1c-0.5,0.5-0.8,1.1-0.8,1.6
		c0,0.7-0.3,1.1-0.8,1.4c-0.5,0.2-0.9,0.3-1.4,0.1c-0.3-0.1-0.6-0.3-0.8-0.5s-0.3-0.6-0.3-1.1c0-0.6,0.1-1.2,0.4-1.8
		c0.3-0.6,0.6-1.2,1.1-1.7c0.5-0.5,1.1-1,1.7-1.3c0.7-0.4,1.4-0.6,2.3-0.7c1.1-0.2,2.2-0.1,3.1,0.2c0.9,0.3,1.8,0.8,2.5,1.5
		c0.7,0.7,1.3,1.5,1.8,2.5C100.3,108.8,100.6,109.9,100.8,111.1z"/>
	<path d="M116.7,115.9c0.1,0.5,0,0.9-0.3,1.2c-0.3,0.3-0.7,0.5-1.1,0.6c-0.4,0.1-0.8,0-1.2-0.2s-0.6-0.6-0.7-1.1l-1.4-9.5
		c-0.1-0.9-0.5-1.7-1.2-2.1c-0.7-0.5-1.5-0.7-2.5-0.5c-1,0.1-1.8,0.6-2.3,1.2s-0.7,1.5-0.5,2.4l0.1,0.9l3.1-0.4c0.5-0.1,1,0,1.3,0.3
		c0.3,0.3,0.5,0.6,0.6,1c0.1,0.4,0,0.8-0.3,1.1c-0.2,0.4-0.6,0.6-1.2,0.7l-3.1,0.4l0.8,5.5c0.1,0.5,0,0.9-0.3,1.2
		c-0.3,0.3-0.7,0.5-1.1,0.6c-0.4,0.1-0.8,0-1.2-0.2c-0.4-0.2-0.6-0.6-0.7-1.1l-1.3-9.2c-0.1-1-0.1-1.9,0.1-2.7
		c0.2-0.8,0.6-1.5,1.1-2.2c0.5-0.6,1.1-1.1,1.9-1.5c0.8-0.4,1.6-0.7,2.5-0.8c1-0.1,1.9-0.1,2.7,0.1c0.8,0.2,1.6,0.5,2.2,0.9
		c0.7,0.5,1.2,1,1.6,1.8c0.4,0.7,0.7,1.6,0.9,2.5L116.7,115.9z"/>
	<path d="M131.7,113.6c0.1,0.5,0,1-0.3,1.3s-0.7,0.5-1.1,0.6c-0.4,0.1-0.8,0-1.2-0.2c-0.4-0.2-0.6-0.6-0.7-1.2l-0.9-6.3
		c-0.5,0.4-1.1,0.6-1.9,0.8c-0.8,0.2-1.5,0.4-2.2,0.6c-0.7,0.2-1.2,0.5-1.6,1c-0.4,0.4-0.6,1-0.5,1.6c0.1,0.6,0.3,1,0.7,1.3
		c0.4,0.2,0.8,0.2,1.2,0c0.5-0.2,0.9-0.2,1.2-0.1c0.3,0.1,0.6,0.4,0.8,0.7c0.2,0.4,0.3,0.8,0.2,1.3c-0.1,0.5-0.4,0.8-1,1.1
		c-0.6,0.2-1.2,0.4-1.9,0.4c-0.7,0-1.4-0.1-2-0.4c-0.7-0.3-1.2-0.8-1.7-1.4c-0.5-0.6-0.8-1.4-1-2.4c-0.1-0.9-0.1-1.6,0.1-2.3
		c0.2-0.7,0.5-1.2,0.9-1.7c0.4-0.5,0.9-0.9,1.5-1.2c0.6-0.3,1.2-0.6,1.7-0.7c0.4-0.1,0.9-0.3,1.5-0.4c0.6-0.1,1.1-0.3,1.6-0.5
		c0.5-0.2,0.9-0.5,1.2-0.8c0.3-0.3,0.4-0.7,0.4-1.1c-0.1-0.5-0.4-0.9-1-1.2c-0.6-0.3-1.3-0.4-2.1-0.2c-0.7,0.1-1.3,0.3-1.9,0.7
		s-0.8,0.8-0.9,1.3c0,0.6-0.3,1-0.7,1.3s-0.9,0.3-1.4,0.2c-0.4-0.1-0.7-0.3-0.9-0.6c-0.2-0.3-0.3-0.7-0.2-1.2c0.1-1.1,0.7-2.1,1.6-3
		s2.3-1.4,4-1.7c1.8-0.3,3.3,0,4.7,0.8c1.3,0.8,2.1,2,2.4,3.7L131.7,113.6z"/>
	<path d="M129.3,95.2c0.1,0.4,0,0.8-0.2,1.2s-0.6,0.5-1.2,0.6l-9.3,1.3c-0.5,0.1-1,0-1.3-0.3c-0.3-0.3-0.5-0.6-0.6-1
		c-0.1-0.4,0-0.8,0.3-1.1c0.2-0.4,0.6-0.6,1.2-0.7l9.3-1.3c0.5-0.1,1,0,1.3,0.3C129.1,94.5,129.3,94.8,129.3,95.2z"/>
	<path d="M130.1,90.1c-1.2,0.2-1.8-0.2-2-1l-0.1-1c-0.1-0.4-0.2-0.5-0.4-0.5c-0.1,0-0.1,0.1-0.2,0.2c-0.1,0.1-0.2,0.3-0.2,0.5
		c-0.1,0.4-0.4,0.7-0.8,0.7c-0.2,0-0.4,0-0.5-0.1c-0.1-0.1-0.3-0.2-0.5-0.4c-0.4-0.5-1-0.7-1.6-0.6c-0.2,0-0.4,0.1-0.6,0.3
		s-0.3,0.3-0.3,0.5c0,0.2,0.1,0.2,0.4,0.1c0.4-0.2,0.8-0.2,1.1-0.2c0.3,0.1,0.6,0.2,0.7,0.4c0.2,0.3,0.3,0.6,0.2,1s-0.3,0.7-0.7,0.9
		c-0.4,0.2-0.9,0.4-1.3,0.4c-0.5,0-0.9-0.1-1.3-0.2s-0.8-0.4-1.1-0.8c-0.3-0.4-0.5-0.8-0.5-1.3c-0.1-0.9,0.1-1.6,0.8-2.3
		c0.6-0.7,1.4-1.1,2.4-1.2c0.5-0.1,0.9,0,1.4,0c0.5,0.1,0.8,0.3,1.2,0.5c0.2-0.3,0.4-0.5,0.7-0.8s0.6-0.4,1-0.4
		c0.7-0.1,1.2,0,1.8,0.4c0.5,0.3,0.9,0.9,1,1.8l0.1,0.4l1.3-0.2c0.4-0.1,0.8,0,1,0.2c0.3,0.2,0.4,0.5,0.5,0.8s0,0.6-0.2,0.9
		c-0.2,0.3-0.5,0.5-0.9,0.5L130.1,90.1z"/>
	<path d="M147.3,111.4c0.1,0.5,0,1-0.3,1.3s-0.7,0.5-1.1,0.6s-0.8,0-1.2-0.2c-0.4-0.2-0.6-0.6-0.7-1.1l-1.3-9
		c-0.2-1.1-0.6-1.9-1.4-2.5c-0.8-0.5-1.6-0.7-2.5-0.6c-0.8,0.1-1.4,0.4-1.9,0.8s-0.8,0.8-0.9,1.3c0,0.1,0.1,0.2,0.2,0.4
		c0.1,0.1,0.3,0.3,0.5,0.4c0.2,0.1,0.4,0.3,0.5,0.4c0.2,0.1,0.3,0.3,0.3,0.4c0,0.1,0,0.3-0.2,0.4c-0.1,0.2-0.2,0.4-0.4,0.6
		c-0.1,0.2-0.3,0.4-0.4,0.7c-0.1,0.3-0.1,0.5-0.1,0.8l1,6.8c0.1,0.5,0,1-0.3,1.3c-0.3,0.3-0.7,0.5-1.1,0.6c-0.4,0.1-0.8,0-1.2-0.2
		c-0.4-0.2-0.6-0.6-0.7-1.1l-1-7c0-0.2,0-0.5,0.1-0.7c0.1-0.2,0.2-0.4,0.4-0.6c0.1-0.2,0.2-0.3,0.4-0.5c0.1-0.1,0.2-0.2,0.2-0.3
		c0-0.1-0.1-0.1-0.3-0.2c-0.2-0.1-0.3-0.2-0.5-0.3c-0.2-0.1-0.4-0.3-0.5-0.4c-0.2-0.2-0.2-0.3-0.2-0.5c0.1-1.6,0.6-2.9,1.7-3.9
		s2.4-1.7,4.1-1.9c1-0.1,1.9-0.1,2.7,0c0.9,0.2,1.6,0.5,2.3,0.9c0.7,0.5,1.2,1.1,1.7,1.9s0.8,1.7,0.9,2.9L147.3,111.4z"/>
</g>
</svg>
