<?xml version="1.0" encoding="utf-8"?>
<!-- Generator: Adobe Illustrator 22.1.0, SVG Export Plug-In . SVG Version: 6.00 Build 0)  -->
<svg version="1.1" id="Layer_1" xmlns="http://www.w3.org/2000/svg" xmlns:xlink="http://www.w3.org/1999/xlink" x="0px" y="0px"
	 viewBox="0 0 139.7 139.7" style="enable-background:new 0 0 139.7 139.7;" xml:space="preserve">
<style type="text/css">
	.st0{fill:#FFFFFF;}
	.st1{fill:#F47920;}
</style>
<title>check</title>
<circle class="st0" cx="69.8" cy="69.8" r="65.4"/>
<circle class="st1" cx="68.7" cy="69.8" r="46.2"/>
<path class="st0" d="M53,100h-0.3c-2.5-0.1-4.9-1.3-6.5-3.3L32.4,79.4c-2.8-3.9-1.9-9.3,2-12.1c3.6-2.6,8.6-2,11.6,1.3l7.5,9.3
	l31.8-35.3c3.1-3.6,8.6-4,12.3-0.9s4,8.6,0.9,12.3c-0.1,0.1-0.2,0.2-0.3,0.3L59.5,97.1C57.8,99,55.5,100,53,100z"/>
<g>
	<path d="M71.7,130.7c0,0.2-0.1,0.4-0.3,0.5c-0.2,0.1-0.3,0.2-0.5,0.2c-0.2,0-0.4-0.1-0.5-0.2c-0.2-0.1-0.2-0.3-0.2-0.5l0.1-4.5
		c0-0.4-0.1-0.8-0.4-1.1c-0.3-0.3-0.6-0.4-1.1-0.4c-0.5,0-0.9,0.1-1.1,0.4s-0.4,0.6-0.4,1.1l0,0.4l1.5,0c0.3,0,0.4,0.1,0.6,0.2
		c0.1,0.2,0.2,0.3,0.2,0.5c0,0.2-0.1,0.3-0.2,0.5c-0.1,0.1-0.3,0.2-0.6,0.2l-1.5,0l-0.1,2.6c0,0.2-0.1,0.4-0.3,0.5
		c-0.2,0.1-0.3,0.2-0.5,0.2c-0.2,0-0.4-0.1-0.5-0.2c-0.2-0.1-0.2-0.3-0.2-0.5l0.1-4.3c0-0.5,0.1-0.9,0.3-1.2
		c0.2-0.4,0.4-0.7,0.7-0.9c0.3-0.2,0.6-0.4,1-0.6c0.4-0.1,0.8-0.2,1.2-0.2c0.4,0,0.9,0.1,1.2,0.2c0.4,0.1,0.7,0.3,0.9,0.6
		c0.3,0.3,0.5,0.6,0.6,0.9c0.1,0.4,0.2,0.8,0.2,1.2L71.7,130.7z"/>
	<path d="M79.6,130c0,0.3,0,0.5-0.2,0.6c-0.1,0.1-0.3,0.2-0.5,0.2c-0.2,0-0.4,0-0.5-0.1c-0.2-0.1-0.3-0.3-0.3-0.5l-0.3-2.9
		c-0.2,0.2-0.5,0.3-0.9,0.3c-0.4,0.1-0.7,0.2-1,0.2c-0.3,0.1-0.6,0.2-0.8,0.4c-0.2,0.2-0.3,0.4-0.3,0.7c0,0.3,0.1,0.5,0.3,0.6
		s0.4,0.1,0.5,0c0.2-0.1,0.4-0.1,0.6,0c0.2,0.1,0.3,0.2,0.4,0.4c0.1,0.2,0.1,0.4,0,0.6c-0.1,0.2-0.2,0.4-0.5,0.5
		c-0.3,0.1-0.6,0.2-0.9,0.1s-0.6-0.1-0.9-0.2c-0.3-0.2-0.6-0.4-0.8-0.7c-0.2-0.3-0.3-0.7-0.4-1.1c0-0.4,0-0.7,0.1-1
		c0.1-0.3,0.3-0.6,0.5-0.8c0.2-0.2,0.4-0.4,0.7-0.5c0.3-0.1,0.5-0.2,0.8-0.3c0.2-0.1,0.4-0.1,0.7-0.2c0.3-0.1,0.5-0.1,0.7-0.2
		c0.2-0.1,0.4-0.2,0.6-0.3c0.2-0.1,0.2-0.3,0.2-0.5c0-0.2-0.2-0.4-0.4-0.6c-0.3-0.1-0.6-0.2-1-0.2c-0.3,0-0.6,0.1-0.9,0.3
		s-0.4,0.4-0.4,0.6c0,0.3-0.2,0.5-0.4,0.6c-0.2,0.1-0.4,0.1-0.7,0c-0.2,0-0.3-0.1-0.4-0.3c-0.1-0.1-0.1-0.3-0.1-0.6
		c0.1-0.5,0.4-1,0.8-1.4c0.5-0.4,1.1-0.6,1.9-0.7c0.8-0.1,1.6,0.1,2.1,0.5c0.6,0.4,0.9,1,1,1.8L79.6,130z"/>
	<path d="M78.7,121.3c0,0.2,0,0.4-0.1,0.5c-0.1,0.2-0.3,0.3-0.5,0.3l-4.3,0.7c-0.3,0-0.5,0-0.6-0.1c-0.1-0.1-0.2-0.3-0.3-0.5
		c0-0.2,0-0.4,0.1-0.5c0.1-0.2,0.3-0.3,0.5-0.3l4.3-0.7c0.3,0,0.5,0,0.6,0.1C78.6,121,78.7,121.1,78.7,121.3z"/>
	<path d="M79,119c-0.5,0.1-0.9-0.1-0.9-0.4L78,118c0-0.2-0.1-0.3-0.2-0.2c0,0-0.1,0-0.1,0.1c0,0.1-0.1,0.1-0.1,0.2
		c-0.1,0.2-0.2,0.3-0.4,0.3c-0.1,0-0.2,0-0.3,0c-0.1,0-0.1-0.1-0.2-0.2c-0.2-0.2-0.5-0.3-0.7-0.3c-0.1,0-0.2,0.1-0.3,0.1
		c-0.1,0.1-0.1,0.2-0.1,0.2c0,0.1,0.1,0.1,0.2,0c0.2-0.1,0.4-0.1,0.5-0.1c0.2,0,0.3,0.1,0.3,0.2c0.1,0.1,0.1,0.3,0.1,0.5
		c0,0.2-0.1,0.3-0.3,0.4c-0.2,0.1-0.4,0.2-0.6,0.2s-0.4,0-0.6-0.1s-0.4-0.2-0.5-0.4c-0.1-0.2-0.2-0.4-0.3-0.6
		c-0.1-0.4,0-0.8,0.3-1.1c0.3-0.3,0.7-0.5,1.1-0.6c0.2,0,0.4,0,0.6,0c0.2,0,0.4,0.1,0.5,0.2c0.1-0.1,0.2-0.3,0.3-0.4
		c0.1-0.1,0.3-0.2,0.5-0.2c0.3-0.1,0.6,0,0.8,0.1c0.3,0.1,0.4,0.4,0.5,0.8l0,0.2l0.6-0.1c0.2,0,0.4,0,0.5,0.1
		c0.1,0.1,0.2,0.2,0.2,0.4c0,0.2,0,0.3-0.1,0.4c-0.1,0.1-0.2,0.2-0.4,0.3L79,119z"/>
	<path d="M87.6,128.2c0.1,0.2,0,0.4-0.1,0.6c-0.1,0.2-0.3,0.3-0.5,0.3c-0.2,0-0.4,0-0.6-0.1c-0.2-0.1-0.3-0.2-0.4-0.5l-1-4.1
		c-0.1-0.5-0.4-0.9-0.7-1.1c-0.4-0.2-0.8-0.3-1.2-0.2c-0.4,0.1-0.6,0.2-0.8,0.4c-0.2,0.2-0.3,0.4-0.4,0.7c0,0.1,0,0.1,0.1,0.2
		c0.1,0.1,0.2,0.1,0.2,0.2c0.1,0.1,0.2,0.1,0.3,0.2c0.1,0.1,0.1,0.1,0.2,0.2c0,0,0,0.1,0,0.2c0,0.1-0.1,0.2-0.2,0.3
		c-0.1,0.1-0.1,0.2-0.1,0.3c0,0.1,0,0.2,0,0.4l0.8,3.1c0.1,0.2,0,0.4-0.1,0.6c-0.1,0.2-0.3,0.3-0.5,0.3c-0.2,0-0.4,0-0.6-0.1
		c-0.2-0.1-0.3-0.2-0.4-0.5l-0.8-3.2c0-0.1,0-0.2,0-0.3c0-0.1,0.1-0.2,0.1-0.3c0-0.1,0.1-0.2,0.1-0.2c0.1-0.1,0.1-0.1,0.1-0.1
		c0,0,0-0.1-0.1-0.1s-0.2-0.1-0.3-0.1c-0.1-0.1-0.2-0.1-0.3-0.2c-0.1-0.1-0.1-0.1-0.1-0.2c0-0.7,0.2-1.4,0.6-1.9
		c0.5-0.5,1.1-0.9,1.8-1.1c0.4-0.1,0.9-0.1,1.3-0.1c0.4,0,0.8,0.1,1.1,0.3s0.6,0.4,0.9,0.8c0.2,0.3,0.4,0.8,0.6,1.3L87.6,128.2z"/>
	<path d="M91,127c0.1,0.2,0.1,0.4,0,0.6c-0.1,0.2-0.3,0.3-0.4,0.3c-0.2,0.1-0.4,0.1-0.6,0c-0.2-0.1-0.3-0.2-0.4-0.4l-2.2-6.2
		c-0.1-0.2-0.1-0.4,0-0.6c0.1-0.2,0.3-0.3,0.4-0.4c0.2-0.1,0.4-0.1,0.6,0c0.2,0.1,0.3,0.2,0.4,0.4L91,127z"/>
	<path d="M97.6,121.4c0.2,0.5,0.4,0.9,0.4,1.3c0,0.4,0,0.8-0.1,1.1c-0.1,0.3-0.3,0.6-0.5,0.9c-0.2,0.2-0.5,0.4-0.8,0.6
		c-0.6,0.3-1.2,0.4-1.9,0.2c0,0.2-0.1,0.4-0.2,0.6c-0.1,0.2-0.3,0.4-0.5,0.5c-0.3,0.2-0.6,0.2-0.9,0.1c-0.3-0.1-0.5-0.3-0.7-0.5
		c-0.1-0.2-0.1-0.4-0.1-0.6c0-0.2,0.2-0.4,0.3-0.6l-2.3-4.6c-0.1-0.2-0.1-0.4,0-0.6c0.1-0.2,0.2-0.3,0.4-0.4
		c0.2-0.1,0.4-0.1,0.6-0.1c0.2,0,0.3,0.2,0.5,0.4l1.9,3.8c0.1,0.2,0.3,0.4,0.4,0.6s0.4,0.2,0.6,0.3c0.2,0,0.4,0.1,0.6,0
		c0.2,0,0.4-0.1,0.6-0.2c0.5-0.2,0.7-0.5,0.8-0.9c0-0.4-0.1-0.8-0.3-1.3l-1.8-3.7c-0.1-0.2-0.1-0.4,0-0.6c0.1-0.2,0.2-0.3,0.4-0.4
		c0.2-0.1,0.4-0.1,0.5-0.1c0.2,0,0.4,0.2,0.5,0.4L97.6,121.4z"/>
	<path d="M94.6,115.7c0.1,0.2,0.1,0.4,0.1,0.5c0,0.2-0.2,0.3-0.4,0.5l-3.7,2.2c-0.2,0.1-0.4,0.2-0.6,0.1c-0.2-0.1-0.3-0.2-0.4-0.3
		c-0.1-0.2-0.1-0.3-0.1-0.5c0-0.2,0.2-0.4,0.4-0.5l1.3-0.8l-0.2-0.4c-0.1-0.2-0.2-0.4-0.1-0.6c0.1-0.2,0.2-0.3,0.4-0.4
		c0.2-0.1,0.3-0.1,0.5-0.1c0.2,0,0.4,0.1,0.5,0.3l0.2,0.4l0.4-0.2l-0.2-0.4c-0.1-0.2-0.2-0.4-0.1-0.6c0.1-0.2,0.2-0.3,0.4-0.4
		c0.2-0.1,0.3-0.1,0.5-0.1c0.2,0,0.4,0.1,0.5,0.3L94.6,115.7z"/>
	<path d="M93.1,113.1c0.1,0.2,0.2,0.4,0.1,0.6c-0.1,0.2-0.2,0.3-0.4,0.4c-0.2,0.1-0.3,0.1-0.5,0.1c-0.2,0-0.4-0.1-0.5-0.4l-0.5-0.8
		c-0.1-0.2-0.2-0.4-0.1-0.6c0.1-0.2,0.2-0.3,0.4-0.4c0.2-0.1,0.3-0.1,0.5-0.1c0.2,0,0.4,0.1,0.5,0.4L93.1,113.1z"/>
	<path d="M104.3,115.7c0.3,0.5,0.6,0.9,0.7,1.4c0.1,0.5,0.2,1,0.1,1.5c0,0.5-0.2,0.9-0.4,1.4c-0.2,0.4-0.6,0.8-1.1,1.1
		c-0.4,0.3-0.8,0.5-1.3,0.6c-0.4,0.1-0.9,0.1-1.3,0.1c-0.4-0.1-0.8-0.2-1.2-0.4c-0.4-0.2-0.7-0.5-1-0.8c-0.4-0.4-0.5-0.7-0.5-1.1
		c0-0.3,0.2-0.6,0.5-0.8l1.3-0.9c0.2-0.1,0.4-0.2,0.6-0.1c0.2,0.1,0.3,0.2,0.4,0.3c0.1,0.2,0.2,0.3,0.2,0.5s-0.1,0.4-0.3,0.5
		l-0.9,0.6c0.4,0.3,0.8,0.6,1.3,0.6c0.5,0.1,0.9,0,1.4-0.3c0.3-0.2,0.5-0.4,0.6-0.7c0.1-0.3,0.2-0.5,0.2-0.8c0-0.3,0-0.6-0.2-0.9
		s-0.3-0.6-0.5-0.9c-0.2-0.3-0.4-0.5-0.7-0.7c-0.3-0.2-0.5-0.3-0.8-0.4c-0.3-0.1-0.6-0.1-0.9-0.1c-0.3,0-0.6,0.1-0.8,0.3
		c-0.4,0.3-0.6,0.6-0.7,0.9c-0.1,0.4-0.1,0.7-0.1,1c0.1,0.3,0,0.5-0.2,0.7c-0.2,0.2-0.3,0.3-0.6,0.3c-0.2,0-0.3,0-0.5-0.1
		c-0.2-0.1-0.3-0.3-0.3-0.5c-0.1-0.6-0.1-1.2,0.2-1.8s0.7-1.2,1.4-1.6c0.4-0.3,0.9-0.5,1.4-0.6c0.5-0.1,0.9-0.1,1.4,0
		c0.5,0.1,0.9,0.3,1.3,0.6C103.6,114.9,103.9,115.2,104.3,115.7z"/>
	<path d="M111.9,113c0.2,0.2,0.2,0.4,0.2,0.6c0,0.2-0.1,0.4-0.3,0.5c-0.1,0.1-0.3,0.2-0.5,0.2c-0.2,0-0.4-0.1-0.5-0.2l-2.8-3
		c-0.4-0.4-0.8-0.7-1.1-0.7c-0.4-0.1-0.7,0.1-1.1,0.4c-0.1,0.1-0.2,0.3-0.3,0.5c-0.1,0.2-0.1,0.4-0.1,0.6c0,0.2,0,0.5,0.1,0.7
		c0.1,0.2,0.2,0.4,0.4,0.6l2.8,2.9c0.2,0.2,0.2,0.4,0.2,0.6c0,0.2-0.1,0.4-0.3,0.5c-0.1,0.1-0.3,0.2-0.5,0.2c-0.2,0-0.4-0.1-0.5-0.2
		l-4.5-4.8c-0.2-0.2-0.2-0.4-0.2-0.6c0-0.2,0.1-0.4,0.3-0.5c0.2-0.1,0.3-0.2,0.5-0.3c0.2,0,0.4,0,0.5,0.2l0.2,0.2c0-0.3,0-0.7,0.2-1
		c0.1-0.3,0.3-0.6,0.6-0.8c0.2-0.2,0.5-0.4,0.8-0.6c0.3-0.1,0.6-0.2,1-0.2c0.3,0,0.7,0.1,1.1,0.3c0.4,0.2,0.7,0.5,1.1,0.9L111.9,113
		z"/>
	<path d="M104,108.1c0.2,0.2,0.4,0.5,0.4,0.8c0,0.3-0.1,0.7-0.4,1c-0.3,0.3-0.6,0.5-0.9,0.5c-0.3,0-0.6-0.1-0.9-0.3
		c-0.3-0.2-0.4-0.5-0.4-0.8c0-0.3,0.1-0.7,0.4-1c0.3-0.3,0.6-0.5,0.9-0.5C103.4,107.7,103.7,107.8,104,108.1z M115.7,108.7
		c0.2,0.2,0.3,0.4,0.3,0.5c0,0.2-0.1,0.4-0.2,0.5c-0.1,0.1-0.3,0.2-0.5,0.3c-0.2,0-0.4,0-0.6-0.2l-3.3-3c-0.3-0.2-0.5-0.3-0.9-0.3
		c-0.3,0-0.6,0.1-0.8,0.4c-0.1,0.1-0.2,0.2-0.2,0.3c0,0.1-0.1,0.2-0.1,0.2c-0.1,0.3-0.2,0.5-0.4,0.6c-0.2,0.1-0.4,0.1-0.6,0
		c-0.2-0.1-0.3-0.2-0.4-0.3c-0.1-0.2-0.1-0.4-0.1-0.6c0-0.1,0.1-0.3,0.2-0.5c0.1-0.2,0.2-0.5,0.5-0.7c0.3-0.3,0.5-0.5,0.8-0.7
		c0.3-0.2,0.6-0.2,1-0.3c0.3,0,0.7,0,1,0.1s0.7,0.3,1,0.6L115.7,108.7z"/>
	<path d="M118.2,105.5c0.2,0.1,0.3,0.3,0.3,0.5c0,0.2-0.1,0.4-0.2,0.5c-0.1,0.2-0.3,0.3-0.5,0.3c-0.2,0.1-0.4,0-0.6-0.1l-5.3-3.9
		c-0.2-0.1-0.3-0.3-0.3-0.5c0-0.2,0.1-0.4,0.2-0.5c0.1-0.2,0.3-0.3,0.5-0.3c0.2-0.1,0.4,0,0.6,0.1L118.2,105.5z"/>
	<path d="M117,96c0.2,0,0.4,0,0.7,0.1c0.2,0.1,0.4,0.2,0.7,0.3l4,2.4c0.2,0.1,0.3,0.3,0.4,0.5c0,0.2,0,0.4-0.1,0.6
		c-0.1,0.2-0.2,0.3-0.4,0.4c-0.2,0.1-0.4,0-0.6-0.1l-2.5-1.5c0,0.3-0.1,0.6-0.3,0.9c-0.2,0.3-0.3,0.7-0.4,1
		c-0.1,0.3-0.2,0.6-0.1,0.9c0,0.3,0.2,0.5,0.4,0.7c0.3,0.1,0.5,0.2,0.7,0.1c0.2-0.1,0.3-0.2,0.3-0.4c0.1-0.2,0.2-0.4,0.3-0.5
		c0.2-0.1,0.3-0.1,0.5-0.1c0.2,0,0.4,0.1,0.5,0.3c0.1,0.2,0.2,0.4,0.1,0.7c-0.1,0.3-0.2,0.5-0.4,0.8c-0.2,0.3-0.4,0.5-0.7,0.6
		c-0.3,0.1-0.6,0.2-1,0.2c-0.4,0-0.8-0.1-1.2-0.4c-0.3-0.2-0.6-0.4-0.8-0.7c-0.2-0.3-0.3-0.5-0.3-0.8c-0.1-0.3-0.1-0.6,0-0.9
		c0-0.3,0.1-0.6,0.2-0.8c0.1-0.2,0.2-0.4,0.3-0.7c0.1-0.2,0.2-0.5,0.3-0.7c0.1-0.2,0.1-0.5,0.1-0.7c0-0.2-0.1-0.4-0.3-0.5
		c-0.2-0.1-0.4-0.1-0.7,0c-0.3,0.1-0.5,0.4-0.7,0.7c-0.2,0.3-0.3,0.6-0.3,0.9c0,0.3,0,0.5,0.2,0.7c0.2,0.2,0.3,0.4,0.2,0.6
		c0,0.2-0.2,0.4-0.4,0.6c-0.1,0.1-0.3,0.2-0.5,0.2c-0.2,0-0.3-0.1-0.5-0.3c-0.4-0.4-0.6-0.9-0.6-1.5c0-0.6,0.1-1.2,0.6-1.9
		c0.2-0.4,0.5-0.7,0.8-1l-0.2-0.6c-0.1-0.3-0.1-0.5,0.1-0.7c0.1-0.2,0.3-0.3,0.5-0.4c0.2-0.1,0.4-0.1,0.6,0c0.2,0.1,0.4,0.2,0.4,0.5
		L117,96z"/>
	<path d="M123.8,91.1c0.7,0.3,1.2,0.8,1.4,1.6c0.2,0.7,0.1,1.5-0.3,2.3c-0.2,0.4-0.4,0.7-0.6,1c-0.2,0.3-0.5,0.5-0.8,0.6
		c-0.3,0.2-0.6,0.2-0.9,0.3c-0.3,0-0.6,0-0.8-0.1c-0.3-0.1-0.4-0.2-0.5-0.4c-0.1-0.2-0.1-0.4,0-0.6c0.1-0.2,0.2-0.4,0.4-0.4
		c0.1-0.1,0.3,0,0.6,0c0.2,0.1,0.4,0,0.7-0.1c0.3-0.2,0.5-0.4,0.6-0.8c0.2-0.4,0.2-0.7,0.2-1.1s-0.2-0.6-0.6-0.8
		c-0.2-0.1-0.3-0.1-0.5,0c-0.2,0-0.3,0.1-0.5,0.2c-0.1,0.1-0.3,0.3-0.4,0.4c-0.1,0.2-0.2,0.3-0.3,0.4c-0.2,0.3-0.3,0.5-0.5,0.8
		c-0.2,0.3-0.4,0.5-0.7,0.7c-0.3,0.2-0.5,0.3-0.8,0.3c-0.3,0-0.7,0-1-0.2c-0.3-0.1-0.5-0.3-0.7-0.6c-0.2-0.3-0.3-0.5-0.4-0.8
		c-0.1-0.3-0.1-0.6-0.1-1c0-0.3,0.1-0.7,0.3-1c0.2-0.6,0.6-1,1-1.4c0.4-0.4,0.9-0.6,1.4-0.6c0.3,0,0.5,0.1,0.6,0.2
		c0.1,0.2,0.2,0.3,0.2,0.5c0,0.2-0.1,0.4-0.2,0.6c-0.1,0.1-0.3,0.2-0.5,0.3c-0.2,0-0.5,0.1-0.7,0.3c-0.2,0.2-0.4,0.4-0.5,0.7
		c-0.1,0.2-0.2,0.5-0.1,0.8s0.1,0.5,0.3,0.6c0.1,0.1,0.3,0.1,0.4,0.1c0.1,0,0.3-0.1,0.4-0.2c0.1-0.1,0.2-0.3,0.3-0.4
		s0.2-0.3,0.3-0.4c0.2-0.3,0.4-0.6,0.6-0.8c0.2-0.3,0.5-0.5,0.7-0.7s0.6-0.3,0.9-0.3C123,90.9,123.4,90.9,123.8,91.1z"/>
	<path d="M114.7,87.7c0.2-0.1,0.4-0.2,0.6-0.1c0.2,0.1,0.3,0.2,0.4,0.4c0.1,0.2,0.1,0.4,0.2,0.6c0,0.2,0,0.5-0.1,0.7l-0.8,2.2
		c-0.1,0.2-0.1,0.4,0,0.5c0.1,0.2,0.1,0.3,0.3,0.3c0.1,0,0.2,0,0.3-0.2c0.1-0.2,0.1-0.4,0-0.6c-0.1-0.2-0.1-0.4-0.1-0.6
		c0-0.2,0.1-0.3,0.4-0.4c0.1-0.1,0.3-0.2,0.4-0.3c0.1-0.1,0.2-0.2,0.1-0.2c0-0.1,0-0.1,0-0.1c0,0,0-0.1,0-0.1
		c-0.1-0.2-0.1-0.4,0-0.6c0.1-0.2,0.2-0.3,0.4-0.3c0.2-0.1,0.3-0.1,0.5,0c0.2,0,0.3,0.1,0.4,0.3c0.1,0.1,0.1,0.3,0.1,0.5
		c0,0.2,0,0.4-0.1,0.7c-0.1,0.3-0.2,0.5-0.4,0.6c-0.2,0.2-0.3,0.3-0.5,0.4l0.1,0.3c0,0.2,0,0.3,0.1,0.5c0,0.2,0,0.4-0.1,0.6
		c0,0.1-0.1,0.3-0.2,0.4c-0.1,0.1-0.2,0.3-0.4,0.4c-0.2,0.1-0.3,0.2-0.6,0.2c-0.2,0-0.5,0-0.7-0.1c-0.4-0.2-0.7-0.5-0.9-1
		s-0.2-1,0.1-1.7l0.7-1.9c0.1-0.2,0.1-0.3,0-0.4c0-0.1-0.1-0.3-0.1-0.4c0-0.1,0-0.2,0-0.4C114.4,87.9,114.5,87.8,114.7,87.7z"/>
	<path d="M124.5,83.6c0.6,0.2,1.1,0.4,1.5,0.7c0.4,0.3,0.8,0.7,1,1c0.2,0.4,0.4,0.8,0.5,1.2c0.1,0.4,0,0.8-0.1,1.2l-0.2,0.7
		c-0.1,0.4-0.4,0.6-0.8,0.6l-2.6-0.3l0,0.2c-0.1,0.2-0.2,0.4-0.4,0.5c-0.2,0.1-0.4,0.1-0.5,0c-0.2,0-0.3-0.2-0.4-0.3
		c-0.1-0.2-0.1-0.4-0.1-0.6l0.2-0.7c0.1-0.4,0.4-0.6,0.8-0.6l2.6,0.3l0-0.1c0.1-0.2,0.1-0.4,0-0.7c-0.1-0.2-0.2-0.4-0.4-0.6
		c-0.2-0.2-0.4-0.4-0.7-0.5c-0.3-0.2-0.6-0.3-0.9-0.4c-0.3-0.1-0.6-0.1-0.9-0.2c-0.3,0-0.6,0-0.8,0.1c-0.3,0.1-0.5,0.2-0.7,0.4
		c-0.2,0.2-0.3,0.4-0.4,0.7c-0.1,0.4-0.2,0.7-0.1,1.1c0.1,0.3,0.2,0.6,0.4,0.7c0.2,0.1,0.3,0.3,0.3,0.5c0,0.2,0,0.4-0.1,0.6
		c-0.1,0.2-0.2,0.3-0.4,0.3c-0.2,0.1-0.4,0-0.6-0.1c-0.2-0.1-0.4-0.3-0.5-0.6c-0.2-0.2-0.3-0.5-0.4-0.8c-0.1-0.3-0.1-0.6-0.1-1
		c0-0.4,0.1-0.7,0.2-1.1c0.1-0.4,0.3-0.8,0.6-1.2s0.6-0.6,1-0.8c0.4-0.2,0.8-0.3,1.3-0.3C123.2,83.4,123.8,83.4,124.5,83.6z"/>
</g>
</svg>
