<?xml version="1.0" encoding="utf-8"?>
<!-- Generator: Adobe Illustrator 22.1.0, SVG Export Plug-In . SVG Version: 6.00 Build 0)  -->
<svg version="1.1" id="Layer_1" xmlns="http://www.w3.org/2000/svg" xmlns:xlink="http://www.w3.org/1999/xlink" x="0px" y="0px"
	 viewBox="0 0 723.9 822.8" style="enable-background:new 0 0 723.9 822.8;" xml:space="preserve">
<style type="text/css">
	.st0{fill:#DEDFE0;}
	.st1{fill:#656669;}
	.st2{fill:#8C8F91;}
	.st3{fill:#4A4D4E;}
	.st4{fill:none;stroke:#2D2D2D;stroke-width:5;stroke-linecap:round;stroke-miterlimit:10;}
	.st5{fill:#A6A6A6;}
	.st6{fill:none;stroke:#FFDF00;stroke-width:3;stroke-linejoin:round;}
	.st7{fill:#FFFFFF;}
	.st8{fill:#CACCCD;}
	.st9{fill:#EBEBEC;}
	.st10{fill:#B194D7;}
	.st11{fill:#C7B2E2;}
	.st12{fill:#CE7CA2;}
	.st13{fill:#F391BC;}
	.st14{fill:#AED7EB;}
	.st15{fill:#B9E4F9;}
	.st16{fill:#E9E6A0;}
	.st17{fill:#FCF6B2;}
	.st18{fill:#CE5C1D;}
	.st19{fill:#F36C21;}
	.st20{fill:#68A08A;}
	.st21{fill:#80C3A8;}
	.st22{fill:#6B357F;}
	.st23{fill:#82459B;}
	.st24{fill:#910E57;}
	.st25{fill:#B81E6F;}
</style>
<title>Asset 85</title>
<g id="Layer_2_1_">
	<g id="Layer_5">
		<rect x="-0.4" y="-1" class="st0" width="725" height="825"/>
		<rect x="34.6" y="33" class="st1" width="650" height="756"/>
		<rect x="34.6" y="600" class="st2" width="650" height="189"/>
		<polygon class="st3" points="34.6,600 121.3,540 609.6,540 684.6,600 		"/>
		<line class="st4" x1="382.6" y1="635" x2="492.6" y2="635"/>
		<line class="st4" x1="383.1" y1="662.5" x2="493.1" y2="662.5"/>
		<line class="st4" x1="382.6" y1="690" x2="492.6" y2="690"/>
		<line class="st4" x1="383.1" y1="717.5" x2="493.1" y2="717.5"/>
		<line class="st4" x1="554.6" y1="635" x2="664.6" y2="635"/>
		<line class="st4" x1="555.1" y1="662.5" x2="665.1" y2="662.5"/>
		<line class="st4" x1="554.6" y1="690" x2="664.6" y2="690"/>
		<line class="st4" x1="555.1" y1="717.5" x2="665.1" y2="717.5"/>
		<line class="st4" x1="525.5" y1="603" x2="525.5" y2="786"/>
		<line class="st4" x1="362.1" y1="603.5" x2="362.1" y2="786.5"/>
		<line class="st4" x1="53.6" y1="635" x2="163.6" y2="635"/>
		<line class="st4" x1="54.1" y1="662.5" x2="164.1" y2="662.5"/>
		<line class="st4" x1="53.6" y1="690" x2="163.6" y2="690"/>
		<line class="st4" x1="54.1" y1="717.5" x2="164.1" y2="717.5"/>
		<line class="st4" x1="225.6" y1="635" x2="335.6" y2="635"/>
		<line class="st4" x1="226.1" y1="662.5" x2="336.1" y2="662.5"/>
		<line class="st4" x1="225.6" y1="690" x2="335.6" y2="690"/>
		<line class="st4" x1="226.1" y1="717.5" x2="336.1" y2="717.5"/>
		<line class="st4" x1="196.5" y1="603" x2="196.5" y2="786"/>
	</g>
</g>
<rect x="82.3" y="124" class="st5" width="564.1" height="20.5"/>
<g id="Layer_2_2_">
	<g id="Layer_5_1_">
		<path class="st6" d="M71.9,235.5l31-39.7v-33.5c0,0-29.3,2.2-29.3-20.1s29.3-17.8,29.3-17.8"/>
		<path class="st6" d="M114.9,235.5l31-39.7v-33.5c0,0-29.3,2.2-29.3-20.1s29.3-17.8,29.3-17.8"/>
		<path class="st6" d="M152.9,235.5l31-39.7v-33.5c0,0-29.3,2.2-29.3-20.1s29.3-17.8,29.3-17.8"/>
		<path class="st6" d="M195.9,235.5l31-39.7v-33.5c0,0-29.3,2.2-29.3-20.1s29.3-17.8,29.3-17.8"/>
		<path class="st6" d="M226.9,235.5l31-39.7v-33.5c0,0-29.3,2.2-29.3-20.1s29.3-17.8,29.3-17.8"/>
		<path class="st6" d="M269.9,235.5l31-39.7v-33.5c0,0-29.3,2.2-29.3-20.1s29.3-17.8,29.3-17.8"/>
		<path class="st6" d="M307.9,235.5l31-39.7v-33.5c0,0-29.3,2.2-29.3-20.1s29.3-17.8,29.3-17.8"/>
		<path class="st6" d="M350.9,235.5l31-39.7v-33.5c0,0-29.3,2.2-29.3-20.1s29.3-17.8,29.3-17.8"/>
		<path class="st6" d="M374.9,235.5l31-39.7v-33.5c0,0-29.3,2.2-29.3-20.1s29.3-17.8,29.3-17.8"/>
		<path class="st6" d="M417.9,235.5l31-39.7v-33.5c0,0-29.3,2.2-29.3-20.1s29.3-17.8,29.3-17.8"/>
		<path class="st6" d="M455.9,235.5l31-39.7v-33.5c0,0-29.3,2.2-29.3-20.1s29.3-17.8,29.3-17.8"/>
		<path class="st6" d="M482.9,235.5l31-39.7v-33.5c0,0-29.3,2.2-29.3-20.1s29.3-17.8,29.3-17.8"/>
		<path class="st6" d="M514.9,235.5l31-39.7v-33.5c0,0-29.3,2.2-29.3-20.1s29.3-17.8,29.3-17.8"/>
		<path class="st6" d="M552.9,235.5l31-39.7v-33.5c0,0-29.3,2.2-29.3-20.1s29.3-17.8,29.3-17.8"/>
		<path class="st6" d="M579.9,235.5l31-39.7v-33.5c0,0-29.3,2.2-29.3-20.1s29.3-17.8,29.3-17.8"/>
		<path class="st6" d="M606.9,235.5l31-39.7v-33.5c0,0-29.3,2.2-29.3-20.1s29.3-17.8,29.3-17.8"/>
		<path class="st0" d="M59.9,307.7c0.3,55.1,4.4,110.1,12.4,164.6l53.3-0.1c-0.7-82.4-7.8-164.6-21.2-245.9
			c-0.9-5.3-2.6-11.5-7.7-13"/>
		<path class="st7" d="M53.7,260.8c-4.2,20.4-4.3,41.4-4.5,62.2c0,2.2,0.1,4.7,1.8,6.2c1.2,0.8,2.5,1.3,3.9,1.3
			c15.7,2,31.5,2.7,47.3,1.9c5.2-32.5,7.1-65.5,5.8-98.4c-0.3-7.8-1-16.1-5.3-22.6C80.5,178.5,56.5,246.9,53.7,260.8z"/>
		<path class="st8" d="M97.7,307.7c0.3,55.1,4.4,110.1,12.4,164.6l53.3-0.1c-0.7-82.4-7.8-164.6-21.2-245.9
			c-0.9-5.3-2.6-11.5-7.7-13"/>
		<path class="st9" d="M91.4,260.8c-4.2,20.4-4.3,41.4-4.5,62.2c0,2.2,0.1,4.7,1.8,6.2c1.2,0.8,2.5,1.3,3.9,1.3
			c15.7,2,31.5,2.7,47.2,1.9c5.2-32.5,7.1-65.5,5.8-98.4c-0.3-7.8-1-16.1-5.3-22.6C118.3,178.5,94.3,246.9,91.4,260.8z"/>
		<path class="st0" d="M141.6,307.7c0.3,55.1,4.4,110.1,12.4,164.6l53.3-0.1c-0.7-82.4-7.8-164.6-21.1-245.9
			c-0.9-5.3-2.6-11.5-7.7-13"/>
		<path class="st7" d="M135.4,260.8c-4.2,20.4-4.3,41.4-4.5,62.2c0,2.2,0.1,4.7,1.8,6.2c1.2,0.8,2.5,1.3,3.9,1.3
			c15.7,2,31.5,2.7,47.2,1.9c5.1-32.5,7.1-65.5,5.8-98.4c-0.3-7.8-0.9-16.1-5.3-22.6C162.1,178.5,138.2,246.9,135.4,260.8z"/>
		<path class="st8" d="M179.4,307.7c0.3,55.1,4.4,110.1,12.4,164.6l53.3-0.1c-0.7-82.4-7.8-164.6-21.2-245.9
			c-0.9-5.3-2.6-11.5-7.7-13"/>
		<path class="st9" d="M173.1,260.8c-4.2,20.4-4.3,41.4-4.5,62.2c0,2.2,0.1,4.7,1.8,6.2c1.2,0.8,2.5,1.2,3.9,1.3
			c15.7,2,31.5,2.7,47.2,1.9c5.1-32.5,7.1-65.5,5.8-98.4c-0.3-7.8-1-16.1-5.3-22.6C200,178.5,176,246.9,173.1,260.8z"/>
		<path class="st0" d="M211.9,307.7c0.3,55.1,4.4,110.1,12.4,164.6l53.3-0.1c-0.7-82.4-7.8-164.6-21.2-245.9
			c-0.9-5.3-2.6-11.5-7.7-13"/>
		<path class="st7" d="M205.7,260.8c-4.2,20.4-4.3,41.4-4.5,62.2c0,2.2,0.1,4.7,1.8,6.2c1.2,0.8,2.5,1.2,3.9,1.3
			c15.7,2,31.5,2.7,47.2,1.9c5.2-32.5,7.1-65.5,5.8-98.4c-0.3-7.8-1-16.1-5.3-22.6C232.5,178.5,208.5,246.9,205.7,260.8z"/>
		<path class="st8" d="M249.7,307.7c0.3,55.1,4.4,110.1,12.4,164.6l53.3-0.1c-0.7-82.4-7.8-164.6-21.2-245.9
			c-0.9-5.3-2.6-11.5-7.7-13"/>
		<path class="st9" d="M243.4,260.8c-4.2,20.4-4.3,41.4-4.5,62.2c0,2.2,0.1,4.7,1.8,6.2c1.2,0.8,2.5,1.2,3.9,1.3
			c15.7,2,31.5,2.7,47.2,1.9c5.2-32.5,7.1-65.5,5.8-98.4c-0.3-7.8-1-16.1-5.3-22.6C270.3,178.5,246.3,246.9,243.4,260.8z"/>
		<path class="st0" d="M293.6,307.7c0.3,55.1,4.4,110.1,12.4,164.6l53.3-0.1c-0.7-82.4-7.8-164.6-21.1-245.9
			c-0.9-5.3-2.6-11.5-7.7-13"/>
		<path class="st7" d="M287.4,260.8c-4.2,20.4-4.3,41.4-4.5,62.2c0,2.2,0.1,4.7,1.8,6.2c1.2,0.8,2.5,1.2,3.9,1.3
			c15.7,2,31.5,2.7,47.2,1.9c5.1-32.5,7.1-65.5,5.8-98.4c-0.3-7.8-1-16.1-5.3-22.6C314.1,178.5,290.2,246.9,287.4,260.8z"/>
		<path class="st8" d="M331.4,307.7c0.3,55.1,4.4,110.1,12.4,164.6l53.3-0.1c-0.7-82.4-7.8-164.6-21.2-245.9
			c-0.9-5.3-2.6-11.5-7.7-13"/>
		<path class="st9" d="M325.1,260.8c-4.2,20.4-4.3,41.4-4.5,62.2c0,2.2,0.1,4.7,1.8,6.2c1.2,0.8,2.5,1.2,3.9,1.3
			c15.7,2,31.5,2.7,47.2,1.9c5.1-32.5,7.1-65.5,5.8-98.4c-0.3-7.8-1-16.1-5.3-22.6C352,178.5,328,246.9,325.1,260.8z"/>
		<path class="st10" d="M359.9,307.7c0.3,55.1,4.4,110.1,12.4,164.6l53.3-0.1c-0.7-82.4-7.8-164.6-21.2-245.9
			c-0.9-5.3-2.6-11.5-7.7-13"/>
		<path class="st11" d="M353.6,260.8c-4.2,20.4-4.3,41.4-4.5,62.2c0,2.2,0.1,4.7,1.8,6.2c1.2,0.8,2.5,1.2,3.9,1.3
			c15.7,2,31.5,2.7,47.2,1.9c5.2-32.5,7.1-65.5,5.8-98.4c-0.3-7.8-1-16.1-5.3-22.6C380.5,178.5,356.5,246.9,353.6,260.8z"/>
		<path class="st12" d="M397.7,307.7c0.3,55.1,4.4,110.1,12.4,164.6l53.3-0.1c-0.7-82.4-7.8-164.6-21.2-245.9
			c-0.9-5.3-2.6-11.5-7.7-13"/>
		<path class="st13" d="M391.4,260.8c-4.2,20.4-4.3,41.4-4.5,62.2c0,2.2,0.1,4.7,1.8,6.2c1.2,0.8,2.5,1.2,3.9,1.3
			c15.7,2,31.5,2.7,47.2,1.9c5.2-32.5,7.1-65.5,5.8-98.4c-0.3-7.8-1-16.1-5.3-22.6C418.2,178.5,394.2,246.9,391.4,260.8z"/>
		<path class="st14" d="M432.4,307.7c0.3,55.1,4.4,110.1,12.4,164.6l53.3-0.1c-0.7-82.4-7.8-164.6-21.2-245.9
			c-0.9-5.3-2.6-11.5-7.7-13"/>
		<path class="st15" d="M426.1,260.8c-4.2,20.4-4.3,41.4-4.5,62.2c0,2.2,0.1,4.7,1.8,6.2c1.2,0.8,2.5,1.2,3.9,1.3
			c15.7,2,31.5,2.7,47.2,1.9c5.1-32.5,7.1-65.5,5.8-98.4c-0.3-7.8-1-16.1-5.3-22.6C453,178.5,429,246.9,426.1,260.8z"/>
		<path class="st16" d="M463.1,307.7c0.3,55.1,4.4,110.1,12.4,164.6l53.3-0.1c-0.7-82.4-7.8-164.6-21.2-245.9
			c-0.9-5.3-2.6-11.5-7.7-13"/>
		<path class="st17" d="M456.8,260.8c-4.2,20.4-4.3,41.4-4.5,62.2c0,2.2,0.1,4.7,1.8,6.2c1.2,0.8,2.5,1.2,3.9,1.3
			c15.7,2,31.5,2.7,47.2,1.9c5.1-32.5,7.1-65.5,5.8-98.4c-0.3-7.8-1-16.1-5.3-22.6C483.6,178.5,459.6,246.9,456.8,260.8z"/>
		<path class="st18" d="M506.8,307.7c0.2,55.1,4.4,110.1,12.3,164.6l53.3-0.1c-0.7-82.4-7.8-164.6-21.2-245.9
			c-0.9-5.3-2.6-11.5-7.7-13"/>
		<path class="st19" d="M500.5,260.8c-4.1,20.4-4.3,41.4-4.5,62.2c0,2.2,0.1,4.7,1.8,6.2c1.2,0.8,2.5,1.3,3.9,1.3
			c15.7,2,31.5,2.7,47.2,1.9c5.1-32.5,7.1-65.5,5.8-98.4c-0.3-7.8-1-16.1-5.3-22.6C527.3,178.5,503.4,246.9,500.5,260.8z"/>
		<path class="st20" d="M535.4,307.7c0.3,55.1,4.4,110.1,12.4,164.6l53.3-0.1c-0.7-82.4-7.8-164.6-21.2-245.9
			c-0.9-5.3-2.6-11.5-7.7-13"/>
		<path class="st21" d="M529.1,260.8c-4.2,20.4-4.3,41.4-4.5,62.2c0,2.2,0.1,4.7,1.8,6.2c1.2,0.8,2.5,1.2,3.9,1.3
			c15.7,2,31.5,2.7,47.2,1.9c5.2-32.5,7.1-65.5,5.8-98.4c-0.3-7.8-1-16.1-5.3-22.6C556,178.5,532,246.9,529.1,260.8z"/>
		<path class="st22" d="M565,307.7c0.3,55.1,4.4,110.1,12.4,164.6l53.3-0.1c-0.7-82.4-7.8-164.6-21.2-245.9
			c-0.9-5.3-2.6-11.5-7.7-13"/>
		<path class="st23" d="M558.8,260.8c-4.2,20.4-4.3,41.4-4.5,62.2c0,2.2,0.1,4.7,1.8,6.2c1.2,0.8,2.5,1.2,3.9,1.3
			c15.7,2,31.5,2.7,47.2,1.9c5.2-32.5,7.1-65.5,5.8-98.4c-0.3-7.8-1-16.1-5.3-22.6C585.6,178.5,561.6,246.9,558.8,260.8z"/>
		<path class="st24" d="M597.7,307.7c0.3,55.1,4.4,110.1,12.3,164.6l53.3-0.1c-0.7-82.4-7.8-164.6-21.2-245.9
			c-0.9-5.3-2.6-11.5-7.7-13"/>
		<path class="st25" d="M591.4,260.8c-4.2,20.4-4.3,41.4-4.5,62.2c0,2.2,0.1,4.7,1.8,6.2c1.2,0.8,2.5,1.3,3.9,1.3
			c15.7,2,31.5,2.7,47.2,1.9c5.1-32.5,7.1-65.5,5.8-98.4c-0.3-7.8-1-16.1-5.3-22.6C618.2,178.5,594.3,246.9,591.4,260.8z"/>
	</g>
</g>
</svg>
