<?xml version="1.0" encoding="utf-8"?>
<!-- Generator: Adobe Illustrator 22.1.0, SVG Export Plug-In . SVG Version: 6.00 Build 0)  -->
<svg version="1.1" id="Layer_1" xmlns="http://www.w3.org/2000/svg" xmlns:xlink="http://www.w3.org/1999/xlink" x="0px" y="0px"
	 viewBox="0 0 723.9 822.8" style="enable-background:new 0 0 723.9 822.8;" xml:space="preserve">
<style type="text/css">
	.st0{fill:#DEDFE0;}
	.st1{fill:#656669;}
	.st2{fill:#8C8F91;}
	.st3{fill:#4A4D4E;}
	.st4{fill:none;stroke:#2D2D2D;stroke-width:5;stroke-linecap:round;stroke-miterlimit:10;}
	.st5{fill:#A6A6A6;}
	.st6{fill:none;stroke:#FFDF00;stroke-width:3;stroke-linejoin:round;}
	.st7{fill:#FFFFFF;}
	.st8{fill:#CACCCD;}
	.st9{fill:#EBEBEC;}
	.st10{fill:#D2A122;}
	.st11{fill:#ECB42A;}
	.st12{fill:#BF1622;}
	.st13{fill:#EC1B2A;}
	.st14{fill:#2D3F78;}
	.st15{fill:#384E8F;}
	.st16{fill:#007438;}
	.st17{fill:#008841;}
	.st18{fill:#B194D7;}
	.st19{fill:#C7B2E2;}
	.st20{fill:#CE7CA2;}
	.st21{fill:#F391BC;}
	.st22{fill:#AED7EB;}
	.st23{fill:#B9E4F9;}
	.st24{fill:#E9E6A0;}
	.st25{fill:#FCF6B2;}
	.st26{fill:#CE5C1D;}
	.st27{fill:#F36C21;}
	.st28{fill:#68A08A;}
	.st29{fill:#80C3A8;}
	.st30{fill:#6B357F;}
	.st31{fill:#82459B;}
	.st32{fill:#910E57;}
	.st33{fill:#B81E6F;}
</style>
<title>Asset 85</title>
<g id="Layer_2_1_">
	<g id="Layer_5">
		<rect x="-0.4" y="-1" class="st0" width="725" height="825"/>
		<rect x="34.6" y="33" class="st1" width="650" height="756"/>
		<rect x="34.6" y="600" class="st2" width="650" height="189"/>
		<polygon class="st3" points="34.6,600 121.3,540 609.6,540 684.6,600 		"/>
		<line class="st4" x1="382.6" y1="635" x2="492.6" y2="635"/>
		<line class="st4" x1="383.1" y1="662.5" x2="493.1" y2="662.5"/>
		<line class="st4" x1="382.6" y1="690" x2="492.6" y2="690"/>
		<line class="st4" x1="383.1" y1="717.5" x2="493.1" y2="717.5"/>
		<line class="st4" x1="554.6" y1="635" x2="664.6" y2="635"/>
		<line class="st4" x1="555.1" y1="662.5" x2="665.1" y2="662.5"/>
		<line class="st4" x1="554.6" y1="690" x2="664.6" y2="690"/>
		<line class="st4" x1="555.1" y1="717.5" x2="665.1" y2="717.5"/>
		<line class="st4" x1="525.5" y1="603" x2="525.5" y2="786"/>
		<line class="st4" x1="362.1" y1="603.5" x2="362.1" y2="786.5"/>
		<line class="st4" x1="53.6" y1="635" x2="163.6" y2="635"/>
		<line class="st4" x1="54.1" y1="662.5" x2="164.1" y2="662.5"/>
		<line class="st4" x1="53.6" y1="690" x2="163.6" y2="690"/>
		<line class="st4" x1="54.1" y1="717.5" x2="164.1" y2="717.5"/>
		<line class="st4" x1="225.6" y1="635" x2="335.6" y2="635"/>
		<line class="st4" x1="226.1" y1="662.5" x2="336.1" y2="662.5"/>
		<line class="st4" x1="225.6" y1="690" x2="335.6" y2="690"/>
		<line class="st4" x1="226.1" y1="717.5" x2="336.1" y2="717.5"/>
		<line class="st4" x1="196.5" y1="603" x2="196.5" y2="786"/>
	</g>
</g>
<rect x="82.3" y="124" class="st5" width="564.1" height="20.5"/>
<g id="Layer_2_3_">
	<g id="Layer_5_2_">
		<path class="st6" d="M86.6,233l31-39.7v-33.5c0,0-29.3,2.2-29.3-20.1s29.3-17.8,29.3-17.8"/>
		<path class="st6" d="M134.6,233l31-39.7v-33.5c0,0-29.3,2.2-29.3-20.1s29.3-17.8,29.3-17.8"/>
		<path class="st6" d="M178.6,233l31-39.7v-33.5c0,0-29.3,2.2-29.3-20.1s29.3-17.8,29.3-17.8"/>
		<path class="st6" d="M211.6,233l31-39.7v-33.5c0,0-29.3,2.2-29.3-20.1s29.3-17.8,29.3-17.8"/>
		<path class="st6" d="M249.6,233l31-39.7v-33.5c0,0-29.3,2.2-29.3-20.1s29.3-17.8,29.3-17.8"/>
		<path class="st6" d="M276.6,233l31-39.7v-33.5c0,0-29.3,2.2-29.3-20.1s29.3-17.8,29.3-17.8"/>
		<path class="st6" d="M317.6,233l31-39.7v-33.5c0,0-29.3,2.2-29.3-20.1s29.3-17.8,29.3-17.8"/>
		<path class="st6" d="M350.6,233l31-39.7v-33.5c0,0-29.3,2.2-29.3-20.1s29.3-17.8,29.3-17.8"/>
		<path class="st6" d="M385.6,233l31-39.7v-33.5c0,0-29.3,2.2-29.3-20.1s29.3-17.8,29.3-17.8"/>
		<path class="st6" d="M426.6,233l31-39.7v-33.5c0,0-29.3,2.2-29.3-20.1s29.3-17.8,29.3-17.8"/>
		<path class="st6" d="M450.6,233l31-39.7v-33.5c0,0-29.3,2.2-29.3-20.1s29.3-17.8,29.3-17.8"/>
		<path class="st6" d="M485.6,233l31-39.7v-33.5c0,0-29.3,2.2-29.3-20.1s29.3-17.8,29.3-17.8"/>
		<path class="st6" d="M522.6,233.5l31-39.7v-33.5c0,0-29.3,2.2-29.3-20.1c0-22.3,29.3-17.8,29.3-17.8"/>
		<path class="st6" d="M547.6,233.5l31-39.7v-33.5c0,0-29.3,2.2-29.3-20.1c0-22.3,29.3-17.8,29.3-17.8"/>
		<path class="st6" d="M577.6,233.5l31-39.7v-33.5c0,0-29.3,2.2-29.3-20.1c0-22.3,29.3-17.8,29.3-17.8"/>
		<path class="st6" d="M610.6,233.5l31-39.7v-33.5c0,0-29.3,2.2-29.3-20.1c0-22.3,29.3-17.8,29.3-17.8"/>
		<path class="st0" d="M79.6,306.8C79.9,361.8,84,416.9,92,471.4l53.3-0.1c-0.7-82.4-7.8-164.6-21.2-245.9c-0.9-5.3-2.6-11.5-7.7-13
			"/>
		<path class="st7" d="M73.3,259.8c-4.2,20.4-4.3,41.4-4.5,62.2c0,2.2,0.1,4.7,1.8,6.2c1.2,0.8,2.5,1.2,3.9,1.3
			c15.7,2,31.5,2.7,47.3,1.9c5.1-32.5,7.1-65.5,5.7-98.4c-0.3-7.9-1-16.1-5.3-22.7C100.2,177.5,76.2,245.9,73.3,259.8z"/>
		<path class="st8" d="M117.4,306.8c0.3,55.1,4.4,110.1,12.4,164.6l53.3-0.1c-0.7-82.4-7.8-164.6-21.2-245.9
			c-0.9-5.3-2.6-11.5-7.7-13"/>
		<path class="st9" d="M111.1,259.8c-4.2,20.4-4.3,41.4-4.5,62.2c0,2.2,0.1,4.7,1.8,6.2c1.2,0.8,2.5,1.2,3.9,1.3
			c15.7,2,31.5,2.7,47.2,1.9c5.2-32.5,7.1-65.5,5.8-98.4c-0.3-7.9-1-16.1-5.3-22.7C137.9,177.5,114,245.9,111.1,259.8z"/>
		<path class="st0" d="M161.3,306.8c0.3,55.1,4.4,110.1,12.4,164.6l53.3-0.1c-0.7-82.4-7.8-164.6-21.1-245.9
			c-0.9-5.3-2.6-11.5-7.7-13"/>
		<path class="st7" d="M155,259.8c-4.2,20.4-4.3,41.4-4.5,62.2c0,2.2,0.1,4.7,1.8,6.2c1.2,0.8,2.5,1.2,3.9,1.3
			c15.7,2,31.5,2.7,47.2,1.9c5.1-32.5,7.1-65.5,5.8-98.4c-0.3-7.9-1-16.1-5.3-22.7C181.8,177.5,157.9,245.9,155,259.8z"/>
		<path class="st8" d="M199.1,306.8c0.3,55.1,4.4,110.1,12.4,164.6l53.3-0.1c-0.7-82.4-7.8-164.6-21.2-245.9
			c-0.9-5.3-2.6-11.5-7.7-13"/>
		<path class="st9" d="M192.8,259.8c-4.2,20.4-4.3,41.4-4.5,62.2c0,2.2,0.1,4.7,1.8,6.2c1.2,0.8,2.5,1.2,3.9,1.3
			c15.7,2,31.5,2.7,47.2,1.9c5.1-32.5,7.1-65.5,5.8-98.4c-0.3-7.9-1-16.1-5.3-22.7C219.6,177.5,195.7,245.9,192.8,259.8z"/>
		<path class="st10" d="M228.7,306.8c0.3,55.1,4.4,110.1,12.4,164.6l53.3-0.1c-0.7-82.4-7.8-164.6-21.2-245.9
			c-0.9-5.3-2.6-11.5-7.7-13"/>
		<path class="st11" d="M222.5,259.8c-4.2,20.4-4.3,41.4-4.5,62.2c0,2.2,0.1,4.7,1.8,6.2c1.2,0.8,2.5,1.2,3.9,1.3
			c15.7,2,31.5,2.7,47.2,1.9c5.1-32.5,7.1-65.5,5.8-98.4c-0.3-7.9-1-16.1-5.3-22.7C249.3,177.5,225.3,245.9,222.5,259.8z"/>
		<path class="st12" d="M262.4,306.8c0.3,55.1,4.4,110.1,12.4,164.6l53.3-0.1c-0.7-82.4-7.8-164.6-21.2-245.9
			c-0.9-5.3-2.6-11.5-7.7-13"/>
		<path class="st13" d="M256.2,259.8c-4.1,20.4-4.3,41.4-4.5,62.2c0,2.2,0.1,4.7,1.8,6.2c1.2,0.8,2.5,1.2,3.9,1.3
			c15.7,2,31.5,2.7,47.2,1.9c5.1-32.5,7.1-65.5,5.8-98.4c-0.3-7.9-1-16.1-5.3-22.7C283,177.5,259,245.9,256.2,259.8z"/>
		<path class="st14" d="M300.2,306.8c0.3,55.1,4.4,110.1,12.4,164.6l53.3-0.1c-0.7-82.4-7.8-164.6-21.2-245.9
			c-0.9-5.3-2.6-11.5-7.7-13"/>
		<path class="st15" d="M293.9,259.8c-4.1,20.4-4.3,41.4-4.5,62.2c0,2.2,0.1,4.7,1.8,6.2c1.2,0.8,2.5,1.2,3.9,1.3
			c15.7,2,31.5,2.7,47.2,1.9c5.1-32.5,7.1-65.5,5.8-98.4c-0.3-7.9-1-16.1-5.3-22.7C320.8,177.5,296.8,245.9,293.9,259.8z"/>
		<path class="st16" d="M327.8,306.8c0.3,55.1,4.4,110.1,12.4,164.6l53.3-0.1c-0.7-82.4-7.8-164.6-21.2-245.9
			c-0.9-5.3-2.6-11.5-7.7-13"/>
		<path class="st17" d="M321.5,259.8c-4.2,20.4-4.3,41.4-4.5,62.2c0,2.2,0.1,4.7,1.8,6.2c1.2,0.8,2.5,1.2,3.9,1.3
			c15.7,2,31.5,2.7,47.2,1.9c5.2-32.5,7.1-65.5,5.7-98.4c-0.3-7.9-1-16.1-5.3-22.7C348.3,177.5,324.4,245.9,321.5,259.8z"/>
		<path class="st18" d="M365.6,306.8c0.3,55.1,4.4,110.1,12.4,164.6l53.3-0.1c-0.7-82.4-7.8-164.6-21.2-245.9
			c-0.9-5.3-2.6-11.5-7.7-13"/>
		<path class="st19" d="M359.3,259.8c-4.2,20.4-4.3,41.4-4.5,62.2c0,2.2,0.1,4.7,1.8,6.2c1.2,0.8,2.5,1.2,3.9,1.3
			c15.7,2,31.5,2.7,47.2,1.9c5.2-32.5,7.1-65.5,5.8-98.4c-0.3-7.9-1-16.1-5.3-22.7C386.1,177.5,362.1,245.9,359.3,259.8z"/>
		<path class="st20" d="M403.4,306.8c0.3,55.1,4.4,110.1,12.4,164.6l53.3-0.1c-0.7-82.4-7.8-164.6-21.2-245.9
			c-0.9-5.3-2.6-11.5-7.7-13"/>
		<path class="st21" d="M397.1,259.8c-4.2,20.4-4.3,41.4-4.5,62.2c0,2.2,0.1,4.7,1.8,6.2c1.2,0.8,2.5,1.2,3.9,1.3
			c15.7,2,31.5,2.7,47.2,1.9c5.2-32.5,7.1-65.5,5.8-98.4c-0.3-7.9-1-16.1-5.3-22.7C423.9,177.5,399.9,245.9,397.1,259.8z"/>
		<path class="st22" d="M438.1,306.8c0.3,55.1,4.4,110.1,12.4,164.6l53.3-0.1c-0.7-82.4-7.8-164.6-21.2-245.9
			c-0.9-5.3-2.6-11.5-7.7-13"/>
		<path class="st23" d="M431.8,259.8c-4.2,20.4-4.3,41.4-4.5,62.2c0,2.2,0.1,4.7,1.8,6.2c1.2,0.8,2.5,1.2,3.9,1.3
			c15.7,2,31.5,2.7,47.2,1.9c5.1-32.5,7.1-65.5,5.8-98.4c-0.3-7.9-1-16.1-5.3-22.7C458.6,177.5,434.7,245.9,431.8,259.8z"/>
		<path class="st24" d="M468.8,306.8c0.3,55.1,4.4,110.1,12.4,164.6l53.3-0.1c-0.7-82.4-7.8-164.6-21.2-245.9
			c-0.9-5.3-2.6-11.5-7.7-13"/>
		<path class="st25" d="M462.5,259.8c-4.2,20.4-4.3,41.4-4.5,62.2c0,2.2,0.1,4.7,1.8,6.2c1.2,0.8,2.5,1.2,3.9,1.3
			c15.7,2,31.5,2.7,47.2,1.9c5.1-32.5,7.1-65.5,5.8-98.4c-0.3-7.9-1-16.1-5.3-22.7C489.3,177.5,465.3,245.9,462.5,259.8z"/>
		<path class="st26" d="M504.5,306.8c0.2,55.1,4.4,110.1,12.3,164.6l53.3-0.1c-0.7-82.4-7.8-164.6-21.2-245.9
			c-0.9-5.3-2.6-11.5-7.7-13"/>
		<path class="st27" d="M498.2,259.8c-4.1,20.4-4.3,41.4-4.5,62.2c0,2.2,0.1,4.7,1.8,6.2c1.2,0.8,2.5,1.3,3.9,1.3
			c15.7,2,31.5,2.7,47.2,1.9c5.1-32.5,7.1-65.5,5.8-98.4c-0.3-7.9-1-16.1-5.3-22.7C525,177.5,501.1,245.9,498.2,259.8z"/>
		<path class="st28" d="M533.1,306.8c0.3,55.1,4.4,110.1,12.4,164.6l53.3-0.1c-0.7-82.4-7.8-164.6-21.2-245.9
			c-0.9-5.3-2.6-11.5-7.7-13"/>
		<path class="st29" d="M526.8,259.8c-4.2,20.4-4.3,41.4-4.5,62.2c0,2.2,0.1,4.7,1.8,6.2c1.2,0.8,2.5,1.2,3.9,1.3
			c15.7,2,31.5,2.7,47.2,1.9c5.1-32.5,7.1-65.5,5.8-98.4c-0.3-7.9-1-16.1-5.3-22.7C553.6,177.5,529.7,245.9,526.8,259.8z"/>
		<path class="st30" d="M562.7,306.8c0.3,55.1,4.4,110.1,12.4,164.6l53.3-0.1c-0.7-82.4-7.8-164.6-21.2-245.9
			c-0.9-5.3-2.6-11.5-7.7-13"/>
		<path class="st31" d="M556.4,259.8c-4.2,20.4-4.3,41.4-4.5,62.2c0,2.2,0.1,4.7,1.8,6.2c1.2,0.8,2.5,1.2,3.9,1.3
			c15.7,2,31.5,2.7,47.2,1.9c5.1-32.5,7.1-65.5,5.8-98.4c-0.3-7.9-1-16.1-5.3-22.7C583.3,177.5,559.3,245.9,556.4,259.8z"/>
		<path class="st32" d="M595.4,306.8c0.3,55.1,4.4,110.1,12.3,164.6l53.3-0.1c-0.7-82.4-7.8-164.6-21.2-245.9
			c-0.9-5.3-2.6-11.5-7.7-13"/>
		<path class="st33" d="M589.1,259.8c-4.2,20.4-4.3,41.4-4.5,62.2c0,2.2,0.1,4.7,1.8,6.2c1.2,0.8,2.5,1.3,3.9,1.3
			c15.7,2,31.5,2.7,47.2,1.9c5.1-32.5,7.1-65.5,5.8-98.4c-0.3-7.9-1-16.1-5.3-22.7C615.9,177.5,592,245.9,589.1,259.8z"/>
	</g>
</g>
</svg>
