<svg id="Layer_1" data-name="Layer 1" xmlns="http://www.w3.org/2000/svg" viewBox="0 0 132.26 116.18"><defs><style>.cls-1{fill:#fff;opacity:0.62;isolation:isolate;}</style></defs><title>cr</title><path class="cls-1" d="M64.71,24.05A39.39,39.39,0,0,0,44,25.35a34.1,34.1,0,0,0-23.1,30.7c-.7,12.6,7.2,25.2,19.3,31a36.29,36.29,0,0,0,29.9,1.1c.5-.2.9-.3,1.4-.5s.4,0,.3.4a34,34,0,0,1-17.7,5.4,36.33,36.33,0,0,1-37.6-32.1C14.31,43,27.71,25.05,46,22a38.23,38.23,0,0,1,16.5.7c1,.3,1.9.7,2.9,1C65.41,24.35,65,24.05,64.71,24.05Z"/><path class="cls-1" d="M67.71,43c-.2-2.4.4-5.3-.3-8.3-.2-.8.4-1.1,1-1.3a1.7,1.7,0,0,1,1,0c1.1.1,2.2-.4,3.2.4,1.2.9.1,2,.1,2.9.1,4.6,0,9.2,0,13.8a6.43,6.43,0,0,1-5.7,6.1c-2.2.1-4.3.1-6.5,0-3.2-.2-5.4-2.8-5.5-6.4-.1-4.3,0-8.7-.1-13a5.31,5.31,0,0,0-.1-1.8c-.5-1.4.1-2,1.5-2,1.1,0,2.4-.4,3.4.2,1.4.8.2,2.1.3,3.2.1,4,0,8.1.1,12.1,0,2.6.8,3.4,3.4,3.5,4.3.1,4.3.1,4.3-4.1C67.71,46.65,67.71,45.05,67.71,43Z"/><path class="cls-1" d="M44.71,33.35a32.54,32.54,0,0,1,5.9.6c1.1.2,1.7.6,1.5,1.9a10.82,10.82,0,0,0,0,1.8c0,.5.3,1.2-.3,1.3a2,2,0,0,1-2.1-.2c-1.7-1.6-3.7-1.5-5.8-1.3-.9.1-1.6.4-1.7,1.4a2,2,0,0,0,1.2,2.3c1.8.8,3.5,1.6,5.3,2.4,4,1.9,5.4,4.7,4.3,9.1a4.28,4.28,0,0,1-3,3.1,18.36,18.36,0,0,1-11.8-.3c-1.1-.4-2.1-4.1-1.1-4.7a2.43,2.43,0,0,1,2.8.2c2,1.7,4.2,1.8,6.6,1.3.9-.2,1.6-.6,1.6-1.6s.5-2.4-1-3a65.71,65.71,0,0,0-6.1-2.6c-4.4-1.6-4.3-5.6-3.2-9,.5-1.6,2.3-2.1,3.8-2.3A13.12,13.12,0,0,1,44.71,33.35Z"/><path class="cls-1" d="M55.61,81.35c-7.2.4-10.2-3.9-10.4-9.9a20,20,0,0,1,.6-6.9,8.17,8.17,0,0,1,8.2-6.3c3-.1,6-.1,8.5,2,1.2,1.1,1.2,1.6-.5,3.5a2.15,2.15,0,0,1-2.9-.1c-1.7-1.8-3.7-1.5-5.7-1.1-1.8.4-2.5,1.9-2.9,3.5a18.44,18.44,0,0,0,0,7.4,3.82,3.82,0,0,0,3,3.4c1.9.4,3.9.6,5.5-1,1.1-1.2,2.4-1,3.3.4,1.4,2.1,1.3,2.3-.8,3.6A8.24,8.24,0,0,1,55.61,81.35Z"/><path class="cls-1" d="M40,58.25a9.65,9.65,0,0,1,1.7,0c.7.1,1.3.5,1.1,1.3-.7,5.6-.1,11.3-.3,16.9a8.35,8.35,0,0,0,.3,3.5c.3.8-.3,1.1-.8,1.3a3.4,3.4,0,0,1-1,.1c-1.1-.1-2.3.4-3.3-.3-1.3-.8-.2-2-.2-3-.1-5.5-.1-11.1-.1-16.6v-.7C37.31,58.25,37.31,58.25,40,58.25Z"/><path class="cls-1" d="M98,62.25c.5-.5-.4-1.9.6-1.9s.5,1.3.5,2,.5,1.8-.4,2-.9-1-1.4-1.5a1.38,1.38,0,0,1-.3-.4l-.2.2c-.2.6.4,1.6-.5,1.6s-.4-1.1-.4-1.6c0-.8-.5-2.1.3-2.4,1.2-.4,1.1,1.2,1.8,1.8C97.81,62.25,97.91,62.25,98,62.25Z"/><path class="cls-1" d="M74.11,67.75c.4-.2.1-.6.2-.9s-.5-1,.4-1c.7,0,.5.6.6,1v1.8c0,.4.3,1.1-.5,1.2s-.8-.4-1.1-.8-.4-.7-.7-1.3a1.34,1.34,0,0,0-.1.5c-.2.6.4,1.7-.5,1.6s-.5-1.2-.5-1.8c0-.8-.6-2,.4-2.3s.9,1.1,1.5,1.7C73.81,67.75,74,67.75,74.11,67.75Z"/><path class="cls-1" d="M103.11,75.55c-.3.1-.9.2-.9-.1a21.64,21.64,0,0,0,0-3.6c0-.5.7-.4,1,0s.8,1.1,1.3,1.7c.1-.1.2-.1.2-.2.3-.6-.5-1.8.5-1.7s.5,1.2.5,1.8c0,.8.6,2.1-.5,2.3s-1.1-1.2-1.5-1.9c-.3-.4-.4-.1-.4.2S103.41,75.05,103.11,75.55Z"/><path class="cls-1" d="M89.51,69a1.42,1.42,0,0,0,.6.2c.3.1.7.3.9-.1.3-.6-.4-.6-.7-.7a1.35,1.35,0,0,1-.9-1.7c.2-1,1.1-.8,1.8-.8.4,0,1,0,.9.7s-.6,0-.9.1a1.48,1.48,0,0,1-.7.1c.5,1.1,2.8,1.1,1.8,2.8-.6,1-1.8.5-2.8.3A.52.52,0,0,1,89.51,69Z"/><path class="cls-1" d="M84.41,68.05c-.2.1-.3.3-.4.3-.3.1-.9,0-.8.6s.5.4.9.4,1.1-.2.8.5-1.3.4-2,.4c-.5,0-.8-.2-.8-.8a8.55,8.55,0,0,0,0-1.6c0-2.1.7-2.4,2.7-1.5-.3.8-1.6-.1-1.7.8C83.11,67.75,84.11,67.35,84.41,68.05Z"/><path class="cls-1" d="M80,71.85c-.2.6-.6.5-.9.5s-.7-.1-.8.3.3.5.6.6c.6.2.8.5.1.7-.3.1-.8,0-.7.6s.6.4.9.4.7-.2.8.3-.4.5-.7.5c-1.7.4-2.1.1-2.1-1.7v-.5C77.21,71.25,77.41,71.15,80,71.85Z"/><path class="cls-1" d="M87.81,75.65c-.6.4-.8.1-1.1-.4s-.4-1.1-.9-1.5c-.7.4.6,1.9-.9,1.9a8.56,8.56,0,0,1,0-3.9c1.4-.1,1.2,1.5,2.1,1.9.7-.4-.7-1.8.9-1.9A17.11,17.11,0,0,1,87.81,75.65Z"/><path class="cls-1" d="M79.91,68.45c.2-.7.4-1.3.6-2a.65.65,0,0,1,.9-.5c.6.2.1.5.1.8a24.13,24.13,0,0,1-.8,2.5c-.2.5-.2,1-.9,1s-.7-.5-.8-.9a27.59,27.59,0,0,1-.8-2.7c-.1-.2-.4-.5,0-.7s.7-.1.8.3a18.66,18.66,0,0,1,.7,2.2Z"/><path class="cls-1" d="M68.51,61.35c.2.4.6.5,1,.7a1.41,1.41,0,0,1,1,1.4,1.09,1.09,0,0,1-.7,1,2.57,2.57,0,0,1-2.1-.1c-.2-.1-.2-.4-.2-.6.2-.4.4-.2.7-.1s1,.3,1.2-.2-.4-.7-.8-.8c-.7-.3-1.3-.7-1-1.6s1.1-.7,1.8-.7c.4,0,.9,0,.8.6s-.6.2-.9.2S68.71,61,68.51,61.35Z"/><path class="cls-1" d="M87.31,81.35a1.68,1.68,0,0,1-1.8-1.1,2.62,2.62,0,0,1,.5-2.8c.6-.6,1.4-.4,2.2-.2.3.1.5.3.4.6s-.4.3-.7.2c-.5-.2-1-.3-1.3.2a1.9,1.9,0,0,0-.1,1.8c.1.4.4.5.8.5s.4-.2.5-.5-.2-.7.3-.8a.85.85,0,0,1,.5.3.67.67,0,0,1,0,1C88.31,81.05,87.91,81.55,87.31,81.35Z"/><path class="cls-1" d="M92.31,77.55c-.2.6-.7.4-1.1.4-.2,0-.6.2-.5.3,1.2.7.3,1.3,0,2-.1.5.7.3,1.1.2s.7.2.5.5c-.5.7-1.3.3-2,.4-.5.1-.8-.1-.7-.8a9.63,9.63,0,0,0,0-1.7C89.71,77,90.21,76.65,92.31,77.55Z"/><path class="cls-1" d="M84.11,79.25c0,.6-1.3.1-1,.9s.8.4,1.2.3a.34.34,0,0,1,.4.5c-.4.7-1.2.3-1.8.4s-1,0-.9-.8a8.09,8.09,0,0,0,0-2.2c-.1-1,.3-1.4,1.3-1.3.5.1,1.2-.2,1.3.3.1.8-.7.4-1.1.5-.7.3-.5.6,0,.8C83.81,79,84.11,78.85,84.11,79.25Z"/><path class="cls-1" d="M84.11,60.35c1,0,.6,1,1,1.4.5-.6,1-1.1,1.5-1.7.1.1.3.2.4.3-.8,1.3-1.1,2.6.1,3.8-1.4.6-1.2-1.1-2-1.3-.8.1.5,1.9-1.1,1.3A12.12,12.12,0,0,1,84.11,60.35Z"/><path class="cls-1" d="M70.81,77.65c-.1.4-.3.7-.8.5-1.1-.4-1.6,0-1.6,1.1s.3,1.7,1.6,1.2c.5-.2.7.1.8.5a2.18,2.18,0,0,1-3-.2,2.26,2.26,0,0,1,0-2.9C68.61,76.75,69.71,77.05,70.81,77.65Z"/><path class="cls-1" d="M97.41,66c1.3-.4,1.9.4,2.3,1.3.7-.3.6-1.8,1.8-1.2-.4,1.2-1.5,2.1-1.3,3.5,0,.3-.1.6-.5.6s-.5-.3-.5-.7a4.41,4.41,0,0,0-1.5-3.2Q97.41,66.55,97.41,66Z"/><path class="cls-1" d="M75.11,71.55a3.75,3.75,0,0,1,1.1.1c.4.1.5.7.3.7-2,.2-.7,1.6-1,2.4-.1.4.2,1-.5,1s-.4-.7-.5-1c-.3-.8,1-2.2-.9-2.4-.2,0-.2-.6.2-.7A5.7,5.7,0,0,1,75.11,71.55Z"/><path class="cls-1" d="M71.41,74.65c-.3-.3-.5-.7-.8-1-.1.1-.1.2-.2.3-.2.6.5,1.8-.5,1.8s-.5-1.1-.5-1.7c0-.8-.5-2,.3-2.3,1.1-.4,1.1,1,1.7,1.6a1.07,1.07,0,0,0,.6.2C72.61,74.35,71.91,74.45,71.41,74.65Z"/><path class="cls-1" d="M73.21,62.35c.3-.6-.6-1.9.6-1.9.9,0,.3,1.3.4,2s0,1.5,1.1,1.3c.2-.1.4,0,.5.3s-.1.5-.4.6a1.45,1.45,0,0,1-2.2-1.4Z"/><path class="cls-1" d="M97.41,66c.1.1.3.2.4.3-1.3.6-1.1,1.8-1.1,2.9,0,.3.2.9-.4.9s-.5-.5-.6-.9c-.3-.8.9-2.2-.9-2.5-.3-.1-.1-.7.4-.7Z"/><path class="cls-1" d="M111.71,75.85q-1,.15-.9-1.2a17.65,17.65,0,0,0,0-2.3c0-.3,0-.7.5-.7s.5.4.6.8v1.8c0,.6.2.8.8.8.3,0,.8-.4.9.3s-.5.5-.8.6A4.1,4.1,0,0,0,111.71,75.85Z"/><path class="cls-1" d="M68.31,70.05a.53.53,0,0,1-.6-.6,7.8,7.8,0,0,1,0-3.4c.5-.1.7.1.7.6v2.6c.9.6,1.5.5,1.5-.7a4.92,4.92,0,0,1,.2-2.4c.2,0,.4-.1.5,0a4.51,4.51,0,0,1-.5,3.9A3.66,3.66,0,0,1,68.31,70.05Z"/><path class="cls-1" d="M93.81,71.55a4.87,4.87,0,0,1,1.2.1c.5.1.5.7.3.7-1.9.3-.7,1.7-1,2.5-.1.4.1,1-.6.9s-.3-.6-.4-.9c-.3-.8.9-2.2-1-2.5-.2,0-.1-.6.3-.7A5.74,5.74,0,0,1,93.81,71.55Z"/><path class="cls-1" d="M75.71,79.15c.3-.5-.5-1.8.5-1.8s.4,1.2.5,1.9-.2,1.7,1.2,1.3c.3-.1.4,0,.5.3s0,.5-.3.5a3,3,0,0,1-2.1,0c-.5-.2-.1-.9-.2-1.4A2,2,0,0,1,75.71,79.15Z"/><path class="cls-1" d="M78.91,79.35c.2-.6-.5-2,.4-2,1.1,0,.4,1.3.5,2s0,1.5,1.2,1.2c.2-.1.4-.1.5.2s-.1.5-.4.6a1.45,1.45,0,0,1-2.2-1.4Z"/><path class="cls-1" d="M77.31,68.05c-.4.7.6,2-.6,2-.9,0-.4-1.3-.4-2s-.6-2.1.5-2.1S76.91,67.35,77.31,68.05Z"/><path class="cls-1" d="M94.21,68.25c-.3.6.4,1.8-.5,1.8s-.5-1.2-.5-1.9-.6-2.1.5-2.1C94.61,66.05,93.91,67.45,94.21,68.25Z"/><path class="cls-1" d="M97.11,73.75c-.3.7.5,1.9-.5,2s-.5-1.2-.5-1.9-.5-2.1.4-2.1S96.71,73.05,97.11,73.75Z"/><path class="cls-1" d="M72.21,62.55c-.4.6.5,1.9-.5,1.9s-.5-1.3-.5-1.9-.5-2.1.4-2.1S71.91,61.75,72.21,62.55Z"/><path class="cls-1" d="M67.41,73.45c.4-.6-.5-1.8.6-1.8.9,0,.4,1.2.4,1.8-.1.8.7,2.1-.5,2.1C67,75.65,67.71,74.25,67.41,73.45Z"/><path class="cls-1" d="M71.41,74.65c-.2-.6,1-.4.6-1.1.1-.7-.6-1.8.4-1.8.8,0,.3,1.2.4,1.8a3.35,3.35,0,0,1,0,1c-.1.4.3,1.1-.4,1.2S71.61,75.15,71.41,74.65Z"/><path class="cls-1" d="M70.11,66.05a22.55,22.55,0,0,1,0,2.6c-.1,1.3-.7,1.4-1.6.6,1,.4,1.4.1,1.4-1C69.81,67.45,69.41,66.65,70.11,66.05Z"/><path class="cls-1" d="M87.81,75.65v-3.9A6.49,6.49,0,0,1,87.81,75.65Z"/><path class="cls-1" d="M84.81,71.65v3.9A5.26,5.26,0,0,1,84.81,71.65Z"/><path class="cls-1" d="M84.11,60.35c0,1.2,0,2.5-.1,3.7A7.76,7.76,0,0,1,84.11,60.35Z"/><path class="cls-1" d="M67.81,66.05v3.4A4,4,0,0,1,67.81,66.05Z"/><path class="cls-1" d="M103.11,75.55v-1.9c0-.2.1-.5.3-.4a2.19,2.19,0,0,1,.3.5C102.81,74.15,103.71,75.15,103.11,75.55Z"/><path class="cls-1" d="M73.51,86.45c.2,0,.3.2.2.3a.82.82,0,0,1-.6.4c-.2.1-.3-.1-.3-.3A1.61,1.61,0,0,1,73.51,86.45Z"/><path class="cls-1" d="M68.31,70.05h1.8A1.91,1.91,0,0,1,68.31,70.05Z"/><path class="cls-1" d="M107.51,75.05c.6-.7,1.1-.7,1.6.1A3,3,0,0,0,107.51,75.05Z"/><path class="cls-1" d="M71.81,88a1.38,1.38,0,0,1-.3-.4c.3-.3.7-.5.9-.2S72.11,88,71.81,88Z"/><path class="cls-1" d="M88.71,69.65c-.9-.4-.6-1-.2-1.6a1.28,1.28,0,0,0-.2-1.8c-.6-.6-1.5-.4-2.2-.3s-.3.9-.4,1.4a7.52,7.52,0,0,0,0,1.5c0,.4-.3,1.1.4,1.3.9.2.4-.8.9-1.1.5.5.7,1.3,1.6,1.2C89,70.15,88.91,69.85,88.71,69.65ZM87.21,68c-.5,0-.4-.4-.4-.7s.1-.5.5-.5a.51.51,0,0,1,.4.5A.67.67,0,0,1,87.21,68Z"/><path class="cls-1" d="M94.71,62.45a1.53,1.53,0,0,0-.3-1.8,2.58,2.58,0,0,0-2.1-.3c-.9.2-.4,1-.5,1.5a5.65,5.65,0,0,0,0,1.3c0,.5-.2,1.1.4,1.3.9.3.4-.8.8-1.1a.37.37,0,0,0,.3.1c.3.4.6,1.2,1.2.9.8-.4-.2-.8-.2-1.2C94.31,63,94.61,62.75,94.71,62.45Zm-1.5-.2c-.3-.1-.3-.4-.3-.6,0-.4.2-.6.6-.5a.55.55,0,0,1,.4.6C93.81,62.05,93.61,62.35,93.21,62.25Z"/><path class="cls-1" d="M89.31,60.25c-1.4,0-1.9.8-1.9,2.2a1.75,1.75,0,0,0,1.9,2.1c1.3,0,1.8-.8,1.8-2S90.81,60.35,89.31,60.25Zm-.1,3.4c-.8,0-.8-.7-.8-1.2s0-1.3.8-1.4.9.7.9,1.3S90,63.75,89.21,63.65Z"/><path class="cls-1" d="M99.61,71.55c-1.4,0-1.8.8-1.9,2s.4,2.2,1.9,2.2a1.65,1.65,0,0,0,1.8-2C101.51,72.45,101.11,71.55,99.61,71.55Zm0,3.4c-.7,0-.8-.6-.8-1.2s0-1.3.8-1.4.9.7.9,1.3S100.41,75,99.61,75Z"/><path class="cls-1" d="M83.51,73.75a1.37,1.37,0,0,0-.1-1.8,2.19,2.19,0,0,0-2.2-.3c-.8.2-.3,1-.4,1.5a2.85,2.85,0,0,0,0,1.3c.1.4-.3,1.1.4,1.2.9.2.3-.9.8-1.1.6.2.6,1.5,1.8,1C83.41,75,82.91,74.45,83.51,73.75Zm-1.4-.2c-.5,0-.3-.5-.4-.8s.1-.5.5-.5.5.3.5.6C82.71,73.35,82.51,73.65,82.11,73.55Z"/><path class="cls-1" d="M74.51,77.85c-.8-1.1-1.9-.8-3-.2-1.1,1.4-1.1,1.9,0,3.3,1,.6,2.2.9,3-.2A2.4,2.4,0,0,0,74.51,77.85Zm-.6,1.6c0,.6-.2,1.3-1,1.2s-.8-.8-.8-1.4.2-1.3,1.1-1.2S73.91,78.85,73.91,79.45Z"/><path class="cls-1" d="M83.11,63.85a24.37,24.37,0,0,0-1.1-3.2c-.3-.7-1-.7-1.3.1-.4,1-.7,2-1,3-.1.3-.2.5.1.7s.4,0,.6-.2c.6-.9,1.2-1,1.9-.1a1.07,1.07,0,0,0,.6.2C83.11,64.45,83.21,64.15,83.11,63.85Zm-1.8-.9c-.3,0-.4-.2-.3-.4s.1-.6.5-.5.3.3.3.5S81.71,63,81.31,63Z"/><path class="cls-1" d="M92.31,75.25c-.4-1.1-.7-2.2-1.1-3.2a.64.64,0,0,0-.7-.5.66.66,0,0,0-.7.6c-.3.9-.6,1.9-.9,2.8-.1.3-.2.6.1.7.1.1.5,0,.6-.1.7-.9,1.3-1,1.9,0a1.07,1.07,0,0,0,.6.2A.37.37,0,0,0,92.31,75.25Zm-1.6-1c-.1.1-.4,0-.5,0-.4-.5.1-1.7.4-1.8S91.21,73.75,90.71,74.25Z"/><path class="cls-1" d="M78.11,60.25c-2-.4-1.8.9-1.7,2v1.8c0,.4.6.6.6.4.2-1.2,1.3-1.2,2-1.9A1.39,1.39,0,0,0,78.11,60.25Zm.2,1.5c-.1.3-.3.6-.7.5s-.3-.4-.3-.6a.53.53,0,0,1,.6-.6A.51.51,0,0,1,78.31,61.75Z"/><path class="cls-1" d="M109.81,75.05a12.9,12.9,0,0,1-.8-2.8.77.77,0,0,0-.8-.7.75.75,0,0,0-.7.6c-.3.9-.6,1.8-.9,2.6-.1.3-.4.7,0,.9s.6-.3.8-.6a1,1,0,0,1,1.6.1c0,.3.1.6.4.6C110,75.75,109.91,75.25,109.81,75.05Zm-1.3-.9c-.1.1-.5,0-.8.1.1-.5.1-1,.2-1.5C108.21,71.55,108.81,73.65,108.51,74.15Z"/></svg>