<?xml version="1.0" encoding="utf-8"?>
<!-- Generator: Adobe Illustrator 22.1.0, SVG Export Plug-In . SVG Version: 6.00 Build 0)  -->
<svg version="1.1" id="Layer_1" xmlns="http://www.w3.org/2000/svg" xmlns:xlink="http://www.w3.org/1999/xlink" x="0px" y="0px"
	 viewBox="0 0 298.2 59" style="enable-background:new 0 0 298.2 59;" xml:space="preserve">
<style type="text/css">
	.st0{opacity:0.34;}
</style>
<title>cr</title>
<g class="st0">
	<g>
		<path d="M213.3,16.2c-0.5,0.1-1,0.4-1.3,0.9c-0.3,0.4-0.6,0.8-0.7,1.3c-0.1,0.5-0.1,1.1,0,1.6c0.1,0.6,0.4,1.1,0.9,1.3
			c0.3,0.3,0.7,0.4,1.1,0.4h1c0.3,0,0.6-0.1,1-0.2c0.1,0,0.2-0.1,0.4-0.1s0.2-0.1,0.4-0.1c0.2-0.1,0.3-0.2,0.5-0.2h0.5
			c0.4,0.1,0.5,0.5,0.6,1.1c0.1,0.5,0,1-0.2,1.5c-0.2,0.5-0.7,0.9-1.3,1c-0.2,0.1-0.5,0.2-0.7,0.2c-0.1,0-0.3,0-0.4,0.1H213
			c-1.1-0.1-2.2-0.6-3-1.3c-0.8-0.8-1.3-1.8-1.3-3c0-0.4-0.1-0.9-0.1-1.3v-1.6c0-0.2,0-0.4,0.1-0.5c0.1-0.4,0.2-0.7,0.2-1.1
			c0.3-0.9,0.9-1.8,1.6-2.4c1-0.9,2.4-1.4,3.8-1.3c0.6,0,1.2,0.1,1.8,0.2c0.5,0.2,0.9,0.5,1.3,0.9c0.2,0.4,0.4,0.8,0.4,1.3
			c0,0.4-0.1,0.9-0.4,1.3c-0.2,0.2-0.4,0.4-0.7,0.5c-0.1,0-0.2,0.1-0.4,0.1h-1c-0.2-0.1-0.4-0.1-0.6-0.2
			C214.2,16.3,213.7,16.2,213.3,16.2z"/>
		<path d="M229,24.5c0.5,0.2,0.8,0.6,1,1.1c0.2,0.5,0.2,1.1,0,1.6c-0.2,0.5-0.7,0.9-1.3,1c-0.2,0-0.5,0.1-0.7,0.1h-1
			c-0.3,0-0.5,0-0.7-0.1c-0.6-0.1-1.2-0.4-1.5-1c-0.1-0.1-0.2-0.3-0.2-0.5c-0.1-0.2-0.2-0.4-0.2-0.6c-0.1-0.6-0.2-1.2-0.1-1.8
			c0.2-0.9-0.1-1.8-0.7-2.4c-0.2-0.1-0.5-0.2-0.7-0.4c-0.2,0-0.5,0-0.6,0.1h-0.1l-0.1,0.1c0,0-0.1,0.1-0.1,0.2
			c-0.1,0.7,0,1.4,0.1,2.1c0.1,0.5,0.1,1,0.1,1.5c0,0.2,0,0.5-0.1,0.6c-0.4,0.4-0.9,0.7-1.5,0.6c-0.6,0.1-1.3-0.1-1.7-0.5
			c-0.6-0.5-1-1.5-1-3c0-0.6,0.1-1.3,0.1-2c0-0.2,0.1-0.6,0.1-1l0.1-0.5l0.1-0.5c0-0.1,0-0.3,0.1-0.4v-0.1l0,0
			c0-0.2,0.1-0.6,0.1-0.9c0.1-0.6,0.2-1.1,0.1-1.7v-1.1c0-0.6,0-1.1,0.2-1.3c0.7-0.7,1.6-1,2.6-1c1.1,0,2.3,0.2,3.3,0.7l0.2,0.1
			l0.2,0.1c0.1,0,0.2,0.1,0.4,0.2c0.3,0.2,0.6,0.3,0.9,0.5c0.5,0.4,0.9,1,1.1,1.6c0.1,0.7,0,1.4-0.4,2.1c-0.3,0.7-0.8,1.2-1.5,1.5
			h-0.3c-0.1,0-0.1,0-0.1,0.1c-0.1,0-0.2,0.1-0.2,0.1c0,0.1,0.1,0.1,0.1,0.1c0.1,0,0.2,0.1,0.2,0.1h0.3c0.2,0.1,0.3,0.2,0.5,0.2
			c0.2,0.1,0.4,0.2,0.5,0.4c0.3,0.4,0.5,0.8,0.5,1.3v2.1c0,0.2,0,0.4,0.1,0.5c0.1,0.1,0.2,0.1,0.6,0.1h0.4
			C228.7,24.4,228.8,24.4,229,24.5z M223.9,18.3c0.1-0.5-0.2-1-0.9-1.3c-0.2-0.1-0.5-0.2-0.7-0.4c-0.2-0.1-0.4-0.1-0.5,0
			c-0.1,0-0.1,0.2,0,0.5v1.2c0,0.1,0,0.3-0.1,0.4V19c0,0.2,0,0.4,0.1,0.5h0.7c0.3-0.1,0.6-0.3,0.9-0.5
			C223.8,18.8,223.9,18.5,223.9,18.3L223.9,18.3z"/>
		<path d="M230.4,14.2c0-0.1,0.1-0.2,0.1-0.2c0.1-0.2,0.2-0.4,0.4-0.5l0.2-0.2l0.2-0.2c0.2-0.1,0.4-0.2,0.6-0.4
			c0.8-0.2,1.6-0.3,2.4-0.1l2,0.2c0.3,0.1,0.5,0.2,0.7,0.4c0.2,0.3,0.3,0.7,0.1,1.1c-0.1,0.5-0.2,0.7-0.5,1
			c-0.2,0.1-0.4,0.2-0.6,0.1c-0.1,0-0.3,0-0.4-0.1h-0.4c-0.3-0.1-0.6-0.2-0.9-0.1c-0.3,0-0.7,0-1,0.1c-0.2,0.1-0.4,0.2-0.5,0.4
			l-0.1,0.1v0.1l0,0c-0.2,0.3-0.3,0.6-0.2,1c0,0.3,0.1,0.6,0.4,0.9c0.1,0.1,0.2,0.1,0.5,0.1h0.5c0.2,0,0.5,0,0.6-0.1h1
			c0.2,0,0.4,0.1,0.6,0.1c0.5,0.7,0.5,1.6,0,2.2c-0.2,0.1-0.4,0.2-0.6,0.1h-1.3c-0.4,0-0.7,0.1-1.1,0.1c-0.1,0-0.1,0.1-0.2,0.1l0,0
			c-0.2,0.2-0.4,0.6-0.4,0.9c0,0.3,0.1,0.6,0.2,0.9c0.1,0.2,0.3,0.2,0.5,0.2c0.4,0,0.8,0.1,1.3,0.1c0.6,0,1.2,0.1,1.8,0.1
			c0.2,0,0.4,0.1,0.5,0.2c0.2,0.3,0.2,0.8,0,1.1c-0.1,0.5-0.5,0.9-0.9,1.1c-0.2,0.1-0.5,0.2-0.7,0.2c-0.3,0-0.5,0-0.7-0.1h-0.5
			c-0.2,0-0.4-0.1-0.6-0.1c-0.6-0.1-1.1-0.2-1.7-0.1h-1.2c-0.3,0-0.6-0.1-0.9-0.4c-0.4-0.2-0.5-0.7-0.5-1.5v-1.8
			c0-0.8,0-1.6,0.1-2.4c0-1.5,0.3-2.9,0.7-4.3C230.4,14.3,230.4,14.2,230.4,14.2z"/>
		<path d="M245.9,15.7c0.3,1.2,0.7,2.4,1.3,3.5c0.1,0.4,0.4,0.9,0.6,1.3c0.1,0.1,0.1,0.4,0.2,0.6l0.1,0.2l0.1,0.2
			c0.3,0.5,0.5,1,0.6,1.6c0.1,0.4,0.1,0.8-0.2,1.1c-0.4,0.4-0.8,0.6-1.3,0.7c-0.5,0.1-1,0-1.5-0.2c-0.4-0.3-0.7-0.8-0.9-1.3
			c-0.2-0.3-0.2-0.6-0.2-0.9V22c0-0.3-0.1-0.6-0.2-0.9c-0.4-0.3-0.8-0.4-1.3-0.4c-0.4,0-0.8,0.2-1.1,0.5c-0.1,0.1-0.1,0.5-0.2,1
			c-0.1,1.5-0.1,2.4-0.2,2.6c-0.1,0.4-0.5,0.6-0.9,0.9c-0.4,0.2-0.8,0.3-1.3,0.2c-0.3,0-0.7-0.1-1-0.2c-0.3-0.1-0.6-0.4-0.7-0.7
			c0-0.1-0.1-0.2-0.1-0.5v-0.3l0,0c0.3-2,0.9-4,1.7-5.9c0.4-0.9,0.6-1.6,1-2.4c0-0.1,0.1-0.4,0.1-0.5s0.1-0.2,0.1-0.4
			c0.1-0.2,0.2-0.5,0.2-0.7c0.1-0.5,0.2-0.9,0.5-1c0.2-0.3,0.4-0.5,0.7-0.6c0.4-0.2,0.9-0.2,1.3-0.2c0.4,0,0.9,0.2,1.3,0.4
			c0.5,0.3,0.9,0.8,1.1,1.3c0.1,0.2,0.2,0.5,0.2,0.7c0,0.1,0.1,0.2,0.1,0.4v0.2L245.9,15.7z M243.7,19c0.1-0.1,0.1-0.4,0.1-0.9
			c-0.1-0.6-0.2-1.1-0.4-1.7c0-0.1-0.1-0.2-0.1-0.2v-0.3c0-0.1-0.1-0.2-0.1-0.2c0-0.1-0.1-0.2-0.2-0.2c-0.1-0.1-0.4,0-0.6,0.4
			c-0.3,0.4-0.4,0.8-0.5,1.3c-0.1,0.4-0.2,0.9-0.2,1.3c0,0.5,0,0.7,0.1,0.9c0.3,0.2,0.6,0.2,0.9,0.1C243.1,19.3,243.4,19.2,243.7,19
			z"/>
		<path d="M256.6,11.9c0.5-0.1,0.9,0.3,1,0.7c0,0,0,0,0,0c0.1,0.6,0.1,1.1,0,1.7c-0.1,0.5-0.3,0.9-0.6,1.3c-0.1,0.1-0.5,0.1-1.1,0.1
			h-1.3c-0.4,0-0.7,0.2-1,0.5c-0.1,0.2-0.1,1.3,0.2,3.1c0,0.2,0.1,0.6,0.2,1.1c0,0.2,0,0.4,0.1,0.5v0.5c0.1,0.5,0.2,1,0.2,1.5
			c0.1,0.6,0,1.3-0.1,1.8c-0.1,0.5-0.4,1-0.9,1.3c-0.1,0-0.1,0.1-0.2,0.1h-0.3c-0.1,0.1-0.2,0.1-0.2,0.1c-0.3,0-0.6,0-0.9-0.1
			c-0.5-0.1-1-0.5-1.3-1c-0.2-0.6-0.4-1.3-0.4-2c0-0.5,0.1-1,0.1-1.6s0.1-1.5,0.1-2.1c0.1-1.7,0.1-2.7,0-3c0-0.2-0.1-0.2-0.4-0.2
			s-0.1,0-0.2,0.1h-0.3c-0.1,0-0.1,0-0.2,0.1c-0.1,0-0.2,0.1-0.5,0.2l-0.2,0.1l-0.2,0.1c-0.3,0.1-0.6,0.2-1,0.1
			c-0.5-0.1-0.7-0.6-0.7-1.6c-0.1-0.6,0.1-1.2,0.5-1.7c0.1-0.1,0.4-0.1,0.6-0.2h0.9c0.5,0.1,1.5-0.1,2.8-0.5
			c0.8-0.2,1.7-0.5,2.4-0.9c0.1,0,0.4-0.1,0.5-0.1l0.2-0.1l0.2-0.1L256.6,11.9z"/>
		<path d="M258.6,14.2c0-0.1,0.1-0.2,0.1-0.2c0.1-0.2,0.2-0.4,0.4-0.5l0.2-0.2l0.2-0.2c0.2-0.1,0.4-0.2,0.6-0.4
			c0.8-0.2,1.6-0.3,2.4-0.1l2,0.2c0.3,0.1,0.5,0.2,0.7,0.4c0.2,0.3,0.3,0.7,0.1,1.1c-0.1,0.5-0.2,0.7-0.5,1
			c-0.2,0.1-0.4,0.2-0.6,0.1c-0.1,0-0.3,0-0.4-0.1h-0.4c-0.3-0.1-0.6-0.2-0.9-0.1c-0.3,0-0.7,0-1,0.1c-0.2,0.1-0.4,0.2-0.5,0.4
			l-0.1,0.1v0.1l0,0c-0.2,0.3-0.3,0.6-0.2,1c0,0.3,0.1,0.6,0.4,0.9c0.1,0.1,0.2,0.1,0.5,0.1h0.5c0.2,0,0.5,0,0.6-0.1h1
			c0.2,0,0.4,0.1,0.6,0.1c0.5,0.7,0.5,1.6,0,2.2c-0.2,0.1-0.4,0.2-0.6,0.1h-1.3c-0.4,0-0.7,0.1-1.1,0.1c-0.1,0-0.1,0.1-0.2,0.1l0,0
			c-0.2,0.2-0.4,0.6-0.4,0.9c0,0.3,0.1,0.6,0.2,0.9c0.1,0.2,0.3,0.2,0.5,0.2c0.4,0,0.8,0.1,1.3,0.1c0.6,0,1.2,0.1,1.8,0.1
			c0.2,0,0.4,0.1,0.5,0.2c0.2,0.3,0.2,0.8,0,1.1c-0.1,0.5-0.5,0.9-0.9,1.1c-0.2,0.1-0.5,0.2-0.7,0.2c-0.3,0-0.5,0-0.7-0.1h-0.5
			c-0.2,0-0.4-0.1-0.6-0.1c-0.6-0.1-1.1-0.2-1.7-0.1h-1.2c-0.3,0-0.6-0.1-0.9-0.4c-0.4-0.2-0.5-0.7-0.5-1.5v-1.8
			c0-0.8,0-1.6,0.1-2.4c0-1.5,0.3-2.9,0.7-4.3C258.3,14.6,258.4,14.4,258.6,14.2z"/>
		<path d="M279.3,19.3c0.4,0.7,0.6,1.4,0.5,2.2c0,0.7-0.2,1.3-0.6,1.8c-0.5,0.9-1.7,1.3-3.8,1.6c-0.7,0.1-1.4,0.1-2.1,0
			c-0.3,0-0.7,0-1-0.1c-0.6-0.4-1-1.3-1.3-2.6c-0.1-0.6-0.2-1.2-0.1-1.8v-3c0-0.5,0-1-0.1-1.5c0-0.2,0-0.4-0.1-0.5v-0.4l0,0
			c-0.2-0.4-0.2-0.8,0-1.3c0.2-0.6,1-1,2.1-1.3c1-0.2,2-0.1,3,0.1h0.3c0.1,0,0.2,0.1,0.4,0.1c0.2,0.1,0.5,0.2,0.7,0.4
			c0.5,0.3,0.9,0.7,1.1,1.3c0.2,0.5,0.3,1.1,0.2,1.7c-0.1,0.7-0.3,1.4-0.7,2C278.4,18.3,279,18.7,279.3,19.3z M273.9,15v0.4
			c0,0.1,0,0.1,0.1,0.2c0,0.1,0,0.1,0.1,0.2c0,0.2,0.1,0.4,0.1,0.6v0.7c0,0.2,0,0.4,0.1,0.4h0.4c0.2-0.1,0.5-0.2,0.6-0.5
			c0.2-0.2,0.3-0.5,0.2-0.7c0-0.4-0.2-0.7-0.9-1c-0.2-0.1-0.4-0.2-0.6-0.2H273.9z M275.1,21.9c0.4-0.1,0.7-0.4,1-0.7
			c0.2-0.4,0.3-0.8,0.4-1.3c0-0.2-0.4-0.5-0.9-0.5h-1c-0.1,0.8-0.1,1.6,0,2.4C274.7,22.1,275,22.1,275.1,21.9z"/>
		<path d="M290.6,12.8c0.4,0.4,0.1,1.1-0.7,2.4c-0.2,0.4-0.5,0.7-0.9,1.3c-0.4,0.6-0.7,1.2-1,1.8c-0.9,1.6-1.3,2.8-1.1,3.7
			c0,0.4,0.1,0.7,0.2,1.1c0,0.1,0.1,0.2,0.1,0.4l0.1,0.1v0.1c0.1,0.3,0.1,0.7,0,1c-0.2,0.3-0.4,0.6-0.7,0.7
			c-0.4,0.2-0.8,0.2-1.3,0.2c-0.4,0-0.8,0-1.3-0.1c-0.3-0.1-0.6-0.3-0.9-0.5c-0.2-0.4-0.3-0.8-0.1-1.3c0.1-0.7,0.3-1.4,0.5-2.1
			c0.1-0.2-0.2-1.3-1.1-3.1l-0.2-0.5l-0.2-0.5c-0.1-0.3-0.3-0.7-0.5-1c-0.4-0.7-0.6-1.3-0.7-1.6c-0.2-0.6-0.4-1.2-0.6-1.8
			c-0.1-0.4,0-0.6,0.4-0.7c0.5-0.2,1.1-0.2,1.6-0.2c0.6,0,1.1,0.1,1.6,0.4c0.1,0.1,0.2,0.2,0.4,0.2c0.2,0.3,0.2,0.6,0.1,0.9v0.7l0,0
			c-0.2,0.9-0.1,1.9,0.4,2.7c0.1,0.4,0.4,0.7,0.5,1.1c0.2,0.2,0.4,0.5,0.5,0.4c0.2,0,0.5-0.6,0.7-1.8c0.2-0.9,0.2-1.9,0.1-2.8l0,0
			v-0.5c0-0.3,0.1-0.5,0.2-0.7c0.1-0.1,0.2-0.2,0.4-0.2c0.7-0.2,1.4-0.3,2.1-0.1C289.8,12.3,290.3,12.5,290.6,12.8z"/>
	</g>
	<path d="M8.3,36c0.1-0.6,0.2-1.2,0.3-1.8c0.2-0.3,0.3-0.7,0.7-0.8c0.7-0.2,1.4-0.2,2,0.2c0.7,0.3,1.4,0.7,2,1.2
		c0.5,0.5,0.9,1.1,1.2,1.7c0.3,0.5,0.5,1.1,0.5,1.7c0,0.2,0.2,0.5,0.2,0.7v0.7c0,0.2,0.1,0.4,0.2,0.5l0,0V35c0-0.4,0.1-0.8,0.3-1.2
		c0.3-0.4,0.8-0.6,1.3-0.7c0.4-0.3,1-0.2,1.3,0.2c0.3,0.2,0.5,0.5,0.5,0.8c0.1,0.6,0.2,1.1,0.2,1.7V41l0,0c0,0.8-0.2,1.7-0.2,2.7
		v1.7c0,0.3-0.1,0.7-0.2,1c-0.2,0.2-0.3,0.5-0.5,0.7c-0.4,0.3-1,0.5-1.5,0.5c-0.5-0.1-1-0.2-1.5-0.3c-0.3-0.2-0.5-0.5-0.7-0.8
		c0-0.2-0.2-0.3-0.2-0.7v-0.7c-0.2-1.2-0.5-2.4-1-3.5c-0.5-1-0.7-1.5-1-1.5S12,40.6,12,41.3v4.5c0.1,0.4-0.1,0.9-0.3,1.2
		c-0.3,0.5-0.9,0.9-1.5,1c-0.5,0.2-1,0.3-1.5,0.2C8.4,48,8.2,47.7,8,47.4c0-0.2-0.2-0.3-0.2-0.5s0-0.2-0.2-0.3
		C7.5,43.1,7.8,39.5,8.3,36z"/>
	<path d="M29.4,36.2c0.3,1.5,0.8,2.9,1.5,4.3c0.3,0.6,0.5,1.1,0.7,1.7c0.2,0.2,0.2,0.5,0.3,0.7l0.2,0.3l0.2,0.3
		c0.4,0.6,0.7,1.3,0.8,2c0.2,0.5,0.1,1-0.3,1.3c-0.4,0.5-1,0.8-1.7,0.8c-0.6,0.2-1.3,0.1-1.8-0.3c-0.5-0.5-0.8-1-1-1.7
		c-0.1-0.3-0.2-0.7-0.3-1v-0.7c0-0.4-0.1-0.7-0.3-1c-0.4-0.4-1-0.5-1.5-0.5c-0.5-0.1-1.1,0.2-1.3,0.7c-0.2,0.2-0.2,0.5-0.2,1.3
		c-0.2,1.8-0.2,2.8-0.3,3.2c-0.2,0.5-0.7,0.8-1.2,1c-0.5,0.2-1,0.3-1.5,0.3c-0.4-0.1-0.9-0.2-1.3-0.3c-0.4-0.2-0.8-0.4-1-0.8
		c0-0.2-0.2-0.3-0.2-0.5v-0.4l0,0c0.4-2.5,1.1-4.9,2-7.3c0.5-1,0.8-2,1.2-3c0-0.2,0.2-0.3,0.2-0.7c0-0.2,0.2-0.3,0.2-0.5
		c0.2-0.5,0.2-0.7,0.3-0.8c0.1-0.4,0.3-0.8,0.5-1.2c0.2-0.3,0.5-0.5,0.8-0.7c0.5-0.2,1.1-0.3,1.7-0.2c1.3,0.1,2.4,1,2.8,2.2
		c0.2,0.3,0.3,0.6,0.3,1C29.2,35.9,29.3,36.1,29.4,36.2C29.4,36.2,29.4,36.2,29.4,36.2z M26.7,40.3c0.2-0.2,0.2-0.5,0.2-1.2
		c0-0.7-0.2-1.4-0.5-2c0-0.1-0.1-0.2-0.2-0.2v-0.4c0-0.2-0.2-0.2-0.2-0.3s-0.2-0.3-0.2-0.3c-0.2-0.2-0.5,0-0.7,0.3
		c-0.2,0.5-0.4,1-0.5,1.5c-0.1,0.6-0.2,1.1-0.3,1.7c0,0.5,0,0.8,0.2,1s0.5,0.2,1,0.2S26.6,40.5,26.7,40.3z"/>
	<path d="M42.5,31.7c0.7,0,1,0.3,1.2,1c0.2,0.7,0.2,1.5,0,2.2c-0.2,0.8-0.3,1.3-0.8,1.5c-0.2,0.2-0.7,0.2-1.3,0.2h-1.5
		c-0.5,0-0.9,0.3-1.2,0.7c-0.2,0.3-0.2,1.7,0.3,3.8c0,0.3,0.2,0.8,0.2,1.3c0,0.2,0.1,0.5,0.2,0.7v0.6c0.2,0.6,0.3,1.2,0.3,1.8
		c0.1,0.8,0.1,1.6-0.2,2.3c-0.2,0.8-0.5,1.3-1,1.5c-0.2,0-0.2,0.2-0.3,0.2H38c-0.1,0-0.2,0.1-0.3,0.2c-0.4,0-0.8-0.1-1.2-0.2
		c-0.7-0.1-1.2-0.6-1.5-1.2c-0.3-0.7-0.5-1.5-0.5-2.3c0-0.5,0.2-1.2,0.2-2s0.2-1.7,0.2-2.5c0.2-2.2,0.2-3.3,0-3.5
		c0-0.2-0.2-0.3-0.5-0.3s-0.2,0-0.3,0.2h-0.4c-0.2,0-0.2,0-0.2,0.2c-0.2,0-0.3,0.2-0.7,0.2l-0.3,0.2l-0.3,0.2
		c-0.4,0.2-0.8,0.3-1.2,0.2c-0.5-0.2-0.8-0.8-1-1.8c0-1,0.2-1.7,0.7-2c0.2-0.2,0.3-0.2,0.8-0.2h1c0.7,0.2,1.8-0.2,3.5-0.5
		c1-0.2,2.1-0.5,3-1c0.2,0,0.3-0.2,0.7-0.2L40,33l0.3-0.2C41.7,31.7,42.2,31.5,42.5,31.7z"/>
	<path d="M55,31.7c0.7,0,1,0.3,1.2,1c0.2,0.7,0.2,1.5,0,2.2c-0.2,0.8-0.3,1.3-0.8,1.5c-0.2,0.2-0.7,0.2-1.3,0.2h-1.3
		c-0.5,0-0.9,0.3-1.2,0.7c-0.2,0.3-0.2,1.7,0.3,3.8c0,0.3,0.2,0.8,0.2,1.3c0,0.2,0.1,0.5,0.2,0.7v0.6c0.2,0.6,0.3,1.2,0.3,1.8
		c0.1,0.8,0.1,1.6-0.2,2.3c-0.2,0.8-0.5,1.3-1,1.5c-0.2,0-0.2,0.2-0.3,0.2h-0.5c-0.1,0-0.2,0.1-0.3,0.2c-0.4,0-0.8-0.1-1.2-0.2
		c-0.7-0.1-1.2-0.6-1.5-1.2c-0.3-0.7-0.5-1.5-0.5-2.3c0-0.5,0.2-1.2,0.2-2s0.2-1.7,0.2-2.5c0.2-2.2,0.2-3.3,0-3.5
		c0-0.2-0.2-0.3-0.5-0.3s-0.2,0-0.3,0.2h-0.4c-0.2,0-0.2,0-0.2,0.2c-0.2,0-0.3,0.2-0.7,0.2l-0.3,0.2l-0.3,0.2
		c-0.4,0.2-0.8,0.3-1.2,0.2c-0.5-0.2-0.8-0.8-1-1.8c0-1,0.2-1.7,0.7-2c0.2-0.2,0.3-0.2,0.8-0.2h1c0.7,0.2,1.8-0.2,3.5-0.5
		c1-0.2,2.1-0.5,3-1c0.2,0,0.3-0.2,0.7-0.2l0.3-0.2l0.3-0.2C54.1,31.7,54.6,31.5,55,31.7z"/>
	<path d="M65.8,36.2c0.3,1.5,0.8,2.9,1.5,4.3c0.3,0.6,0.5,1.1,0.7,1.7c0.2,0.2,0.2,0.5,0.3,0.7l0.2,0.3l0.2,0.3
		c0.4,0.6,0.7,1.3,0.8,2c0.2,0.5,0.1,1-0.3,1.3c-0.4,0.5-1,0.8-1.7,0.8c-0.6,0.2-1.3,0.1-1.8-0.3c-0.5-0.5-0.8-1-1-1.7
		c-0.1-0.3-0.2-0.7-0.3-1v-0.7c0-0.4-0.1-0.7-0.3-1c-0.4-0.4-1-0.5-1.5-0.5c-0.5-0.1-1.1,0.2-1.3,0.7c-0.2,0.2-0.2,0.5-0.2,1.3
		c-0.2,1.8-0.2,2.8-0.3,3.2c-0.2,0.5-0.7,0.8-1.2,1c-0.5,0.2-1,0.3-1.5,0.3c-0.4-0.1-0.9-0.2-1.3-0.3c-0.4-0.1-0.8-0.4-1-0.8
		c0-0.2-0.2-0.3-0.2-0.5v-0.4l0,0c0.4-2.5,1.1-4.9,2-7.3c0.5-1,0.8-2,1.2-3c0-0.2,0.2-0.3,0.2-0.7c0-0.2,0.2-0.3,0.2-0.5
		c0.2-0.5,0.2-0.7,0.3-0.8c0.1-0.4,0.3-0.8,0.5-1.2c0.2-0.3,0.5-0.5,0.8-0.7c0.5-0.2,1.1-0.3,1.7-0.2c1.3,0.1,2.4,1,2.8,2.2
		c0.2,0.3,0.3,0.6,0.3,1C65.6,35.9,65.7,36.1,65.8,36.2L65.8,36.2L65.8,36.2z M63.1,40.3c0.2-0.2,0.2-0.5,0.2-1.2
		c0-0.7-0.2-1.4-0.5-2c0-0.1-0.1-0.2-0.2-0.2v-0.4c0-0.2-0.2-0.2-0.2-0.3s-0.2-0.3-0.2-0.3c-0.2-0.2-0.5,0-0.7,0.3
		c-0.2,0.5-0.4,1-0.5,1.5c-0.1,0.6-0.2,1.1-0.3,1.7c0,0.5,0,0.8,0.2,1s0.5,0.2,1,0.2S62.9,40.5,63.1,40.3z"/>
	<path d="M78.5,34.2c0.4,0.9,0.5,1.8,0.3,2.7c-0.2,1.2-0.7,2.3-1.5,3.2c-0.1,0.1-0.3,0.2-0.5,0.3c-0.3,0.2-0.7,0.5-1,0.7
		c-1,0.5-1.5,0.8-2,1c-0.1,0.9,0,1.8,0.3,2.7c0.2,0.6,0.4,1.1,0.5,1.7v0.7c-0.3,0.5-0.7,0.9-1.3,1c-0.7,0.2-1.4,0.2-2-0.2
		c-0.8-0.5-1.3-1.5-1.7-3.2c-0.2-0.8-0.3-1.5-0.3-2.3v-4.1c0-0.7-0.2-1.3-0.2-2c0-0.2-0.2-0.5-0.2-0.7V35c-0.2-0.5-0.2-1,0-1.5
		c0.3-0.8,1.2-1.3,2.5-1.7c1.2-0.2,2.5-0.2,3.7,0h0.4c0.2,0,0.3,0.2,0.5,0.2c0.3,0.1,0.7,0.2,1,0.3C77.9,33,78.4,33.5,78.5,34.2z
		 M72.7,35.2c0,0.2,0.1,0.4,0.2,0.5c0,0.2,0,0.2,0.2,0.2c0,0.2,0,0.2,0.2,0.3c0,0.2,0.2,0.5,0.2,0.8v0.9c0,0.3,0.2,0.3,0.2,0.5h0.5
		c0.3-0.2,0.6-0.4,0.8-0.7c0.2-0.3,0.3-0.6,0.3-1c0-0.5-0.5-1-1.2-1.3c-0.2-0.2-0.5-0.2-0.8-0.2L72.7,35.2z"/>
	<path d="M88.8,36.2c0.3,1.5,0.8,2.9,1.5,4.3c0.3,0.6,0.5,1.1,0.7,1.7c0.2,0.2,0.2,0.5,0.3,0.7l0.2,0.3l0.2,0.3
		c0.4,0.6,0.7,1.3,0.8,2c0.2,0.5,0.1,1-0.3,1.3c-0.4,0.5-1,0.8-1.7,0.8c-0.6,0.2-1.3,0.1-1.8-0.3c-0.5-0.5-0.8-1-1-1.7
		c-0.1-0.3-0.2-0.7-0.3-1v-0.7c0-0.4-0.1-0.7-0.3-1c-0.4-0.4-1-0.5-1.5-0.5c-0.5-0.1-1.1,0.2-1.3,0.7c-0.2,0.2-0.2,0.5-0.2,1.3
		c-0.2,1.8-0.2,2.8-0.3,3.2c-0.2,0.5-0.7,0.8-1.2,1c-0.5,0.2-1,0.3-1.5,0.3c-0.4-0.1-0.9-0.2-1.3-0.3c-0.4-0.1-0.8-0.4-1-0.8
		c0-0.2-0.2-0.3-0.2-0.5v-0.4l0,0c0.4-2.5,1.1-4.9,2-7.3c0.5-1,0.8-2,1.2-3c0-0.2,0.2-0.3,0.2-0.7c0-0.2,0.2-0.3,0.2-0.5
		c0.2-0.5,0.2-0.7,0.3-0.8c0.1-0.4,0.3-0.8,0.5-1.2c0.2-0.3,0.5-0.5,0.8-0.7c0.5-0.2,1.1-0.3,1.7-0.2c1.3,0.1,2.4,1,2.8,2.2
		c0.2,0.3,0.3,0.6,0.3,1C88.6,35.9,88.7,36.1,88.8,36.2L88.8,36.2L88.8,36.2z M86.3,40.3c0.2-0.2,0.2-0.5,0.2-1.2
		c0-0.7-0.2-1.4-0.5-2c0-0.1-0.1-0.2-0.2-0.2v-0.4c0-0.2-0.2-0.2-0.2-0.3s-0.2-0.3-0.2-0.3c-0.2-0.2-0.5,0-0.7,0.3
		c-0.2,0.5-0.4,1-0.5,1.5c-0.1,0.6-0.2,1.1-0.3,1.7c0,0.5,0,0.8,0.2,1s0.5,0.2,1,0.2S86.2,40.5,86.3,40.3z"/>
	<path d="M102.1,31.7c0.7,0,1,0.3,1.2,1c0.2,0.7,0.2,1.5,0,2.2c-0.2,0.8-0.3,1.3-0.8,1.5c-0.2,0.2-0.7,0.2-1.3,0.2h-1.3
		c-0.5,0-0.9,0.3-1.2,0.7c-0.2,0.3-0.2,1.7,0.3,3.8c0,0.3,0.2,0.8,0.2,1.3c0,0.2,0.1,0.5,0.2,0.7v0.6c0.2,0.6,0.3,1.2,0.3,1.8
		c0.1,0.8,0.1,1.6-0.2,2.3c-0.2,0.8-0.5,1.3-1,1.5c-0.2,0-0.2,0.2-0.3,0.2h-0.4c-0.1,0-0.2,0.1-0.3,0.2c-0.4,0-0.8-0.1-1.2-0.2
		c-0.7-0.1-1.2-0.6-1.5-1.2c-0.3-0.7-0.5-1.5-0.5-2.3c0-0.5,0.2-1.2,0.2-2s0.2-1.7,0.2-2.5c0.2-2.2,0.2-3.3,0-3.5
		c0-0.2-0.2-0.3-0.5-0.3s-0.2,0-0.3,0.2h-0.4c-0.2,0-0.2,0-0.2,0.2c-0.2,0-0.3,0.2-0.7,0.2l-0.3,0.2L92,38.7
		c-0.4,0.2-0.8,0.3-1.2,0.2c-0.5-0.2-0.8-0.8-1-1.8c0-1,0.2-1.7,0.7-2c0.2-0.2,0.3-0.2,0.8-0.2h1c0.7,0.2,1.8-0.2,3.5-0.5
		c1-0.2,2.1-0.5,3-1c0.2,0,0.3-0.2,0.7-0.2l0.3-0.2l0.3-0.2C101.1,31.7,101.6,31.5,102.1,31.7z"/>
	<path d="M118.7,34.2c0.4,0.9,0.5,1.8,0.3,2.7c-0.2,1.2-0.7,2.3-1.5,3.2c-0.1,0.1-0.3,0.2-0.5,0.3c-0.3,0.2-0.7,0.5-1,0.7
		c-1,0.5-1.5,0.8-2,1c-0.1,0.9,0,1.8,0.3,2.7c0.2,0.6,0.4,1.1,0.5,1.7v0.7c-0.3,0.5-0.7,0.9-1.3,1c-0.7,0.2-1.4,0.2-2-0.2
		c-0.8-0.5-1.3-1.5-1.7-3.2c-0.2-0.8-0.3-1.5-0.3-2.3v-4.1c0-0.7-0.2-1.3-0.2-2c0-0.2-0.2-0.5-0.2-0.7V35c-0.2-0.5-0.2-1,0-1.5
		c0.3-0.8,1.2-1.3,2.5-1.7c1.2-0.2,2.5-0.2,3.7,0h0.4c0.2,0,0.3,0.2,0.5,0.2c0.3,0.1,0.7,0.2,1,0.3
		C117.9,32.8,118.4,33.4,118.7,34.2z M112.7,35.2c0,0.2,0.1,0.4,0.2,0.5c0,0.2,0,0.2,0.2,0.2c0,0.2,0,0.2,0.2,0.3
		c0,0.2,0.2,0.5,0.2,0.8v0.9c0,0.3,0.2,0.3,0.2,0.5h0.5c0.3-0.2,0.6-0.4,0.8-0.7c0.2-0.3,0.3-0.6,0.3-1c0-0.5-0.5-1-1.2-1.3
		c-0.2-0.2-0.5-0.2-0.8-0.2L112.7,35.2z"/>
	<path d="M129.5,33c1.4,0.8,2.5,2.1,3,3.7c0.6,1.5,0.6,3.2,0.2,4.8l0,0v0.2c0,0.2-0.2,0.3-0.2,0.7c-0.2,0.7-0.6,1.3-1,1.8
		c-1,1.6-2.6,2.7-4.5,3c-1.5,0.3-3,0-4.3-0.7c-1.2-0.7-2.3-1.6-3-2.8l-0.2-0.2c0-0.2-0.2-0.2-0.2-0.3c-0.2-0.3-0.3-0.6-0.3-1
		c-0.3-1-0.3-2-0.2-3c0.3-1.1,0.8-2.1,1.5-3c0.7-0.9,1.6-1.7,2.7-2.3c1-0.6,2.1-1,3.3-1.2C127.4,32.4,128.5,32.5,129.5,33z
		 M128.3,39.2c0-0.7-0.1-1.4-0.3-2c-0.2-0.6-0.7-1-1.2-1.3c-0.4-0.2-0.8-0.2-1.2,0c-0.4,0.2-0.7,0.4-1,0.7c-0.7,0.7-1.1,1.7-1.2,2.7
		c0,0.6,0.2,1.3,0.5,1.8c0.3,0.5,0.7,0.9,1.2,1.2c0.7,0.3,1.3,0,2-0.5C127.9,41.1,128.4,40.2,128.3,39.2L128.3,39.2z"/>
	<path d="M147.1,46.8c0.5,0.2,0.8,0.7,1.2,1.3c0.4,0.5,0.4,1.3,0,1.8c-0.3,0.6-0.9,1-1.5,1.2c-0.3,0-0.5,0.2-0.8,0.2h-1.2
		c-0.3,0-0.7,0-0.8-0.2c-0.8-0.1-1.4-0.5-1.8-1.2c-0.2-0.2-0.3-0.3-0.3-0.5c-0.2-0.2-0.2-0.5-0.3-0.7c-0.2-0.7-0.2-1.5-0.2-2.2
		c0.2-1.1-0.1-2.2-0.8-3c-0.2-0.2-0.5-0.3-0.8-0.3c-0.3,0-0.5,0-0.7,0.2h-0.2c0,0-0.2,0.2-0.2,0.3c0,0.9,0.1,1.8,0.2,2.7
		c0.1,0.6,0.2,1.2,0.2,1.8c0,0.3,0,0.5-0.2,0.7c-0.3,0.5-0.8,0.7-1.7,0.8c-0.8,0-1.5-0.2-2.2-0.5c-0.8-0.7-1.2-1.8-1.2-3.7
		c0-0.8,0-1.5,0.2-2.3c0-0.3,0.2-0.8,0.2-1.2l0.2-0.5l0.2-0.5c0-0.2,0.1-0.4,0.2-0.5v-0.4c0-0.3,0.2-0.7,0.2-1
		c0.2-0.7,0.2-1.3,0.2-2v-1.5c-0.1-0.6,0-1.2,0.3-1.7c0.5-0.8,1.7-1.2,3.2-1.2c1.4,0,2.9,0.3,4.2,0.8l0.2,0.2l0.2,0.2
		c0.2,0,0.3,0.2,0.5,0.2c0.4,0.2,0.7,0.4,1,0.7c0.7,0.4,1.1,1,1.3,1.8c0.2,0.9,0,1.8-0.5,2.5c-0.4,0.8-1,1.4-1.8,1.8h-0.6
		c-0.1,0-0.2,0.1-0.2,0.2c0,0.1,0.1,0.2,0.2,0.2l0,0h0.6c0.2,0,0.5,0.2,0.7,0.2c0.2,0.2,0.5,0.3,0.7,0.5c0.4,0.4,0.5,1,0.5,1.5v2.7
		c0,0.3,0,0.5,0.2,0.7c0.2,0.2,0.3,0.2,0.7,0.2h0.4C146.8,46.8,146.9,46.8,147.1,46.8z M141.1,39.3c0-0.7-0.4-1.4-1-1.7
		c-0.2-0.2-0.5-0.3-0.8-0.3h-0.7c-0.2,0-0.2,0.3,0,0.7v2.3c0,0.3,0,0.5,0.2,0.5h0.9c0.3-0.2,0.7-0.3,1-0.5
		C140.8,40,141.1,39.7,141.1,39.3z"/>
	<path d="M166.3,33.5c0.2,0.4,0.2,0.9,0,1.3c-0.2,0.9-0.6,1.7-1,2.5c-0.2,0.4-0.4,0.8-0.5,1.2l-0.5,1.2c-0.3,0.8-0.6,1.6-1,2.3
		c-0.6,1.6-1.4,3.2-2.5,4.6l-0.2,0.2l-0.2,0.2c-0.2,0.2-0.3,0.3-0.3,0.5c-0.3,0.3-0.6,0.5-1,0.5c-0.3-0.1-0.7-0.2-1-0.3l-0.7-0.7
		c-0.4-0.7-0.7-1.5-0.8-2.3c0-0.3,0-0.5-0.2-0.7v-0.6c-0.1-0.4-0.2-0.8-0.3-1.2c-0.2,0.2-0.2,0.5-0.3,1c0,0.2-0.2,0.3-0.2,0.7
		l-0.2,0.3l-0.2,0.3c-0.3,0.8-0.6,1.6-1,2.3L154,47l-0.2,0.2c-0.2,0.2-0.3,0.3-0.3,0.5c-0.3,0.3-0.6,0.5-1,0.5
		c-0.3-0.1-0.7-0.2-1-0.3l-0.7-0.7c-0.8-1.2-1.4-2.4-1.8-3.8c-0.2-0.7-0.3-1.5-0.5-2.3c0-0.3-0.2-0.8-0.2-1.3v-0.6
		c0-0.3-0.2-0.5-0.2-0.7c-0.3-1.3-0.6-2.7-0.7-4c0-0.8,0-1.3,0.3-1.5c0.5-0.3,1.2-0.5,1.8-0.5c0.7,0,1.3,0.3,1.8,0.8
		c0.3,0.4,0.5,0.8,0.5,1.3V37c0,1.3,0.2,2.6,0.5,3.8c0.2,1.2,0.5,1.8,0.7,1.8c0.2-0.4,0.3-0.8,0.3-1.2v-0.5c0-0.3,0-0.5,0.2-0.7
		c0.1-0.4,0.2-0.9,0.3-1.3c0.7-2.3,1.7-3.5,3.3-3.5c0.7,0,1.4,0.5,1.5,1.2c0.4,0.8,0.6,1.6,0.7,2.5c0,0.3,0.2,0.8,0.2,1.3v1.3
		c0,0.4,0.1,0.8,0.2,1.2c0.2,0,0.5-0.7,0.8-2.2c0.3-1.5,0.5-3,0.7-4.5v-2.1c0-0.4,0.2-0.9,0.5-1.2c0.4-0.2,0.8-0.3,1.2-0.3
		c0.4,0,0.9,0,1.3,0.2c0.6-0.5,1.4-0.4,1.9,0.2C166.2,33.2,166.3,33.3,166.3,33.5z M151.2,46.2L151.2,46.2z"/>
	<path d="M176.5,33c1.4,0.8,2.5,2.1,3,3.7c0.6,1.5,0.6,3.2,0.2,4.8l0,0v0.2c0,0.2-0.2,0.3-0.2,0.7c-0.2,0.7-0.6,1.3-1,1.8
		c-1,1.6-2.6,2.7-4.5,3c-1.5,0.3-3,0-4.3-0.7c-1.2-0.7-2.3-1.6-3-2.8l-0.2-0.2c0-0.2-0.2-0.2-0.2-0.3c-0.2-0.3-0.3-0.6-0.3-1
		c-0.3-1-0.3-2-0.2-3c0.3-1.1,0.8-2.1,1.5-3c0.7-0.9,1.6-1.7,2.7-2.3c1-0.6,2.1-1,3.3-1.2C174.4,32.4,175.5,32.5,176.5,33z
		 M175.3,39.2c0-0.7-0.1-1.4-0.3-2c-0.2-0.6-0.7-1-1.2-1.3c-0.4-0.2-0.8-0.2-1.2,0c-0.4,0.2-0.7,0.4-1,0.7c-0.7,0.7-1.1,1.7-1.2,2.7
		c0,0.6,0.2,1.3,0.5,1.8c0.3,0.5,0.7,0.9,1.2,1.2c0.7,0.3,1.3,0,2-0.5C174.8,41,175.2,40.1,175.3,39.2L175.3,39.2z"/>
	<path d="M181.5,36c0.1-0.6,0.2-1.2,0.3-1.8c0.2-0.3,0.3-0.7,0.7-0.8c0.7-0.2,1.4-0.2,2,0.2c0.7,0.3,1.4,0.7,2,1.2
		c0.5,0.5,0.9,1.1,1.2,1.7c0.3,0.5,0.5,1.1,0.5,1.7c0,0.2,0.2,0.5,0.2,0.7v0.7c0,0.2,0.1,0.4,0.2,0.5l0,0V35c0-0.4,0.1-0.8,0.3-1.2
		c0.3-0.4,0.8-0.6,1.3-0.7c0.4-0.3,1-0.2,1.3,0.2c0.3,0.2,0.5,0.5,0.5,0.8c0.1,0.6,0.2,1.1,0.2,1.7V41l0,0c0,0.8-0.2,1.7-0.2,2.7
		v1.7c0,0.3-0.1,0.7-0.2,1c-0.2,0.2-0.3,0.5-0.5,0.7c-0.4,0.3-1,0.5-1.5,0.5c-0.5-0.1-1-0.2-1.5-0.3c-0.3-0.2-0.5-0.5-0.7-0.8
		c0-0.2-0.2-0.3-0.2-0.7v-0.7c-0.2-1.2-0.5-2.4-1-3.5c-0.5-1-0.7-1.5-1-1.5s-0.2,0.5-0.2,1.2v4.5c0.1,0.4-0.1,0.9-0.3,1.2
		c-0.3,0.5-0.9,0.9-1.5,1c-0.5,0.2-1,0.3-1.5,0.2c-0.3-0.2-0.5-0.4-0.7-0.7c0-0.2-0.2-0.3-0.2-0.5s0-0.2-0.2-0.3
		C180.7,43.1,181,39.5,181.5,36z"/>
	<path d="M204.5,41.5V43c0,0.2,0.1,0.5,0.2,0.7v0.5c0.3,0.7,0.2,1.4-0.2,2v0.4c0,0.2-0.2,0.2-0.2,0.3c-0.1,0.3-0.4,0.4-0.7,0.5
		c-0.3,0.2-0.7,0.2-1,0c-0.3-0.2-0.7-0.2-0.8-0.5l-0.2-0.2h-2.8c-1.4-0.1-2.7-0.7-3.7-1.7c-1-0.8-1.6-2-1.7-3.3
		c-0.1-0.6-0.1-1.1,0-1.7v-2c0-0.2,0.1-0.4,0.2-0.5c0.1-0.4,0.2-0.9,0.3-1.3c0.5-1.1,1.1-2,2-2.8c1.3-1,2.9-1.5,4.6-1.5
		c0.7-0.1,1.5,0,2.2,0.3c0.6,0.1,1.2,0.5,1.5,1c0.4,0.4,0.5,1,0.5,1.5c0,0.7,0,1.2-0.3,1.5c-0.2,0.3-0.5,0.5-0.8,0.7
		c-0.1,0-0.2,0.1-0.3,0.2h-1.2c-0.3-0.1-0.5-0.2-0.8-0.3c-0.5-0.2-1.1-0.3-1.7-0.3c-0.6,0.2-1.1,0.5-1.5,1c-0.4,0.5-0.7,1.1-0.8,1.7
		c-0.2,0.6-0.2,1.2,0,1.8c0.2,0.6,0.5,1.2,1,1.7c0.4,0.3,0.8,0.5,1.3,0.5h1.4c0.4-0.1,0.9-0.2,1.3-0.3v-1.1c0-0.3,0-0.5-0.2-0.5
		h-0.3c-0.1,0-0.2,0.1-0.2,0.2h-0.4c-0.2,0.2-0.4,0.2-0.7,0.2h-0.7c-0.3,0-0.5-0.2-0.8-0.5c-0.2-0.2-0.3-0.5-0.3-0.8l0,0v-0.5
		c0-0.3,0-0.5,0.2-0.7c0.2-0.2,0.5-0.3,0.8-0.3c0.9-0.1,1.9-0.1,2.8,0c0.7-0.1,1.5,0,2.2,0.2c0.3,0,0.5,0.1,0.7,0.3
		c0.2,0.2,0.2,0.5,0.2,0.8v0.7C204.5,41,204.5,41.2,204.5,41.5z"/>
	<path d="M216.3,47.6c-0.5,0.2-1,0.4-1.5,0.5c-0.2,0-0.4,0.1-0.5,0.2h-0.4c-1.3,0.2-2.7,0.2-4-0.2c-1.3-0.2-2.5-0.9-3.2-2
		c0-0.1-0.1-0.2-0.2-0.2v-0.5c0-0.3,0-0.7,0.2-1c0.3-0.3,0.8-0.5,1.3-0.5c0.6,0,1.2,0.1,1.8,0.3l0.5,0.2l0.5,0.2
		c0.2,0.1,0.5,0.2,0.8,0.2c0.7,0.2,1,0.2,1.2,0c0.3-0.2,0.6-0.5,0.8-0.8c0.2-0.3,0.2-0.7,0.2-1c-0.2-0.2-0.4-0.4-0.7-0.5
		c-0.6-0.1-1.1-0.2-1.7-0.2c-0.3,0-0.8-0.2-1.3-0.2h-0.9c-0.4,0-0.9-0.1-1.3-0.2c-0.5,0.1-0.9-0.1-1.2-0.5c-0.5-0.5-0.8-1.3-0.8-2
		v-1.5l0,0c0.2-1.3,0.8-2.4,1.8-3.3c0.3-0.4,0.7-0.7,1.2-0.8c0.1-0.1,0.3-0.2,0.5-0.3h0.2c1.1-0.6,2.4-0.9,3.7-0.8
		c1.2,0.1,2.4,0.6,3.3,1.5c0.5,0.6,0.9,1.3,1.2,2c0.2,0.8,0.2,1.5-0.2,1.8c-0.2,0.3-0.7,0.3-1.2,0.3c-0.4,0-0.9-0.1-1.3-0.3
		c-0.3-0.1-0.6-0.4-0.8-0.7L214,37l-0.2-0.2l-0.2-0.2c-0.1-0.2-0.3-0.5-0.5-0.7c-0.2-0.2-0.4-0.3-0.7-0.3c-0.3,0-0.7,0-1,0.2
		c-0.3,0.2-0.6,0.4-0.8,0.7c-0.4,0.4-0.6,1-0.7,1.5c-0.1,0.5,0,0.9,0.3,1.3c0.3,0.2,0.6,0.3,1,0.3h2.3c0.2,0,0.3,0,0.3,0.2
		c0.3,0.1,0.7,0.2,1,0.3c0.9,0.3,1.6,0.8,2.2,1.5l0,0l0.2,0.2c0.2,0.2,0.2,0.3,0.3,0.7c0.3,0.5,0.5,1.2,0.5,1.8l0,0v0.5
		c0,0.3,0,0.7-0.2,1C218.3,46.3,217.5,47.1,216.3,47.6z"/>
	<path d="M228.8,36.2c0.3,1.5,0.8,2.9,1.5,4.3c0.3,0.6,0.5,1.1,0.7,1.7c0.2,0.2,0.2,0.5,0.3,0.7l0.2,0.3l0.2,0.3
		c0.4,0.6,0.7,1.3,0.8,2c0.2,0.5,0.1,1-0.3,1.3c-0.4,0.5-1,0.8-1.7,0.8c-0.6,0.2-1.3,0.1-1.8-0.3c-0.5-0.5-0.8-1-1-1.7
		c-0.1-0.3-0.2-0.7-0.3-1v-0.7c0-0.4-0.1-0.7-0.3-1c-0.4-0.4-1-0.5-1.5-0.5c-0.5-0.1-1.1,0.2-1.3,0.7c-0.2,0.2-0.2,0.5-0.2,1.3
		c-0.2,1.8-0.2,2.8-0.3,3.2c-0.2,0.5-0.7,0.8-1.2,1c-0.5,0.2-1,0.3-1.5,0.3c-0.4-0.1-0.9-0.2-1.3-0.3c-0.4-0.2-0.8-0.4-1-0.8
		c0-0.2-0.2-0.3-0.2-0.5v-0.4l0,0c0.4-2.5,1.1-4.9,2-7.3c0.5-1,0.8-2,1.2-3c0-0.2,0.2-0.3,0.2-0.7c0-0.2,0.2-0.3,0.2-0.5
		c0.2-0.5,0.2-0.7,0.3-0.8c0.1-0.4,0.3-0.8,0.5-1.2c0.2-0.3,0.5-0.5,0.8-0.7c0.5-0.2,1.1-0.3,1.7-0.2c1.3,0.1,2.4,1,2.8,2.2
		c0.2,0.3,0.3,0.6,0.3,1C228.6,35.9,228.7,36.1,228.8,36.2L228.8,36.2L228.8,36.2z M226.3,40.3c0.2-0.2,0.2-0.5,0.2-1.2
		c0-0.7-0.2-1.4-0.5-2c0-0.1-0.1-0.2-0.2-0.2l0,0v-0.4c0-0.2-0.2-0.2-0.2-0.3s-0.2-0.3-0.2-0.3c-0.2-0.2-0.5,0-0.7,0.3
		c-0.2,0.5-0.4,1-0.5,1.5c-0.1,0.6-0.2,1.1-0.3,1.7c0,0.5,0,0.8,0.2,1s0.5,0.2,1,0.2C225.6,40.5,226,40.4,226.3,40.3z"/>
	<path d="M250.3,33.5c0.2,0.4,0.2,0.9,0,1.3c-0.2,0.9-0.6,1.7-1,2.5c-0.2,0.4-0.4,0.8-0.5,1.2l-0.5,1.2c-0.3,0.8-0.6,1.6-1,2.3
		c-0.6,1.6-1.4,3.2-2.5,4.6l-0.2,0.2l-0.2,0.2c-0.2,0.2-0.3,0.3-0.3,0.5c-0.3,0.3-0.6,0.5-1,0.5c-0.3-0.1-0.7-0.2-1-0.3l-0.7-0.7
		c-0.4-0.7-0.7-1.5-0.8-2.3c0-0.3,0-0.5-0.2-0.7v-0.6c-0.1-0.4-0.2-0.8-0.3-1.2c-0.2,0.2-0.2,0.5-0.3,1c0,0.2-0.2,0.3-0.2,0.7
		l-0.2,0.3l-0.2,0.3c-0.3,0.8-0.6,1.6-1,2.3L238,47l-0.2,0.2c-0.2,0.2-0.3,0.3-0.3,0.5c-0.3,0.3-0.6,0.5-1,0.5
		c-0.3-0.1-0.7-0.2-1-0.3l-0.7-0.7c-0.8-1.2-1.4-2.4-1.8-3.8c-0.2-0.7-0.3-1.5-0.5-2.3c0-0.3-0.2-0.8-0.2-1.3v-0.6
		c0-0.3-0.2-0.5-0.2-0.7c-0.3-1.3-0.6-2.7-0.7-4c0-0.8,0-1.3,0.3-1.5c0.5-0.3,1.2-0.5,1.8-0.5c0.7,0,1.3,0.3,1.8,0.8
		c0.3,0.4,0.5,0.8,0.5,1.3V37c0,1.3,0.2,2.6,0.5,3.8c0.2,1.2,0.5,1.8,0.7,1.8c0.2-0.4,0.3-0.8,0.3-1.2v-0.5c0-0.3,0-0.5,0.2-0.7
		c0.1-0.4,0.2-0.9,0.3-1.3c0.7-2.3,1.7-3.5,3.3-3.5c0.7,0,1.4,0.5,1.5,1.2c0.4,0.8,0.6,1.6,0.7,2.5c0,0.3,0.2,0.8,0.2,1.3v1.3
		c0,0.4,0.1,0.8,0.2,1.2c0.2,0,0.5-0.7,0.8-2.2c0.3-1.5,0.5-3,0.7-4.5v-2.1c0-0.4,0.2-0.9,0.5-1.2c0.4-0.2,0.8-0.3,1.2-0.3
		c0.4,0,0.9,0,1.3,0.2c0.6-0.5,1.4-0.4,1.9,0.2C250.2,33.2,250.3,33.3,250.3,33.5z M235.2,46.2L235.2,46.2z"/>
	<path d="M259.8,36.2c0.3,1.5,0.8,2.9,1.5,4.3c0.3,0.6,0.5,1.1,0.7,1.7c0.2,0.2,0.2,0.5,0.3,0.7l0.2,0.3l0.2,0.3
		c0.4,0.6,0.7,1.3,0.8,2c0.2,0.5,0.1,1-0.3,1.3c-0.4,0.5-1,0.8-1.7,0.8c-0.6,0.2-1.3,0.1-1.8-0.3c-0.5-0.5-0.8-1-1-1.7
		c-0.1-0.3-0.2-0.7-0.3-1v-0.7c0-0.4-0.1-0.7-0.3-1c-0.4-0.4-1-0.5-1.5-0.5c-0.5-0.1-1.1,0.2-1.3,0.7c-0.2,0.2-0.2,0.5-0.2,1.3
		c-0.2,1.8-0.2,2.8-0.3,3.2c-0.2,0.5-0.7,0.8-1.2,1c-0.5,0.2-1,0.3-1.5,0.3c-0.4-0.1-0.9-0.2-1.3-0.3c-0.4-0.2-0.8-0.4-1-0.8
		c0-0.2-0.2-0.3-0.2-0.5v-0.4l0,0c0.4-2.5,1.1-4.9,2-7.3c0.5-1,0.8-2,1.2-3c0-0.2,0.2-0.3,0.2-0.7c0-0.2,0.2-0.3,0.2-0.5
		c0.2-0.5,0.2-0.7,0.3-0.8c0.1-0.4,0.3-0.8,0.5-1.2c0.2-0.3,0.5-0.5,0.8-0.7c0.5-0.2,1.1-0.3,1.7-0.2c1.3,0.1,2.4,1,2.8,2.2
		c0.2,0.3,0.3,0.6,0.3,1C259.6,35.9,259.7,36.1,259.8,36.2L259.8,36.2L259.8,36.2z M257.3,40.3c0.2-0.2,0.2-0.5,0.2-1.2
		c0-0.7-0.2-1.4-0.5-2c0-0.1-0.1-0.2-0.2-0.2l0,0v-0.4c0-0.2-0.2-0.2-0.2-0.3s-0.2-0.3-0.2-0.3c-0.2-0.2-0.5,0-0.7,0.3
		c-0.2,0.5-0.4,1-0.5,1.5c-0.1,0.6-0.2,1.1-0.3,1.7c0,0.5,0,0.8,0.2,1s0.5,0.2,1,0.2C256.6,40.6,257,40.5,257.3,40.3z"/>
	<path d="M264.6,36c0.1-0.6,0.2-1.2,0.3-1.8c0.2-0.3,0.3-0.7,0.7-0.8c0.7-0.2,1.4-0.2,2,0.2c0.7,0.3,1.4,0.7,2,1.2
		c0.5,0.5,0.9,1.1,1.2,1.7c0.3,0.5,0.5,1.1,0.5,1.7c0,0.2,0.2,0.5,0.2,0.7v0.7c0,0.2,0.1,0.4,0.2,0.5l0,0V35c0-0.4,0.1-0.8,0.3-1.2
		c0.3-0.4,0.8-0.6,1.3-0.7c0.4-0.3,1-0.2,1.3,0.2c0.3,0.2,0.5,0.5,0.5,0.8c0.1,0.6,0.2,1.1,0.2,1.7V41l0,0c0,0.8-0.2,1.7-0.2,2.7
		v1.7c0,0.3-0.1,0.7-0.2,1c-0.2,0.2-0.3,0.5-0.5,0.7c-0.4,0.3-1,0.5-1.5,0.5c-0.5-0.1-1-0.2-1.5-0.3c-0.3-0.2-0.5-0.5-0.7-0.8
		c0-0.2-0.2-0.3-0.2-0.7v-0.7c-0.2-1.2-0.5-2.4-1-3.5c-0.5-1-0.7-1.5-1-1.5s-0.2,0.5-0.2,1.2v4.5c0.1,0.4-0.1,0.9-0.3,1.2
		c-0.3,0.5-0.9,0.9-1.5,1c-0.5,0.2-1,0.3-1.5,0.2c-0.3-0.2-0.5-0.4-0.7-0.7c0-0.2-0.2-0.3-0.2-0.5s0-0.2-0.2-0.3
		C263.9,43.1,264.2,39.5,264.6,36z"/>
	<path d="M287.7,41.5V43c0,0.2,0.1,0.5,0.2,0.7v0.5c0.3,0.7,0.2,1.4-0.2,2v0.4c0,0.2-0.2,0.2-0.2,0.3c-0.1,0.3-0.4,0.4-0.7,0.5
		c-0.3,0.2-0.7,0.2-1,0c-0.3-0.2-0.7-0.2-0.8-0.5l-0.2-0.2H282c-1.4-0.1-2.7-0.7-3.7-1.7c-1-0.8-1.6-2-1.7-3.3
		c-0.1-0.6-0.1-1.1,0-1.7v-2c0-0.2,0.1-0.4,0.2-0.5c0.1-0.4,0.2-0.9,0.3-1.3c0.5-1.1,1.1-2,2-2.8c1.3-1,2.9-1.5,4.6-1.5
		c0.7-0.1,1.5,0,2.2,0.3c0.6,0.1,1.2,0.5,1.5,1c0.4,0.4,0.5,1,0.5,1.5c0,0.7,0,1.2-0.3,1.5c-0.2,0.3-0.5,0.5-0.8,0.7
		c-0.1,0-0.2,0.1-0.3,0.2h-1.2c-0.3-0.1-0.5-0.2-0.8-0.3c-0.5-0.2-1.1-0.3-1.7-0.3c-0.6,0.2-1.1,0.5-1.5,1c-0.4,0.5-0.7,1.1-0.8,1.7
		c-0.2,0.6-0.2,1.2,0,1.8c0.2,0.6,0.5,1.2,1,1.7c0.4,0.3,0.8,0.5,1.3,0.5h1.4c0.4-0.1,0.9-0.2,1.3-0.3v-1.1c0-0.3,0-0.5-0.2-0.5H285
		c-0.1,0-0.2,0.1-0.2,0.2v0h-0.4c-0.2,0.2-0.4,0.2-0.7,0.2H283c-0.3,0-0.5-0.2-0.8-0.5c-0.2-0.2-0.3-0.5-0.3-0.8l0,0v-0.5
		c0-0.3,0-0.5,0.2-0.7c0.2-0.2,0.5-0.3,0.8-0.3c0.9-0.1,1.9-0.1,2.8,0c0.7-0.1,1.5,0,2.2,0.2c0.3,0,0.5,0.1,0.7,0.3
		c0.2,0.2,0.2,0.5,0.2,0.8v0.7C287.7,41,287.7,41.2,287.7,41.5z"/>
</g>
</svg>
