<?xml version="1.0" encoding="utf-8"?>
<!-- Generator: Adobe Illustrator 22.1.0, SVG Export Plug-In . SVG Version: 6.00 Build 0)  -->
<svg version="1.1" id="Layer_1" xmlns="http://www.w3.org/2000/svg" xmlns:xlink="http://www.w3.org/1999/xlink" x="0px" y="0px"
	 viewBox="0 0 1058.9 971.5" style="enable-background:new 0 0 1058.9 971.5;" xml:space="preserve">
<style type="text/css">
	.st0{fill:#FDADBF;}
	.st1{fill:#B6CA00;}
	.st2{fill:#9DB500;}
	.st3{fill:#FFFFFF;}
	.st4{fill:#C6BCBA;}
	.st5{fill:#FFD450;}
	.st6{fill:#FB4C71;}
	.st7{fill:#976D30;}
	.st8{fill:#804D02;}
	.st9{fill:#FDDCCC;}
	.st10{fill:#F78E7C;}
	.st11{fill:#584B00;}
	.st12{fill:#F9D1C1;}
	.st13{fill:#EEBEAE;}
	.st14{fill:#FC6988;}
	.st15{fill:#FC94AB;}
</style>
<title>ct</title>
<g>
	<path class="st0" d="M272.4,54.7c-72,0.8-152,5.7-202.5,71c-57.2,73.8-58.4,205-16.8,289.9c66.2,135.1,199.2,156.1,312.6,170.9
		c116.8,15.3,233.9,13.1,350.5-3c89.8-12.4,178.2-19.7,224.9-139.8c12.3-31.7,17.4-67,22.4-101.8c10.4-73.3,10.7-149.6-38.4-202.2
		c-76.2-81.5-210.2-69-303.8-75.9C505,55.3,388.7,53.4,272.4,54.7z"/>
	<path class="st1" d="M923.6,381.4c-9-13.9-16.5-28.8-22.3-44.4c-14.8-40.3-17.3-85.3-4.9-126.4c3.4-11.3,8.2-22.8,17.1-30.6
		c8.2-7.3,24.3-11.7,34.9-13.6c8.7-1.6,17.7-2.3,26.4-0.4c13,2.8,24.3,11.3,32.5,21.8c8.2,10.5,13.6,22.8,18.1,35.3
		c14.8,41.6,19.8,86.1,14.7,130c-1.8,17.1-6.1,35-15.2,49.8c-8.8,14.4-23.7,26.5-36.5,37.2c-1.6,1.3-3.4,2.8-5.6,2.9
		c-2.4,0.1-4.6-1.5-6.5-3C955.7,423.2,938,403.5,923.6,381.4z"/>
	<path class="st2" d="M947,186.5c2.6,61.3,7.1,122.4,13.6,183.4c0.4,3.6,6.1,3.7,5.7,0c-6.5-61-11-122.1-13.6-183.4
		C952.6,182.9,946.8,182.8,947,186.5L947,186.5z"/>
	<path class="st2" d="M952,222.5c-14.5,19.9-27.2,40.9-38.1,63c-1.6,3.3,3.3,6.2,5,2.9c10.8-22.1,23.6-43.1,38.1-63
		C959.1,222.4,954.2,219.6,952,222.5z"/>
	<path class="st2" d="M953,286.6l-11.3,28.9l-5.6,14.4l-2.4,6.2c-0.5,1.3-1.8,7.1-3,7.7l3.5,0.4l0.5,1.2l-2.1,2.8l0.4-0.1
		c3.6-0.9,2.1-6.4-1.5-5.5l-0.4,0.1c-1.2,0.4-2.1,1.5-2.1,2.8c-0.1,1.1,0.3,2.1,1.1,2.8c0.9,0.9,2.3,1.1,3.5,0.4
		c3-1.6,3.7-6.1,4.9-9l6.9-17.6l13.3-34C959.9,284.7,954.3,283.2,953,286.6L953,286.6z"/>
	<path class="st2" d="M953.5,287c16.7,15.2,34,29.6,52.1,43.1c2.9,2.2,5.8-2.8,2.9-5c-17.6-13.3-34.6-27.3-50.9-42.2
		C954.8,280.5,950.8,284.5,953.5,287L953.5,287z"/>
	<path class="st2" d="M947.8,221.4c21.7,19.3,42.9,39.3,63.6,59.8c2.6,2.6,6.7-1.4,4.1-4c-20.7-20.5-41.8-40.4-63.6-59.8
		C949.2,214.9,945.1,218.9,947.8,221.4z"/>
	<path class="st1" d="M696.4,30.8c15.7-5.5,31.9-9.2,48.4-11.2c42.6-4.9,87,3.3,124.1,25c10.2,6,20.2,13.3,25.7,23.8
		c5.1,9.6,5.6,26.4,5,37.1c-0.5,8.8-1.9,17.8-5.8,25.7c-5.8,12-16.7,20.9-28.8,26.4c-12.1,5.5-25.4,7.9-38.6,9.3
		c-43.9,4.6-88.4-1-129.8-16.3c-16.2-5.8-32.6-14.2-44.9-26.4c-11.9-12-20.2-29.2-27.5-44.3c-0.9-1.9-1.9-4-1.5-6.1
		c0.4-2.4,2.5-4.1,4.5-5.6C648.2,52.2,671.5,39.6,696.4,30.8z"/>
	<path class="st2" d="M880.4,99.5c-60.4-12-121.1-22-182.2-30.1c-3.6-0.5-3.6,5.3,0,5.7c60.5,8,120.7,17.9,180.7,29.9
		C882.5,105.7,884,100.2,880.4,99.5L880.4,99.5z"/>
	<path class="st2" d="M844.1,95.9c-15.9-18.8-33.3-36.1-52.2-51.8c-2.8-2.3-6.9,1.7-4,4c18.9,15.7,36.4,33.1,52.3,51.8
		C842.5,102.8,846.5,98.7,844.1,95.9L844.1,95.9z"/>
	<path class="st2" d="M781.6,81.7L756.2,64l-12.7-8.9l-5.4-3.8c-1.1-0.8-6.5-3.5-6.8-4.7l-1.3,3.2l-1.3,0.2l-2.1-2.8v0.4
		c0,3.7,5.7,3.7,5.7,0v-0.4c0-1.3-0.9-2.4-2.1-2.8c-1-0.4-2.2-0.2-3.1,0.4c-1.1,0.7-1.6,2-1.3,3.2c0.8,3.3,5,5.1,7.6,6.9l15.4,10.8
		l30,21C781.8,88.8,784.7,83.9,781.6,81.7L781.6,81.7z"/>
	<path class="st2" d="M781.1,82.1c-18.7,12.6-36.7,26.1-54.1,40.4c-2.9,2.3,1.2,6.4,4,4c17-14,34.7-27.2,53-39.5
		C787,85,784.2,80,781.1,82.1z"/>
	<path class="st2" d="M846.2,92.1c-23.9,16.6-48.3,32.5-73.1,47.7c-3.1,1.9-0.3,6.9,2.9,5c24.8-15.2,49.1-31.2,73-47.7
		C852.1,94.9,849.3,89.9,846.2,92.1z"/>
	<path class="st3" d="M949.1,134c-4.4,31.8-51.2,95.8-88.6,60.8c-12.4-11.6-14.7-31.5-8.1-47.1c11.2-26.6,57.6-45.6,84.6-36.2
		c3.7,1.3,7.4,3.2,9.7,6.3C950,122.3,949.9,128.4,949.1,134z"/>
	<path class="st4" d="M943.5,119.8c-21.2,12.5-42.8,24.3-64.7,35.4c-3.3,1.7-0.9,6.9,2.4,5.2c21.9-11.2,43.5-23,64.7-35.4
		C949.1,123.1,946.7,117.9,943.5,119.8z"/>
	<path class="st3" d="M950.1,120.4c31.9,3.1,97.9,47,64.6,85.9c-11,12.9-30.8,16.1-46.8,10.2c-27-10-48.1-55.5-39.8-82.9
		c1.1-3.8,2.8-7.5,5.9-10C938.3,120,944.5,119.9,950.1,120.4z"/>
	<path class="st4" d="M936.1,126.7c13.4,20.6,26.1,41.7,38.2,63.1c1.8,3.2,6.9,0.6,5.1-2.6c-12.1-21.4-24.8-42.4-38.2-63.1
		C939.2,121,934.1,123.6,936.1,126.7L936.1,126.7z"/>
	<path class="st3" d="M950.2,101.7c19.7-25.4,92.1-57.6,107.1-8.6c5,16.2-2.9,34.6-16.4,44.9c-22.9,17.5-72.7,11-91.4-10.6
		c-2.6-3-4.8-6.4-5.3-10.3C943.6,111.5,946.8,106.2,950.2,101.7z"/>
	<path class="st4" d="M948.1,116.9c24.6-0.3,49.2,0.2,73.7,1.4c3.7,0.2,4.2-5.5,0.5-5.7c-24.6-1.2-49.1-1.7-73.7-1.4
		C944.9,111.2,944.4,116.9,948.1,116.9z"/>
	<path class="st3" d="M928.9,111.2C914.5,82.5,916.5,3.3,967.2,10.7c16.8,2.5,30,17.6,33.5,34.1c5.9,28.2-21.4,70.3-48.9,77.9
		c-3.8,1-7.9,1.6-11.6,0.4C934.9,121.3,931.4,116.2,928.9,111.2z"/>
	<path class="st4" d="M941.6,119.6c10.3-22.3,21.3-44.3,33-66c1.7-3.2-3.2-6.1-5-2.9c-11.7,21.7-22.7,43.6-33,66
		C935.2,120,940.1,123,941.6,119.6z"/>
	<path class="st3" d="M913.7,130.8c-31.9-3.1-97.9-47-64.6-85.9c11.1-12.9,30.8-16.1,46.8-10.2c27,10,48.1,55.5,39.8,82.9
		c-1.1,3.8-2.8,7.5-5.9,10C925.4,131.2,919.3,131.4,913.7,130.8z"/>
	<path class="st4" d="M927.6,124.5c-13.4-20.6-26.1-41.7-38.2-63.1c-1.8-3.2-6.9-0.6-5.1,2.6c12.1,21.4,24.8,42.4,38.2,63.1
		C924.5,130.2,929.6,127.6,927.6,124.5L927.6,124.5z"/>
	<circle class="st5" cx="939.5" cy="121.8" r="40.3"/>
	<path class="st6" d="M181.8,116.9c0.9,7.4-4.4,10.3-10.9,12.2c-7.2,1.7-11.8,1.3-20.8,3.9c-8.1,2.4-19.9,11.6-24,22.7
		c-11.6,31-5.5,62.9,35.8,60.4c5.2-0.2,10.9-3.9,16.8-5c6.5-1.5,13.8,0.7,15.3,5c2.2,6.3-3.1,11.6-9.2,15.3
		c-9.8,5.7-17.7,7.6-33,7.6c-13.3,0-23.6-4.8-31.2-9c-13.4-7.3-22.2-21-23.2-36.2c-3.5-49.8,21.6-72.2,36-79.2
		c5.5-2.8,12.7-4.6,19-5.5C163,107.9,180.7,106.2,181.8,116.9z"/>
	<path class="st6" d="M315.5,112.5c17,16.4,20.1,44.9,16.4,67.6c-3.1,18.8-5.2,25.6-12.9,36.9c-13.3,21.6-33.6,32.9-60.4,33.2
		c-19.9-0.2-31.4-10-39.7-22.7c-9.4-14.2-12.9-22.9-11.6-46c1.5-26.2,8.5-48.4,22-61.1c10.5-12.4,25.3-22,43.4-22.3
		C286.9,97.9,306.1,101.2,315.5,112.5z M233.7,193.5c1.3,12.2,15.1,29,24.9,32.5c16.6,5.7,30.8-6.1,36.7-15.3
		c7.9-11.8,11.1-29.9,11.6-44.5c-0.4-16.8-10.7-35.4-21.8-38.8c-6.4-2.3-13.3-3.3-20.1-2.8c-9.8,0.9-20.1,10.3-24,18.1
		C236.3,151.8,231.7,177.3,233.7,193.5z"/>
	<path class="st6" d="M430.7,167.7c0.9-15.7,1.1-23.6,2-38.2c0.4-7.2-1.1-17.7,1.1-23.3c0.9-2.8,4.8-7.6,9.8-8.5
		c4.6-0.9,10.5-0.4,12.4,2.6c4.2,5.5,1.1,24-0.2,32.3c-1.1,8.1-4.8,79.9-4.8,87.3c-0.2,8.1,0.7,19.2-3.1,24.9
		c-2.6,4.1-11.6,7.4-17.9,4.8c-3.1-1.3-5-5.5-7.6-10.9c-9.4-17.9-19.6-34-27.3-52.8c-3.3-7.2-12.4-21.4-16-34
		c-2.8,14-3.5,48-5.2,61.8c-0.7,9.8-1.7,28.2-6.5,33c-3.1,3.5-11.6,5-17,1.7c-7-4.4-1.5-24.2-0.9-33c1.7-30.8,6.1-55.6,8.1-88.4
		c0.6-9.2,1.3-22.9,4.8-26.6c2.4-2.6,10.9-5.2,16.6-3.3c5.9,2.2,8.7,12.2,12.6,21.6c7.2,16.8,12,28.6,19.4,45
		c3.5,7.9,11.8,27.7,16.8,34.9C429.7,192.2,430.5,172.5,430.7,167.7z"/>
	<path class="st6" d="M511.9,242.6c-4.4-5.7-2.4-21.6-1.7-30.6c0.7-10.9,1.3-28.1,1.3-38.4c-0.7-8.9,1.1-31.9-4.4-40.4
		c-3.7-3.9-28.6,2.4-36.4-4.2c-2.2-1.7-4.6-9.8-2.2-14.8c3.7-7.9,37.5-6.8,49.3-5.7c10.9,0.9,34.3-0.9,44.7-1.1
		c4.1-0.4,12.9,1.3,13.8,6.1c0.9,5.9-2.4,12-6.1,14c-6.1,3.1-24.2,0.7-29.2,5.5c-5.7,5-3.5,21.4-3.9,35.4
		c-1.1,28.1,1.3,55.2-4.1,73.5C530.2,250.7,516.3,251.1,511.9,242.6z"/>
	<path class="st6" d="M573.7,247c-6.8,7.4-19.2,2.4-20.1-3.7c-0.7-4.4,3.3-12.9,5.5-19.9c10.5-31.4,22-61.3,33.8-91.2
		c5.9-15.1,8.5-37.3,23.8-38.4c12-1.1,11.3,7.6,12.7,21c3.7,33.8,11.8,60.4,16.6,91c1.5,9.8,5.5,25.3,7.2,35.6
		c-0.4,6.8-10,10.9-15.3,10.7c-13.1-1.5-9.4-37.8-17-48.9c-9.2,1.3-23.3,2.2-31.4,5.5C586.8,218.4,579.1,238.2,573.7,247z
		 M609,146.8c-3.7,7-10.1,27.5-11.3,38c5,1.5,16.6-0.7,19.4-3.3c0.2-8.7-3.1-29.9-6.1-34.7H609z"/>
	<path class="st6" d="M742.4,116.9c0.9,7.4-4.4,10.3-10.9,12.2c-7.2,1.7-11.8,1.3-20.8,3.9c-8.1,2.4-19.9,11.6-24,22.7
		c-11.6,31-5.5,62.9,35.8,60.4c5.2-0.2,10.9-3.9,16.8-5c6.5-1.5,13.7,0.7,15.3,5c2.2,6.3-3.1,11.6-9.2,15.3
		c-9.8,5.7-17.7,7.6-32.9,7.6c-13.3,0-23.6-4.8-31.2-9c-13.4-7.3-22.2-21-23.2-36.2c-3.5-49.8,21.6-72.2,36-79.2
		c5.5-2.8,12.7-4.6,19.1-5.5C723.6,107.9,741.3,106.2,742.4,116.9z"/>
	<path class="st6" d="M808.5,242.6c-4.4-5.7-2.4-21.6-1.7-30.6c0.7-10.9,1.3-28.1,1.3-38.4c-0.7-8.9,1.1-31.9-4.4-40.4
		c-3.7-3.9-28.6,2.4-36.4-4.2c-2.2-1.7-4.6-9.8-2.2-14.8c3.7-7.9,37.5-6.8,49.3-5.7c10.9,0.9,34.3-0.9,44.7-1.1
		c4.1-0.4,12.9,1.3,13.8,6.1c0.9,5.9-2.4,12-6.1,14c-6.1,3.1-24.2,0.7-29.2,5.5c-5.7,5-3.5,21.4-3.9,35.4
		c-1.1,28.1,1.3,55.2-4.1,73.5C826.8,250.7,812.8,251.1,808.5,242.6z"/>
	<path class="st6" d="M660.5,393.2c-6.8,17.6-10.8,26.4-19.6,43.6c-6.8,13.9-11.5,35.9-27.1,35.9c-13.5-1.3-21.7-22-26.7-37.9
		c-9.5-17.9-24.7-53.5-31.8-71.1c-1,11.5-2,43.3-4.7,55.8c-2.7,12.2-4.7,24.7-7.1,37.5c-9.5,49.1-7.1,62.3-31.8,59.9
		c-16.6-1.3-16.6-17.9-13.5-37.5c7.4-45,14.2-84.6,21.6-131c1-19.6,7.8-50.8,16.2-62.9c5.4-6.1,19.3-8.5,28.1-3
		c5.4,3.4,11.5,21,14.9,29.4c8.5,22,12.9,36.5,20.3,58.5c3,9.5,8.8,30.1,14.5,38.9c5.8-8.5,14.5-30.8,17.6-41.3
		c8.8-23.3,15.6-38.2,24.4-60.2c4.4-9.1,10.5-23.7,16.6-30.1c6.8-7.4,25-12.5,31.8-1.3c3,4.7,6.8,24.7,7.1,31.8
		c3.4,37.9,6.8,63.6,8.8,103.2c1.4,19.6,2.4,42,4.1,62.3c1.3,13.2,5.4,28.7,0,41.6c-3,7.8-24,8.5-31.1,3.7
		c-5.8-4.4-8.8-20.3-9.8-45.3c-0.7-12.5-1.4-25-2-36.5c-1-25.7-0.7-61.2-3.1-79.5C673.4,365.5,665.2,383.4,660.5,393.2z"/>
	<path class="st6" d="M782.6,469.4c16.2,0.7,29.4-0.7,43.3-2c9.5-1,32.5-7.8,41.6-4.7c5.8,1.7,11.5,12.5,7.5,24.7
		c-5.4,16.9-25,17.3-43,17.6c-20.6,0-40.9,1.3-60.6,2.7c-24.7,2-25.7-6.8-26.4-31.1c-0.3-11.5,1.3-32.8,2.4-46.3
		c1-21.7,3.1-52.8,5.4-88.6c0.3-18.3,0.3-38.2,7.8-46.3c8.5-9.5,31.8-10.8,53.8-10.8c26.7,0.3,50.8,1,52.8,14.5
		c0.7,12.2-0.7,20.6-13.9,21.3c-3.7,0.3-8.5,0.3-14.2,0.3c-15.9,0.3-36.9,0.7-44,5.4c-4.1,2.7-4.7,8.8-5.4,16.6
		c-1,8.5-5.8,32.1,1,38.9c2.7,2.4,5.8,3.1,9.8,3.1c9.8,0,23.3-5.1,33.2-5.1c6.4,0,11.8,3.1,13.9,10.2c2.4,13.5-5.8,20.3-14.2,23
		c-3.7,0.7-9.1,1.3-14.9,2c-11.5,1.3-26.4,2.7-32.8,7.4c-4.1,4.4-4.4,13.2-4.4,22.7c0,7.1,0,15.2,0.7,21c0,1.4,0.3,2.4,0.3,3.4
		L782.6,469.4z"/>
	<path class="st7" d="M191.9,300.1c-55.1,41.7-62.5,122.7-67.6,193.7c-4.8,67.3-7.6,135.2-15.6,202c-0.1,1.1-0.2,2.3,0.4,3.1
		c0.5,0.5,1.1,0.8,1.7,0.9c6.6,1.7,13.5,5.8,18.2,0.3c4.6-5.4,6.8-21.6,9.6-28.8c1.1,11,2.1,21.9,3.2,32.9c0.6,6.3,21,3.5,25.4,3.1
		c-1.9,0.2,8.8-34.1,7.7-36.9c2.2,9.6,4.9,19.2,7.4,28.7c75.8,3.5,151.7-0.8,226.6-12.8c1.1-14.4,3.3-28.8,6.4-43l9.8,40.2
		c-0.2-0.8,25.1,0.2,27.8,1.9c-1.9-56-2.7-112.1-2.4-168.3c0.3-50.1,1.1-96.9-17.4-143.9c-19.6-49.9-60.1-87.5-105.9-100.7
		C281.6,259.4,231.4,270.3,191.9,300.1z"/>
	<path class="st8" d="M440.2,683.7l12.8,1.7c0,0,12.6-272.6-19.7-312.1C433.3,373.3,454.8,400.4,440.2,683.7z"/>
	<polygon class="st8" points="409,686.3 415.3,643.4 393.3,688.7 	"/>
	<polygon class="st8" points="119.2,702.4 129.3,704.8 138.7,671.3 	"/>
	<polygon class="st8" points="161.8,707.9 171.2,706.4 175,670.5 	"/>
	<path class="st9" d="M162.7,515.4c4.8,31.8,14.3,63,35.5,88C225,635,269.7,650.3,310,640c32.6-8.3,69.2-27,83.5-58.7
		c14.2-31.5,19.5-67.4,20.2-101.7c0.8-40,3.3-87.7-33.5-111.3c-52.8-33.9-111.7-38.4-168.1-9.5c-5.9,3-11.6,6.4-16.6,10.8
		c-4.9,4.4-8.8,9.7-12.5,15.2C156.6,423.8,155.9,470.2,162.7,515.4z"/>
	<ellipse class="st10" cx="370.2" cy="533.3" rx="23.2" ry="17.3"/>
	<ellipse class="st10" cx="196" cy="529.8" rx="23.2" ry="17.3"/>
	<path class="st11" d="M289.7,497.2l-4.2,27.5c-0.4,2.5,3.4,3.5,3.8,1l4.2-27.5C293.8,495.7,290.1,494.7,289.7,497.2z"/>
	<path class="st9" d="M233,697c-2.5,2.3-5.3,4.4-8.2,6c-11.6,6.6-25.1,8.9-38.3,11c-26.4,4.1-56.6,10-69.5,33.4
		c-1.6,2.9-2.8,6.5-1,9.3c1.4,2.3,4.3,3,6.9,3.6c54.2,12.3,109.5,21,165.1,23.2c55.5,2.3,107.3-5.4,161.5-15.1
		c-5.1-12.2-10.9-25.1-22.3-31.9c-4.9-2.9-10.4-4.4-15.9-5.9l-62.2-16.7c-9.2-2.5-24.4-6.2-28.6-16.1c-3.7-8.7,2-21.8,1.5-31
		c-0.7-12.1-6.3-23.6-6.3-36c0-1.3-0.3-2.6-1-3.8c-0.8-1.2-2.3-1.7-3.6-2.2c-10.1-3.8-20.5-7.6-31.2-7.6
		c-19.8-0.1-28.5,10.9-29.7,28.9C249,664.9,246.7,684.2,233,697z"/>
	<path class="st12" d="M287.9,678c0,19.3-11.1,44.5,11.1,54.6c15.8,7.1,33.5,8.2,50.8,8.9c14.1,0.5,28.3,0.9,42.4,1
		c2.3,0,5.3-0.5,5.6-2.8c0.3-1.7-1.2-3.1-2.5-4.1c-11.5-8.6-25.8-12.3-39.4-16.9s-32.4-11.3-33.6-26.8c-0.4-4.7-0.3-55.4-5.8-55.1
		c-12,0.8-23.8,3.6-36,4c-7.6,0.2-19.9-0.3-26.3-4.2c-3,11.8,20.5,17.3,27.7,22.6c1.4,0.9,2.6,2.1,3.6,3.4c0.9,1.6,1.5,3.5,1.7,5.3
		C287.7,671.3,287.9,674.6,287.9,678z"/>
	<path class="st10" d="M247.5,550.6H323c0,0,1.1,49-37.8,49S247.5,550.6,247.5,550.6z"/>
	<path class="st13" d="M314.8,468.8c4,0.2,8,0,12-0.5c0.8,0,1.5-0.4,2.1-1c0.3-0.5,0.4-1.1,0.4-1.7c0.2-3.9,1.1-7.7,1.9-11.5
		c1.6-8,2.8-16.1,3.4-24.2c-0.8,10.8,4.4,22.3,4.4,33.3c0,1.7,0.2,3.4,0.7,5c0.1,0.3,0.2,0.7,0.5,0.9c0.2,0.1,0.5,0.2,0.8,0.3
		c5.5,0.8,67.6,2.6,67.5,3.7c-0.7,26.8-1.5,54.2-10.9,79.3c-5.4,14.5-14.2,27.4-23.2,40c-8.1,11.3-14.1,23.1-25.1,32.3
		c19.4-10.8,36.6-23.5,48.7-42.6c16.7-26.2,21.1-58.1,24.8-88.9c1.9-16.1,3.7-32.8-1-48.4c-4.6-14.9-25-26.4-38.6-31.5
		c-9.5-3.6-20.2-5.2-27.7-12c-5.5-5-8.7-12.2-14.8-16.4c-6.1-4.2-13.8-4.5-21-3.5C308,383.1,297.1,388,286,392
		c-16.2,5.7-33,9.2-50.1,10.5c-10.9,0.8-21.9,0.7-32.6,2.9c-11.8,2.5-23.4,8.3-29.5,19.1c-4.2,7.4-8.9,21.2-1.4,28.1
		c8.3,7.7,30.1,6.2,40.8,7.4c15.7,1.8,31.5,3.4,47.2,4.7c11.4,1,22.9,1.8,34.3,2.5C301.3,467.5,308.1,468.5,314.8,468.8z"/>
	<ellipse class="st11" cx="339.6" cy="502.2" rx="13.8" ry="19.1"/>
	<ellipse class="st11" cx="236.7" cy="502.2" rx="13.8" ry="19.1"/>
	<path class="st11" d="M349.3,492.3l8.9-6.6c1.6-1.2,0-4-1.6-2.8l-8.9,6.6C346.1,490.7,347.7,493.5,349.3,492.3L349.3,492.3z"/>
	<path class="st11" d="M343.8,489.2c2.5-3.4,5.4-6.5,8.7-9.2c1.6-1.3-0.7-3.5-2.3-2.3c-3.5,2.9-6.6,6.2-9.2,9.8
		C339.8,489.2,342.6,490.8,343.8,489.2L343.8,489.2z"/>
	<path class="st11" d="M219.6,485c2.7,4.5,5.6,8.9,8.8,13.1c1.2,1.6,4,0,2.8-1.6c-3.2-4.2-6.2-8.6-8.9-13.1
		C221.3,481.7,218.5,483.3,219.6,485L219.6,485z"/>
	<path class="st11" d="M226,478.7c1.7,4.3,3.7,8.4,5.9,12.4c1,1.8,3.8,0.2,2.8-1.6c-2.1-3.8-4-7.6-5.6-11.7
		C228.3,476,225.2,476.8,226,478.7L226,478.7z"/>
	<path class="st12" d="M265.6,603.4c12.5,4.6,26.3,4.2,38.5-1.1c1.9-0.8,0.3-3.6-1.6-2.8c-11.5,4.8-24.4,5.1-36,0.7
		C264.5,599.6,263.7,602.7,265.6,603.4L265.6,603.4z"/>
	<path class="st7" d="M168.4,325.4c-8.7,10.5-15.5,22.4-20,35.3c-10.3,29.8,1.5,58.6-2.2,89.3c-0.5,3.9,52.8,5.8,56.8,6
		c20.8,1,41.7,2.1,62.5,2.6c9,0.2,17.9,1.1,26.9,1.5c5.9,0.2,11.7,0.5,17.6,0.3c2.9-0.1,12,1.1,13.8-0.3c0.4-0.4,0.6-1,0.6-1.5
		c1.4-9.5,3.3-18.9,4.6-28.5c0.9-6.5,7.5-21.3,5.6-27.5c5.7,19.3,9.5,40.3,10,60.4c27.4,4,55.6,7.9,82.4,0.8c1-5.4,3.1-9.9,3.4-15.4
		c0.3-6,0.6-12.1,0.7-18.1c0.3-13-0.7-26.1-3-38.9c-4.4-24.4-13.8-48.1-29.1-67.7c-19.5-24.9-47.4-38.1-78.1-43.4
		c-40.7-7.1-84.4-3.5-120,17.5C188.6,304.9,177.6,314.3,168.4,325.4z"/>
	<path class="st8" d="M361.7,465.2c0,0,1.2-30.6-3.7-57.7c0,0,16.6,31.9,15.4,59L361.7,465.2z"/>
	<path class="st8" d="M396.3,467.2c0,0-2.6-30.5-10.9-56.8c0,0,20.5,29.5,22.6,56.6L396.3,467.2z"/>
	<path class="st8" d="M160.3,453.5l11.7,0.4c0,0,5.2-44.4,13.2-54C185.3,399.9,167.2,419.4,160.3,453.5z"/>
	<path class="st8" d="M194.2,456.2l11.7,0.4c0,0,7-46.1,10.2-59.9C216.1,396.7,201,422.1,194.2,456.2z"/>
	<path class="st8" d="M414.1,466.3l13-2.6c0,0-1.3-62.9-22.7-96.3c0,0,27.3,26.7,32,100.2L414.1,466.3z"/>
	<path class="st0" d="M102.8,786.5C99.5,801,96,818.3,89,831.6c-5.4,10.3-14.7,17.9-16.7,30c20.9-8.6,43.1,11.6,65.7,10.9
		c21.7-0.7,40.2-20.5,61.7-18.1c14,1.5,25.6,12.3,39.6,13.8c16.6,1.8,31.7-9.7,48.3-11.4c25.4-2.6,51.2,18,75,8.6
		c12.2-4.8,21-16.9,33.8-19.6c13.6-2.9,26.6,5.4,38.8,12c12.2,6.5,28.4,11.2,39,2.3c-11.3-19.7-13-39.4-16.3-61.1
		c-1.8-11.9-4.1-23.8-7.8-35.3c-1.2-3.6-6.6-26.1-12.6-20.5c-0.6,0.7-1.2,1.4-1.6,2.2c-6.4,9.8-20,9.8-30.1,11.4
		c-31.5,4.9-63.1,9.9-94.9,9.6c-39.4-0.4-78.2-8.7-116.7-17.1l-36.6-7.9c-7.3-1.6-15.6-2.5-22.6-5.1c-5.2-1.9-10.9-8.1-16.8-5.5
		c-4,1.7-5.6,6.8-6.2,11.3C110.3,756.7,106.1,771.9,102.8,786.5z"/>
	<path class="st14" d="M195,726.5c0.9,5.4,0.6,10.9,0.8,16.3c0.1,2.1,0.2,4.3,1.4,6c1.5,2.1,4,2.9,6.5,3.7l11.1,3.4
		c1-11,1.3-22,0.8-33c-0.1-3.1-0.3-6.2-1.6-9c-0.8-1.7-6.3-8.6-8.6-8.2l-18.9,3.9C189.9,713.3,194.2,721.6,195,726.5z"/>
	<path class="st14" d="M197.3,720.5c5.3-5.2-3.2-14.3-7.8-16.2c-4.9-2-10.9-2.4-15.7-0.1c-3.5,1.6-9.2,4.4-9.5,8.7
		c-0.3,4.3,4.2,7.4,8.4,8.5c5.4,1.5,11.1,1.4,16.6,1.3C192.1,722.7,195.3,722.5,197.3,720.5z"/>
	<path class="st14" d="M179.3,729c-2.6,6-4.6,12.5-9,17.2c-5.9,6.2-15,8-22.9,11.5c-0.6,0.3-1.3,0.6-1.4,1.3c0,0.6,0.3,1.1,0.7,1.4
		c3.1,3.3,6.8,6,10.9,8.1c0.7,0.4,1.5,0.6,2.3,0.5c0.7-0.2,1.3-0.6,1.8-1.1c3.7-3.1,8.8-3.6,13.1-5.9c5.8-3.1,9.4-9,12.8-14.6
		l8.7-14.7c1.9-3.2,3.9-6.7,3.9-10.4C200.2,704.1,182.1,722.6,179.3,729z"/>
	<path class="st14" d="M195.8,719.4c-3.3-11.4,3.3-24.8,14.4-28.9c1.6-0.7,3.3-0.9,5-0.8c4.8,0.6,7.6,5.9,7.8,10.7
		c0.5,11.2-9.7,21.6-20.9,21.4c-2.6-0.1-6.1-2.3-4.5-4.5"/>
	<path class="st14" d="M228.6,723.9c3.5,6.8,5.6,14.1,8.1,21.4c1.1,3.3,2.4,6.7,4.6,9.4c2.2,2.7,5.6,4.8,9.1,4.5
		c-5.2,5.4-12.2,8.7-19.6,9.1l-13.2-37.5c-2.6-7.5-6.1-10-11.4-15.2c-2.8-2.8-7.5-4.6-2.3-9.2C212.5,699.1,225.5,717.8,228.6,723.9z
		"/>
	<path class="st6" d="M192.8,709.5c-2.3,2.6-4.5,5.5-4.2,9.1c0.3,3.1,2.4,6.2,4.6,8.2c4.6,4.2,12.9,4.1,17.6,0.2s5.4-11,0.7-15.2
		c-4-3.6-13-6.4-17.8-3.1c-1.7,1.2-0.1,3.9,1.6,2.8c3.3-2.3,9.4-0.4,12.5,1.6c4.2,2.5,5,7.6,1.4,11.1c-3.1,3-8.8,3.3-12.6,1.2
		c-2.3-1.4-3.9-3.6-4.7-6.2c-0.8-3,1.3-5.4,3.1-7.5C196.3,710.3,194.1,708,192.8,709.5L192.8,709.5z"/>
	<path class="st6" d="M207.1,711.7l6.3-6.8c1.4-1.5-0.9-3.8-2.3-2.3l-6.3,6.8C203.5,711,205.7,713.3,207.1,711.7L207.1,711.7z"/>
	<path class="st6" d="M179.4,714c3.4,1.2,6.8,2.3,10.3,3.1c2,0.5,2.9-2.6,0.9-3.1c-3.5-0.8-7-1.8-10.3-3.1
		C178.3,710.2,177.5,713.3,179.4,714z"/>
	<path class="st6" d="M191.6,724.2c-2.7,3.5-5.2,7.1-7.6,10.8c-1.1,1.7,1.7,3.3,2.8,1.6c2.2-3.5,4.6-6.9,7.1-10.2
		C195.1,724.9,192.9,722.6,191.6,724.2L191.6,724.2z"/>
	<path class="st6" d="M214.8,721.7c5.3-0.4,8.6,7,10.4,11c0.8,1.9,3.6,0.2,2.8-1.6c-2.3-5.1-6.5-13.2-13.1-12.6
		C212.7,718.6,212.7,721.8,214.8,721.7L214.8,721.7z"/>
	<path class="st6" d="M200.5,729.4l-1.7,8.8c-0.4,2,2.7,2.9,3.1,0.8l1.7-8.8C203.9,728.2,200.8,727.4,200.5,729.4z"/>
	<path class="st6" d="M206.5,728.6l1.6,8.8c0.4,2,3.4,1.2,3.1-0.9l-1.6-8.8C209.2,725.7,206.1,726.5,206.5,728.6L206.5,728.6z"/>
	<path class="st14" d="M360.6,738.4c-0.9,5.5-1.8,10.9-2.7,16.4c-0.7,3.7-1.1,7.4-1.1,11.2c4.3,0.1,8.5,0.1,12.7,0
		c0.8,0.1,1.6-0.1,2.3-0.6c0.5-0.4,0.8-1,1.1-1.6c5.4-11.9,9.3-24.6,11.4-37.5c0.2-1.2,0.4-2.5-0.3-3.6c-0.6-0.8-1.4-1.4-2.3-1.8
		C365.6,712.6,362.9,724.3,360.6,738.4z"/>
	<path class="st14" d="M355.2,725c8.1,6,22.2,5.8,23.5-5.3c1.2-11.1-12.5-21.3-22.5-16.1c-4.6,2.6-7.1,7.6-6.5,12.8
		C350.1,719.9,352.3,722.8,355.2,725z"/>
	<path class="st14" d="M384.1,702.3c-8.4,5.5-13.3,18.8-3.3,23.8c10,5.1,24.4-4.2,23-15.4c-0.8-5.2-4.6-9.4-9.7-10.6
		C390.6,699.3,387.1,700.3,384.1,702.3z"/>
	<path class="st14" d="M388.3,742.8c1.3,3.3,2.8,6.5,4.6,9.6c0.9,1.6,2.1,3.1,3.5,4.3c1.2,0.9,2.6,1.6,4.1,2.1c4.2,1.3,8.8,1.3,13,0
		c1.3-0.4,9.7-5.7,10-5.6c-2.8-1.6-2.2-5.6-3.1-8.7c-0.1-0.5-0.4-0.9-0.8-1.2c-0.5-0.2-1.1-0.1-1.6,0.2c-4.5,1.6-9.5,1.1-13.6-1.2
		c-3.4-2-6-5.2-8.4-8.3c-2.5-3.1-5-6.3-8.3-8.4c-5.4-3.3-10.9-2.7-6.5,3.1C384.4,733.1,386.3,737.9,388.3,742.8z"/>
	<path class="st14" d="M365.9,723.1c-0.4,0-0.9,0-1.3,0.1c-4.8,1-10.4,8.6-14.1,11.7c-6.3,5.2-13.6,8.9-20.8,12.7
		c3.5,5.4,7.9,10.3,12.9,14.4c-0.5-0.4,25.8-28.4,28.9-30.4c1-0.5,1.9-1.3,2.5-2.4c0.7-1.6-0.2-3.4-1.6-4.4
		c-1.5-0.9-3.1-1.4-4.8-1.5C367,723.2,366.4,723.2,365.9,723.1z"/>
	<path class="st6" d="M386,714.9c-5.4-9.4-26.1-4.9-22.1,7.3c1.9,5.9,8.9,8.8,14.7,7.5c5.8-1.3,9.4-7.1,8.1-12.9
		C386.5,716.1,386.3,715.5,386,714.9c-0.8-1.9-3.6-0.3-2.8,1.6c4.7,10.9-15.2,14.5-16.6,3.6c-1-8,13.3-9.4,16.6-3.6
		C384.2,718.3,387,716.7,386,714.9z"/>
	<path class="st6" d="M386.7,718.7c2.3-2.1,4.9-3.9,7.7-5.4c1.8-1,0.2-3.7-1.6-2.8c-3,1.6-5.8,3.6-8.4,5.9
		C383,717.8,385.2,720.1,386.7,718.7L386.7,718.7z"/>
	<path class="st6" d="M365.6,715.8c-1.8-2-3.8-3.7-6-5.1c-1.7-1.1-3.3,1.6-1.6,2.8c2,1.3,3.8,2.9,5.4,4.6
		C364.7,719.6,367,717.3,365.6,715.8L365.6,715.8z"/>
	<path class="st6" d="M365.8,724.4l-10.7,8.1c-1.6,1.2,0,4,1.6,2.8l10.7-8.1C369.1,725.9,367.5,723.1,365.8,724.4L365.8,724.4z"/>
	<path class="st6" d="M381.9,726.8c3.9,2.8,7.1,6.5,9.3,10.8c1,1.8,3.7,0.2,2.8-1.6c-2.5-4.7-6.1-8.8-10.5-11.9
		C381.8,722.8,380.2,725.6,381.9,726.8L381.9,726.8z"/>
	<path class="st6" d="M370.1,728.8c-1.5,2.7-2.8,5.5-3.6,8.5c-0.6,2,2.5,2.8,3.1,0.8c0.8-2.7,1.9-5.3,3.3-7.7
		C373.8,728.7,371.1,727.1,370.1,728.8L370.1,728.8z"/>
	<path class="st6" d="M375.9,730.2l-0.6,8.1c-0.2,2,3,2,3.2,0l0.6-8.1C379.3,728.1,376.1,728.1,375.9,730.2z"/>
	<path class="st15" d="M120.5,776.5c-6.4,15.7-10.8,32-13.2,48.8c-0.3,2,2.8,2.9,3.1,0.8c2.3-16.8,6.7-33.1,13.2-48.8
		C124.4,775.5,121.3,774.6,120.5,776.5L120.5,776.5z"/>
	<path class="st15" d="M172.7,789.8l-3.9,10.8c-0.7,1.9,2.4,2.8,3.1,0.9l3.9-10.8C176.5,788.7,173.3,787.9,172.7,789.8L172.7,789.8z
		"/>
	<path class="st15" d="M149.3,825.1l-3.2,16.6c-0.4,2,2.7,2.9,3.1,0.8l3.2-16.6C152.7,824,149.7,823.1,149.3,825.1L149.3,825.1z"/>
	<path class="st15" d="M353.4,797.1c-0.5,5.7-0.2,11.5,0.8,17.1c0.4,2,3.4,1.2,3.1-0.8c-0.9-5.4-1.2-10.8-0.7-16.3
		C356.7,795.1,353.5,795.1,353.4,797.1z"/>
	<path class="st15" d="M388.6,818.2l2.9,17.7c0.3,2,3.4,1.2,3.1-0.9l-2.9-17.7C391.4,815.3,388.3,816.2,388.6,818.2L388.6,818.2z"/>
	<path class="st15" d="M429.2,802.6c1.9,9.7,3.9,19.3,6.1,28.9c1.7,7.5,2.7,16.3,8.7,21.8c1.5,1.4,3.8-0.9,2.3-2.3
		c-6-5.4-6.7-15.3-8.4-22.8c-2-8.8-3.8-17.6-5.6-26.5C431.8,799.7,428.7,800.6,429.2,802.6L429.2,802.6z"/>
	<path class="st15" d="M240.6,783l-2.9,13.8c-0.4,2,2.7,2.9,3.1,0.8l2.9-13.7C244.1,781.8,241,781,240.6,783z"/>
</g>
</svg>
