<?xml version="1.0" encoding="utf-8"?>
<!-- Generator: Adobe Illustrator 22.1.0, SVG Export Plug-In . SVG Version: 6.00 Build 0)  -->
<svg version="1.1" id="Layer_1" xmlns="http://www.w3.org/2000/svg" xmlns:xlink="http://www.w3.org/1999/xlink" x="0px" y="0px"
	 viewBox="0 0 1112.4 871" style="enable-background:new 0 0 1112.4 871;" xml:space="preserve">
<style type="text/css">
	.st0{fill:#FF9E9B;}
	.st1{fill:#3D8763;}
	.st2{fill:#FFB81B;}
	.st3{fill:#2D6849;}
	.st4{opacity:0.49;fill:#73A9CA;enable-background:new    ;}
	.st5{opacity:0.52;fill:#FDFEFF;enable-background:new    ;}
</style>
<title>Asset 74</title>
<rect y="0" class="st0" width="1112" height="730.8"/>
<rect x="358.9" y="108.6" class="st1" width="389.8" height="621.9"/>
<circle class="st2" cx="680.3" cy="505.5" r="28.8"/>
<polygon class="st3" points="422.2,590 684.5,590 696.8,619.2 407.1,619.2 "/>
<polygon class="st3" points="422.2,629.6 684.5,629.6 696.8,658.8 407.1,658.8 "/>
<polygon class="st3" points="422.2,669.2 684.5,669.2 696.8,698.5 407.1,698.5 "/>
<rect x="457.1" y="207.7" class="st3" width="83.1" height="122.7"/>
<rect x="560.9" y="207.7" class="st3" width="83" height="122.7"/>
<rect x="457.1" y="354" class="st3" width="83.1" height="122.7"/>
<rect x="560.9" y="354" class="st3" width="83" height="122.7"/>
<rect y="330.4" class="st4" width="1112.4" height="540.6"/>
<g>
	<circle class="st5" cx="112.4" cy="716.6" r="16.4"/>
	<circle class="st5" cx="112.4" cy="534.3" r="32.7"/>
	<circle class="st5" cx="846.4" cy="716.6" r="32.7"/>
	<circle class="st5" cx="1000.1" cy="493.1" r="16.4"/>
	<circle class="st5" cx="270" cy="683.9" r="16.4"/>
	<circle class="st5" cx="358.9" cy="419.6" r="16.4"/>
	<circle class="st5" cx="756.8" cy="476.7" r="47.7"/>
</g>
</svg>
