<svg xmlns="http://www.w3.org/2000/svg" viewBox="0 0 408.5 204.24"><defs><style>.cls-1{fill:#3d8763;}.cls-2{fill:#285e42;}.cls-3{fill:#8bf4ff;}.cls-4{fill:#fff;}</style></defs><title>Asset 17</title><g id="Layer_2" data-name="Layer 2"><g id="_2" data-name="2"><path class="cls-1" d="M-9.63,50.49H242.3a0,0,0,0,1,0,0v56.12a73.49,73.49,0,0,1-73.49,73.49H65a74.6,74.6,0,0,1-74.6-74.6v-55A0,0,0,0,1-9.63,50.49Z" transform="translate(63.06 -39.59) rotate(26.28)"/><ellipse class="cls-2" cx="144.85" cy="57.55" rx="15.8" ry="125.96" transform="translate(29.12 161.95) rotate(-63.72)"/><path class="cls-3" d="M56.84,26s85.45,21.67,158.45,79.41C215.29,105.41,123.72,71.37,56.84,26Z"/><path class="cls-3" d="M141.75,59.16s66.55,26.89,99.55-.11,69-39,76-7,8,21,45,14,55,15,42,34-58-4-79,10,53,9.62,48,31c-7,30-41.34-2.28-96-17-52-14-62-19-62-19"/><path class="cls-4" d="M264.3,56.05a40.1,40.1,0,0,1,23-14c15-3,24,1,20,13s-24-1-35,11S257.3,62.05,264.3,56.05Z"/><path class="cls-4" d="M352.3,77.05s29-13,42,0-23,0-39,9S345.3,80.05,352.3,77.05Z"/><path class="cls-4" d="M339.3,126.05s32,6,26,15-17-9-28-8S328.3,123.05,339.3,126.05Z"/></g></g></svg>