<?xml version="1.0" encoding="utf-8"?>
<!-- Generator: Adobe Illustrator 22.1.0, SVG Export Plug-In . SVG Version: 6.00 Build 0)  -->
<svg version="1.1" id="Layer_1" xmlns="http://www.w3.org/2000/svg" xmlns:xlink="http://www.w3.org/1999/xlink" x="0px" y="0px"
	 viewBox="0 0 342.4 197.4" style="enable-background:new 0 0 342.4 197.4;" xml:space="preserve">
<style type="text/css">
	.st0{fill:#F7CB20;}
	.st1{fill:#FFF349;}
	.st2{fill:none;}
	.st3{enable-background:new    ;}
	.st4{fill:#C6A405;}
</style>
<title>Asset 89</title>
<g id="Layer_2_1_">
	<g id="Layer_4">
		<path class="st0" d="M98.7,0h145c54.5,0,98.7,44.2,98.7,98.7l0,0c0,54.5-44.2,98.7-98.7,98.7h-145C44.2,197.3,0,153.2,0,98.7l0,0
			C0,44.2,44.2,0,98.7,0z"/>
		<path class="st1" d="M102.6,1h137.2c46.3,0,83.9,37.6,83.9,83.9l0,0c0,46.3-37.6,83.9-83.9,83.9H102.6
			c-46.3,0-83.9-37.6-83.9-83.9l0,0C18.7,38.6,56.2,1,102.6,1z"/>
	</g>
</g>
<rect x="28" y="60.2" class="st2" width="299" height="58.7"/>
<g class="st3">
	<path class="st4" d="M63.4,108c0,1.2-0.4,2.2-1.3,2.8c-0.8,0.6-1.8,1-2.8,1c-1,0-1.9-0.3-2.8-1c-0.8-0.6-1.3-1.6-1.3-2.8V86.4
		c0-3-0.5-5.3-1.6-7c-1.1-1.6-3-2.4-5.8-2.4c-1,0-2,0.2-3,0.7c-1,0.5-2,1.1-2.8,2c-0.9,0.9-1.6,1.8-2.1,3c-0.5,1.1-0.8,2.4-0.8,3.8
		V108c0,1.2-0.4,2.2-1.3,2.8c-0.8,0.6-1.8,1-2.8,1c-1,0-1.9-0.3-2.8-1c-0.9-0.6-1.3-1.6-1.3-2.8V73.2c0-1.2,0.4-2.1,1.3-2.8
		c0.9-0.6,1.9-1,3.1-1c1.1,0,2.1,0.3,3,1c0.9,0.6,1.3,1.6,1.3,2.8v1.2c1.1-1.4,2.5-2.5,4.3-3.2c1.8-0.7,3.6-1.1,5.3-1.1
		c1.8,0,3.6,0.3,5.3,0.8c1.7,0.6,3.2,1.5,4.6,2.7c1.3,1.2,2.4,2.9,3.1,4.9c0.8,2,1.2,4.5,1.2,7.4V108z"/>
	<path class="st4" d="M74.2,62.3c0,1.1-0.3,2-1,2.7c-0.7,0.7-1.7,1.1-3,1.1H50.6c-1.9,0-3.4-0.6-4.6-1.7c-1.1-1.1-1.7-2.4-1.7-4
		c0-1.5,0.6-2.9,1.7-4c1.1-1.1,2.7-1.7,4.6-1.7c1.4,0,2.6,0.3,3.7,1c1,0.7,1.8,1.5,2.1,2.5h13.7c1.3,0,2.4,0.4,3,1.3
		C73.8,60.5,74.2,61.4,74.2,62.3z"/>
	<path class="st4" d="M70.4,46.8c0,1-0.3,1.8-1,2.4c-0.6,0.7-1.5,1-2.7,1h-12c-1.1,0-2-0.3-2.6-1c-0.6-0.7-1-1.5-1-2.4v-2h-1.4
		c-1.2,0-2.1-0.3-2.7-1c-0.6-0.7-0.9-1.5-0.9-2.4c0-0.9,0.3-1.7,0.9-2.4c0.6-0.7,1.5-1.1,2.8-1.1h5.2c2.8,0,4.2,1.2,4.2,3.7v1.7h7.6
		c1.2,0,2.1,0.4,2.7,1.1C70.1,45.2,70.4,46,70.4,46.8z"/>
	<path class="st4" d="M100.2,90.8c0,6.5-1.5,11.7-4.5,15.4c-3,3.7-7.1,5.5-12.4,5.5H80c-1.8,0-3.4-0.3-4.7-0.9
		c-1.3-0.6-2.2-1.9-2.6-3.8l-5.5-21c-0.3-1.1-0.2-2,0.5-2.8c0.6-0.8,1.4-1.3,2.3-1.7c1.1-0.3,2.2-0.3,3.3,0.1
		c1.1,0.4,1.7,1.3,2.1,2.6l5.2,20.6h3.1c1.3,0,2.4-0.4,3.5-1.1c1.1-0.7,2-1.7,2.7-2.9c0.8-1.2,1.4-2.6,1.8-4.3
		c0.4-1.6,0.6-3.4,0.6-5.3c0-1.8-0.2-3.5-0.6-5s-1-3-1.7-4.1c-0.7-1.2-1.6-2.1-2.6-2.8c-1-0.7-2.1-1.1-3.4-1.1c-1,0-2,0.2-3.1,0.6
		c-1.1,0.4-1.9,0.6-2.6,0.6c-1.5,0-2.7-0.5-3.3-1.4c-0.7-0.9-0.9-2-0.8-3.2c0.1-1.2,1.1-2.3,2.9-3.3s3.9-1.5,6.3-1.5
		c2.3,0,4.5,0.4,6.5,1.2c2.1,0.8,3.9,2.1,5.4,3.8c1.5,1.7,2.8,3.9,3.7,6.5C99.7,84.1,100.2,87.2,100.2,90.8z"/>
	<path class="st4" d="M137.1,108c0,1.2-0.4,2.2-1.3,2.8c-0.8,0.6-1.8,1-2.8,1c-1,0-1.9-0.3-2.8-1c-0.8-0.6-1.3-1.6-1.3-2.8V94.8
		c0-3-0.5-5.3-1.6-7c-1.1-1.6-3-2.4-5.8-2.4c-1,0-2,0.2-3,0.5c-1,0.4-2,0.9-2.8,1.6s-1.6,1.6-2.1,2.6c-0.5,1.1-0.8,2.3-0.8,3.7V108
		c0,1.2-0.4,2.2-1.3,2.8c-0.8,0.6-1.8,1-2.8,1c-1,0-1.9-0.3-2.8-1c-0.9-0.6-1.3-1.6-1.3-2.8V73.4c0-1.2,0.4-2.1,1.3-2.8
		c0.9-0.6,1.8-1,2.8-1c1.2,0,2.2,0.3,3.2,1c1,0.6,1.4,1.6,1.4,3v8.2c1.3-1.2,2.8-2,4.6-2.5c1.7-0.5,3.4-0.8,5-0.8
		c-1.1-0.9-1.6-2-1.6-3.5c0-1.5,0.6-2.7,1.9-3.7c1.2-1,3.2-1.5,5.7-1.5s4.5,0.5,5.7,1.5c1.2,1,1.9,2.3,1.9,3.7
		c0,1.3-0.5,2.5-1.6,3.5c-1.1,1-2.7,1.6-4.8,1.8c2,1.1,3.7,2.8,5,5c1.3,2.3,2,5.3,2,9.1V108z"/>
	<path class="st4" d="M177,95.9c0,2.9-0.4,5.4-1.2,7.4c-0.8,2-1.8,3.7-3.1,5c-1.3,1.3-2.8,2.2-4.5,2.8c-1.7,0.6-3.5,0.9-5.4,0.9
		c-3.6,0-6.8-1.2-9.5-3.5c-0.5,0.9-1.3,1.7-2.4,2.3c-1.1,0.6-2.3,1-3.6,1c-1.8,0-3.4-0.6-4.7-1.7c-1.3-1.1-2-2.5-2-4
		c0-1.2,0.4-2.2,1.2-3.2c0.8-1,1.8-1.7,3-2.2V73.7c0-1.3,0.4-2.2,1.3-2.9c0.8-0.6,1.8-1,2.8-1c1,0,1.9,0.3,2.8,1
		c0.8,0.6,1.3,1.6,1.3,2.9v22.5c0,1.4,0.3,2.6,0.8,3.7c0.5,1,1.2,1.9,2.1,2.6c0.9,0.7,1.8,1.2,2.8,1.6s2,0.6,3,0.6
		c2.8,0,4.7-0.8,5.8-2.4c1.1-1.6,1.6-3.9,1.6-7V73.7c0-1.3,0.4-2.2,1.3-2.9c0.8-0.6,1.8-1,2.8-1c1,0,1.9,0.3,2.8,1
		c0.9,0.6,1.3,1.6,1.3,2.9V95.9z"/>
	<path class="st4" d="M215.4,107.8c0,1.3-0.4,2.2-1.3,2.9c-0.8,0.6-1.8,1-2.8,1s-1.9-0.3-2.8-1c-0.8-0.6-1.3-1.6-1.3-2.9V84.4
		c0-2.3-0.7-4.2-2.1-5.6c-1.4-1.4-3.4-2.1-6-2.1s-4.6,0.7-6,2.1c-1.4,1.4-2.1,3.3-2.1,5.6v18.9h2.5c1.3,0,2.4,0.4,3,1.1
		c0.7,0.7,1,1.7,1,2.7c0,1-0.3,1.8-1,2.7c-0.7,0.8-1.7,1.3-3,1.3h-5.3c-1.7,0-3.1-0.5-3.9-1.4c-0.9-0.9-1.3-2.1-1.3-3.6v-21
		c0-2.4,0.4-4.6,1.2-6.5c0.8-1.9,2-3.5,3.4-4.9c1.4-1.3,3.2-2.4,5.1-3.1s4.1-1.1,6.4-1.1c2.4,0,4.5,0.4,6.5,1.1s3.7,1.7,5.1,3.1
		c1.4,1.3,2.6,3,3.4,4.9c0.8,1.9,1.2,4.1,1.2,6.5V107.8z"/>
	<path class="st4" d="M230.5,108.3c0,1.3-0.4,2.2-1.3,2.9c-0.8,0.6-1.8,0.9-2.8,0.9c-1,0-1.9-0.3-2.8-0.9c-0.8-0.6-1.3-1.6-1.3-2.9
		V73.5c0-1.3,0.4-2.2,1.3-2.9c0.8-0.6,1.8-1,2.8-1c1,0,1.9,0.3,2.8,1c0.8,0.6,1.3,1.6,1.3,2.9V108.3z"/>
	<path class="st4" d="M268.9,107.8c0,1.3-0.4,2.4-1.3,3c-0.8,0.7-1.8,1-2.8,1c-1,0-1.9-0.3-2.8-1c-0.9-0.7-1.3-1.7-1.3-3V92.3
		c-1.3,0.7-3,1.1-4.9,1.3s-3.8,0.4-5.6,0.7c-1.7,0.3-3.1,0.9-4.3,1.8c-1.2,0.9-1.8,2.2-1.8,3.8c0,1.5,0.4,2.7,1.3,3.3
		c0.9,0.7,1.8,0.8,2.8,0.5c1.2-0.3,2.3-0.3,3.1,0.2c0.8,0.5,1.3,1.2,1.7,2c0.4,1.1,0.4,2.1-0.1,3.3c-0.4,1.1-1.4,1.9-2.8,2.3
		c-1.5,0.4-3.1,0.5-4.7,0.3c-1.7-0.2-3.3-0.8-4.7-1.8c-1.5-1-2.7-2.3-3.7-4s-1.5-3.8-1.5-6.2c0-2.1,0.4-3.9,1.1-5.4
		c0.8-1.5,1.7-2.8,2.9-3.8c1.2-1,2.5-1.8,4-2.4c1.5-0.6,3-1,4.5-1.2c1.1-0.2,2.3-0.3,3.7-0.5c1.4-0.2,2.7-0.4,4-0.7
		c1.2-0.3,2.3-0.8,3.2-1.4c0.9-0.6,1.3-1.5,1.3-2.5c0-1.3-0.7-2.4-2-3.2c-1.3-0.9-3-1.3-5-1.3c-1.7,0-3.3,0.4-4.7,1.1
		c-1.4,0.7-2.3,1.6-2.6,2.8c-0.3,1.5-1.1,2.4-2.2,2.8c-1.2,0.4-2.3,0.4-3.5-0.1c-0.9-0.3-1.6-0.9-2-1.8c-0.4-0.8-0.5-1.8-0.1-3
		c0.7-2.7,2.4-4.9,5-6.7c2.6-1.8,6.1-2.7,10.3-2.7c4.4,0,8.1,1.2,11,3.6c2.9,2.4,4.4,5.7,4.4,9.9V107.8z"/>
	<path class="st4" d="M306.2,96.7c0,2.4-0.4,4.6-1.2,6.5c-0.8,1.9-1.9,3.5-3.4,4.8c-1.4,1.3-3.1,2.4-5.1,3.1c-2,0.7-4.1,1.1-6.4,1.1
		c-2.3,0-4.5-0.4-6.5-1.1c-2.1-0.7-3.8-1.8-5.3-3.1c-1.5-1.3-2.6-2.9-3.4-4.8c-0.8-1.9-1.1-4-1-6.4c0.1-2.1,0.8-3.8,1.9-5.1
		c1.2-1.3,2.3-2.2,3.6-2.9c-1.5-0.7-2.8-1.9-3.9-3.5c-1.1-1.6-1.6-3.6-1.6-5.9c0-1.2,0.2-2.3,0.6-3.4c0.4-1.1,1-2.1,1.7-2.9
		c0.7-0.8,1.7-1.5,2.8-2c1.1-0.5,2.4-0.8,3.8-0.8c1.5,0,2.8,0.4,3.8,1.2c1,0.8,1.5,1.8,1.5,3c0,1.3-0.4,2.3-1.1,3s-1.7,0.9-2.9,0.8
		c-0.7-0.1-1.2,0.1-1.7,0.8c-0.4,0.7-0.6,1.4-0.4,2.2c0.1,0.9,0.6,1.7,1.4,2.4c0.8,0.7,1.8,1,2.8,1h1.9c1.5,0,2.6,0.4,3.2,1.3
		c0.6,0.9,0.9,1.7,0.9,2.7c0,1.1-0.4,2-1.1,2.8c-0.7,0.8-1.8,1.1-3.1,1.1c-0.7,0-1.4,0.1-2.1,0.3s-1.4,0.5-2,1
		c-0.6,0.4-1.1,1-1.5,1.7c-0.4,0.7-0.6,1.5-0.6,2.3c-0.1,2,0.6,3.7,2.1,5.2s3.5,2.2,6,2.2c2.5,0,4.5-0.7,5.9-2.1
		c1.4-1.4,2.1-3.3,2.1-5.7V73.8c0-1.3,0.4-2.2,1.3-2.9c0.9-0.6,1.8-1,2.8-1c1,0,1.9,0.3,2.8,1c0.8,0.6,1.3,1.6,1.3,2.9V96.7z"/>
</g>
</svg>
