<?xml version="1.0" encoding="utf-8"?>
<!-- Generator: Adobe Illustrator 22.1.0, SVG Export Plug-In . SVG Version: 6.00 Build 0)  -->
<svg version="1.1" id="Layer_1" xmlns="http://www.w3.org/2000/svg" xmlns:xlink="http://www.w3.org/1999/xlink" x="0px" y="0px"
	 viewBox="0 0 874.8 1010.2" style="enable-background:new 0 0 874.8 1010.2;" xml:space="preserve">
<style type="text/css">
	.st0{fill:#684C00;}
	.st1{fill:#FDDCCC;}
	.st2{fill:#FC6988;}
	.st3{fill:#FDADBF;}
	.st4{fill:#FC94AB;}
	.st5{fill:#976D30;}
	.st6{fill:#584B00;}
	.st7{fill:#F9D1C1;}
	.st8{fill:#EEBEAE;}
	.st9{fill:#F9AEA1;}
	.st10{fill:#804D02;}
	.st11{fill:#F78E7C;}
	.st12{fill:#FFFFFF;}
</style>
<path class="st0" d="M819.6,886H52.5C31.2,886,14,903.2,14,924.5v7.5c0,21.3,17.2,38.5,38.5,38.5h767.1c21.3,0,38.5-17.2,38.5-38.5
	v-7.5C858.1,903.2,840.9,886,819.6,886z"/>
<g>
	<path class="st1" d="M418,644.3c-3.5,23.3-26.5,38.5-48.8,45.9c-22.3,7.5-46.7,10.5-66.2,23.7c-19.6,13.2-31.7,34.8-43,55.6
		c-1.3,2.4-2.7,5-2.6,7.8c0.2,4.5,4.2,7.9,7.9,10.5c63,44.8,141.6,61.4,218.3,71.4c39.9,5.2,80.5,8.9,120.1,2.1
		c1.9-30.5,3.8-61.4-2.2-91.4c-6-30-21-59.4-46.4-76.3c-20.8-13.9-48.9-20.4-59.9-42.8"/>
	<g>
		<path class="st2" d="M513.8,788c0,0,6-56.3,24.9-91.3l29.1,7.4c0,0-23.5,55.3-23.7,95.4C544.1,799.4,518.7,811.6,513.8,788z"/>
		<path class="st2" d="M337.6,759.6c0,0,6-56.3,24.9-91.3l29.1,7.4c0,0-23.5,55.3-23.7,95.4C367.9,771,342.6,783.2,337.6,759.6z"/>
		<path class="st3" d="M224.5,780.2c-4.2,1.6-8.8,2.2-12.7,4.4c-15.7,8.9-20.6,27-29.5,41.4c-10,16-22.5,27.2-36.1,40
			c-8.8,8.4-15.3,22.6-7.9,32.3c7.1,9.3,21.2,7.5,32.8,5.6c68-11,135.7,8,202.5,18.2c27.4,4.2,56.6,14.5,84.1,13.7
			c32.4-1,63.6-13,96.2-10.9c12.6,0.8,25.1,3.7,37.7,5c12.9,1.3,51.7,3.8,59-9.4c6.4-11.6-7.6-30.6-9.9-41.9
			c-3.5-17.6-3.6-35.7-6.9-53.4c-1.4-7.9-4-16.2-10.3-21.1c-4.4-3.4-10.1-4.6-15.5-5.6c-52.1-9.4-106.1-7.6-157.1-21.8
			c-24.1-6.7-47.6-16.9-72.5-19c-10.5-0.9-21.3-0.4-31.3-3.7c-12.8-4.3-22.6-14.5-33.6-22.3C261.1,694.7,260,766.2,224.5,780.2z"/>
		<path class="st4" d="M285.9,786.1c7.9-7.8,16.8-14.4,26.6-19.8c3.4-1.9,0.4-7.1-3.1-5.3c-10.2,5.6-19.5,12.5-27.8,20.7
			C278.8,784.5,283.1,788.8,285.9,786.1L285.9,786.1z"/>
		<path class="st4" d="M339.1,788c3.7-4.9,7.3-9.9,11-14.8c2.3-3.1-2.9-6.2-5.3-3.1c-3.7,4.9-7.3,9.9-11,14.8
			C331.5,788.1,336.8,791.2,339.1,788L339.1,788z"/>
		<path class="st4" d="M468.1,805.6c-0.5,5.9-1,11.7-1.5,17.6c-0.3,3.9,5.8,3.9,6.1,0c0.5-5.9,1-11.7,1.5-17.6
			C474.5,801.7,468.4,801.8,468.1,805.6L468.1,805.6z"/>
		<path class="st4" d="M511.6,814.3c-1.2,7.5-1.8,14.9-1.8,22.5c0,3.9,6.1,3.9,6.1,0c0-7,0.5-13.9,1.6-20.8
			C518.1,812.1,512.2,810.5,511.6,814.3L511.6,814.3z"/>
		<path class="st4" d="M622.5,889.1c1.3,7.2,2.7,14.5,4,21.7c0.7,3.8,6.6,2.2,5.9-1.6c-1.3-7.2-2.7-14.5-4-21.7
			C627.7,883.7,621.8,885.3,622.5,889.1L622.5,889.1z"/>
		<path class="st4" d="M292.1,821.9c-2.1,16.6-8.3,32.1-17.9,45.7c-2.2,3.2,3,6.3,5.3,3.1c10.2-14.6,16.4-31.1,18.7-48.8
			C298.7,818,292.6,818,292.1,821.9L292.1,821.9z"/>
	</g>
	<path class="st5" d="M221.4,625.3c17.4,33.6,50.3,57.2,85.9,70c35.6,12.9,73.8,16,111.7,16.7c6.3-52.3,12.8-104.4,19.1-156.6
		c2.6-21,5.1-42.3,1.3-63c-3.2-17.8-10.8-34.6-19.4-50.5C409,421.2,396,401,377.4,386.8c-16.1-12.3-50.3-27.4-67.1-8.8
		c-14.7,16.4-12.2,56.6-16.9,77.5c-6.8,30.5-16.4,60.2-28.6,88.8C260.5,554.4,219,620.5,221.4,625.3z"/>
	<path class="st1" d="M350.7,592.2c1.6,0.3,3.2,0.5,4.8,0.7c13.5,1.7,27.7-0.6,40.3,4.5c23.5,9.5,27.2,39.1,25.4,60.9
		c-2.3,28.1-15.1,55.9-23.8,82.7c-1.1,3.3-2.2,7.1-0.7,10.2c1.3,2.9,4.4,4.6,7.3,6c17.2,8.3,35.3,14.7,53.8,19.2
		c13.2,3.2,27.5,5.2,39.7-0.4c10.2-4.8,17.7-14.4,21.9-24.8c6.2-14.7,7.1-31.2,7.9-47.1c1.7-32.5,0.9-64.8,1-97
		c0.2-31.9,24.4-66.3,38.7-93.8c20.8-38.5,19.7-88.6,8.8-130.9c-19.2-74.2-118.5-114.5-195.5-92.7C308.1,310.2,284.1,409.4,275,468
		c-2.9,19.2-4.5,39.1,0.5,58C285.4,563.3,314.6,586.1,350.7,592.2z"/>
	<g>
		<g>
			<path class="st6" d="M335,452.7c-4,7.9-8,15.7-12,23.6c-1.8,3.5,3.5,6.6,5.3,3.1c4-7.9,8-15.7,12-23.6
				C342,452.3,336.8,449.2,335,452.7L335,452.7z"/>
		</g>
	</g>
	<g>
		
			<ellipse transform="matrix(0.2596 -0.9657 0.9657 0.2596 -189.5034 608.4789)" class="st6" cx="302.1" cy="427.8" rx="18.1" ry="12.8"/>
		<g>
			<g>
				<path class="st6" d="M313.3,419.2c0.4-13.2-13.7-16.6-24-17.5c-3.9-0.3-3.9,5.8,0,6.1c6.9,0.6,18.3,2.1,18,11.4
					C307.1,423.1,313.2,423.1,313.3,419.2L313.3,419.2z"/>
			</g>
		</g>
	</g>
	<path class="st7" d="M425.6,672.3c-3.7,22.7-20.4,41.6-24.6,64.3c-0.5,2.8-0.8,5.7,0.1,8.4c1,3.1,3.5,5.5,6.1,7.5
		c11.2,8.6,25,12.8,38.6,16.7c13.7,4,27.7,8,41.9,6.8c14.2-1.2,28.7-8.7,34.2-21.9c0.3-0.8,0.6-1.7,0.6-2.5
		c-0.2-3.5-5.1-4.1-8.6-4.5c-12.7-1.4-21.4-14.3-23.1-26.9s2-25.3,4.5-37.8s3.9-26.1-1.9-37.5c-5.2-10.4-15.7-17.3-26.8-20.7
		c-6.9-2.2-37-9.9-40.9-5.5C418.3,627,427.4,660.8,425.6,672.3z"/>
	<path class="st8" d="M396.6,424.6c2.6,1,5.4,2.1,8.1,1.4c3.6-0.9,5.8-4.5,7.6-7.8c4.5-8.3,9.1-16.7,13.6-25
		c-0.1,14.9-1.1,29.9-3.1,44.7c16.8,3.1,33.6,6.3,50.4,9.4c17.9,3.3,8.9,61.6,7.1,73.3c-4.8,31.1-21.7,60.5-46.9,79.6
		c-5.2,3.9-11.3,10.9-7,15.8c1.3,1.5,3.3,2.2,5.1,2.8c10.5,3.5,21.6,6.3,30.4,13c21.1,16.1,10.4,41.7,2.1,61.4
		c-3.5,8.3-7.4,17-6.9,26c0.6,11.7,8.8,22,18.8,28c14.8,8.9,32.7,17.1,43.6-0.5c18.4-29.8,20.3-66.9,25.5-100.6
		c6.6-42.8,12.9-85.7,15.3-129c1.9-34.7-6.3-69.3-19.2-101.6c-18.2-45.7-48.9-90.4-95.2-107c-39.5-14.2-93.8-3.5-121.4,29.8
		C288.9,381.5,365.7,412.2,396.6,424.6z"/>
	<g>
		
			<ellipse transform="matrix(0.2596 -0.9657 0.9657 0.2596 -146.9674 711.5302)" class="st6" cx="390.6" cy="451.6" rx="18.1" ry="12.8"/>
		<g>
			<g>
				<path class="st6" d="M402.3,443.2c1.4-14.4-21.2-18.9-31.6-18.8c-3.9,0.1-3.9,6.1,0,6.1c7-0.1,26.5,2.5,25.5,12.7
					C395.8,447,401.9,447,402.3,443.2L402.3,443.2z"/>
			</g>
		</g>
	</g>
	<path class="st9" d="M425.8,508.3c18-3.7,24.4-26.4,3.6-30.2c-12-2.2-33.4-0.4-29.9,19.4C401.9,511.1,416.5,510.2,425.8,508.3z"/>
	<path class="st9" d="M273.5,479.3l4.6-31.8c0,0,20.8,11.4,11.8,25.3C280.9,486.8,273.5,479.3,273.5,479.3z"/>
	<g>
		<path class="st5" d="M298.5,270.9c-16.2,22.3-19.7,49.6-23,75.8c-0.5,4.4-1,9,1.1,12.9c1.6,3,4.6,5.4,7.6,7.6
			c31.5,23,71.5,40.1,109.7,53.5c2.2,0.7,4.5,1.5,6.8,1c3-0.7,4.8-3.5,6.1-6.1c8.5-16.2,17.1-32.5,25.7-48.7
			c0.9,20.8,1.7,41.7,2.4,62.6c26.3,4.3,51.5,4.4,78,7.2c3.5,0.4,7.6,0.6,10.5-1.2c2.1-1.3,3.2-3.5,4.1-5.6
			c22.4-47.1,23.9-103.5-6.7-147.1C476.1,218.6,349.5,200.8,298.5,270.9z"/>
		<path class="st5" d="M487.4,213c41.4,4.6,82.8,16.1,116,39.2c40.6,28.5,65.4,72.6,75.4,118.3c10,45.7,6.6,92.9-1.1,138.9
			c-5.6,33.5-13.4,66.9-12.9,100.6c0.6,32.5,9.1,64.9,24.8,94.3c1.5,2.7,2.9,5.5,2.8,8.4c-0.1,2.6-1.6,4.9-2.9,6.9
			c-8,12.5-17.8,24.7-31.5,32c-10,5.4-21.4,7.9-32.9,9.5c-55.4,7.8-114-5.1-159.2-35.2c43.1-76.5,57.2-166.1,39.5-250.6
			c-4.3-20.5-10.5-40.8-12.4-61.5c-3.2-33.7,4.8-68.5-4.5-101.3c-9.5-33.9-37.8-61.1-72.8-74.7c-25.5-9.9-26.3-15.1,3.4-22.5
			C440.8,209.9,464.6,210.4,487.4,213z"/>
		<path class="st10" d="M513.8,749.5c0,0,0.4-14.5,13.6-45.4c0,0,2.3,38.7,11.3,53L513.8,749.5z"/>
		<path class="st10" d="M552.1,759.8c0,0-4.8-48.2,2.7-79.5c0,0,6.8,53.7,15.6,82L552.1,759.8z"/>
		<path class="st10" d="M236,647.2c0,0,27.6-49.2,37.5-75.1c0,0-9.6,54.4-28.3,85.1L236,647.2z"/>
		<path class="st10" d="M275.1,680.1c0,0,19.3-36.1,24.7-65.5c0,0-0.6,53.7-12.4,72.2L275.1,680.1z"/>
		<path class="st10" d="M292.1,372.7c0,0,1.8-21.3,14.3-49c0,0-9,24.1-4.3,55.4L292.1,372.7z"/>
		<path class="st10" d="M325.6,392.2c0,0-5.5-13.3,3.3-52.2c0,0-11.6,25.7-13.6,46.7L325.6,392.2z"/>
		<path class="st10" d="M460.5,432.5c0,0,3.2-49.7,0-63.2l12.7,64.2L460.5,432.5z"/>
		<path class="st10" d="M657,312.6c0,0,51.4,70.9,12.9,240.6c-5.2,56.7-13,70.9,22.5,159.4l-17.7,26.1c0,0,1.1-4.3-17.7-62.8
			s3.1-112,7.7-156.5C669.3,474.8,683.8,389.4,657,312.6z"/>
	</g>
	<path class="st11" d="M307.2,487.2l48.9,10.8c0,0,1.9,62.8-40,52.6C290.1,544.2,307.2,487.2,307.2,487.2z"/>
	<g>
		<path class="st1" d="M578.3,641.5c1.4-9.5,4-18.6,9.8-23.6c10.1-8.7,27.1-2.4,34,8.9c7,11.4,6.8,25.6,6.5,38.9
			c-1.3,49.9-2.6,99.7-3.9,149.6c-0.5,19.2-1,38.5-2.7,57.6c-1.2,12.8-2.9,25.8-8.6,37.4c-5.7,11.5-16,21.4-28.7,23.6
			c-23.3,4-41.3-18.4-45.2-39c-4.1-21.4,6.1-47.7,9.1-69.3c4.3-30.3,9-60.5,14.1-90.6c3.9-23.1,8.2-46.1,12.6-69.1
			C576.5,659.4,576.9,650.3,578.3,641.5z"/>
		<path class="st1" d="M580.3,531.1c4.7-0.9,9.2-2.6,13.3-5.5c6.3-4.5,8.4-11.1,11.3-18c6.9-16.4,13.9-32.6,21.2-48.8
			c1.5-3.4,4.5-7.4,8-6.1c2.6,1,3.2,4.4,3.3,7.3c0.3,19.4-4.8,38.3-8.2,57.4c-0.7,4.1-1,9.1,2.4,11.4c2.7,1.8,6.3,1,9.5,1.3
			c6.3,0.6,11.8,6.4,11.9,12.8c-0.1-5.3,15.9,1.7,17.4,4.1c1.6,2.7,1.9,6.7,2.5,9.6c3.9-1.1,8.7-0.6,11.2,3
			c5.7,8.3-11.9,38.2-15.7,47c-6.4,14.7-20.9,31.1-36.2,36.9c-11.4,4.3-29.8,1-42.1,1c-3.8,0-7.8,0.9-11.4,1.4
			c1.3-0.2,1-21.2,0.6-23.4c-1.3-8.4-5.7-17-9.7-24.4c-4.1-7.4-7.2-15.8-9.7-23.8c-0.6-2.1-0.7-4.3-0.7-6.4c0-8.7,0.1-17.3,0.2-26
			c0.1-2.9,0.2-6.1,2.4-8.1c2.2-2.1,5.6-2,8.6-2C573.8,531.9,577.1,531.7,580.3,531.1z"/>
		<path class="st7" d="M607,554.9l-18.7,10.5c0,0,18.6,5.9,24,13.1c6.8,10.3,5.9,24.4,6.4,36.3c0,0.5,0.1,1,0.5,1.3
			c0.3,0.2,0.7,0,1.1-0.1c2.4-1.1,3.7-3.8,5.1-6c2.1-3.2,5-5.9,8.4-7.7c4.9-2.7,10.6-3.4,16-4.2c3.9-0.6,11-0.4,13.6-3.8
			c-5.7-1.5-17.1-4.7-19.5-10.7c0,0-14.6-0.1-21.6-9.2C622.2,574.3,602.5,568.4,607,554.9z"/>
		<path class="st8" d="M581.7,560.2c0,1,0,2,0,3c0,4.6,3.3,8.5,7.9,9.2c10.2,1.7,26.8,7.1,28.1,24.4c0,0,7.1-22.1-25.7-32.2
			c0,0,13.6-4.3,16.6-13c0,0-8.9,6.5-21.5,4C584.3,555.2,581.6,557.3,581.7,560.2z"/>
		<path class="st8" d="M608.7,551.7c0,0-2.6,15,13.5,18l6.6-4c0,0-4.5,7,2.5,13.1c7,6,15.6,0,15.6,0s-3.3,14.9,14.1,11.1
			c9.9-4.5,12.1-8,12.1-8s-8.6,14.1-14.1,15.1c-5.5,1-19.1-4-15.6-11.1c0,0-15.7,5.8-21.2-11.5C622.2,574.3,596.6,571.4,608.7,551.7
			z"/>
		<path class="st8" d="M637.4,460c0,0-17.3,66-9.9,69.6c7.4,3.6,9.9,0.4,9.9,0.4c-0.4,0.5-2.6-0.2-3-0.4c-2.8-1.2-4-4.4-4.6-7.2
			c-1.2-6,0.3-10.6,1.6-16.3c2.5-10.7,4.4-22.1,5.6-33C637.6,468.9,638.1,464.2,637.4,460z"/>
		<path class="st8" d="M619.1,573.1c15.4-1.3,24.4-13.4,32.2-25.4c2.1-3.3-3.1-6.4-5.3-3.1c-6.4,9.9-14.1,21.3-26.9,22.4
			C615.3,567.3,615.2,573.4,619.1,573.1L619.1,573.1z"/>
		<path class="st8" d="M638.6,586.3c14.5-2.2,23.1-14.3,30.4-25.9c2.1-3.3-3.2-6.4-5.3-3.1c-6.5,10.3-13.8,21.2-26.8,23.1
			C633.1,581,634.8,586.9,638.6,586.3L638.6,586.3z"/>
		<path class="st8" d="M650.8,595.6c15.8,4.2,27.3-8.5,31.9-22.2c1.2-3.7-4.6-5.3-5.9-1.6c-3.5,10.5-12,21.3-24.4,18
			C648.7,588.7,647,594.5,650.8,595.6L650.8,595.6z"/>
		<path class="st8" d="M590,562.5c12.9,1.3,31-6.6,32.8-21.1c2.2-17.1-21-14.3-30.6-9.8c-3.5,1.7-0.5,6.9,3.1,5.3
			c4.7-2.2,10.9-3.9,16.2-2.6c7.3,1.7,5.7,8.3,1.9,13c-5.7,7-14.5,10-23.4,9.1C586.1,556,586.1,562.1,590,562.5L590,562.5z"/>
		<path class="st8" d="M590.1,570c9.4,4.5,20.8,8.7,24.3,19.3c3.3,10.1,4.1,21,3.5,31.5c-0.2,3.9,5.9,3.9,6.1,0
			c0.7-12.2-0.4-25.7-5.1-37.1c-4.2-10-16.5-14.7-25.7-19C589.6,563,586.6,568.3,590.1,570L590.1,570z"/>
		<path class="st7" d="M570.4,933.2c0,0,47-14.6,55.2-190.7C625.6,742.5,644.9,971.7,570.4,933.2z"/>
	</g>
	<path class="st1" d="M306.2,942.2c43.9,0.1,87.8,0.2,131.7,0.2c41.5,0.1,83.6-6.1,124.9-4.3c14.4,0.6,28.5,3.3,42.8,4.8
		c21.4,2.3,69,14.1,85.5-5.2c14.6-17-22-32.9-34.9-38.6c-22.2-9.7-47.3-12.4-71-7c-27.3,6.3-50.3,10.6-78.5,7.5
		c-27.7-3-56.2-11.7-83.8-16.8c-31.2-5.8-61.8-15.1-92.7-22.3c-30.7-7.2-151.6-34.8-163.1,13.4C152.4,935.7,267.1,942.1,306.2,942.2
		z"/>
</g>
<g>
	<g>
		<path class="st2" d="M776.7,322.8c-7.3-10.5,0.2-24.2,11.7-27.8c13.9-4.3,28.7,3.4,36.4,15c8.5,12.8,8.2,29.7-0.8,42.2
			c-5,6.9-12,11.2-19.5,14.8c-8.3,4.1-16.6,8.1-24.5,13c-17.4,11-32.8,25.2-45.3,41.6c-3,3.9-3.1,9.4,0.7,12.8
			c3.4,3.1,9.8,3.2,12.8-0.7c12.9-16.8,28.6-30.9,46.9-41.6c9.1-5.3,19-9,27.9-14.7c9.2-5.8,16.8-14.3,21.2-24.3
			c8.6-19.5,5.6-42.1-8.3-58.4c-13.3-15.5-36-23.9-55.7-16c-20.7,8.3-31.9,34.8-18.5,54.1C768.3,342.4,783.4,332.4,776.7,322.8
			L776.7,322.8z"/>
		<path class="st12" d="M737.3,447.6c-3.5-0.7-6.8-2.3-9.5-4.7c-8-7.2-9-19.3-2.2-28.1c13.4-17.6,29.7-32.5,48.3-44.2
			c7.5-4.7,15.2-8.6,22.7-12.2l2.8-1.4c5.8-2.9,11.7-6.2,15.3-11.3c6.2-8.6,6.5-20.4,0.6-29.3c-4.7-7.1-14.6-13.2-23.5-10.4
			c-2.8,0.9-5.3,3.3-6.2,6c-0.8,2.3-0.1,3.7,0.5,4.6l0,0c6.5,9.3,4.2,21.3-5.2,27.9c-9.7,6.7-21.9,4.6-28.5-4.9
			c-7.7-11.2-9.9-25.3-5.9-38.7c4.4-14.7,15.4-26.8,29.4-32.4c22.9-9.2,51.1-1.3,68.5,19.2c16.7,19.6,20.6,46.6,10,70.4
			c-5.2,11.8-14.2,22.2-25.5,29.3c-5.4,3.4-11,6.1-16.4,8.8c-4.2,2-8.2,4-11.9,6.1c-16.8,9.8-31.5,22.8-43.6,38.7
			c-3.2,4.2-8,6.8-13.6,7.3C741.4,448.1,739.3,448,737.3,447.6z"/>
	</g>
	<g>
		<g>
			<path class="st2" d="M708.3,506.6c-4,1.8-20.9,13.1-24.5,10.4c-7.3-5.4,4.8-33.4,8.3-39c0.6-1,1.4-2.1,2.6-2.2
				c2-0.2,2.9,2.4,3,4.4c0.2,4.3-0.2,8.7-1.4,12.9c3.7-3.2,7.6-6.4,12.3-7.5c4.7-1.1,10.5,1,12.1,5.6c1.1,3.5-0.5,7.4-3,9.9
				C715,503.6,711.6,505.1,708.3,506.6z"/>
			<path class="st12" d="M685.2,528.7c-2.9,0-5.6-0.8-8.2-2.7c-0.3-0.2-0.6-0.5-1-0.8l-0.6,0.5l0.2-0.8c-9.4-8.7-4.3-25.2-2.6-30.7
				c2.9-9.5,7.2-18.7,9.3-22.2c3.5-5.8,8.1-7.3,11.3-7.6c3.7-0.3,7.2,0.8,10,3.2c1.9,1.7,3.4,3.9,4.3,6.4
				c10.4-1.5,20.5,4.2,23.5,13.4c2.4,7.3,0.2,15.6-5.8,21.5c-4.1,4.1-8.9,6.2-12.8,7.9c-0.6,0.3-2.6,1.4-4,2.3
				C700.4,524.1,692.3,528.7,685.2,528.7z M712.8,517L712.8,517L712.8,517L712.8,517z"/>
		</g>
		<g>
			<path class="st2" d="M707.1,504.7c-5.5,2.6-10.5,6.1-16,8.6c-1.7,0.8-5.1,2.8-6.6,1.1c-1.5-1.8-0.7-6.1-0.4-8.1
				c1.1-6.8,3.5-13.4,6.2-19.7c1-2.2,1.9-4.7,3.2-6.8c0.3-0.4,0.8-1.7,1.3-1.6c0.6,0.2,0.5,3,0.6,3.5c0.2,3.6-0.5,7.2-1.4,10.6
				c-0.6,2.3,2.1,3.6,3.8,2.2c4.5-3.9,12.1-10.1,18.3-5.7C724.8,495,712.1,502.4,707.1,504.7c-2.7,1.2-0.4,5.1,2.3,3.9
				c4.9-2.2,10-4.7,12.6-9.8c2-4,1.7-8.8-1.4-12.1c-7.9-8.4-19.2-1.1-25.9,4.7c1.3,0.7,2.5,1.5,3.8,2.2c1.3-5,3.8-14.7-0.6-18.8
				c-3.4-3.2-6.8,0.2-8.5,3.3c-4.3,7.8-7.7,16.9-9.4,25.7c-1,5.1-2.1,16.5,6.1,15.9c8.4-0.6,15.9-7.6,23.3-11
				C712.1,507.3,709.8,503.4,707.1,504.7z"/>
			<path class="st12" d="M685.5,531c-5,0-9.4-1.9-12.6-5.5c-5.9-6.6-5.5-16.6-4.1-23.9c1.9-9.8,5.7-20.1,10.6-29
				c3.1-5.7,8-9.4,13.3-10.2c4.7-0.7,9.3,0.8,12.9,4.2c1.6,1.6,2.8,3.3,3.7,5.1c9.8-1.1,16.3,4,19.4,7.3c6.3,6.6,7.6,16.5,3.3,25
				c-4.5,8.9-13.2,12.9-18,15c-1.8,0.9-3.9,2.2-6.2,3.6c-5.6,3.5-12.6,7.8-20.9,8.5C686.5,531,686,531,685.5,531z"/>
		</g>
	</g>
	<path class="st2" d="M776.7,322.8c-7.3-10.5,0.2-24.2,11.7-27.8c13.9-4.3,28.7,3.4,36.4,15c8.5,12.8,8.2,29.7-0.8,42.2
		c-5,6.9-12,11.2-19.5,14.8c-8.3,4.1-16.6,8.1-24.5,13c-17.4,11-32.8,25.2-45.3,41.6c-3,3.9-3.1,9.4,0.7,12.8
		c3.4,3.1,9.8,3.2,12.8-0.7c12.9-16.8,28.6-30.9,46.9-41.6c9.1-5.3,19-9,27.9-14.7c9.2-5.8,16.8-14.3,21.2-24.3
		c8.6-19.5,5.6-42.1-8.3-58.4c-13.3-15.5-36-23.9-55.7-16c-20.7,8.3-31.9,34.8-18.5,54.1C768.3,342.4,783.4,332.4,776.7,322.8
		L776.7,322.8z"/>
	<g>
		<path class="st2" d="M708.3,506.6c-4,1.8-20.9,13.1-24.5,10.4c-7.3-5.4,4.8-33.4,8.3-39c0.6-1,1.4-2.1,2.6-2.2
			c2-0.2,2.9,2.4,3,4.4c0.2,4.3-0.2,8.7-1.4,12.9c3.7-3.2,7.6-6.4,12.3-7.5c4.7-1.1,10.5,1,12.1,5.6c1.1,3.5-0.5,7.4-3,9.9
			C715,503.6,711.6,505.1,708.3,506.6z"/>
		<path class="st2" d="M707.1,504.7c-5.5,2.6-10.5,6.1-16,8.6c-1.7,0.8-5.1,2.8-6.6,1.1c-1.5-1.8-0.7-6.1-0.4-8.1
			c1.1-6.8,3.5-13.4,6.2-19.7c1-2.2,1.9-4.7,3.2-6.8c0.3-0.4,0.8-1.7,1.3-1.6c0.6,0.2,0.5,3,0.6,3.5c0.2,3.6-0.5,7.2-1.4,10.6
			c-0.6,2.3,2.1,3.6,3.8,2.2c4.5-3.9,12.1-10.1,18.3-5.7C724.8,495,712.1,502.4,707.1,504.7c-2.7,1.2-0.4,5.1,2.3,3.9
			c4.9-2.2,10-4.7,12.6-9.8c2-4,1.7-8.8-1.4-12.1c-7.9-8.4-19.2-1.1-25.9,4.7c1.3,0.7,2.5,1.5,3.8,2.2c1.3-5,3.8-14.7-0.6-18.8
			c-3.4-3.2-6.8,0.2-8.5,3.3c-4.3,7.8-7.7,16.9-9.4,25.7c-1,5.1-2.1,16.5,6.1,15.9c8.4-0.6,15.9-7.6,23.3-11
			C712.1,507.3,709.8,503.4,707.1,504.7z"/>
	</g>
</g>
<g>
	<g>
		<path class="st2" d="M564.7,107.3c-11.1-6.3-10.3-22-1.4-30.1c10.7-9.9,27.4-9.2,39.3-2.1c13.1,7.9,20.1,23.3,17.4,38.4
			c-1.5,8.3-6.1,15.3-11.2,21.8c-5.7,7.3-11.5,14.4-16.5,22.3c-11,17.4-18.8,36.9-23,57c-1,4.8,1.2,9.8,6.2,11.2
			c4.4,1.3,10.2-1.4,11.2-6.2c4.4-20.7,12.5-40.2,24.4-57.7c5.9-8.7,13.3-16.3,18.9-25.2c5.8-9.2,9-20.1,8.7-31
			c-0.6-21.3-13.1-40.5-32.6-49.2c-18.7-8.3-42.8-6.1-57.2,9.5c-15.1,16.4-13.9,45.1,6.6,56.8C565.5,128.7,574.8,113.2,564.7,107.3
			L564.7,107.3z"/>
		<path class="st12" d="M582.7,237c-3.5,0.9-7.2,0.8-10.6-0.2c-10.3-3-16.4-13.5-14.1-24.5c4.6-21.6,12.8-42.1,24.5-60.7
			c4.7-7.5,10.1-14.3,15.2-20.8l1.9-2.4c4-5.1,7.9-10.6,9-16.8c1.9-10.5-2.9-21.2-12.1-26.7c-7.3-4.4-18.9-5.7-25.7,0.7
			c-2.1,2-3.4,5.2-3.1,8c0.3,2.4,1.5,3.4,2.4,3.9l0,0c9.9,5.6,13,17.4,7.3,27.4c-5.8,10.2-17.8,13.6-27.9,7.8
			c-11.8-6.7-19.8-18.6-21.9-32.4c-2.3-15.1,2.4-30.8,12.6-42c16.7-18.1,45.5-23.1,70.1-12.2c23.5,10.5,38.6,33.2,39.3,59.2
			c0.4,12.9-3.3,26.1-10.4,37.4c-3.4,5.4-7.3,10.3-11,14.9c-2.9,3.6-5.7,7.1-8.1,10.6c-11,16.1-18.6,34.2-22.7,53.7
			c-1.1,5.2-4.3,9.6-9.1,12.5C586.7,235.7,584.7,236.5,582.7,237z"/>
	</g>
	<g>
		<g>
			<path class="st2" d="M581.9,302.7c-2.9,3.3-13.2,20.8-17.6,19.9c-8.9-1.8-10-32.2-9.3-38.8c0.1-1.2,0.4-2.5,1.4-3.1
				c1.7-1,3.7,0.9,4.6,2.7c2.1,3.8,3.5,7.9,4.3,12.2c2-4.4,4.1-9.1,7.9-12.1s9.9-3.7,13.3-0.2c2.5,2.6,2.8,6.9,1.5,10.3
				C586.7,297.1,584.3,299.9,581.9,302.7z"/>
			<path class="st12" d="M570.6,332.6c-2.6,1.3-5.4,1.7-8.5,1.1c-0.4-0.1-0.8-0.2-1.2-0.3l-0.3,0.7l-0.1-0.8
				c-12.2-3.8-14.7-20.8-15.6-26.6c-1.5-9.8-1.6-19.9-1.2-24c0.7-6.7,4.1-10.1,6.9-11.7c3.2-1.9,6.8-2.3,10.4-1.4
				c2.4,0.7,4.7,2.1,6.7,4c8.7-5.8,20.3-5.1,27,2c5.3,5.6,6.9,14,4,21.9c-2,5.5-5.4,9.4-8.1,12.6c-0.4,0.5-1.7,2.4-2.7,3.8
				C582.3,321.9,577,329.6,570.6,332.6z M590.5,310.1L590.5,310.1L590.5,310.1L590.5,310.1z"/>
		</g>
		<g>
			<path class="st2" d="M580,301.4c-3.9,4.7-6.8,10-10.7,14.7c-1.2,1.4-3.4,4.7-5.5,3.9c-2.2-0.9-3.3-5.2-3.8-7.1
				c-2-6.6-2.6-13.6-2.9-20.4c-0.1-2.4-0.4-5.1,0-7.5c0.1-0.4,0-1.9,0.5-2c0.6-0.1,1.8,2.5,2,2.9c1.7,3.2,2.7,6.7,3.3,10.2
				c0.5,2.3,3.5,2.4,4.4,0.4c2.4-5.5,6.5-14.3,14.1-13C591.8,285.1,583.6,297.3,580,301.4c-1.9,2.2,1.9,4.7,3.8,2.5
				c3.5-4.1,7-8.6,7.2-14.2c0.1-4.4-2.2-8.7-6.5-10.3c-10.8-4.2-17.8,7.3-21.4,15.4c1.5,0.1,2.9,0.2,4.4,0.4c-1-5-2.9-14.9-8.6-16.8
				c-4.4-1.5-6,3.1-6.3,6.6c-0.5,8.9,0.3,18.6,2.6,27.2c1.3,5.1,5.2,15.8,12.4,11.7c7.3-4.2,11.1-13.7,16.2-20
				C585.7,301.7,581.9,299.2,580,301.4z"/>
			<path class="st12" d="M571.9,334.5c-4.5,2.1-9.3,2.3-13.7,0.4c-8.2-3.4-12.1-12.7-13.9-19.8c-2.5-9.6-3.5-20.6-2.9-30.8
				c0.4-6.5,3.2-11.9,7.6-15c3.9-2.7,8.7-3.3,13.5-1.7c2.1,0.7,4,1.7,5.6,3c8.4-5.2,16.5-3.4,20.6-1.8c8.5,3.3,13.9,11.6,13.7,21.2
				c-0.2,10-6.4,17.3-9.8,21.3c-1.3,1.6-2.6,3.7-4,5.9c-3.6,5.6-8,12.5-15.3,16.6C572.7,334.1,572.3,334.3,571.9,334.5z"/>
		</g>
	</g>
	<path class="st2" d="M564.7,107.3c-11.1-6.3-10.3-22-1.4-30.1c10.7-9.9,27.4-9.2,39.3-2.1c13.1,7.9,20.1,23.3,17.4,38.4
		c-1.5,8.3-6.1,15.3-11.2,21.8c-5.7,7.3-11.5,14.4-16.5,22.3c-11,17.4-18.8,36.9-23,57c-1,4.8,1.2,9.8,6.2,11.2
		c4.4,1.3,10.2-1.4,11.2-6.2c4.4-20.7,12.5-40.2,24.4-57.7c5.9-8.7,13.3-16.3,18.9-25.2c5.8-9.2,9-20.1,8.7-31
		c-0.6-21.3-13.1-40.5-32.6-49.2c-18.7-8.3-42.8-6.1-57.2,9.5c-15.1,16.4-13.9,45.1,6.6,56.8C565.5,128.7,574.8,113.2,564.7,107.3
		L564.7,107.3z"/>
	<g>
		<path class="st2" d="M581.9,302.7c-2.9,3.3-13.2,20.8-17.6,19.9c-8.9-1.8-10-32.2-9.3-38.8c0.1-1.2,0.4-2.5,1.4-3.1
			c1.7-1,3.7,0.9,4.6,2.7c2.1,3.8,3.5,7.9,4.3,12.2c2-4.4,4.1-9.1,7.9-12.1s9.9-3.7,13.3-0.2c2.5,2.6,2.8,6.9,1.5,10.3
			C586.7,297.1,584.3,299.9,581.9,302.7z"/>
		<path class="st2" d="M580,301.4c-3.9,4.7-6.8,10-10.7,14.7c-1.2,1.4-3.4,4.7-5.5,3.9c-2.2-0.9-3.3-5.2-3.8-7.1
			c-2-6.6-2.6-13.6-2.9-20.4c-0.1-2.4-0.4-5.1,0-7.5c0.1-0.4,0-1.9,0.5-2c0.6-0.1,1.8,2.5,2,2.9c1.7,3.2,2.7,6.7,3.3,10.2
			c0.5,2.3,3.5,2.4,4.4,0.4c2.4-5.5,6.5-14.3,14.1-13C591.8,285.1,583.6,297.3,580,301.4c-1.9,2.2,1.9,4.7,3.8,2.5
			c3.5-4.1,7-8.6,7.2-14.2c0.1-4.4-2.2-8.7-6.5-10.3c-10.8-4.2-17.8,7.3-21.4,15.4c1.5,0.1,2.9,0.2,4.4,0.4c-1-5-2.9-14.9-8.6-16.8
			c-4.4-1.5-6,3.1-6.3,6.6c-0.5,8.9,0.3,18.6,2.6,27.2c1.3,5.1,5.2,15.8,12.4,11.7c7.3-4.2,11.1-13.7,16.2-20
			C585.7,301.7,581.9,299.2,580,301.4z"/>
	</g>
</g>
<g>
	<g>
		<path class="st2" d="M84.5,174.8c-12.8-0.1-19.7-14.1-16-25.5c4.5-13.8,19.3-21.5,33.2-21.1c15.3,0.4,29,10.4,34,25
			c2.8,8,2.2,16.3,0.9,24.5c-1.4,9.2-3,18.2-3.4,27.5c-1,20.6,1.7,41.4,7.9,61c1.5,4.7,5.9,7.9,10.9,6.8c4.5-1,8.3-6.2,6.8-10.9
			c-6.4-20.2-8.8-41.2-7-62.3c0.9-10.5,3.6-20.8,4.1-31.3c0.5-10.9-2.1-21.9-7.7-31.3c-11-18.3-31.3-28.8-52.6-26.8
			c-20.3,1.9-40.3,15.7-45.1,36.3C45.2,168.4,60.4,192.8,84,193C95.7,193,96.2,174.9,84.5,174.8L84.5,174.8z"/>
		<path class="st12" d="M163.9,278.9c-2.6,2.5-5.8,4.3-9.3,5.1c-10.5,2.4-20.9-3.8-24.3-14.4c-6.6-21.1-9.5-42.9-8.4-64.9
			c0.4-8.8,1.8-17.4,3.1-25.6l0.5-3.1c1-6.4,1.6-13.1-0.4-19.1c-3.5-10.1-13-17-23.6-17.3c-8.6-0.2-19.2,4.3-22.1,13.2
			c-0.9,2.8-0.4,6.2,1.3,8.5c1.4,2,3,2.2,4,2.2l0,0c11.3,0.1,19.9,8.8,19.8,20.3c-0.1,11.8-8.9,20.6-20.4,20.5
			c-13.6-0.1-26.3-6.5-35-17.5c-9.5-12-13.1-28-9.6-42.7c5.7-24,28.3-42.5,55.1-45c25.6-2.4,49.9,10,63.3,32.3
			c6.6,11,9.9,24.4,9.3,37.7c-0.3,6.4-1.3,12.5-2.3,18.4c-0.8,4.6-1.5,9-1.8,13.2c-1.6,19.4,0.6,38.9,6.6,57.9
			c1.6,5.1,1,10.5-1.8,15.3C166.7,275.8,165.4,277.5,163.9,278.9z"/>
	</g>
	<g>
		<g>
			<path class="st2" d="M195.4,336.6c-0.9,4.3-1.3,24.6-5.6,26c-8.6,2.8-24.5-23.2-27.2-29.2c-0.5-1.1-0.9-2.4-0.3-3.4
				c1-1.7,3.6-1,5.3,0.1c3.7,2.3,7,5.2,9.7,8.5c-0.5-4.8-0.9-9.9,1-14.4s6.8-8.1,11.5-6.7c3.5,1.1,5.8,4.6,6.4,8.2
				C196.9,329.3,196.1,333,195.4,336.6z"/>
			<path class="st12" d="M200.2,368.2c-1.7,2.4-3.9,4.2-6.9,5.1c-0.4,0.1-0.8,0.2-1.2,0.3l0.1,0.7l-0.5-0.6
				c-12.5,2.7-23.1-10.9-26.7-15.5c-6.1-7.8-11.1-16.6-12.8-20.4c-2.7-6.2-1.4-10.8,0.3-13.6c1.8-3.2,4.8-5.4,8.4-6.3
				c2.5-0.6,5.1-0.5,7.8,0.2c4.7-9.3,15.2-14.4,24.5-11.5c7.4,2.2,12.8,8.8,14.3,17.1c1,5.7,0,10.9-0.9,15c-0.1,0.7-0.3,2.9-0.5,4.6
				C205.2,353.1,204.3,362.4,200.2,368.2z M206.5,338.8L206.5,338.8L206.5,338.8L206.5,338.8z"/>
		</g>
		<g>
			<path class="st2" d="M193.2,336.4c-1.1,6-1,12.1-2.1,18.1c-0.3,1.8-0.6,5.8-2.9,6c-2.3,0.2-5.4-2.9-6.9-4.3
				c-4.9-4.8-9-10.6-12.5-16.4c-1.3-2.1-2.8-4.3-3.7-6.5c-0.2-0.4-0.9-1.7-0.5-2c0.4-0.4,2.8,1.3,3.2,1.6c3,1.9,5.6,4.5,7.9,7.2
				c1.5,1.8,4.2,0.4,4-1.8c-0.6-6-1.3-15.7,5.9-18.2C195.4,316.4,194.2,331,193.2,336.4c-0.6,2.9,4,3.2,4.5,0.4
				c1.1-5.3,1.9-10.9-0.7-15.9c-2.1-3.9-6.2-6.5-10.7-5.8c-11.4,1.7-11.9,15.1-11.1,23.9c1.3-0.6,2.7-1.2,4-1.8
				c-3.3-3.9-9.8-11.5-15.7-10.4c-4.6,0.9-3.7,5.7-2.2,8.8c3.9,8,9.4,16,15.6,22.5c3.6,3.8,12.3,11.2,16.5,4.1
				c4.3-7.2,2.9-17.4,4.4-25.4C198.2,333.9,193.7,333.5,193.2,336.4z"/>
			<path class="st12" d="M202.3,369.2c-2.9,4.1-7,6.6-11.7,7.1c-8.8,1-16.7-5.1-21.9-10.4c-6.9-7.2-13.2-16.2-17.6-25.4
				c-2.8-5.8-3.1-12-0.7-16.8c2.1-4.3,6-7.1,10.9-8.1c2.2-0.4,4.3-0.4,6.3-0.1c4.8-8.7,12.7-11,17.1-11.7c9-1.3,17.8,3.3,22.3,11.7
				c4.7,8.8,2.9,18.2,1.9,23.3c-0.3,2-0.5,4.5-0.6,7.1c-0.4,6.6-0.8,14.8-5.1,22C202.8,368.4,202.5,368.8,202.3,369.2z"/>
		</g>
	</g>
	<path class="st2" d="M84.5,174.8c-12.8-0.1-19.7-14.1-16-25.5c4.5-13.8,19.3-21.5,33.2-21.1c15.3,0.4,29,10.4,34,25
		c2.8,8,2.2,16.3,0.9,24.5c-1.4,9.2-3,18.2-3.4,27.5c-1,20.6,1.7,41.4,7.9,61c1.5,4.7,5.9,7.9,10.9,6.8c4.5-1,8.3-6.2,6.8-10.9
		c-6.4-20.2-8.8-41.2-7-62.3c0.9-10.5,3.6-20.8,4.1-31.3c0.5-10.9-2.1-21.9-7.7-31.3c-11-18.3-31.3-28.8-52.6-26.8
		c-20.3,1.9-40.3,15.7-45.1,36.3C45.2,168.4,60.4,192.8,84,193C95.7,193,96.2,174.9,84.5,174.8L84.5,174.8z"/>
	<g>
		<path class="st2" d="M195.4,336.6c-0.9,4.3-1.3,24.6-5.6,26c-8.6,2.8-24.5-23.2-27.2-29.2c-0.5-1.1-0.9-2.4-0.3-3.4
			c1-1.7,3.6-1,5.3,0.1c3.7,2.3,7,5.2,9.7,8.5c-0.5-4.8-0.9-9.9,1-14.4s6.8-8.1,11.5-6.7c3.5,1.1,5.8,4.6,6.4,8.2
			C196.9,329.3,196.1,333,195.4,336.6z"/>
		<path class="st2" d="M193.2,336.4c-1.1,6-1,12.1-2.1,18.1c-0.3,1.8-0.6,5.8-2.9,6c-2.3,0.2-5.4-2.9-6.9-4.3
			c-4.9-4.8-9-10.6-12.5-16.4c-1.3-2.1-2.8-4.3-3.7-6.5c-0.2-0.4-0.9-1.7-0.5-2c0.4-0.4,2.8,1.3,3.2,1.6c3,1.9,5.6,4.5,7.9,7.2
			c1.5,1.8,4.2,0.4,4-1.8c-0.6-6-1.3-15.7,5.9-18.2C195.4,316.4,194.2,331,193.2,336.4c-0.6,2.9,4,3.2,4.5,0.4
			c1.1-5.3,1.9-10.9-0.7-15.9c-2.1-3.9-6.2-6.5-10.7-5.8c-11.4,1.7-11.9,15.1-11.1,23.9c1.3-0.6,2.7-1.2,4-1.8
			c-3.3-3.9-9.8-11.5-15.7-10.4c-4.6,0.9-3.7,5.7-2.2,8.8c3.9,8,9.4,16,15.6,22.5c3.6,3.8,12.3,11.2,16.5,4.1
			c4.3-7.2,2.9-17.4,4.4-25.4C198.2,333.9,193.7,333.5,193.2,336.4z"/>
	</g>
</g>
</svg>
