<?xml version="1.0" encoding="utf-8"?>
<!-- Generator: Adobe Illustrator 22.1.0, SVG Export Plug-In . SVG Version: 6.00 Build 0)  -->
<svg version="1.1" id="Layer_1" xmlns="http://www.w3.org/2000/svg" xmlns:xlink="http://www.w3.org/1999/xlink" x="0px" y="0px"
	 viewBox="0 0 796.8 691.2" style="enable-background:new 0 0 796.8 691.2;" xml:space="preserve">
<style type="text/css">
	.st0{fill:#FDDCCC;}
	.st1{fill:#FF8400;}
	.st2{fill:#FF7000;}
	.st3{fill:#953C1F;}
	.st4{fill:#FCC8B2;}
	.st5{fill:none;}
	.st6{fill:#782F14;}
	.st7{fill:#682609;}
	.st8{fill:#D37C60;}
	.st9{fill:#C7EAFB;}
	.st10{fill:#9ADBF8;}
	.st11{fill:#BBBEBF;}
	.st12{fill:#ADAFB2;}
	.st13{fill:#CFD1D2;}
	.st14{fill:#ED1C24;}
</style>
<path class="st0" d="M295.6,572.9c-11.2-14.5-22.4-28.9-33.5-43.4c-3-3.8-6-7.7-9.8-10.6c-4.1-3.1-8.9-5.1-13.8-6.7
	c-13.5-4.3-27.8-5.8-41.9-4.4c-6.6,0.7-13.9,2.4-17.7,7.8c-4.1,5.7-2.9,14.1,1.4,19.6c4.3,5.6,11.2,8.6,18,10.2s14,1.8,20.9,2.8
	c2.8,0.4,5.6,0.9,7.9,2.5c2,1.3,3.5,3.4,4.9,5.4c9.9,14.7,15.8,31.8,25.4,46.7c9.6,14.9,24.7,28.3,42.4,28.4
	c13.8,0.1,26.4-7.8,36.4-17.2c27.5-25.8,41.1-62.9,51.4-99.2c2-7.1,3.9-14.3,3.7-21.6c-0.3-10.5-9.2-27.7-22.6-22.8
	c-7.8,2.8-12.4,19.7-16.6,26.3C334.9,523.3,316.1,548.8,295.6,572.9z"/>
<g>
	<path class="st0" d="M230,507c10.5,6,32.8,6.9,19.3-9.4c-8.5-10.2-19.8-18.1-30.5-25.3c-2.2-1.5-4.6-3-7.3-2.8
		c-3.5,0.2-6.2,3.6-6.6,7.1c-0.4,3.5,1,7,2.7,10C212.7,495.5,221.1,501.8,230,507z"/>
</g>
<path class="st1" d="M357.6,478.9c-13.4,18.2-25.3,35.3-40.5,52.1c16.1,23.6,40.7,41.2,68.2,48.8c1.2,0.3,2.6,0.6,3.7,0
	c0.9-0.5,1.4-1.4,1.9-2.2c16.5-30,31.3-62.4,50.1-91.1c8-12.2,15.5-22.3,21.4-36.1c2.6-6.1,12.3-40.9,18.3-42.4
	c-12.9,2.5-26.1,3-38.9,6.1c-23.9,5.8-44.9,20.4-62,38.1C371.8,460.5,364.5,469.5,357.6,478.9z"/>
<path class="st2" d="M423.1,444c-8.9,12.4-12.6,27.8-15.5,42.8c-8.7,44.9-12.6,90.7-11.6,136.4c0.1,3.5,0.3,7.3,2.6,9.9
	c2.1,2.4,5.5,3.2,8.6,3.9c78.1,16.5,146.3,22.8,225.2,9.2c2.3-0.4,4.7-0.9,6.2-2.6c1.7-1.9,1.8-4.7,1.8-7.3
	c-0.4-65.6,5.7-198.1-71.9-222.9C521.3,398.2,455.3,399.1,423.1,444z"/>
<path class="st3" d="M698.9,60.4c4.1,15.7,5.5,31.9,5.5,48.1c0,14.4-0.7,30.5,9,41.1c3.4,3.7,7.8,6.4,11.5,9.8
	c12.2,11.1,15.9,30.3,9.1,45.2c-6.8,15-23.6,24.7-40,23.3c-16.2-1.3-30.1-12.1-41.1-24.1c-11.1-12.1-20.6-26.4-23.2-42.7
	c-1.4-8.8-0.6-17.8-1.7-26.6c-3.5-30.5-37.9-75.3-12.3-104.6C644-2.5,690.2,27,698.9,60.4z"/>
<path class="st4" d="M537.1,320.6c-17.9-2.1-35.9-2.6-53.8-1.5c2.7,25.7-4.8,50.5-1.3,76c1.4,10.2,5.5,20.8,14.2,26.3
	c5.3,3.3,11.8,4.3,18.1,4.5c3.7,0.1,7.8-0.2,10.6-2.7c12.8-11.6,13.4-41.1,13.7-56.8C538.5,363.3,538.6,320.8,537.1,320.6z"/>
<path class="st5" d="M534.2,385.1c-3,0.4-6,0.7-9.1,0.9C528.2,386,531.3,385.7,534.2,385.1z"/>
<path class="st0" d="M617.5,323.5c28.9-55.1,42.9-134.7,2-183.8c-3-3.6-6-7-9.2-10.3C643.8,187.7,646.9,262.8,617.5,323.5z"/>
<path class="st4" d="M610.4,129.4c-2.8-4.9-5.8-9.7-9.1-14.4c0.4,2,0.7,4.2,1.1,6.5C605.1,124,607.8,126.7,610.4,129.4z"/>
<path class="st4" d="M534.2,385.1c30.5-4.3,58.7-20.2,76.4-49.3c2.4-4,4.7-8.1,7-12.4c29.4-60.6,26.3-135.7-7.2-194.1
	c-2.6-2.7-5.3-5.3-8-7.8C611.3,182.5,608.4,370.2,534.2,385.1z"/>
<path class="st0" d="M525.2,387.9c8.8-0.4,16.9-2.2,23.3-6c26-15.3,47-54.3,59.3-80.7c13.7-29.4,21.9-61.5,23.5-93.9
	c1-19-0.3-38.4-6.5-56.5c-11.6-33.7-39.2-47.7-70.5-59.9c-34.1-13.3-71.6-11.3-104.8,3.7c-72.2,32.6-82.9,163.2-49.7,224.6
	c14.8,27.3,40,47.9,69,58.6C483.1,383.3,505.8,388.9,525.2,387.9z"/>
<path class="st3" d="M397.1,93.9c-8.8,21.2-11.3,45.7-26.3,63c-7.6,8.8-18.3,15.7-22,26.8c-5.2,15.8,8.7,33.8,25.3,35.5
	s32.6-10,39.2-25.3c1,6.3,2,12.5,2.9,18.8c19-0.4,37.1-13.8,42.9-32c2.3,15,6.9,32.8,21.4,37.1c10.3,3.1,21.6-2.8,28.2-11.4
	s9.4-19.3,12-29.7c-0.8,13.6,9.3,27,22.6,30c13.3,3,28.2-4.7,33.4-17.3c-0.2,15.3,0.5,32.1,10.9,43.3c10.4,11.1,33.9,9.3,36.6-5.8
	c3.7,9.5,7.3,18.9,11,28.4c1.3,3.5,2.9,7.2,6.1,9.1c7.3,4.3,15.6-4,19.6-11.5c34.7-65.1,18.2-153.3-37.7-201.4
	C561.8-1.3,430.1,14.3,397.1,93.9z"/>
<path class="st6" d="M631.4,121.7c15.5,34.4,8.2,74.7,17.1,111.4c1,4.3,3.2,9.3,7.6,9.7c4.7,0.5,7.8-4.7,9.1-9.2
	c2.5-8.8,2.7-18.1,2.9-27.2c0.6-30.8,1.1-62.4-9.5-91.3c-13.1-35.8-52.4-77.2-93-78.1C573.9,67.2,617.6,91,631.4,121.7z"/>
<path class="st7" d="M553.3,182.5c7.1,1.6,14.1,5.7,17.6,12.1c1.2,2.2,1.9,4.8,0.7,7c-2,3.7-7.4,2.8-11.3,1.5
	c-5.9-2-33.1-7.4-33.4-13.9C526.5,178.7,548.3,181.3,553.3,182.5z"/>
<path class="st7" d="M449.5,182.8c-7.5,1.1-15.1,4.8-19.2,11c-1.4,2.1-2.4,4.7-1.3,7c1.8,3.8,7.5,3.3,11.6,2.2
	c6.3-1.6,34.9-5.3,35.7-11.8C477.6,180.7,454.7,182,449.5,182.8z"/>
<path class="st7" d="M556.1,258.7c5-12,6.1-42.9-15.2-36.1c-13.6,4.2-17.6,23.4-11.8,35c2.1,4.3,5.6,8.1,10.1,9.8
	c4.4,1.7,10,0.9,13.3-2.5C554.3,263.1,555.3,260.8,556.1,258.7z"/>
<path class="st7" d="M462.2,255.4c5-12,6.1-42.9-15.2-36.1c-13.6,4.2-17.6,23.4-11.8,35c2.1,4.3,5.6,8.1,10.1,9.8
	c4.4,1.7,10,0.9,13.3-2.5C460.3,259.8,461.3,257.6,462.2,255.4z"/>
<path class="st0" d="M615.5,643.8c0.3,1.3,0.6,2.8,1.7,3.5c0.9,0.6,2.1,0.7,3.2,0.6c18.3-0.1,36.6-1.5,54.8-4.1
	c0.5-25.5-7.6-50.4-18-73.7c-3.3-7.3-6.9-14.6-12.5-20.3c-15.5-15.6-40.1-7.6-42.9,13.5C598.6,588.1,610.6,619.8,615.5,643.8z"/>
<path class="st1" d="M578.4,545.7c1.1,8.7,2.3,17.5,3.7,26.2c28.1,7.6,58.9,4.3,84.8-8.9c1.5-0.8,3-1.6,3.9-3.1c1-1.8,0.6-4,0.2-6
	c-4.6-22-14.6-43-23.3-63.9c-3.9-9.5-8.1-18.9-13.7-27.5c-9.7-14.6-23.6-25.8-38-35.5c-6.5-4.4-12.6-8.3-20.1-10.7
	c-4.9-1.6-17.9-2.8-20.8-7.2c14.4,21.9,15.4,47.6,17.1,72.8C573.6,503.2,575.7,524.5,578.4,545.7z"/>
<path class="st8" d="M516.3,323.4c2.1-11.6-0.2-26.6-7.1-36.3c-5-7-13.9-9.1-22.1-7.7c-6.6,1.1-12.5,5.8-15.1,12
	c-1.8,4.4-2,9.3-2.1,14.1c-0.1,7.8-0.1,15.9,2.5,23.3s8.1,14.2,15.7,16.3C501,348.5,514,336.5,516.3,323.4z"/>
<path class="st9" d="M209.9,374.8c-4.3,16.4-12.2,31.5-19.2,46.9c-7,15.4-13.4,31.5-14.3,48.4c-0.9,16.9,4.3,34.9,17.2,45.9
	c14.5,12.4,37.1,13.5,53.6,3.8c16.5-9.7,26.5-28.8,26.7-47.9c0.1-12.4-3.4-24.5-6.9-36.3c-4.1-13.9-8.2-27.8-12.3-41.7
	c-3.3-11.2-6.6-22.4-9.9-33.7c-2.7-9.2-10.5-31.9-24.3-24.9C209.8,340.8,212.6,364.8,209.9,374.8z"/>
<path class="st10" d="M217.9,426c-1.8,8.8-3.6,17.7-5.4,26.5c-2.7,13-5.3,26.7-1.3,39.3c3.9,12.7,16.9,23.6,29.8,20.4
	c11.6-2.9,18.1-15.3,20.8-27c4.8-20.8,2.4-42.7-3.5-63.2c-2.5-8.5-19.3-62.7-28.4-61.8c-8.1,0.8-6.2,20.2-6.2,24.7
	C223.4,398.7,220.6,412.5,217.9,426z"/>
<g>
	<path class="st11" d="M195,344.2c-4.1,5.8-2.2,14.2,2.3,19.7c6.4,7.6,16.6,10.7,26.4,12.4c10.3,1.8,21.1,2.7,30.8-1.1
		s17.9-13.1,17.4-23.5c-0.1-1.4-0.3-2.9-1-4c-1.7-2.5-5.5-2.9-8.3-1.9c-2.9,1-5.3,3-8.1,4.3c-6.3,3.1-13.8,2.5-20.4,0.1
		C223.5,346.2,205.5,329.3,195,344.2z"/>
	<path class="st12" d="M213.9,358.1c4.5,1.5,10.1,4.8,11.9,5c5.2,0.7,9.7-1.7,15-2.3c2.2-0.3,4.5-0.3,6.6,0.8
		c9,4.7-9.4,11.5-12.9,12.1c-7.2,1.3-15-0.1-21.2-4.1c-2.2-1.5-4.3-3.4-5.2-5.8C205.7,356.9,209.3,356.6,213.9,358.1z"/>
</g>
<g>
	<path class="st11" d="M218.2,264.4c12.9-0.8,32.7,0,38.2,14.1c1.8,4.6,2.2,9.7,2.6,14.6c1.3,17.6,2.7,35.3,1,52.9
		c-0.1,1.6-0.4,3.4-1.3,4.7c-1.7,2.4-5.1,2.7-8,2.6c-9.5-0.1-19-1.1-28.3-3.1c-1.6-0.3-3.4-0.8-4.5-1.9c-2-1.7-2.2-4.7-2.2-7.3
		c-0.3-15.7,3.1-23.8-14.1-24.5c-15.5-0.6-31.3,0.4-46.7,1.5c-30.2,2.1-60.3,6.4-89.9,12.9c-13.8,3-30,5.9-40.6-3.4
		c-3.7-3.3-6.2-7.8-8-12.4c-18-47.8,47.1-40.6,74.3-42.4C133.1,270,175.6,267.2,218.2,264.4z"/>
	<path class="st12" d="M204.5,292.9c6.5,0.3,13.1,1.4,18.3,5.4c12.7,10,15.6,31.1,13.1,45.7c-15.5,6.4-14.8-11.7-14.4-20.4
		c0.1-2.8,0.2-5.7-1-8.3c-2.5-5.4-9.4-6.8-15.3-7.3c-22.4-1.7-47.3-0.1-69.5,3.8c-9.4,1.7-9.6-8.3-4.1-13.2
		c4.4-3.8,14.1-3.2,19.4-3.1c17.4,0.1,34.3-3.3,51.8-2.7C203.3,292.8,203.9,292.9,204.5,292.9z"/>
</g>
<g>
	<path class="st13" d="M102.8,176.9c4.4,0.4,8.3,3.3,11.1,6.6c8.9,10.5,9.9,25.4,10.3,39.1c0.3,10.5,0.6,20.9,0.3,31.4
		c-0.3,14.8-1.7,29.3-2.3,44.1c-7.9,1-15.8,1.5-23.8,1.4c-3.3-0.1-6.9-0.3-9.4-2.4c-3.1-2.7-3.4-7.5-3.4-11.7
		c-0.1-25.5,2.2-49.8,4.1-75.1C90.4,200.3,84.6,175.3,102.8,176.9z"/>
	<path class="st12" d="M106.2,216.2c0-2.4,0-4.8-0.7-7.1c-1-3.5-3.6-6.3-5.2-9.5c-1.7-3.2-2.2-7.6,0.3-10.2
		c3.1-3.1,8.9-1.3,11.7,2.2c3.3,4.1,4.1,9.6,4.7,14.8c2.4,20.7,3.4,41.5,3.1,62.4c-0.1,4.8-1.5,21.3-10.1,19.8
		c-6.1-1-3.7-9.3-3.7-14.4C106.2,254.9,106.2,235.6,106.2,216.2z"/>
</g>
<path class="st14" d="M190.1,170.8c-7.9-13.5-21.9-22.6-36.8-27.4c-14.9-4.8-30.7-5.8-46.3-6.2c-22.2-0.6-51.8,0.7-68.3,17.9
	c-12.4,12.9-14.8,28.7-9.5,41.8c3.6,8.9,10.8,16.6,20.9,21.3c14.5,6.7,29.1,13.5,44.7,17.1c26.9,6.1,76.4,4.3,94.6-20.1
	C198.7,202.5,198.1,184.3,190.1,170.8z M54.3,182c-2.1-0.6-3-3.1-3.2-5.3c-1.4-14.7,14.5-25.5,27.7-27.6c1.1-0.1,2.4-0.2,3.4,0.4
	c1.1,0.8,1.4,2.2,1.7,3.5c0.3,1.5,0.8,2.9,1.3,4.1c1.3,3.1,3,5.6,5.4,8.5c2.6,3.1,4.6,8-1,9.7c-7.4,2.3-13.8-2.5-21.5,1.2
	c-3.7,1.8-7.1,4.5-11.1,5.4C56,182.1,55.1,182.3,54.3,182z M123.6,212.3c0.1,0.8,0.2,1.7-0.1,2.5c-0.3,0.7-0.8,1.3-1.5,1.7
	c-3.1,2.2-7.3,2.3-11,1.3c-3.7-1-7.1-3-10.5-4.7c-6.3-3.1-13-5.2-19.9-6.2c-4.1-0.6-11-3.6-5.9-7.8c4.1-3.5,11.6-4.1,16.4-7.3
	c2.7-1.8,5.2-4,8.2-5.3c3-1.3,6.6-1.7,9.4-0.1c4.3,2.6,4.6,8.5,6.9,12.9C117.8,203.8,122.6,207.2,123.6,212.3z M109,156
	c-1.9-4.5-4.8-4.9-7.7-4.5c-3.4,0.3-7,1.6-9.3-1.5c-1-1.5-0.3-3.6,1-4.7s3.1-1.5,4.9-1.9c11.8-2.4,25.4,3.2,37.1,5.5
	c5,1,11.7,1,16,3.8c1.5,0.9,2.7,2.2,3.3,3.8c0.6,1.6,0.1,3.6-1.4,4.5c-1.3,0.8-2.9,0.6-4.3,0c-1.4-0.6-2.7-1.5-4.1-2
	c-9.6-3.8-20.4,4.2-28.5,7.8C107.9,170.5,111,160.6,109,156z M179.5,181.9c1.1,6.6,1,14.1-3,19.5c-1.3,1.7-2.9,3.3-4.5,4.8
	c-1.9,1.7-3.7,3.4-5.6,5.1c-3.4,3.1-7,6.3-11.4,7.1c-4.5,0.8-9.9-1.7-10.4-6.3c-0.1-1.5,0.2-3,0.4-4.5c0-0.1,0-0.1,0-0.2
	c0.6-7.7-6.7-10.6-7.2-17.6c-0.4-7,6.1-7.5,11.3-6.9c8.1,0.9,15.5,0,22.4-5.1c1-0.8,2.2-1.7,3.5-1.7
	C177.7,175.9,179.1,179.3,179.5,181.9z"/>
<path class="st1" d="M260.4,77.2c-0.2-4.4-0.1-8.9,1.6-12.9c1.7-4,5.3-7.5,9.7-7.9c4.6-0.4,8.9,2.6,12.1,5.9
	c7.8,8.2,12.1,19.2,15.1,30.1c3.6,13.5,5.5,27.4,7.4,41.2c2.2,16.1,8.2,31.1,9.3,47.6c0.1,1.8,0.2,3.7-0.7,5.2
	c-8.3,16.1-27.3-21.3-29-25.4c-5.7-13.7-9.5-28-14.4-42C266.4,105.3,261.3,92.2,260.4,77.2z"/>
<path class="st1" d="M331.3,234.2c5.3-7.1,3.3-17.9-4.5-22.3c-6.9-3.8-16.9-0.4-20.9,6.3c-4,6.5-1.5,16,4.9,20
	C317.3,242.2,326.7,240.3,331.3,234.2z"/>
</svg>
