<?xml version="1.0" encoding="utf-8"?>
<!-- Generator: Adobe Illustrator 22.1.0, SVG Export Plug-In . SVG Version: 6.00 Build 0)  -->
<svg version="1.1" id="Layer_1" xmlns="http://www.w3.org/2000/svg" xmlns:xlink="http://www.w3.org/1999/xlink" x="0px" y="0px"
	 viewBox="0 0 912.3 197.4" style="enable-background:new 0 0 912.3 197.4;" xml:space="preserve">
<style type="text/css">
	.st0{fill:#F5919C;}
	.st1{fill:#F9BEC1;}
	.st2{fill:#A57F83;}
</style>
<path class="st0" d="M822.9,197.4H89.4C40,197.4,0,157.4,0,108V89.4C0,40,40,0,89.4,0l733.6,0c49.3,0,89.4,40,89.4,89.4V108
	C912.3,157.4,872.3,197.4,822.9,197.4z"/>
<title>Asset 89</title>
<path class="st1" d="M831.4,161.8H80.9C36.2,161.8,0,125.6,0,80.9v0C0,36.2,36.2,0,80.9,0h750.5c44.7,0,80.9,36.2,80.9,80.9v0
	C912.3,125.6,876.1,161.8,831.4,161.8z"/>
<g>
	<path class="st2" d="M79.5,84.3c0,3.2-0.4,5.8-1.3,8s-2,4-3.4,5.4c-1.4,1.4-3.1,2.4-5,3.1c-1.9,0.6-3.8,1-5.9,1
		c-3.9,0-7.4-1.3-10.4-3.8c-0.6,1-1.5,1.9-2.6,2.6c-1.2,0.7-2.5,1-4,1c-2,0-3.7-0.6-5.1-1.9c-1.4-1.2-2.2-2.7-2.2-4.4
		c0-1.3,0.4-2.4,1.3-3.5c0.8-1.1,1.9-1.9,3.3-2.4V60.1c0-1.4,0.5-2.4,1.4-3.1c0.9-0.7,1.9-1,3-1c1.1,0,2.1,0.3,3,1
		c0.9,0.7,1.4,1.7,1.4,3.1v24.6c0,1.5,0.3,2.9,0.9,4c0.6,1.1,1.4,2.1,2.3,2.9c1,0.8,2,1.4,3.1,1.8c1.1,0.4,2.2,0.6,3.3,0.6
		c3,0,5.1-0.9,6.3-2.6c1.2-1.8,1.8-4.3,1.8-7.6V60.1c0-1.4,0.5-2.4,1.4-3.1c0.9-0.7,1.9-1,3-1c1.1,0,2.1,0.3,3,1
		c0.9,0.7,1.4,1.7,1.4,3.1V84.3z"/>
	<path class="st2" d="M108.9,97.6c0,1.5-0.4,2.6-1.3,3.3c-0.9,0.7-1.9,1.1-2.9,1.1c-1.1,0-2.1-0.4-3.1-1.1c-1-0.7-1.4-1.8-1.4-3.3
		V71.9c0-2-0.6-3.7-1.8-5.1c-1.2-1.4-2.8-2.1-4.7-2.1c-1,0-1.7,0.1-2.3,0.3c-0.6,0.2-1,0.4-1.4,0.5c-1.5,0.8-2.9,0.9-4,0.4
		c-1.1-0.5-1.9-1.3-2.4-2.3c-0.4-1-0.5-2-0.2-3.1c0.3-1.1,1.1-2,2.4-2.8c0.7-0.4,1.6-0.8,2.9-1.2c1.2-0.4,2.9-0.7,5-0.7
		c2.2,0,4.2,0.4,6.1,1.1c1.9,0.7,3.5,1.8,4.8,3.1c1.3,1.4,2.4,3,3.2,4.9c0.8,1.9,1.2,4,1.2,6.3V97.6z"/>
	<path class="st2" d="M149.7,97.4c0,1.5-0.5,2.6-1.4,3.3c-0.9,0.7-1.9,1.1-3,1.1c-1.1,0-2.1-0.4-3-1.1c-0.9-0.7-1.4-1.8-1.4-3.3v-17
		c-1.4,0.8-3.2,1.2-5.4,1.5c-2.1,0.2-4.2,0.5-6.1,0.8c-1.8,0.3-3.4,0.9-4.7,1.9c-1.3,1-2,2.4-2,4.1c0,1.7,0.5,2.9,1.4,3.6
		c1,0.7,2,0.9,3.1,0.5c1.4-0.4,2.5-0.3,3.3,0.2c0.9,0.5,1.5,1.3,1.8,2.2c0.4,1.1,0.4,2.3-0.1,3.6c-0.5,1.2-1.5,2-3,2.5
		c-1.6,0.4-3.3,0.5-5.2,0.3c-1.8-0.2-3.6-0.9-5.2-1.9c-1.6-1.1-3-2.5-4-4.4c-1.1-1.8-1.6-4.1-1.6-6.8c0-2.3,0.4-4.3,1.2-5.9
		c0.8-1.7,1.9-3,3.1-4.1c1.3-1.1,2.7-2,4.4-2.6c1.7-0.7,3.3-1.1,4.9-1.3c1.2-0.2,2.5-0.4,4.1-0.5c1.5-0.2,3-0.4,4.4-0.8
		c1.4-0.4,2.5-0.9,3.5-1.5c0.9-0.7,1.4-1.6,1.4-2.8c0-1.4-0.7-2.6-2.2-3.5c-1.5-1-3.3-1.4-5.5-1.4c-1.9,0-3.6,0.4-5.2,1.2
		c-1.5,0.8-2.5,1.8-2.8,3c-0.4,1.6-1.2,2.6-2.4,3.1c-1.3,0.4-2.5,0.4-3.8-0.1c-1-0.4-1.7-1-2.2-1.9s-0.5-2-0.1-3.3
		c0.8-2.9,2.6-5.4,5.5-7.3c2.9-2,6.6-2.9,11.3-2.9c4.8,0,8.9,1.3,12.1,3.9c3.2,2.6,4.8,6.2,4.8,10.8V97.4z"/>
	<path class="st2" d="M196,78.9c0,3.3-0.5,6.3-1.5,9.1c-1,2.8-2.4,5.3-4.3,7.4c-1.8,2.1-4,3.7-6.6,4.9c-2.6,1.2-5.5,1.7-8.7,1.7
		c-2.9,0-5.5-0.5-7.9-1.5c-2.4-1-4.5-2.3-6.2-4c-1.8-1.7-3.2-3.6-4.4-5.8s-1.9-4.6-2.2-7.1c-0.5-2.8-0.1-5,1.2-6.6
		c1.3-1.5,3-2.3,5.1-2.3h9.4c1.4,0,2.4,0.5,3.1,1.4c0.7,0.9,1,1.9,1,3c0,1.1-0.3,2.1-1,3c-0.7,0.9-1.7,1.4-3.1,1.4h-6.2
		c0.6,2.8,1.8,5.2,3.7,7.2c1.9,2,4.4,3,7.5,3c1.9,0,3.6-0.4,5.1-1.3c1.5-0.8,2.7-1.9,3.7-3.3c1-1.4,1.7-2.9,2.3-4.7
		c0.5-1.8,0.8-3.7,0.8-5.6c0-1.9-0.3-3.7-0.8-5.5c-0.6-1.8-1.3-3.3-2.3-4.7c-1-1.4-2.2-2.5-3.7-3.4c-1.5-0.8-3.1-1.3-5-1.3
		c-2.6,0-4.7,0.6-6.5,1.9c-1.7,1.3-3,2.7-3.7,4.4c-0.6,1.5-1.6,2.3-2.9,2.6c-1.3,0.3-2.5,0.1-3.7-0.5c-0.9-0.4-1.5-1.1-2-2.1
		c-0.5-1-0.4-2.2,0.1-3.4c1.4-3.2,3.7-5.9,7-8c3.2-2.1,7.2-3.1,11.9-3.1c3.1,0,5.9,0.6,8.4,1.8c2.5,1.2,4.7,2.8,6.5,4.9
		c1.8,2.1,3.3,4.6,4.3,7.4C195.5,72.6,196,75.6,196,78.9z"/>
	<path class="st2" d="M234.6,78.7c0,7.1-1.6,12.7-4.9,16.8c-3.3,4-7.8,6.1-13.5,6.1h-3.7c-2,0-3.7-0.3-5.2-1
		c-1.5-0.7-2.4-2.1-2.9-4.2l-6-22.9c-0.4-1.2-0.2-2.2,0.5-3c0.7-0.8,1.5-1.4,2.5-1.8c1.2-0.4,2.4-0.3,3.6,0.1
		c1.1,0.4,1.9,1.4,2.3,2.9l5.7,22.5h3.4c1.4,0,2.7-0.4,3.8-1.2c1.1-0.8,2.1-1.8,3-3.1c0.8-1.3,1.5-2.9,1.9-4.7
		c0.4-1.8,0.6-3.7,0.6-5.8c0-1.9-0.2-3.8-0.6-5.5c-0.4-1.7-1-3.2-1.9-4.5c-0.8-1.3-1.8-2.3-2.9-3.1c-1.1-0.8-2.3-1.2-3.7-1.2
		c-1.1,0-2.2,0.2-3.3,0.6c-1.1,0.4-2.1,0.6-2.8,0.6c-1.7,0-2.9-0.5-3.6-1.5c-0.7-1-1-2.2-0.9-3.5c0.1-1.3,1.2-2.5,3.1-3.6
		s4.2-1.6,6.9-1.6c2.5,0,4.9,0.4,7.1,1.3c2.2,0.9,4.2,2.3,5.9,4.1c1.7,1.9,3,4.2,4,7.1C234.1,71.4,234.6,74.8,234.6,78.7z"/>
	<path class="st2" d="M274.8,97.3c0,1.4-0.5,2.4-1.4,3.1c-0.9,0.7-1.9,1-3,1c-1.1,0-2.1-0.3-3-1c-0.9-0.7-1.4-1.7-1.4-3.1V71.8
		c0-2.5-0.8-4.6-2.3-6.1c-1.5-1.5-3.7-2.3-6.5-2.3s-5,0.8-6.5,2.3c-1.5,1.5-2.3,3.6-2.3,6.1v20.6h2.7c1.5,0,2.6,0.4,3.3,1.2
		c0.7,0.8,1.1,1.8,1.1,3c0,1-0.4,2-1.1,2.9c-0.7,0.9-1.8,1.4-3.3,1.4h-5.8c-1.9,0-3.3-0.5-4.3-1.5c-1-1-1.5-2.3-1.5-3.9V72.6
		c0-2.7,0.4-5,1.3-7.1c0.9-2.1,2.1-3.8,3.7-5.3c1.6-1.5,3.4-2.6,5.6-3.4c2.2-0.8,4.5-1.2,7-1.2c2.6,0,4.9,0.4,7.1,1.2
		c2.1,0.8,4,1.9,5.6,3.4c1.6,1.5,2.8,3.2,3.7,5.3c0.9,2.1,1.3,4.4,1.3,7.1V97.3z"/>
	<path class="st2" d="M274.8,114.2c0,1.3-0.3,2.5-0.9,3.4c-0.6,0.9-1.4,1.8-2.4,2.4c-1,0.7-2.1,1.1-3.4,1.4
		c-1.2,0.3-2.5,0.4-3.7,0.4c-1.3,0-2.5-0.1-3.7-0.4c-1.2-0.3-2.4-0.8-3.4-1.4c-1-0.7-1.8-1.5-2.4-2.4c-0.6-1-0.9-2.1-0.9-3.4v-1.5
		h-0.5c-1.5,0-2.6-0.4-3.3-1.2c-0.7-0.8-1.1-1.8-1.1-3c0-1.1,0.4-2.1,1.1-3c0.7-0.9,1.8-1.3,3.3-1.3h5c1.5,0,2.6,0.4,3.3,1.3
		c0.7,0.9,1.1,1.9,1.1,3v4.3c0,1.3,0.6,1.9,1.7,1.9c1.1,0,1.7-0.6,1.7-1.9V108c0-1.4,0.5-2.4,1.4-3.1c0.9-0.7,1.9-1,3-1
		c1.1,0,2.1,0.3,3,1c0.9,0.7,1.4,1.7,1.4,3.1V114.2z"/>
	<path class="st2" d="M352.7,55c0,1-0.3,2.4-1,4.2l-17.4,38.1c-1.7,3.5-3.6,5.2-5.6,5.2c-1.5,0-2.7-0.5-3.7-1.5
		c-1-1-1.5-2.2-1.5-3.7c0-0.7,0.1-1.5,0.4-2.3c0.3-0.8,0.6-1.7,1.1-2.7l16.1-33.8H325c-2.3,0-4.1-0.3-5.3-0.8
		c-1.2-0.5-1.8-1.8-1.8-3.7c0-3.3,2.1-4.9,6.3-4.9h20.7C350.1,49.2,352.7,51.1,352.7,55z"/>
	<path class="st2" d="M431.8,97.4c0,1.5-0.5,2.6-1.4,3.3s-1.9,1-3,1s-2.1-0.3-3-1s-1.4-1.8-1.4-3.3V73c0-3-0.9-5.4-2.7-7.1
		c-1.8-1.7-3.9-2.6-6.5-2.6c-2.1,0-3.9,0.4-5.3,1.3c-1.4,0.9-2.4,1.9-3,3.2c-0.1,0.3,0.1,0.6,0.4,1.1c0.3,0.4,0.7,0.9,1.2,1.3
		c0.4,0.4,0.9,0.9,1.3,1.3c0.4,0.4,0.6,0.9,0.6,1.2c0,0.3-0.2,0.7-0.6,1.1c-0.4,0.4-0.8,0.9-1.3,1.4c-0.5,0.5-0.9,1-1.3,1.6
		c-0.4,0.6-0.6,1.3-0.6,2v18.4c0,1.5-0.5,2.6-1.4,3.3s-1.9,1-3,1c-1.1,0-2.1-0.3-3-1s-1.4-1.8-1.4-3.3V78.4c0-0.6,0.2-1.2,0.6-1.7
		c0.4-0.5,0.8-1,1.2-1.4s0.8-0.8,1.2-1.1c0.4-0.3,0.6-0.5,0.6-0.7c0-0.1-0.2-0.4-0.6-0.6c-0.4-0.3-0.9-0.6-1.3-1
		c-0.5-0.4-0.9-0.9-1.3-1.3c-0.4-0.5-0.5-1-0.5-1.5c0.8-4.1,2.8-7.4,6.1-9.7c3.3-2.3,7.1-3.5,11.5-3.5c2.6,0,5,0.4,7.2,1.1
		c2.2,0.7,4.1,1.8,5.7,3.3c1.6,1.5,2.8,3.3,3.7,5.6c0.9,2.2,1.4,4.9,1.4,8V97.4z"/>
	<path class="st2" d="M432.4,47.7c0,1.2-0.4,2.2-1.1,3c-0.7,0.8-1.8,1.2-3.3,1.2h-25.1c-1.5,0-2.6-0.4-3.3-1.2
		c-0.7-0.8-1.1-1.8-1.1-3c0-1,0.4-2,1.1-2.9c0.7-0.9,1.8-1.4,3.3-1.4h25.1c1.5,0,2.6,0.5,3.3,1.4C432,45.7,432.4,46.6,432.4,47.7z"
		/>
	<path class="st2" d="M472.5,78.1c0,3.6-0.5,6.8-1.6,9.6c-1.1,2.8-2.4,5.2-4.2,7.2c-1.7,2-3.7,3.4-5.8,4.5c-2.2,1-4.4,1.5-6.6,1.5
		h-3.9c-2.4,0-3.9-1.1-4.3-3.4l-2.4-14.8h-0.9c-1.5,0-2.6-0.4-3.3-1.3c-0.7-0.8-1.1-1.8-1.1-2.9c0-1,0.4-2,1.1-2.9
		c0.7-0.9,1.8-1.3,3.3-1.3h4.4c2.4,0,3.9,1.1,4.3,3.3l2.4,14.9h0.4c1.3,0,2.5-0.4,3.6-1.2c1.1-0.8,2.1-1.8,2.9-3.1
		c0.8-1.3,1.4-2.9,1.9-4.6c0.5-1.8,0.7-3.6,0.7-5.5c0-1.9-0.2-3.7-0.6-5.4c-0.4-1.7-1.1-3.2-1.9-4.5c-0.8-1.3-1.9-2.4-3.1-3.2
		c-1.3-0.8-2.7-1.2-4.3-1.3c-2.4-0.1-4.4,0.3-6,1.4c-1.6,1.1-2.7,2.2-3.2,3.5c-0.5,1.3-1.3,2.2-2.4,2.7c-1.1,0.5-2.2,0.7-3.2,0.4
		c-1-0.3-1.9-0.9-2.6-1.7c-0.7-0.9-0.8-2-0.5-3.3c0.5-1.3,1.2-2.6,2.2-3.9c1-1.3,2.3-2.4,3.8-3.4c1.5-1,3.3-1.7,5.3-2.3
		c2-0.6,4.1-0.9,6.4-0.9c2.6,0,5,0.4,7.3,1.3c2.3,0.9,4.3,2.2,6.1,4c1.7,1.8,3.1,4.1,4.1,6.9C472,71,472.5,74.3,472.5,78.1z"/>
	<path class="st2" d="M512.7,97.4c0,1.5-0.5,2.6-1.4,3.3c-0.9,0.7-1.9,1-3,1c-1.1,0-2.1-0.3-3-1c-0.9-0.7-1.4-1.8-1.4-3.3V73
		c0-3-0.9-5.4-2.7-7.1c-1.8-1.7-3.9-2.6-6.5-2.6c-2.1,0-3.9,0.4-5.3,1.3c-1.4,0.9-2.4,1.9-3,3.2c-0.1,0.3,0.1,0.6,0.4,1.1
		c0.3,0.4,0.7,0.9,1.2,1.3c0.4,0.4,0.9,0.9,1.3,1.3c0.4,0.4,0.6,0.9,0.6,1.2c0,0.3-0.2,0.7-0.6,1.1c-0.4,0.4-0.8,0.9-1.3,1.4
		c-0.5,0.5-0.9,1-1.3,1.6c-0.4,0.6-0.6,1.3-0.6,2v18.4c0,1.5-0.5,2.6-1.4,3.3c-0.9,0.7-1.9,1-3,1c-1.1,0-2.1-0.3-3-1
		c-0.9-0.7-1.4-1.8-1.4-3.3V78.4c0-0.6,0.2-1.2,0.6-1.7c0.4-0.5,0.8-1,1.2-1.4c0.4-0.4,0.8-0.8,1.2-1.1c0.4-0.3,0.6-0.5,0.6-0.7
		c0-0.1-0.2-0.4-0.6-0.6c-0.4-0.3-0.9-0.6-1.3-1c-0.5-0.4-0.9-0.9-1.3-1.3c-0.4-0.5-0.5-1-0.5-1.5c0.8-4.1,2.8-7.4,6.1-9.7
		c3.3-2.3,7.1-3.5,11.5-3.5c2.6,0,5,0.4,7.2,1.1c2.2,0.7,4.1,1.8,5.7,3.3c1.6,1.5,2.8,3.3,3.7,5.6c0.9,2.2,1.4,4.9,1.4,8V97.4z"/>
	<path class="st2" d="M552,87c0,4.6-1.7,8.3-5,11c-3.4,2.7-7.7,4-12.9,4c-2.4,0-4.7-0.3-6.7-1c-2-0.6-3.8-1.5-5.2-2.7
		c-1.5-1.1-2.6-2.5-3.5-3.9c-0.8-1.5-1.4-3-1.5-4.5c-0.1-1.5,0.3-2.7,1.2-3.6c1-0.8,2.1-1.3,3.3-1.3c1.5,0,2.5,0.3,3.1,1
		c0.6,0.7,1,1.7,1.2,3c0.1,1.3,0.9,2.4,2.4,3.4c1.4,1,3.3,1.5,5.7,1.5c2.3,0,4.3-0.6,6.1-1.7c1.8-1.1,2.7-2.7,2.7-4.7
		c0-1.1-0.3-2-0.9-2.8c-0.6-0.7-1.4-1.4-2.4-1.9c-1-0.5-2-0.9-3.1-1.2c-1.1-0.3-2.1-0.5-3.1-0.6c-1.7-0.2-3.5-0.6-5.4-1
		c-1.9-0.5-3.6-1.2-5.1-2.1c-1.5-0.9-2.8-2.2-3.7-3.7c-1-1.5-1.4-3.5-1.3-5.9c0.1-1.8,0.6-3.4,1.5-5c0.9-1.5,2.1-2.9,3.5-4
		c1.4-1.1,3.1-2,5-2.7c1.9-0.7,3.9-1,6-1c3.5,0,6.7,0.6,9.6,1.8c2.9,1.2,5.1,3.2,6.5,6c0.7,1.4,0.8,2.6,0.2,3.7
		c-0.6,1.1-1.3,1.9-2.2,2.3c-1.3,0.6-2.4,0.7-3.5,0.3c-1.1-0.4-1.9-1.1-2.6-2.3c-0.6-1.2-1.7-2.1-3.2-2.7c-1.5-0.6-3.1-0.9-4.7-0.9
		c-1.5,0-3,0.4-4.5,1.1c-1.4,0.7-2.2,1.8-2.4,3.2c-0.1,0.9,0.2,1.7,0.7,2.3c0.5,0.6,1.3,1.1,2.2,1.5c0.9,0.4,1.9,0.6,2.9,0.8
		c1.1,0.1,2,0.3,2.9,0.4c1.9,0.2,3.8,0.6,5.7,1.2c1.9,0.6,3.6,1.3,5.2,2.4c1.5,1,2.8,2.4,3.8,4C551.5,82.5,552,84.6,552,87z"/>
	<path class="st2" d="M589.6,87c0,4.6-1.7,8.3-5,11c-3.4,2.7-7.7,4-12.9,4c-2.4,0-4.7-0.3-6.7-1s-3.8-1.5-5.2-2.7
		c-1.5-1.1-2.6-2.5-3.5-3.9c-0.8-1.5-1.4-3-1.5-4.5c-0.1-1.5,0.3-2.7,1.2-3.6c1-0.8,2.1-1.3,3.3-1.3c1.5,0,2.5,0.3,3.1,1
		c0.6,0.7,1,1.7,1.2,3c0.1,1.3,0.9,2.4,2.4,3.4c1.4,1,3.3,1.5,5.7,1.5c2.3,0,4.3-0.6,6.1-1.7c1.8-1.1,2.7-2.7,2.7-4.7
		c0-1.1-0.3-2-0.9-2.8c-0.6-0.7-1.4-1.4-2.4-1.9c-1-0.5-2-0.9-3.1-1.2c-1.1-0.3-2.1-0.5-3.1-0.6c-1.7-0.2-3.5-0.6-5.4-1
		c-1.9-0.5-3.6-1.2-5.1-2.1c-1.5-0.9-2.8-2.2-3.7-3.7c-1-1.5-1.4-3.5-1.3-5.9c0.1-1.8,0.6-3.4,1.5-5c0.9-1.5,2.1-2.9,3.5-4
		c1.4-1.1,3.1-2,5-2.7c1.9-0.7,3.9-1,6-1c3.5,0,6.7,0.6,9.6,1.8c2.9,1.2,5.1,3.2,6.5,6c0.7,1.4,0.8,2.6,0.2,3.7
		c-0.6,1.1-1.3,1.9-2.2,2.3c-1.3,0.6-2.4,0.7-3.5,0.3c-1.1-0.4-1.9-1.1-2.6-2.3c-0.6-1.2-1.7-2.1-3.2-2.7c-1.5-0.6-3.1-0.9-4.7-0.9
		c-1.5,0-3,0.4-4.5,1.1c-1.4,0.7-2.2,1.8-2.4,3.2c-0.1,0.9,0.2,1.7,0.7,2.3c0.5,0.6,1.3,1.1,2.2,1.5c0.9,0.4,1.9,0.6,2.9,0.8
		c1.1,0.1,2,0.3,2.9,0.4c1.9,0.2,3.8,0.6,5.7,1.2c1.9,0.6,3.6,1.3,5.2,2.4c1.5,1,2.8,2.4,3.8,4C589.1,82.5,589.6,84.6,589.6,87z"/>
	<path class="st2" d="M631.4,84.3c0,3.2-0.4,5.8-1.3,8s-2,4-3.4,5.4c-1.4,1.4-3.1,2.4-5,3.1c-1.9,0.6-3.8,1-5.9,1
		c-3.9,0-7.4-1.3-10.4-3.8c-0.6,1-1.5,1.9-2.6,2.6c-1.2,0.7-2.5,1-4,1c-2,0-3.7-0.6-5.1-1.9c-1.4-1.2-2.2-2.7-2.2-4.4
		c0-1.3,0.4-2.4,1.3-3.5c0.8-1.1,1.9-1.9,3.3-2.4V60.1c0-1.4,0.5-2.4,1.4-3.1c0.9-0.7,1.9-1,3-1s2.1,0.3,3,1
		c0.9,0.7,1.4,1.7,1.4,3.1v24.6c0,1.5,0.3,2.9,0.9,4c0.6,1.1,1.4,2.1,2.3,2.9c1,0.8,2,1.4,3.1,1.8c1.1,0.4,2.2,0.6,3.3,0.6
		c3,0,5.1-0.9,6.3-2.6c1.2-1.8,1.8-4.3,1.8-7.6V60.1c0-1.4,0.5-2.4,1.4-3.1s1.9-1,3-1c1.1,0,2.1,0.3,3,1s1.4,1.7,1.4,3.1V84.3z"/>
	<path class="st2" d="M677.7,78.9c0,3.3-0.5,6.3-1.5,9.1c-1,2.8-2.4,5.3-4.3,7.4c-1.8,2.1-4,3.7-6.6,4.9c-2.6,1.2-5.5,1.7-8.7,1.7
		c-2.9,0-5.5-0.5-7.9-1.5c-2.4-1-4.5-2.3-6.2-4c-1.8-1.7-3.2-3.6-4.4-5.8c-1.1-2.2-1.9-4.6-2.2-7.1c-0.5-2.8-0.1-5,1.2-6.6
		c1.3-1.5,3-2.3,5.1-2.3h9.4c1.4,0,2.4,0.5,3.1,1.4s1,1.9,1,3c0,1.1-0.3,2.1-1,3c-0.7,0.9-1.7,1.4-3.1,1.4h-6.2
		c0.6,2.8,1.8,5.2,3.7,7.2c1.9,2,4.4,3,7.5,3c1.9,0,3.6-0.4,5.1-1.3c1.5-0.8,2.7-1.9,3.7-3.3c1-1.4,1.7-2.9,2.3-4.7
		c0.5-1.8,0.8-3.7,0.8-5.6c0-1.9-0.3-3.7-0.8-5.5c-0.6-1.8-1.3-3.3-2.3-4.7s-2.2-2.5-3.7-3.4c-1.5-0.8-3.1-1.3-5-1.3
		c-2.6,0-4.7,0.6-6.5,1.9c-1.7,1.3-3,2.7-3.7,4.4c-0.6,1.5-1.6,2.3-2.9,2.6c-1.3,0.3-2.5,0.1-3.7-0.5c-0.9-0.4-1.5-1.1-2-2.1
		c-0.4-1-0.4-2.2,0.1-3.4c1.4-3.2,3.7-5.9,7-8c3.2-2.1,7.2-3.1,11.9-3.1c3.1,0,5.9,0.6,8.4,1.8c2.5,1.2,4.7,2.8,6.5,4.9
		c1.8,2.1,3.3,4.6,4.3,7.4C677.2,72.6,677.7,75.6,677.7,78.9z"/>
	<path class="st2" d="M687.9,47.7c0,1.2-0.4,2.2-1.1,3s-1.8,1.2-3.3,1.2h-21.3c-2.1,0-3.7-0.6-5-1.8c-1.2-1.2-1.9-2.7-1.9-4.4
		c0-1.7,0.6-3.1,1.9-4.4c1.2-1.2,2.9-1.8,5-1.8c1.5,0,2.9,0.4,4,1.1c1.1,0.7,1.9,1.7,2.3,2.8h14.9c1.5,0,2.6,0.5,3.3,1.4
		C687.5,45.7,687.9,46.6,687.9,47.7z"/>
	<path class="st2" d="M722.5,95.3c0,1.7-0.7,3.1-2.2,4.4c-1.4,1.2-3.1,1.9-5.1,1.9c-1.5,0-2.8-0.3-4-1c-1.2-0.7-2.1-1.6-2.6-2.6
		c-3,2.5-6.5,3.8-10.5,3.8c-2,0-4-0.3-5.9-1c-1.9-0.6-3.5-1.7-4.9-3.1s-2.5-3.2-3.4-5.4s-1.3-4.9-1.3-8V60.1c0-1.4,0.5-2.4,1.4-3.1
		s1.9-1,3-1c1.1,0,2.1,0.3,3,1s1.4,1.7,1.4,3.1v23.6c0,3.3,0.6,5.8,1.8,7.6c1.2,1.8,3.3,2.6,6.3,2.6c1.1,0,2.2-0.2,3.3-0.6
		c1.1-0.4,2.1-1,3.1-1.8c1-0.8,1.7-1.7,2.3-2.9c0.6-1.1,0.9-2.5,0.9-4V60.1c0-1.4,0.5-2.4,1.4-3.1s1.9-1,3-1c1.1,0,2.1,0.3,3,1
		s1.4,1.7,1.4,3.1v29.3c1.3,0.5,2.4,1.3,3.3,2.4C722,92.9,722.5,94.1,722.5,95.3z"/>
	<path class="st2" d="M761.5,97.3c0,1.4-0.5,2.4-1.4,3.1s-1.9,1-3,1s-2.1-0.3-3-1s-1.4-1.7-1.4-3.1V70.8c0-2.9-0.9-5.1-2.6-6.5
		l-2.9,2.5c-0.5,0.4-1,0.8-1.6,1.3c-0.6,0.5-1.2,0.7-1.8,0.7c-0.7,0-1.3-0.2-1.9-0.7c-0.5-0.5-1-0.9-1.4-1.3l-2.9-2.5
		c-1.8,1.4-2.6,3.6-2.6,6.5v21.6h2.7c1.5,0,2.6,0.4,3.3,1.2s1.1,1.8,1.1,3c0,1-0.4,2-1.1,2.9s-1.8,1.4-3.3,1.4h-5.8
		c-1.9,0-3.3-0.5-4.3-1.5c-1-1-1.5-2.3-1.5-3.9V69.8c0-2.3,0.4-4.4,1.1-6.1s1.7-3.2,2.8-4.4c1.1-1.2,2.3-2.1,3.7-2.7
		s2.6-0.9,3.8-0.9c1,0,2,0.2,2.8,0.7c0.8,0.5,1.7,1.1,2.6,1.9l0.9,0.8l0.9-0.8c0.9-0.8,1.7-1.4,2.6-1.9c0.8-0.5,1.8-0.7,2.8-0.7
		c1.3,0,2.5,0.3,3.8,0.9s2.5,1.5,3.6,2.7c1.1,1.2,2,2.7,2.8,4.4s1.1,3.8,1.1,6.1V97.3z"/>
	<path class="st2" d="M800.7,87c0,4.6-1.7,8.3-5,11c-3.4,2.7-7.7,4-12.9,4c-2.4,0-4.7-0.3-6.7-1s-3.8-1.5-5.2-2.7
		c-1.5-1.1-2.6-2.5-3.5-3.9c-0.8-1.5-1.4-3-1.5-4.5c-0.1-1.5,0.3-2.7,1.2-3.6c1-0.8,2.1-1.3,3.3-1.3c1.5,0,2.5,0.3,3.1,1
		c0.6,0.7,1,1.7,1.2,3c0.1,1.3,0.9,2.4,2.4,3.4c1.4,1,3.3,1.5,5.7,1.5c2.3,0,4.3-0.6,6.1-1.7c1.8-1.1,2.7-2.7,2.7-4.7
		c0-1.1-0.3-2-0.9-2.8c-0.6-0.7-1.4-1.4-2.4-1.9c-1-0.5-2-0.9-3.1-1.2c-1.1-0.3-2.1-0.5-3.1-0.6c-1.7-0.2-3.5-0.6-5.4-1
		c-1.9-0.5-3.6-1.2-5.1-2.1c-1.5-0.9-2.8-2.2-3.7-3.7c-1-1.5-1.4-3.5-1.3-5.9c0.1-1.8,0.6-3.4,1.5-5c0.9-1.5,2.1-2.9,3.5-4
		c1.4-1.1,3.1-2,5-2.7c1.9-0.7,3.9-1,6-1c3.5,0,6.7,0.6,9.6,1.8c2.9,1.2,5.1,3.2,6.5,6c0.7,1.4,0.8,2.6,0.2,3.7
		c-0.6,1.1-1.3,1.9-2.2,2.3c-1.3,0.6-2.4,0.7-3.5,0.3c-1.1-0.4-1.9-1.1-2.6-2.3c-0.6-1.2-1.7-2.1-3.2-2.7c-1.5-0.6-3.1-0.9-4.7-0.9
		c-1.5,0-3,0.4-4.5,1.1c-1.4,0.7-2.2,1.8-2.4,3.2c-0.1,0.9,0.2,1.7,0.7,2.3c0.5,0.6,1.3,1.1,2.2,1.5c0.9,0.4,1.9,0.6,2.9,0.8
		c1.1,0.1,2,0.3,2.9,0.4c1.9,0.2,3.8,0.6,5.7,1.2c1.9,0.6,3.6,1.3,5.2,2.4c1.5,1,2.8,2.4,3.8,4C800.2,82.5,800.7,84.6,800.7,87z"/>
	<path class="st2" d="M828.5,97.6c0,1.5-0.4,2.6-1.3,3.3s-1.9,1.1-2.9,1.1c-1.1,0-2.1-0.4-3.1-1.1s-1.4-1.8-1.4-3.3V71.9
		c0-2-0.6-3.7-1.8-5.1c-1.2-1.4-2.8-2.1-4.7-2.1c-1,0-1.7,0.1-2.3,0.3c-0.6,0.2-1,0.4-1.4,0.5c-1.5,0.8-2.9,0.9-4,0.4
		c-1.1-0.5-1.9-1.3-2.4-2.3c-0.4-1-0.5-2-0.2-3.1c0.3-1.1,1.1-2,2.4-2.8c0.7-0.4,1.6-0.8,2.9-1.2c1.2-0.4,2.9-0.7,5-0.7
		c2.2,0,4.2,0.4,6.1,1.1c1.9,0.7,3.5,1.8,4.8,3.1c1.3,1.4,2.4,3,3.2,4.9c0.8,1.9,1.2,4,1.2,6.3V97.6z"/>
	<path class="st2" d="M869.3,85.2c0,2.7-0.4,5-1.3,7.1c-0.9,2.1-2.1,3.8-3.7,5.3s-3.4,2.6-5.6,3.3s-4.5,1.2-7,1.2
		c-2.5,0-4.9-0.4-7.1-1.2c-2.2-0.8-4.2-1.9-5.8-3.4c-1.6-1.5-2.8-3.2-3.7-5.3c-0.8-2.1-1.2-4.4-1-7c0.1-2.3,0.8-4.2,2.1-5.6
		s2.5-2.4,3.9-3.1c-1.7-0.8-3.1-2-4.2-3.8c-1.2-1.7-1.7-3.9-1.7-6.5c0-1.3,0.2-2.5,0.7-3.7c0.4-1.2,1.1-2.3,1.9-3.2
		c0.8-0.9,1.8-1.7,3.1-2.2c1.2-0.6,2.6-0.9,4.2-0.9c1.7,0,3.1,0.4,4.2,1.3c1.1,0.9,1.7,2,1.7,3.3c0,1.4-0.4,2.5-1.2,3.3
		c-0.8,0.7-1.8,1-3.1,0.9c-0.8-0.1-1.4,0.2-1.8,0.9c-0.5,0.7-0.6,1.6-0.5,2.4c0.1,1,0.7,1.9,1.5,2.6c0.9,0.7,1.9,1.1,3.1,1.1h2.1
		c1.7,0,2.8,0.5,3.5,1.4c0.6,0.9,0.9,1.9,0.9,2.9c0,1.2-0.4,2.2-1.2,3c-0.8,0.8-1.9,1.2-3.4,1.2c-0.8,0-1.5,0.1-2.3,0.3
		c-0.8,0.2-1.5,0.6-2.2,1s-1.2,1.1-1.6,1.8c-0.4,0.7-0.6,1.6-0.6,2.6c-0.1,2.2,0.7,4.1,2.3,5.7s3.8,2.4,6.6,2.4
		c2.8,0,4.9-0.8,6.5-2.3c1.5-1.5,2.3-3.6,2.3-6.2V60.2c0-1.4,0.5-2.4,1.4-3.1c0.9-0.7,1.9-1,3-1c1.1,0,2.1,0.3,3,1s1.4,1.7,1.4,3.1
		V85.2z"/>
</g>
</svg>
