<?xml version="1.0" encoding="utf-8"?>
<!-- Generator: Adobe Illustrator 22.1.0, SVG Export Plug-In . SVG Version: 6.00 Build 0)  -->
<svg version="1.1" id="Layer_1" xmlns="http://www.w3.org/2000/svg" xmlns:xlink="http://www.w3.org/1999/xlink" x="0px" y="0px"
	 viewBox="0 0 178.1 102.7" style="enable-background:new 0 0 178.1 102.7;" xml:space="preserve">
<style type="text/css">
	.st0{fill:#B50029;}
	.st1{fill:#FF0029;}
	.st2{fill:#F9C7DD;}
	.st3{fill:#FFFFFF;}
</style>
<title>Asset 88</title>
<g id="Layer_2_1_">
	<g id="Layer_4">
		<path class="st0" d="M51.3,0h75.5c28.3,0,51.3,23,51.3,51.3l0,0c0,28.3-23,51.3-51.3,51.3H51.3C23,102.7,0,79.7,0,51.3l0,0
			C0,23,23,0,51.3,0z"/>
		<path class="st1" d="M51,0h76.2c25.8,0,46.6,20.9,46.6,46.6l0,0c0,25.8-20.9,46.6-46.6,46.6H51c-25.8,0-46.6-20.9-46.6-46.6l0,0
			C4.4,20.9,25.2,0,51,0z"/>
		<path class="st2" d="M27,27.2c4.6,0,6.8,4.7,4.9,8.3c-2.3,4.4-3.3,9.3-3.1,14.3c0.3,4.9,1.4,9.7,3.1,14.4c0.7,2.1,1,3.6-0.7,5.4
			c-1.1,1.3-2.6,2-4.3,2c-7.3,0-8.3-11-8.5-16.1c-0.4-6.2,0-12.5,1.1-18.5C20.3,32.9,21.7,27.2,27,27.2z"/>
		<path class="st2" d="M34.8,20.2L34.8,20.2c-3.2,0-5.7-2.6-5.7-5.7l0,0c0-3.2,2.6-5.7,5.7-5.7l0,0c3.2,0,5.7,2.6,5.7,5.7l0,0
			C40.5,17.6,37.9,20.2,34.8,20.2z"/>
		<g>
			<path class="st3" d="M62,55.7c0,1.9-0.4,3.7-1.1,5.3c-0.7,1.6-1.7,3-3,4.2c-1.3,1.2-2.9,2.1-4.8,2.7c-1.9,0.7-4,1-6.3,1
				c-1.8,0-3.4-0.2-4.9-0.5c-1.5-0.3-2.8-0.7-3.9-1.3c-1.1-0.5-2-1.2-2.6-1.9c-0.7-0.7-1-1.5-1-2.3c0-1.1,0.4-1.9,1.1-2.6
				c0.7-0.7,1.7-1,2.8-1c0.6,0,1.3,0.1,2.1,0.4c0.7,0.2,1.5,0.5,2.3,0.7c0.8,0.2,1.7,0.5,2.6,0.7c0.9,0.2,1.9,0.3,2.9,0.3
				c1.5,0,2.7-0.5,3.7-1.4c1-1,1.5-2.1,1.5-3.5c0-1.8-0.7-3.2-2-4c-1.3-0.8-3.2-1.6-5.7-2.4C44,49.7,42.4,49,41,48.4
				c-1.4-0.7-2.5-1.4-3.4-2.3c-0.9-0.8-1.6-1.8-2-2.9c-0.5-1.1-0.7-2.4-0.7-3.9c0-1.8,0.3-3.5,1-5c0.7-1.5,1.6-2.8,2.8-3.9
				c1.2-1.1,2.7-2,4.5-2.6c1.7-0.6,3.7-0.9,5.8-0.9c3.1,0,5.6,0.5,7.5,1.6c1.9,1.1,2.8,2.3,2.8,3.9c0,1-0.3,1.8-0.9,2.3
				c-0.6,0.6-1.5,0.9-2.6,0.9c-1.1,0-2.3-0.2-3.6-0.7c-1.2-0.5-2.5-0.7-3.7-0.7c-1.7,0-3,0.4-3.9,1.2c-0.9,0.8-1.3,1.8-1.3,3
				c0,0.8,0.2,1.5,0.5,2c0.3,0.5,0.9,1,1.5,1.4c0.7,0.4,1.5,0.8,2.4,1.1c1,0.3,2.1,0.7,3.3,1.1c3.6,1.2,6.3,2.7,8.1,4.6
				C61.1,50.3,62,52.7,62,55.7z"/>
			<path class="st3" d="M97.7,64.7c0,1.1-0.4,2-1.1,2.6c-0.7,0.7-1.7,1-2.8,1c-2.1,0-3.5-1.4-4.2-4.1l-1.3-4.2H72.2l-1.5,4.6
				c-0.3,1.1-0.8,2-1.5,2.7c-0.7,0.7-1.4,1-2.3,1c-1.1,0-2-0.4-2.7-1.1c-0.7-0.7-1-1.6-1-2.6c0-1,0.1-1.8,0.3-2.4l10.6-29.3
				c0.7-1.8,1.6-3.2,2.6-4.2c1-1,2.3-1.5,3.9-1.5c2.8,0,4.9,1.7,6.1,5l10.4,29.5c0.2,0.6,0.3,1.1,0.4,1.6
				C97.7,63.9,97.7,64.4,97.7,64.7z M80.5,34.3l-6.2,18.5h11.8L80.5,34.3z"/>
			<path class="st3" d="M127.6,31.1c0,0.8-0.2,1.8-0.7,3.1l-11.8,31c-0.6,1.2-1.1,2.1-1.7,2.6c-0.6,0.5-1.4,0.7-2.4,0.7
				c-1,0-1.7-0.2-2.3-0.7c-0.5-0.5-1-1.2-1.5-2.3L94.7,34c-0.3-0.9-0.4-1.6-0.4-2.4c0-1.1,0.4-2.1,1.2-2.9c0.8-0.8,1.8-1.2,3-1.2
				c0.9,0,1.6,0.3,2.1,0.9c0.5,0.6,1,1.5,1.5,2.7l9.3,25.5l8.5-25c0.4-1.4,0.9-2.5,1.5-3.1c0.5-0.6,1.3-0.9,2.4-0.9
				c1.2,0,2.1,0.3,2.8,1C127.2,29.1,127.6,30,127.6,31.1z"/>
			<path class="st3" d="M152.5,64.2c0,1.3-0.5,2.2-1.5,2.8c-1,0.5-2.4,0.8-4.4,0.8h-10.9c-2.2,0-3.6-0.4-4.4-1.1
				c-0.8-0.7-1.1-2.1-1.1-4.1V33.8c0-2,0.4-3.5,1.1-4.4c0.7-1,2.2-1.5,4.5-1.5h10.5c1.9,0,3.3,0.3,4.4,0.9c1,0.6,1.5,1.5,1.5,2.8
				c0,1.4-0.5,2.3-1.5,2.8c-1,0.5-2.5,0.8-4.4,0.8h-8.3V44h7.2c4,0,5.9,1.2,5.9,3.7c0,1.3-0.5,2.2-1.5,2.8c-1,0.5-2.5,0.8-4.4,0.8
				h-7.2v9.2h8.6c2,0,3.5,0.3,4.4,0.9C152.1,61.9,152.5,62.9,152.5,64.2z"/>
		</g>
	</g>
</g>
</svg>
