<?xml version="1.0" encoding="utf-8"?>
<!-- Generator: Adobe Illustrator 22.1.0, SVG Export Plug-In . SVG Version: 6.00 Build 0)  -->
<svg version="1.1" id="Layer_1" xmlns="http://www.w3.org/2000/svg" xmlns:xlink="http://www.w3.org/1999/xlink" x="0px" y="0px"
	 viewBox="0 0 1251.7 756.8" style="enable-background:new 0 0 1251.7 756.8;" xml:space="preserve">
<style type="text/css">
	.st0{opacity:0.58;fill:#8A8C8E;}
	.st1{opacity:0.58;fill:#757779;}
	.st2{fill:#AFCDDC;}
	.st3{fill:#E9F7FE;}
	.st4{fill:#757779;}
	.st5{fill:#97C0D3;}
</style>
<path class="st0" d="M910.4,361.1c8.9,13.3,27.8,18.9,33.4,33.9c4.3,11.6-0.9,24.5-0.1,36.8c1.1,16.8,13.7,31.1,28.6,39
	c14.9,7.9,31.9,10.5,48.5,13c9,1.4,19.3,2.4,26.3-3.4c3.4-2.8,5.7-7,9.7-8.9c5.9-2.7,12.7,0.8,18.3,4c25.6,14.9,53,26.7,81.4,35.1
	c5.2,1.5,10.8,3,15.9,1c4.9-1.9,8.2-6.5,10.6-11.2c14.1-28.2,3.6-61.7-5.1-92c-8.7-30.3-14.1-66.6,6.8-90.1
	c9.8-11,23.8-17.2,35.7-25.9c11.9-8.8,22.3-22.7,19.3-37.1c-3.4-16.7-22.1-24.7-38.2-30.1c-17-5.7-34-11.3-51-17
	c-10.5-3.5-22.3-7-32.4-2.3c-7.2,3.4-12.4,10.5-20.1,12.5c-10.4,2.8-20.4-4.7-29.7-10.2c-19.6-11.6-43.6-15.4-65.7-10.4
	c-28,29.7,29.3,85.2-20.1,98.9c-21.6,6-42.6-2.3-61.6,15C907.8,323.7,899.7,345.1,910.4,361.1z"/>
<path class="st0" d="M28.3,516.9c-4.1-22.3,6.2-46.6,25-59.2c4.8-3.2,10.2-5.8,13.5-10.4c7.5-10.5,1-24.7-3-36.9
	c-7-21.7-4.9-46.8,8.1-65.5s37.2-29.8,59.5-24.9c-1.2-31.5,14.5-63,40.2-81.2s60.7-22.4,89.9-10.8c6.3,2.5,12.8,5.7,19.4,4.5
	c7-1.2,12.3-7.1,16.6-12.8c17.5-22.8,30.9-48.8,50.6-69.8s48.1-37,76.3-31.6c19.3,3.7,37.9,17.1,57,12.3c14.5-3.6,24.4-16.6,33-28.8
	c11.1-15.5,22.1-31.1,33.2-46.6C566.3,29.1,590.4,0,622.5,1.1c16.7,0.6,32,9.6,44.9,20.2C688.2,38.4,705,60.4,715.9,85
	c8.8,19.8,15.1,42.9,33.2,54.9c27.1,18.1,62.6,1.4,94.6-4.3c7.5-1.3,15.8-1.9,22.4,2c12.5,7.4,11.6,26.8,3.4,38.8
	c-8.2,12.1-21.2,19.9-30.9,30.8s-15.6,28.1-6.8,39.7c9.2,12.2,27.4,10.6,42.6,9.6c15.2-1,34.7,3.2,37.4,18.2
	c1.3,7.1-2.1,14.2-6,20.2c-25.9,39.2-78.5,51.5-125.4,48.7c-5.7-0.3-11.9-0.7-16.7,2.3c-4.9,3-7.2,8.8-8.5,14.4
	c-5.5,23.9,3.3,50.3-6.3,72.9c-11.1,26.1-43.2,37-71.5,35.1s-55-13.1-82.9-18.4c-6.6-1.3-13.8-2.1-19.9,0.8
	c-11.3,5.4-13.5,20.1-17.5,32c-15.3,45.6-71.8,62.8-119.8,59.9s-95.6-19.1-143.2-12.5c-28.3,3.9-54.8,15.7-82.5,22.7
	C162.9,565.1,41.4,587.8,28.3,516.9z"/>
<path class="st1" d="M52.8,507.3c-3.3-18.1,5-37.8,20.3-48c3.9-2.6,8.2-4.7,10.9-8.5c6.1-8.5,0.8-20-2.4-30
	c-5.7-17.6-3.9-37.9,6.6-53.1s30.2-24.2,48.3-20.2c-0.9-25.5,11.7-51.1,32.6-65.9c20.9-14.7,49.2-18.1,73-8.8
	c5.1,2,10.4,4.6,15.8,3.7c5.7-1,9.9-5.8,13.5-10.4c14.2-18.5,25.1-39.6,41-56.6c15.9-17,39-30,61.9-25.6c15.7,3,30.7,13.9,46.2,10
	c11.8-2.9,19.8-13.5,26.8-23.4c9-12.6,17.9-25.2,26.9-37.8c15.1-21.3,34.7-44.9,60.8-44c13.6,0.4,26,7.8,36.4,16.4
	c16.9,13.9,30.4,31.7,39.3,51.7c7.2,16.1,12.2,34.8,26.9,44.5c22,14.6,50.8,1.1,76.8-3.5c6.1-1.1,12.8-1.6,18.2,1.6
	c10.2,6,9.4,21.7,2.8,31.5s-17.2,16.1-25.1,25c-7.9,8.8-12.7,22.8-5.5,32.2c7.4,9.9,22.2,8.6,34.5,7.8c12.3-0.8,28.2,2.6,30.3,14.7
	c1,5.8-1.7,11.5-4.9,16.4c-21,31.8-63.7,41.8-101.7,39.5c-4.6-0.3-9.6-0.6-13.6,1.9c-3.9,2.5-5.9,7.2-6.9,11.7
	c-4.5,19.4,2.7,40.8-5.1,59.2c-9,21.1-35.1,30-58,28.5S534.6,457.3,512,453c-5.4-1-11.2-1.7-16.2,0.6c-9.2,4.3-10.9,16.3-14.2,25.9
	c-12.4,37-58.3,51-97.2,48.6c-38.9-2.4-77.5-15.5-116.2-10.1c-22.9,3.2-44.5,12.7-66.9,18.4C161.9,546.4,63.4,564.8,52.8,507.3z"/>
<rect x="159.4" y="393.3" class="st2" width="217.5" height="362.5"/>
<rect x="71.1" y="529.2" class="st3" width="142.7" height="226.6"/>
<rect x="487.7" y="407.3" class="st2" width="161.2" height="348.5"/>
<rect x="1006.5" y="461.9" class="st3" width="205.9" height="293.8"/>
<rect x="867.1" y="407.3" class="st2" width="161.2" height="348.5"/>
<rect x="924.3" y="539.4" class="st4" width="46.9" height="46.9"/>
<rect x="922.7" y="641.1" class="st4" width="46.9" height="46.9"/>
<rect x="302.1" y="477" class="st5" width="217.5" height="278.8"/>
<rect x="623.9" y="559.8" class="st3" width="323.8" height="195.9"/>
<rect x="184.4" y="421.8" class="st4" width="36.4" height="36.4"/>
<rect x="556.2" y="450.6" class="st4" width="36.4" height="36.4"/>
<rect x="556.2" y="532.7" class="st4" width="36.4" height="36.4"/>
<rect x="556.2" y="614.7" class="st4" width="36.4" height="36.4"/>
<rect x="556.2" y="693.2" class="st4" width="36.4" height="36.4"/>
<rect x="246.2" y="454.1" class="st4" width="29.5" height="29.5"/>
<rect x="319.9" y="407.3" class="st4" width="46.9" height="46.9"/>
<rect x="657.3" y="585.4" class="st4" width="46.9" height="46.9"/>
<rect x="657.3" y="664.5" class="st4" width="46.9" height="46.9"/>
<rect x="882" y="664.5" class="st4" width="46.9" height="46.9"/>
<rect x="769.7" y="664.5" class="st4" width="46.9" height="46.9"/>
<rect x="882" y="585.4" class="st4" width="46.9" height="46.9"/>
<rect x="769.7" y="585.4" class="st4" width="46.9" height="46.9"/>
<rect x="924.3" y="445.4" class="st4" width="46.9" height="46.9"/>
<rect x="226.8" y="538.9" class="st4" width="24" height="24"/>
<rect x="260.9" y="605.2" class="st4" width="26.7" height="26.7"/>
<rect x="231.2" y="678.7" class="st4" width="35.8" height="18.4"/>
<rect x="89.5" y="547.3" class="st4" width="23.4" height="23.4"/>
<rect x="172.7" y="547.3" class="st4" width="23.4" height="23.4"/>
<rect x="130.7" y="581.5" class="st4" width="23.4" height="23.4"/>
<rect x="89.5" y="620.2" class="st4" width="23.4" height="23.4"/>
<rect x="331.6" y="502.7" class="st4" width="23.4" height="23.4"/>
<rect x="331.6" y="575.6" class="st4" width="23.4" height="23.4"/>
<rect x="399.2" y="502.7" class="st4" width="23.4" height="23.4"/>
<rect x="399.2" y="575.6" class="st4" width="23.4" height="23.4"/>
<rect x="458" y="502.7" class="st4" width="23.4" height="23.4"/>
<rect x="458" y="575.6" class="st4" width="23.4" height="23.4"/>
<rect x="331.6" y="644.8" class="st4" width="23.4" height="23.4"/>
<rect x="331.6" y="712.7" class="st4" width="23.4" height="23.4"/>
<rect x="399.2" y="644.8" class="st4" width="23.4" height="23.4"/>
<rect x="399.2" y="712.7" class="st4" width="23.4" height="23.4"/>
<rect x="458" y="644.8" class="st4" width="23.4" height="23.4"/>
<rect x="458" y="712.7" class="st4" width="23.4" height="23.4"/>
<rect x="1051.9" y="575.6" class="st4" width="23.4" height="23.4"/>
<rect x="1119.4" y="502.7" class="st4" width="23.4" height="23.4"/>
<rect x="1119.4" y="575.6" class="st4" width="23.4" height="23.4"/>
<rect x="1119.4" y="644.8" class="st4" width="23.4" height="23.4"/>
<rect x="1178.2" y="644.8" class="st4" width="23.4" height="23.4"/>
<rect x="1178.2" y="712.7" class="st4" width="23.4" height="23.4"/>
<rect x="172.7" y="620.2" class="st4" width="23.4" height="23.4"/>
<rect x="130.7" y="654.4" class="st4" width="23.4" height="23.4"/>
<rect x="89.5" y="687.9" class="st4" width="23.4" height="23.4"/>
<rect x="172.7" y="687.9" class="st4" width="23.4" height="23.4"/>
<rect x="130.7" y="722.1" class="st4" width="23.4" height="23.4"/>
</svg>
