<?xml version="1.0" encoding="utf-8"?>
<!-- Generator: Adobe Illustrator 22.1.0, SVG Export Plug-In . SVG Version: 6.00 Build 0)  -->
<svg version="1.1" id="Layer_1" xmlns="http://www.w3.org/2000/svg" xmlns:xlink="http://www.w3.org/1999/xlink" x="0px" y="0px"
	 viewBox="0 0 1112.4 871" style="enable-background:new 0 0 1112.4 871;" xml:space="preserve">
<style type="text/css">
	.st0{fill:#73A9CA;}
	.st1{fill:#FF9E9B;}
	.st2{fill:#3D8763;}
	.st3{fill:#FFB81B;}
	.st4{fill:#2D6849;}
</style>
<title>Asset 74</title>
<path class="st0" d="M9,447.2v268.4c0,0-59.5,103.4,126.5,79.6c32.9-4.2,72.5-1.5,98.4,19.2c5.2,4.2,9.6,9.2,15.3,12.8
	c8.2,5.1,18.4,7.1,28.3,5.5c5.7-0.9,11-3,16.4-4.8c51.4-17.4,98.5,15.1,152.9,13.3c33.4-1.2,65.8-9.4,96.3-21
	c31.8-12.1,47.6-28.3,84.2-20c11.1,2.5,25,5.8,32.4-1.7c8.9-9,4.3-21.3,15.7-30c11.9-9.1,20.2-5.8,33.6-4.2
	c32.1,3.9,62,18.6,94.1,20.8c8.4,0.6,17.2,0.4,25.2-2c7.1-2.1,13.4-5.9,20.1-8.9c49.9-22.4,100.1-13.6,152.1-5.4
	c21.6,3.4,45.7,3.6,63.5-7.6c13.2-8.3,15.9-20.9,26.1-30.7c6.5-6.2,15.6-9.6,23.1-14.9V447.2H9z"/>
<rect class="st1" width="1112" height="730.8"/>
<rect x="358.9" y="108.6" class="st2" width="389.8" height="621.9"/>
<circle class="st3" cx="680.3" cy="505.5" r="28.8"/>
<polygon class="st4" points="422.2,590 684.5,590 696.8,619.2 407.1,619.2 "/>
<polygon class="st4" points="422.2,629.6 684.5,629.6 696.8,658.8 407.1,658.8 "/>
<polygon class="st4" points="422.2,669.2 684.5,669.2 696.8,698.5 407.1,698.5 "/>
<rect x="457.1" y="207.7" class="st4" width="83.1" height="122.7"/>
<rect x="560.9" y="207.7" class="st4" width="83" height="122.7"/>
<rect x="457.1" y="354" class="st4" width="83.1" height="122.7"/>
<rect x="560.9" y="354" class="st4" width="83" height="122.7"/>
</svg>
